ISO-10303-21;
HEADER;
/*Generated by software containing ST-Developer
 * from STEP Tools, Inc. (www.steptools.com) 
 */
/*OPTION: using custom renumber hook */
/*description */
/*implementation_level */
FILE_DESCRIPTION(('STEP AP242 Edition 2','STEP AP242 Edition 2''CAx-IF Rec.Pracs.---Representation and Presentation of Product Manufa
cturing Information (PMI)---4.0---2014-10-13','STEP AP242 Edition 2''CAx-IF Rec.Pracs.---Representation and Presentation of Product Manufa
cturing Information (PMI)---4.0---2014-10-13''CAx-IF Rec.Pracs.---3D Tessellated Geometry---0.4---2014-09-14','STEP AP242 Edition 2''CAx-IF Rec.Pracs.---Representation and Presentation of Product Manufa
cturing Information (PMI)---4.0---2014-10-13''CAx-IF Rec.Pracs.---3D Tessellated Geometry---0.4---2014-09-14''2;1','STEP AP242 Edition 2''CAx-IF Rec.Pracs.---Representation and Presentation of Product Manufa
cturing Information (PMI)---4.0---2014-10-13''CAx-IF Rec.Pracs.---3D Tessellated Geometry---0.4---2014-09-14''2;1''CAx-IF Rec.Pracs.---User Defined Attributes---1.5---2016-08-15'),'2;1');
/*name */
/*time_stamp */
/*author */
/*organization */
/*preprocessor_version */
/*originating_system */
/*authorisation */
FILE_NAME('/vol/tmp/translate-15948051300102478549/wheelstarter - oring small.step','2026-03-17T09:52:49',(''),(''),'ST-DEVELOPER v20','ONSHAPE BY PTC INC, 1.212','  ');
FILE_SCHEMA(('AP242_MANAGED_MODEL_BASED_3D_ENGINEERING_MIM_LF { 1 0 10303 442 3 1 4 }'));
ENDSEC;
DATA;
#10=SHAPE_REPRESENTATION_RELATIONSHIP('','',#133,#11);
#11=ADVANCED_BREP_SHAPE_REPRESENTATION('',(#131),#229);
#12=CYLINDRICAL_SURFACE('',#144,0.019010094785);
#13=CONICAL_SURFACE('',#140,0.0206316404168928,0.401425727958683);
#14=CONICAL_SURFACE('',#142,0.019010094785,0.785398163397448);
#15=CONICAL_SURFACE('',#146,0.0206316404168928,0.785398163397448);
#16=CONICAL_SURFACE('',#148,0.0203657204988788,0.401425727958692);
#17=TOROIDAL_SURFACE('',#138,0.0219100947850001,0.00410000000000036);
#18=TOROIDAL_SURFACE('',#150,0.0219100947850001,0.00410000000000049);
#19=TOROIDAL_SURFACE('',#154,0.021910094785,0.0041);
#20=ORIENTED_EDGE('',*,*,#40,.T.);
#21=ORIENTED_EDGE('',*,*,#41,.F.);
#22=ORIENTED_EDGE('',*,*,#42,.F.);
#23=ORIENTED_EDGE('',*,*,#41,.T.);
#24=ORIENTED_EDGE('',*,*,#42,.T.);
#25=ORIENTED_EDGE('',*,*,#43,.F.);
#26=ORIENTED_EDGE('',*,*,#43,.T.);
#27=ORIENTED_EDGE('',*,*,#44,.F.);
#28=ORIENTED_EDGE('',*,*,#45,.F.);
#29=ORIENTED_EDGE('',*,*,#44,.T.);
#30=ORIENTED_EDGE('',*,*,#45,.T.);
#31=ORIENTED_EDGE('',*,*,#46,.F.);
#32=ORIENTED_EDGE('',*,*,#46,.T.);
#33=ORIENTED_EDGE('',*,*,#47,.F.);
#34=ORIENTED_EDGE('',*,*,#48,.F.);
#35=ORIENTED_EDGE('',*,*,#47,.T.);
#36=ORIENTED_EDGE('',*,*,#49,.F.);
#37=ORIENTED_EDGE('',*,*,#48,.T.);
#38=ORIENTED_EDGE('',*,*,#40,.F.);
#39=ORIENTED_EDGE('',*,*,#49,.T.);
#40=EDGE_CURVE('',#50,#50,#60,.T.);
#41=EDGE_CURVE('',#51,#51,#61,.T.);
#42=EDGE_CURVE('',#52,#52,#62,.T.);
#43=EDGE_CURVE('',#53,#53,#63,.T.);
#44=EDGE_CURVE('',#54,#54,#64,.T.);
#45=EDGE_CURVE('',#55,#55,#65,.T.);
#46=EDGE_CURVE('',#56,#56,#66,.T.);
#47=EDGE_CURVE('',#57,#57,#67,.T.);
#48=EDGE_CURVE('',#58,#58,#68,.T.);
#49=EDGE_CURVE('',#59,#59,#69,.T.);
#50=VERTEX_POINT('',#200);
#51=VERTEX_POINT('',#202);
#52=VERTEX_POINT('',#205);
#53=VERTEX_POINT('',#208);
#54=VERTEX_POINT('',#211);
#55=VERTEX_POINT('',#214);
#56=VERTEX_POINT('',#217);
#57=VERTEX_POINT('',#220);
#58=VERTEX_POINT('',#223);
#59=VERTEX_POINT('',#226);
#60=CIRCLE('',#136,0.022810094785);
#61=CIRCLE('',#137,0.021010094785);
#62=CIRCLE('',#139,0.0203657204988788);
#63=CIRCLE('',#141,0.0206316404168928);
#64=CIRCLE('',#143,0.019010094785);
#65=CIRCLE('',#145,0.019010094785);
#66=CIRCLE('',#147,0.0206316404168928);
#67=CIRCLE('',#149,0.0203657204988788);
#68=CIRCLE('',#151,0.0210100947849999);
#69=CIRCLE('',#153,0.022810094785);
#70=EDGE_LOOP('',(#20));
#71=EDGE_LOOP('',(#21));
#72=EDGE_LOOP('',(#22));
#73=EDGE_LOOP('',(#23));
#74=EDGE_LOOP('',(#24));
#75=EDGE_LOOP('',(#25));
#76=EDGE_LOOP('',(#26));
#77=EDGE_LOOP('',(#27));
#78=EDGE_LOOP('',(#28));
#79=EDGE_LOOP('',(#29));
#80=EDGE_LOOP('',(#30));
#81=EDGE_LOOP('',(#31));
#82=EDGE_LOOP('',(#32));
#83=EDGE_LOOP('',(#33));
#84=EDGE_LOOP('',(#34));
#85=EDGE_LOOP('',(#35));
#86=EDGE_LOOP('',(#36));
#87=EDGE_LOOP('',(#37));
#88=EDGE_LOOP('',(#38));
#89=EDGE_LOOP('',(#39));
#90=FACE_BOUND('',#70,.T.);
#91=FACE_BOUND('',#71,.T.);
#92=FACE_BOUND('',#72,.T.);
#93=FACE_BOUND('',#73,.T.);
#94=FACE_BOUND('',#74,.T.);
#95=FACE_BOUND('',#75,.T.);
#96=FACE_BOUND('',#76,.T.);
#97=FACE_BOUND('',#77,.T.);
#98=FACE_BOUND('',#78,.T.);
#99=FACE_BOUND('',#79,.T.);
#100=FACE_BOUND('',#80,.T.);
#101=FACE_BOUND('',#81,.T.);
#102=FACE_BOUND('',#82,.T.);
#103=FACE_BOUND('',#83,.T.);
#104=FACE_BOUND('',#84,.T.);
#105=FACE_BOUND('',#85,.T.);
#106=FACE_BOUND('',#86,.T.);
#107=FACE_BOUND('',#87,.T.);
#108=FACE_BOUND('',#88,.T.);
#109=FACE_BOUND('',#89,.T.);
#110=PLANE('',#135);
#111=PLANE('',#152);
#112=ADVANCED_FACE('',(#90,#91),#110,.T.);
#113=ADVANCED_FACE('',(#92,#93),#17,.T.);
#114=ADVANCED_FACE('',(#94,#95),#13,.F.);
#115=ADVANCED_FACE('',(#96,#97),#14,.F.);
#116=ADVANCED_FACE('',(#98,#99),#12,.F.);
#117=ADVANCED_FACE('',(#100,#101),#15,.F.);
#118=ADVANCED_FACE('',(#102,#103),#16,.F.);
#119=ADVANCED_FACE('',(#104,#105),#18,.T.);
#120=ADVANCED_FACE('',(#106,#107),#111,.F.);
#121=ADVANCED_FACE('',(#108,#109),#19,.T.);
#122=CLOSED_SHELL('',(#112,#113,#114,#115,#116,#117,#118,#119,#120,#121));
#123=STYLED_ITEM('',(#124),#131);
#124=PRESENTATION_STYLE_ASSIGNMENT((#125));
#125=SURFACE_STYLE_USAGE(.BOTH.,#126);
#126=SURFACE_SIDE_STYLE('',(#127));
#127=SURFACE_STYLE_FILL_AREA(#128);
#128=FILL_AREA_STYLE('',(#129));
#129=FILL_AREA_STYLE_COLOUR('',#130);
#130=COLOUR_RGB('',0.615686274509804,0.811764705882353,0.929411764705882);
#131=MANIFOLD_SOLID_BREP('oring small',#122);
#132=SHAPE_DEFINITION_REPRESENTATION(#234,#133);
#133=SHAPE_REPRESENTATION('oring small',(#134),#229);
#134=AXIS2_PLACEMENT_3D('',#197,#155,#156);
#135=AXIS2_PLACEMENT_3D('',#198,#157,#158);
#136=AXIS2_PLACEMENT_3D('',#199,#159,#160);
#137=AXIS2_PLACEMENT_3D('',#201,#161,#162);
#138=AXIS2_PLACEMENT_3D('',#203,#163,#164);
#139=AXIS2_PLACEMENT_3D('',#204,#165,#166);
#140=AXIS2_PLACEMENT_3D('',#206,#167,#168);
#141=AXIS2_PLACEMENT_3D('',#207,#169,#170);
#142=AXIS2_PLACEMENT_3D('',#209,#171,#172);
#143=AXIS2_PLACEMENT_3D('',#210,#173,#174);
#144=AXIS2_PLACEMENT_3D('',#212,#175,#176);
#145=AXIS2_PLACEMENT_3D('',#213,#177,#178);
#146=AXIS2_PLACEMENT_3D('',#215,#179,#180);
#147=AXIS2_PLACEMENT_3D('',#216,#181,#182);
#148=AXIS2_PLACEMENT_3D('',#218,#183,#184);
#149=AXIS2_PLACEMENT_3D('',#219,#185,#186);
#150=AXIS2_PLACEMENT_3D('',#221,#187,#188);
#151=AXIS2_PLACEMENT_3D('',#222,#189,#190);
#152=AXIS2_PLACEMENT_3D('',#224,#191,#192);
#153=AXIS2_PLACEMENT_3D('',#225,#193,#194);
#154=AXIS2_PLACEMENT_3D('',#227,#195,#196);
#155=DIRECTION('',(0.,0.,1.));
#156=DIRECTION('',(1.,0.,0.));
#157=DIRECTION('',(0.,1.,0.));
#158=DIRECTION('',(0.,0.,1.));
#159=DIRECTION('',(0.,1.,0.));
#160=DIRECTION('',(0.,0.,1.));
#161=DIRECTION('',(0.,1.,0.));
#162=DIRECTION('',(0.,0.,1.));
#163=DIRECTION('',(0.,1.,0.));
#164=DIRECTION('',(0.,0.,1.));
#165=DIRECTION('',(0.,1.,0.));
#166=DIRECTION('',(0.,0.,1.));
#167=DIRECTION('',(0.,-1.,0.));
#168=DIRECTION('',(0.,0.,-1.));
#169=DIRECTION('',(0.,1.,0.));
#170=DIRECTION('',(0.,0.,1.));
#171=DIRECTION('',(0.,1.,0.));
#172=DIRECTION('',(0.,0.,1.));
#173=DIRECTION('',(0.,1.,0.));
#174=DIRECTION('',(0.,0.,1.));
#175=DIRECTION('',(0.,1.,0.));
#176=DIRECTION('',(0.,0.,1.));
#177=DIRECTION('',(0.,1.,0.));
#178=DIRECTION('',(0.,0.,1.));
#179=DIRECTION('',(0.,-1.,0.));
#180=DIRECTION('',(0.,0.,-1.));
#181=DIRECTION('',(0.,1.,0.));
#182=DIRECTION('',(0.,0.,1.));
#183=DIRECTION('',(0.,1.,0.));
#184=DIRECTION('',(0.,0.,1.));
#185=DIRECTION('',(0.,1.,0.));
#186=DIRECTION('',(0.,0.,1.));
#187=DIRECTION('',(0.,1.,0.));
#188=DIRECTION('',(0.,0.,1.));
#189=DIRECTION('',(0.,1.,0.));
#190=DIRECTION('',(0.,0.,1.));
#191=DIRECTION('',(0.,1.,0.));
#192=DIRECTION('',(0.,0.,1.));
#193=DIRECTION('',(0.,1.,0.));
#194=DIRECTION('',(0.,0.,1.));
#195=DIRECTION('',(0.,1.,0.));
#196=DIRECTION('',(0.,0.,1.));
#197=CARTESIAN_POINT('',(0.,0.,0.));
#198=CARTESIAN_POINT('',(0.021910094785,0.058,0.));
#199=CARTESIAN_POINT('',(0.,0.058,0.));
#200=CARTESIAN_POINT('',(0.,0.058,0.022810094785));
#201=CARTESIAN_POINT('',(0.,0.058,0.));
#202=CARTESIAN_POINT('',(0.,0.058,0.021010094785));
#203=CARTESIAN_POINT('',(0.,0.054,0.));
#204=CARTESIAN_POINT('',(0.,0.0577980136998657,0.));
#205=CARTESIAN_POINT('',(0.,0.0577980136998657,0.0203657204988788));
#206=CARTESIAN_POINT('',(0.,0.0571715456318928,0.));
#207=CARTESIAN_POINT('',(0.,0.0571715456318928,0.));
#208=CARTESIAN_POINT('',(0.,0.0571715456318928,0.0206316404168928));
#209=CARTESIAN_POINT('',(0.,0.05555,0.));
#210=CARTESIAN_POINT('',(0.,0.05555,0.));
#211=CARTESIAN_POINT('',(0.,0.05555,0.019010094785));
#212=CARTESIAN_POINT('',(0.,0.057520035841,0.));
#213=CARTESIAN_POINT('',(0.,0.05245,0.));
#214=CARTESIAN_POINT('',(0.,0.05245,0.019010094785));
#215=CARTESIAN_POINT('',(0.,0.0508284543681072,0.));
#216=CARTESIAN_POINT('',(0.,0.0508284543681072,0.));
#217=CARTESIAN_POINT('',(0.,0.0508284543681072,0.0206316404168928));
#218=CARTESIAN_POINT('',(0.,0.0502019863001343,0.));
#219=CARTESIAN_POINT('',(0.,0.0502019863001343,0.));
#220=CARTESIAN_POINT('',(0.,0.0502019863001343,0.0203657204988788));
#221=CARTESIAN_POINT('',(0.,0.054,0.));
#222=CARTESIAN_POINT('',(0.,0.05,0.));
#223=CARTESIAN_POINT('',(0.,0.05,0.0210100947849999));
#224=CARTESIAN_POINT('',(0.021910094785,0.05,0.));
#225=CARTESIAN_POINT('',(0.,0.05,0.));
#226=CARTESIAN_POINT('',(0.,0.05,0.022810094785));
#227=CARTESIAN_POINT('',(0.,0.054,0.));
#228=MECHANICAL_DESIGN_GEOMETRIC_PRESENTATION_REPRESENTATION('',(#123),#229);
#229=(
GEOMETRIC_REPRESENTATION_CONTEXT(3)
GLOBAL_UNCERTAINTY_ASSIGNED_CONTEXT((#230))
GLOBAL_UNIT_ASSIGNED_CONTEXT((#233,#232,#231))
REPRESENTATION_CONTEXT('oring small','TOP_LEVEL_ASSEMBLY_PART')
);
#230=UNCERTAINTY_MEASURE_WITH_UNIT(LENGTH_MEASURE(1.E-08),#233,'DISTANCE_ACCURACY_VALUE','Maximum Tolerance applied to model');
#231=(
NAMED_UNIT(*)
SI_UNIT($,.STERADIAN.)
SOLID_ANGLE_UNIT()
);
#232=(
NAMED_UNIT(*)
PLANE_ANGLE_UNIT()
SI_UNIT($,.RADIAN.)
);
#233=(
LENGTH_UNIT()
NAMED_UNIT(*)
SI_UNIT($,.METRE.)
);
#234=PRODUCT_DEFINITION_SHAPE('','',#235);
#235=PRODUCT_DEFINITION('','',#237,#236);
#236=PRODUCT_DEFINITION_CONTEXT('',#243,'design');
#237=PRODUCT_DEFINITION_FORMATION_WITH_SPECIFIED_SOURCE('','',#239,.NOT_KNOWN.);
#238=PRODUCT_RELATED_PRODUCT_CATEGORY('','',(#239));
#239=PRODUCT('oring small','oring small','oring small',(#241));
#240=PRODUCT_CATEGORY('','');
#241=PRODUCT_CONTEXT('',#243,'mechanical');
#242=APPLICATION_PROTOCOL_DEFINITION('international standard','ap242_managed_model_based_3d_engineering',2020,#243);
#243=APPLICATION_CONTEXT('managed model based 3d engineering');
ENDSEC;
END-ISO-10303-21;
