ISO-10303-21;
HEADER;
/* Generated by software containing ST-Developer
 * from STEP Tools, Inc. (www.steptools.com) 
 */
/* OPTION: using custom renumber hook */

FILE_DESCRIPTION(
/* description */ ('STEP AP242',
'CAx-IF Rec.Pracs.---Representation and Presentation of Product Manufa
cturing Information (PMI)---4.0---2014-10-13',
'CAx-IF Rec.Pracs.---3D Tessellated Geometry---0.4---2014-09-14','2;1'),

/* implementation_level */ '2;1');

FILE_NAME(
/* name */ '68dfd737b140c75f2aa926d0',
/* time_stamp */ '2025-10-03T14:01:29Z',
/* author */ (''),
/* organization */ (''),
/* preprocessor_version */ 'ST-DEVELOPER v20',
/* originating_system */ 'ONSHAPE BY PTC INC, 1.204',
/* authorisation */ '  ');

FILE_SCHEMA (('AP242_MANAGED_MODEL_BASED_3D_ENGINEERING_MIM_LF { 1 0 10303 442 1 1 4 }'));
ENDSEC;

DATA;
#10=CIRCLE('',#1163,0.0036);
#11=CIRCLE('',#1169,0.0036);
#12=CYLINDRICAL_SURFACE('',#1162,0.0036);
#13=CYLINDRICAL_SURFACE('',#1181,0.0036);
#14=ELLIPSE('',#1159,0.00393954312071844,0.0036);
#15=ELLIPSE('',#1161,0.00415692193816531,0.0036);
#16=ELLIPSE('',#1182,0.00415692193816531,0.0036);
#17=ELLIPSE('',#1183,0.00393954312071844,0.0036);
#18=CONTEXT_DEPENDENT_SHAPE_REPRESENTATION(#24,#1797);
#19=CONTEXT_DEPENDENT_SHAPE_REPRESENTATION(#25,#1799);
#20=CONTEXT_DEPENDENT_SHAPE_REPRESENTATION(#26,#1800);
#21=NEXT_ASSEMBLY_USAGE_OCCURRENCE('NAUO1','Bulldozer','Bulldozer',#1802,
#1803,'');
#22=NEXT_ASSEMBLY_USAGE_OCCURRENCE('NAUO2','bumper long','bumper long',
#1802,#1804,'');
#23=NEXT_ASSEMBLY_USAGE_OCCURRENCE('NAUO3','Assembly 1 <1>',
'Assembly 1 <1>',#1801,#1802,'');
#24=(
REPRESENTATION_RELATIONSHIP(' ',' ',#1126,#1125)
REPRESENTATION_RELATIONSHIP_WITH_TRANSFORMATION(#27)
SHAPE_REPRESENTATION_RELATIONSHIP()
);
#25=(
REPRESENTATION_RELATIONSHIP(' ',' ',#1127,#1125)
REPRESENTATION_RELATIONSHIP_WITH_TRANSFORMATION(#28)
SHAPE_REPRESENTATION_RELATIONSHIP()
);
#26=(
REPRESENTATION_RELATIONSHIP(' ',' ',#1125,#1124)
REPRESENTATION_RELATIONSHIP_WITH_TRANSFORMATION(#29)
SHAPE_REPRESENTATION_RELATIONSHIP()
);
#27=ITEM_DEFINED_TRANSFORMATION(' ',' ',#1128,#1156);
#28=ITEM_DEFINED_TRANSFORMATION(' ',' ',#1128,#1193);
#29=ITEM_DEFINED_TRANSFORMATION(' ',' ',#1128,#1194);
#30=SHAPE_REPRESENTATION_RELATIONSHIP('','',#1126,#32);
#31=SHAPE_REPRESENTATION_RELATIONSHIP('','',#1127,#33);
#32=ADVANCED_BREP_SHAPE_REPRESENTATION('',(#1118),#1785);
#33=ADVANCED_BREP_SHAPE_REPRESENTATION('',(#1119),#1786);
#34=ORIENTED_EDGE('',*,*,#332,.T.);
#35=ORIENTED_EDGE('',*,*,#333,.T.);
#36=ORIENTED_EDGE('',*,*,#334,.T.);
#37=ORIENTED_EDGE('',*,*,#335,.T.);
#38=ORIENTED_EDGE('',*,*,#336,.T.);
#39=ORIENTED_EDGE('',*,*,#337,.T.);
#40=ORIENTED_EDGE('',*,*,#338,.T.);
#41=ORIENTED_EDGE('',*,*,#339,.T.);
#42=ORIENTED_EDGE('',*,*,#340,.T.);
#43=ORIENTED_EDGE('',*,*,#341,.T.);
#44=ORIENTED_EDGE('',*,*,#342,.T.);
#45=ORIENTED_EDGE('',*,*,#343,.T.);
#46=ORIENTED_EDGE('',*,*,#344,.T.);
#47=ORIENTED_EDGE('',*,*,#345,.T.);
#48=ORIENTED_EDGE('',*,*,#346,.F.);
#49=ORIENTED_EDGE('',*,*,#347,.T.);
#50=ORIENTED_EDGE('',*,*,#346,.T.);
#51=ORIENTED_EDGE('',*,*,#348,.T.);
#52=ORIENTED_EDGE('',*,*,#332,.F.);
#53=ORIENTED_EDGE('',*,*,#349,.T.);
#54=ORIENTED_EDGE('',*,*,#350,.T.);
#55=ORIENTED_EDGE('',*,*,#351,.T.);
#56=ORIENTED_EDGE('',*,*,#352,.F.);
#57=ORIENTED_EDGE('',*,*,#353,.T.);
#58=ORIENTED_EDGE('',*,*,#354,.F.);
#59=ORIENTED_EDGE('',*,*,#355,.T.);
#60=ORIENTED_EDGE('',*,*,#356,.T.);
#61=ORIENTED_EDGE('',*,*,#357,.T.);
#62=ORIENTED_EDGE('',*,*,#352,.T.);
#63=ORIENTED_EDGE('',*,*,#358,.T.);
#64=ORIENTED_EDGE('',*,*,#359,.T.);
#65=ORIENTED_EDGE('',*,*,#360,.F.);
#66=ORIENTED_EDGE('',*,*,#361,.T.);
#67=ORIENTED_EDGE('',*,*,#362,.T.);
#68=ORIENTED_EDGE('',*,*,#363,.T.);
#69=ORIENTED_EDGE('',*,*,#364,.F.);
#70=ORIENTED_EDGE('',*,*,#365,.F.);
#71=ORIENTED_EDGE('',*,*,#366,.T.);
#72=ORIENTED_EDGE('',*,*,#367,.T.);
#73=ORIENTED_EDGE('',*,*,#368,.T.);
#74=ORIENTED_EDGE('',*,*,#369,.F.);
#75=ORIENTED_EDGE('',*,*,#370,.T.);
#76=ORIENTED_EDGE('',*,*,#371,.T.);
#77=ORIENTED_EDGE('',*,*,#372,.T.);
#78=ORIENTED_EDGE('',*,*,#350,.F.);
#79=ORIENTED_EDGE('',*,*,#373,.T.);
#80=ORIENTED_EDGE('',*,*,#360,.T.);
#81=ORIENTED_EDGE('',*,*,#374,.T.);
#82=ORIENTED_EDGE('',*,*,#375,.T.);
#83=ORIENTED_EDGE('',*,*,#376,.T.);
#84=ORIENTED_EDGE('',*,*,#338,.F.);
#85=ORIENTED_EDGE('',*,*,#377,.T.);
#86=ORIENTED_EDGE('',*,*,#378,.T.);
#87=ORIENTED_EDGE('',*,*,#379,.T.);
#88=ORIENTED_EDGE('',*,*,#372,.F.);
#89=ORIENTED_EDGE('',*,*,#380,.T.);
#90=ORIENTED_EDGE('',*,*,#358,.F.);
#91=ORIENTED_EDGE('',*,*,#381,.F.);
#92=ORIENTED_EDGE('',*,*,#382,.F.);
#93=ORIENTED_EDGE('',*,*,#383,.T.);
#94=ORIENTED_EDGE('',*,*,#366,.F.);
#95=ORIENTED_EDGE('',*,*,#384,.F.);
#96=ORIENTED_EDGE('',*,*,#385,.F.);
#97=ORIENTED_EDGE('',*,*,#386,.T.);
#98=ORIENTED_EDGE('',*,*,#362,.F.);
#99=ORIENTED_EDGE('',*,*,#387,.T.);
#100=ORIENTED_EDGE('',*,*,#354,.T.);
#101=ORIENTED_EDGE('',*,*,#351,.F.);
#102=ORIENTED_EDGE('',*,*,#365,.T.);
#103=ORIENTED_EDGE('',*,*,#388,.F.);
#104=ORIENTED_EDGE('',*,*,#389,.F.);
#105=ORIENTED_EDGE('',*,*,#384,.T.);
#106=ORIENTED_EDGE('',*,*,#364,.T.);
#107=ORIENTED_EDGE('',*,*,#390,.F.);
#108=ORIENTED_EDGE('',*,*,#391,.F.);
#109=ORIENTED_EDGE('',*,*,#388,.T.);
#110=ORIENTED_EDGE('',*,*,#363,.F.);
#111=ORIENTED_EDGE('',*,*,#386,.F.);
#112=ORIENTED_EDGE('',*,*,#392,.T.);
#113=ORIENTED_EDGE('',*,*,#390,.T.);
#114=ORIENTED_EDGE('',*,*,#385,.T.);
#115=ORIENTED_EDGE('',*,*,#389,.T.);
#116=ORIENTED_EDGE('',*,*,#391,.T.);
#117=ORIENTED_EDGE('',*,*,#392,.F.);
#118=ORIENTED_EDGE('',*,*,#367,.F.);
#119=ORIENTED_EDGE('',*,*,#383,.F.);
#120=ORIENTED_EDGE('',*,*,#393,.T.);
#121=ORIENTED_EDGE('',*,*,#394,.T.);
#122=ORIENTED_EDGE('',*,*,#369,.T.);
#123=ORIENTED_EDGE('',*,*,#395,.F.);
#124=ORIENTED_EDGE('',*,*,#396,.F.);
#125=ORIENTED_EDGE('',*,*,#381,.T.);
#126=ORIENTED_EDGE('',*,*,#368,.F.);
#127=ORIENTED_EDGE('',*,*,#394,.F.);
#128=ORIENTED_EDGE('',*,*,#397,.T.);
#129=ORIENTED_EDGE('',*,*,#395,.T.);
#130=ORIENTED_EDGE('',*,*,#393,.F.);
#131=ORIENTED_EDGE('',*,*,#382,.T.);
#132=ORIENTED_EDGE('',*,*,#396,.T.);
#133=ORIENTED_EDGE('',*,*,#397,.F.);
#134=ORIENTED_EDGE('',*,*,#334,.F.);
#135=ORIENTED_EDGE('',*,*,#398,.T.);
#136=ORIENTED_EDGE('',*,*,#344,.F.);
#137=ORIENTED_EDGE('',*,*,#399,.T.);
#138=ORIENTED_EDGE('',*,*,#340,.F.);
#139=ORIENTED_EDGE('',*,*,#400,.T.);
#140=ORIENTED_EDGE('',*,*,#337,.F.);
#141=ORIENTED_EDGE('',*,*,#401,.T.);
#142=ORIENTED_EDGE('',*,*,#373,.F.);
#143=ORIENTED_EDGE('',*,*,#349,.F.);
#144=ORIENTED_EDGE('',*,*,#357,.F.);
#145=ORIENTED_EDGE('',*,*,#402,.T.);
#146=ORIENTED_EDGE('',*,*,#347,.F.);
#147=ORIENTED_EDGE('',*,*,#353,.F.);
#148=ORIENTED_EDGE('',*,*,#375,.F.);
#149=ORIENTED_EDGE('',*,*,#403,.T.);
#150=ORIENTED_EDGE('',*,*,#370,.F.);
#151=ORIENTED_EDGE('',*,*,#401,.F.);
#152=ORIENTED_EDGE('',*,*,#336,.F.);
#153=ORIENTED_EDGE('',*,*,#404,.T.);
#154=ORIENTED_EDGE('',*,*,#356,.F.);
#155=ORIENTED_EDGE('',*,*,#405,.T.);
#156=ORIENTED_EDGE('',*,*,#378,.F.);
#157=ORIENTED_EDGE('',*,*,#406,.T.);
#158=ORIENTED_EDGE('',*,*,#342,.F.);
#159=ORIENTED_EDGE('',*,*,#402,.F.);
#160=ORIENTED_EDGE('',*,*,#404,.F.);
#161=ORIENTED_EDGE('',*,*,#335,.F.);
#162=ORIENTED_EDGE('',*,*,#400,.F.);
#163=ORIENTED_EDGE('',*,*,#339,.F.);
#164=ORIENTED_EDGE('',*,*,#376,.F.);
#165=ORIENTED_EDGE('',*,*,#377,.F.);
#166=ORIENTED_EDGE('',*,*,#341,.F.);
#167=ORIENTED_EDGE('',*,*,#399,.F.);
#168=ORIENTED_EDGE('',*,*,#343,.F.);
#169=ORIENTED_EDGE('',*,*,#406,.F.);
#170=ORIENTED_EDGE('',*,*,#374,.F.);
#171=ORIENTED_EDGE('',*,*,#359,.F.);
#172=ORIENTED_EDGE('',*,*,#380,.F.);
#173=ORIENTED_EDGE('',*,*,#371,.F.);
#174=ORIENTED_EDGE('',*,*,#403,.F.);
#175=ORIENTED_EDGE('',*,*,#405,.F.);
#176=ORIENTED_EDGE('',*,*,#355,.F.);
#177=ORIENTED_EDGE('',*,*,#387,.F.);
#178=ORIENTED_EDGE('',*,*,#361,.F.);
#179=ORIENTED_EDGE('',*,*,#379,.F.);
#180=ORIENTED_EDGE('',*,*,#333,.F.);
#181=ORIENTED_EDGE('',*,*,#348,.F.);
#182=ORIENTED_EDGE('',*,*,#345,.F.);
#183=ORIENTED_EDGE('',*,*,#398,.F.);
#184=ORIENTED_EDGE('',*,*,#407,.T.);
#185=ORIENTED_EDGE('',*,*,#408,.T.);
#186=ORIENTED_EDGE('',*,*,#409,.F.);
#187=ORIENTED_EDGE('',*,*,#410,.T.);
#188=ORIENTED_EDGE('',*,*,#411,.T.);
#189=ORIENTED_EDGE('',*,*,#412,.T.);
#190=ORIENTED_EDGE('',*,*,#413,.F.);
#191=ORIENTED_EDGE('',*,*,#414,.F.);
#192=ORIENTED_EDGE('',*,*,#415,.T.);
#193=ORIENTED_EDGE('',*,*,#416,.T.);
#194=ORIENTED_EDGE('',*,*,#417,.F.);
#195=ORIENTED_EDGE('',*,*,#415,.F.);
#196=ORIENTED_EDGE('',*,*,#417,.T.);
#197=ORIENTED_EDGE('',*,*,#416,.F.);
#198=ORIENTED_EDGE('',*,*,#418,.F.);
#199=ORIENTED_EDGE('',*,*,#418,.T.);
#200=ORIENTED_EDGE('',*,*,#419,.F.);
#201=ORIENTED_EDGE('',*,*,#420,.T.);
#202=ORIENTED_EDGE('',*,*,#421,.T.);
#203=ORIENTED_EDGE('',*,*,#422,.T.);
#204=ORIENTED_EDGE('',*,*,#423,.T.);
#205=ORIENTED_EDGE('',*,*,#424,.F.);
#206=ORIENTED_EDGE('',*,*,#425,.T.);
#207=ORIENTED_EDGE('',*,*,#426,.F.);
#208=ORIENTED_EDGE('',*,*,#427,.F.);
#209=ORIENTED_EDGE('',*,*,#424,.T.);
#210=ORIENTED_EDGE('',*,*,#428,.F.);
#211=ORIENTED_EDGE('',*,*,#429,.T.);
#212=ORIENTED_EDGE('',*,*,#430,.T.);
#213=ORIENTED_EDGE('',*,*,#431,.T.);
#214=ORIENTED_EDGE('',*,*,#432,.T.);
#215=ORIENTED_EDGE('',*,*,#433,.T.);
#216=ORIENTED_EDGE('',*,*,#426,.T.);
#217=ORIENTED_EDGE('',*,*,#434,.F.);
#218=ORIENTED_EDGE('',*,*,#435,.F.);
#219=ORIENTED_EDGE('',*,*,#413,.T.);
#220=ORIENTED_EDGE('',*,*,#436,.F.);
#221=ORIENTED_EDGE('',*,*,#437,.F.);
#222=ORIENTED_EDGE('',*,*,#414,.T.);
#223=ORIENTED_EDGE('',*,*,#435,.T.);
#224=ORIENTED_EDGE('',*,*,#438,.F.);
#225=ORIENTED_EDGE('',*,*,#439,.F.);
#226=ORIENTED_EDGE('',*,*,#440,.T.);
#227=ORIENTED_EDGE('',*,*,#407,.F.);
#228=ORIENTED_EDGE('',*,*,#437,.T.);
#229=ORIENTED_EDGE('',*,*,#441,.T.);
#230=ORIENTED_EDGE('',*,*,#442,.T.);
#231=ORIENTED_EDGE('',*,*,#443,.F.);
#232=ORIENTED_EDGE('',*,*,#444,.T.);
#233=ORIENTED_EDGE('',*,*,#439,.T.);
#234=ORIENTED_EDGE('',*,*,#445,.T.);
#235=ORIENTED_EDGE('',*,*,#409,.T.);
#236=ORIENTED_EDGE('',*,*,#446,.T.);
#237=ORIENTED_EDGE('',*,*,#443,.T.);
#238=ORIENTED_EDGE('',*,*,#447,.T.);
#239=ORIENTED_EDGE('',*,*,#448,.F.);
#240=ORIENTED_EDGE('',*,*,#449,.F.);
#241=ORIENTED_EDGE('',*,*,#450,.T.);
#242=ORIENTED_EDGE('',*,*,#451,.F.);
#243=ORIENTED_EDGE('',*,*,#410,.F.);
#244=ORIENTED_EDGE('',*,*,#449,.T.);
#245=ORIENTED_EDGE('',*,*,#452,.F.);
#246=ORIENTED_EDGE('',*,*,#453,.T.);
#247=ORIENTED_EDGE('',*,*,#454,.T.);
#248=ORIENTED_EDGE('',*,*,#411,.F.);
#249=ORIENTED_EDGE('',*,*,#451,.T.);
#250=ORIENTED_EDGE('',*,*,#455,.T.);
#251=ORIENTED_EDGE('',*,*,#456,.F.);
#252=ORIENTED_EDGE('',*,*,#457,.F.);
#253=ORIENTED_EDGE('',*,*,#458,.F.);
#254=ORIENTED_EDGE('',*,*,#459,.T.);
#255=ORIENTED_EDGE('',*,*,#460,.F.);
#256=ORIENTED_EDGE('',*,*,#461,.F.);
#257=ORIENTED_EDGE('',*,*,#462,.T.);
#258=ORIENTED_EDGE('',*,*,#456,.T.);
#259=ORIENTED_EDGE('',*,*,#463,.F.);
#260=ORIENTED_EDGE('',*,*,#464,.T.);
#261=ORIENTED_EDGE('',*,*,#465,.F.);
#262=ORIENTED_EDGE('',*,*,#461,.T.);
#263=ORIENTED_EDGE('',*,*,#466,.T.);
#264=ORIENTED_EDGE('',*,*,#467,.T.);
#265=ORIENTED_EDGE('',*,*,#421,.F.);
#266=ORIENTED_EDGE('',*,*,#468,.T.);
#267=ORIENTED_EDGE('',*,*,#463,.T.);
#268=ORIENTED_EDGE('',*,*,#469,.T.);
#269=ORIENTED_EDGE('',*,*,#465,.T.);
#270=ORIENTED_EDGE('',*,*,#470,.T.);
#271=ORIENTED_EDGE('',*,*,#419,.T.);
#272=ORIENTED_EDGE('',*,*,#427,.T.);
#273=ORIENTED_EDGE('',*,*,#433,.F.);
#274=ORIENTED_EDGE('',*,*,#471,.F.);
#275=ORIENTED_EDGE('',*,*,#457,.T.);
#276=ORIENTED_EDGE('',*,*,#462,.F.);
#277=ORIENTED_EDGE('',*,*,#423,.F.);
#278=ORIENTED_EDGE('',*,*,#472,.T.);
#279=ORIENTED_EDGE('',*,*,#466,.F.);
#280=ORIENTED_EDGE('',*,*,#460,.T.);
#281=ORIENTED_EDGE('',*,*,#455,.F.);
#282=ORIENTED_EDGE('',*,*,#450,.F.);
#283=ORIENTED_EDGE('',*,*,#448,.T.);
#284=ORIENTED_EDGE('',*,*,#473,.T.);
#285=ORIENTED_EDGE('',*,*,#441,.F.);
#286=ORIENTED_EDGE('',*,*,#436,.T.);
#287=ORIENTED_EDGE('',*,*,#434,.T.);
#288=ORIENTED_EDGE('',*,*,#425,.F.);
#289=ORIENTED_EDGE('',*,*,#467,.F.);
#290=ORIENTED_EDGE('',*,*,#472,.F.);
#291=ORIENTED_EDGE('',*,*,#422,.F.);
#292=ORIENTED_EDGE('',*,*,#469,.F.);
#293=ORIENTED_EDGE('',*,*,#447,.F.);
#294=ORIENTED_EDGE('',*,*,#445,.F.);
#295=ORIENTED_EDGE('',*,*,#442,.F.);
#296=ORIENTED_EDGE('',*,*,#473,.F.);
#297=ORIENTED_EDGE('',*,*,#474,.F.);
#298=ORIENTED_EDGE('',*,*,#475,.T.);
#299=ORIENTED_EDGE('',*,*,#438,.T.);
#300=ORIENTED_EDGE('',*,*,#476,.F.);
#301=ORIENTED_EDGE('',*,*,#475,.F.);
#302=ORIENTED_EDGE('',*,*,#474,.T.);
#303=ORIENTED_EDGE('',*,*,#476,.T.);
#304=ORIENTED_EDGE('',*,*,#452,.T.);
#305=ORIENTED_EDGE('',*,*,#477,.T.);
#306=ORIENTED_EDGE('',*,*,#430,.F.);
#307=ORIENTED_EDGE('',*,*,#478,.T.);
#308=ORIENTED_EDGE('',*,*,#454,.F.);
#309=ORIENTED_EDGE('',*,*,#479,.T.);
#310=ORIENTED_EDGE('',*,*,#428,.T.);
#311=ORIENTED_EDGE('',*,*,#412,.F.);
#312=ORIENTED_EDGE('',*,*,#432,.F.);
#313=ORIENTED_EDGE('',*,*,#480,.T.);
#314=ORIENTED_EDGE('',*,*,#458,.T.);
#315=ORIENTED_EDGE('',*,*,#471,.T.);
#316=ORIENTED_EDGE('',*,*,#459,.F.);
#317=ORIENTED_EDGE('',*,*,#480,.F.);
#318=ORIENTED_EDGE('',*,*,#431,.F.);
#319=ORIENTED_EDGE('',*,*,#477,.F.);
#320=ORIENTED_EDGE('',*,*,#453,.F.);
#321=ORIENTED_EDGE('',*,*,#478,.F.);
#322=ORIENTED_EDGE('',*,*,#429,.F.);
#323=ORIENTED_EDGE('',*,*,#479,.F.);
#324=ORIENTED_EDGE('',*,*,#464,.F.);
#325=ORIENTED_EDGE('',*,*,#468,.F.);
#326=ORIENTED_EDGE('',*,*,#420,.F.);
#327=ORIENTED_EDGE('',*,*,#470,.F.);
#328=ORIENTED_EDGE('',*,*,#446,.F.);
#329=ORIENTED_EDGE('',*,*,#408,.F.);
#330=ORIENTED_EDGE('',*,*,#440,.F.);
#331=ORIENTED_EDGE('',*,*,#444,.F.);
#332=EDGE_CURVE('',#481,#482,#581,.T.);
#333=EDGE_CURVE('',#482,#483,#582,.T.);
#334=EDGE_CURVE('',#483,#484,#583,.F.);
#335=EDGE_CURVE('',#484,#485,#584,.T.);
#336=EDGE_CURVE('',#485,#486,#585,.F.);
#337=EDGE_CURVE('',#486,#481,#586,.T.);
#338=EDGE_CURVE('',#487,#488,#587,.T.);
#339=EDGE_CURVE('',#488,#489,#588,.T.);
#340=EDGE_CURVE('',#489,#490,#589,.T.);
#341=EDGE_CURVE('',#490,#487,#590,.T.);
#342=EDGE_CURVE('',#491,#492,#591,.F.);
#343=EDGE_CURVE('',#492,#493,#592,.T.);
#344=EDGE_CURVE('',#493,#494,#593,.F.);
#345=EDGE_CURVE('',#494,#495,#594,.T.);
#346=EDGE_CURVE('',#496,#495,#595,.T.);
#347=EDGE_CURVE('',#496,#491,#596,.T.);
#348=EDGE_CURVE('',#495,#482,#597,.T.);
#349=EDGE_CURVE('',#481,#497,#598,.T.);
#350=EDGE_CURVE('',#497,#498,#599,.T.);
#351=EDGE_CURVE('',#498,#499,#600,.T.);
#352=EDGE_CURVE('',#500,#499,#601,.T.);
#353=EDGE_CURVE('',#500,#496,#602,.T.);
#354=EDGE_CURVE('',#501,#499,#603,.T.);
#355=EDGE_CURVE('',#501,#502,#604,.T.);
#356=EDGE_CURVE('',#502,#503,#605,.F.);
#357=EDGE_CURVE('',#503,#500,#606,.T.);
#358=EDGE_CURVE('',#504,#505,#607,.T.);
#359=EDGE_CURVE('',#505,#506,#608,.T.);
#360=EDGE_CURVE('',#507,#506,#609,.T.);
#361=EDGE_CURVE('',#507,#508,#610,.T.);
#362=EDGE_CURVE('',#508,#509,#611,.T.);
#363=EDGE_CURVE('',#509,#510,#612,.T.);
#364=EDGE_CURVE('',#511,#510,#613,.T.);
#365=EDGE_CURVE('',#512,#511,#614,.T.);
#366=EDGE_CURVE('',#512,#513,#615,.T.);
#367=EDGE_CURVE('',#513,#514,#616,.T.);
#368=EDGE_CURVE('',#514,#515,#617,.T.);
#369=EDGE_CURVE('',#504,#515,#618,.T.);
#370=EDGE_CURVE('',#516,#517,#619,.F.);
#371=EDGE_CURVE('',#517,#518,#620,.T.);
#372=EDGE_CURVE('',#518,#498,#621,.T.);
#373=EDGE_CURVE('',#497,#516,#622,.T.);
#374=EDGE_CURVE('',#506,#519,#623,.F.);
#375=EDGE_CURVE('',#519,#520,#624,.T.);
#376=EDGE_CURVE('',#520,#488,#625,.F.);
#377=EDGE_CURVE('',#487,#521,#626,.T.);
#378=EDGE_CURVE('',#521,#522,#627,.T.);
#379=EDGE_CURVE('',#522,#507,#628,.T.);
#380=EDGE_CURVE('',#518,#505,#629,.F.);
#381=EDGE_CURVE('',#523,#504,#630,.T.);
#382=EDGE_CURVE('',#524,#523,#631,.T.);
#383=EDGE_CURVE('',#524,#513,#632,.T.);
#384=EDGE_CURVE('',#525,#512,#633,.T.);
#385=EDGE_CURVE('',#526,#525,#634,.T.);
#386=EDGE_CURVE('',#526,#509,#635,.T.);
#387=EDGE_CURVE('',#508,#501,#636,.T.);
#388=EDGE_CURVE('',#527,#511,#637,.T.);
#389=EDGE_CURVE('',#525,#527,#638,.T.);
#390=EDGE_CURVE('',#528,#510,#639,.T.);
#391=EDGE_CURVE('',#527,#528,#640,.T.);
#392=EDGE_CURVE('',#526,#528,#641,.T.);
#393=EDGE_CURVE('',#524,#529,#642,.T.);
#394=EDGE_CURVE('',#529,#514,#643,.T.);
#395=EDGE_CURVE('',#530,#515,#644,.T.);
#396=EDGE_CURVE('',#523,#530,#645,.T.);
#397=EDGE_CURVE('',#529,#530,#646,.T.);
#398=EDGE_CURVE('',#483,#494,#647,.F.);
#399=EDGE_CURVE('',#493,#490,#648,.F.);
#400=EDGE_CURVE('',#489,#484,#649,.T.);
#401=EDGE_CURVE('',#486,#516,#650,.T.);
#402=EDGE_CURVE('',#503,#491,#651,.T.);
#403=EDGE_CURVE('',#519,#517,#652,.T.);
#404=EDGE_CURVE('',#485,#520,#653,.T.);
#405=EDGE_CURVE('',#502,#522,#654,.F.);
#406=EDGE_CURVE('',#521,#492,#655,.F.);
#407=EDGE_CURVE('',#531,#532,#656,.T.);
#408=EDGE_CURVE('',#532,#533,#657,.T.);
#409=EDGE_CURVE('',#534,#533,#658,.T.);
#410=EDGE_CURVE('',#534,#535,#659,.T.);
#411=EDGE_CURVE('',#535,#536,#660,.T.);
#412=EDGE_CURVE('',#536,#537,#661,.T.);
#413=EDGE_CURVE('',#538,#537,#662,.T.);
#414=EDGE_CURVE('',#531,#538,#663,.T.);
#415=EDGE_CURVE('',#539,#540,#664,.T.);
#416=EDGE_CURVE('',#540,#539,#14,.T.);
#417=EDGE_CURVE('',#540,#539,#15,.T.);
#418=EDGE_CURVE('',#541,#541,#10,.F.);
#419=EDGE_CURVE('',#542,#543,#665,.T.);
#420=EDGE_CURVE('',#542,#544,#666,.T.);
#421=EDGE_CURVE('',#544,#545,#667,.T.);
#422=EDGE_CURVE('',#545,#546,#668,.F.);
#423=EDGE_CURVE('',#546,#547,#669,.T.);
#424=EDGE_CURVE('',#543,#547,#670,.T.);
#425=EDGE_CURVE('',#547,#548,#671,.T.);
#426=EDGE_CURVE('',#549,#548,#672,.T.);
#427=EDGE_CURVE('',#543,#549,#673,.T.);
#428=EDGE_CURVE('',#550,#537,#674,.T.);
#429=EDGE_CURVE('',#550,#551,#675,.T.);
#430=EDGE_CURVE('',#551,#552,#676,.T.);
#431=EDGE_CURVE('',#552,#553,#677,.F.);
#432=EDGE_CURVE('',#553,#554,#678,.T.);
#433=EDGE_CURVE('',#554,#549,#679,.T.);
#434=EDGE_CURVE('',#555,#548,#680,.T.);
#435=EDGE_CURVE('',#538,#555,#681,.T.);
#436=EDGE_CURVE('',#556,#555,#682,.T.);
#437=EDGE_CURVE('',#531,#556,#683,.T.);
#438=EDGE_CURVE('',#557,#557,#11,.F.);
#439=EDGE_CURVE('',#558,#559,#684,.T.);
#440=EDGE_CURVE('',#558,#532,#685,.F.);
#441=EDGE_CURVE('',#556,#560,#686,.T.);
#442=EDGE_CURVE('',#560,#559,#687,.T.);
#443=EDGE_CURVE('',#561,#562,#688,.T.);
#444=EDGE_CURVE('',#561,#558,#689,.T.);
#445=EDGE_CURVE('',#559,#562,#690,.T.);
#446=EDGE_CURVE('',#533,#561,#691,.F.);
#447=EDGE_CURVE('',#562,#563,#692,.T.);
#448=EDGE_CURVE('',#564,#563,#693,.T.);
#449=EDGE_CURVE('',#534,#564,#694,.T.);
#450=EDGE_CURVE('',#564,#565,#695,.T.);
#451=EDGE_CURVE('',#535,#565,#696,.T.);
#452=EDGE_CURVE('',#566,#567,#697,.T.);
#453=EDGE_CURVE('',#566,#568,#698,.T.);
#454=EDGE_CURVE('',#568,#536,#699,.T.);
#455=EDGE_CURVE('',#565,#569,#700,.T.);
#456=EDGE_CURVE('',#570,#569,#701,.T.);
#457=EDGE_CURVE('',#571,#570,#702,.T.);
#458=EDGE_CURVE('',#572,#571,#703,.T.);
#459=EDGE_CURVE('',#572,#567,#704,.F.);
#460=EDGE_CURVE('',#573,#569,#705,.T.);
#461=EDGE_CURVE('',#574,#573,#706,.T.);
#462=EDGE_CURVE('',#574,#570,#707,.T.);
#463=EDGE_CURVE('',#575,#576,#708,.T.);
#464=EDGE_CURVE('',#575,#577,#709,.T.);
#465=EDGE_CURVE('',#574,#577,#710,.T.);
#466=EDGE_CURVE('',#573,#578,#711,.T.);
#467=EDGE_CURVE('',#578,#576,#712,.F.);
#468=EDGE_CURVE('',#544,#575,#713,.T.);
#469=EDGE_CURVE('',#576,#545,#714,.T.);
#470=EDGE_CURVE('',#577,#542,#715,.T.);
#471=EDGE_CURVE('',#571,#554,#716,.T.);
#472=EDGE_CURVE('',#546,#578,#717,.T.);
#473=EDGE_CURVE('',#563,#560,#718,.T.);
#474=EDGE_CURVE('',#579,#580,#16,.T.);
#475=EDGE_CURVE('',#579,#580,#17,.T.);
#476=EDGE_CURVE('',#580,#579,#719,.T.);
#477=EDGE_CURVE('',#567,#552,#720,.T.);
#478=EDGE_CURVE('',#551,#566,#721,.T.);
#479=EDGE_CURVE('',#568,#550,#722,.T.);
#480=EDGE_CURVE('',#553,#572,#723,.T.);
#481=VERTEX_POINT('',#1475);
#482=VERTEX_POINT('',#1476);
#483=VERTEX_POINT('',#1478);
#484=VERTEX_POINT('',#1480);
#485=VERTEX_POINT('',#1482);
#486=VERTEX_POINT('',#1484);
#487=VERTEX_POINT('',#1488);
#488=VERTEX_POINT('',#1489);
#489=VERTEX_POINT('',#1491);
#490=VERTEX_POINT('',#1493);
#491=VERTEX_POINT('',#1497);
#492=VERTEX_POINT('',#1498);
#493=VERTEX_POINT('',#1500);
#494=VERTEX_POINT('',#1502);
#495=VERTEX_POINT('',#1504);
#496=VERTEX_POINT('',#1506);
#497=VERTEX_POINT('',#1511);
#498=VERTEX_POINT('',#1513);
#499=VERTEX_POINT('',#1515);
#500=VERTEX_POINT('',#1517);
#501=VERTEX_POINT('',#1521);
#502=VERTEX_POINT('',#1523);
#503=VERTEX_POINT('',#1525);
#504=VERTEX_POINT('',#1529);
#505=VERTEX_POINT('',#1530);
#506=VERTEX_POINT('',#1532);
#507=VERTEX_POINT('',#1534);
#508=VERTEX_POINT('',#1536);
#509=VERTEX_POINT('',#1538);
#510=VERTEX_POINT('',#1540);
#511=VERTEX_POINT('',#1542);
#512=VERTEX_POINT('',#1544);
#513=VERTEX_POINT('',#1546);
#514=VERTEX_POINT('',#1548);
#515=VERTEX_POINT('',#1550);
#516=VERTEX_POINT('',#1554);
#517=VERTEX_POINT('',#1555);
#518=VERTEX_POINT('',#1557);
#519=VERTEX_POINT('',#1562);
#520=VERTEX_POINT('',#1564);
#521=VERTEX_POINT('',#1567);
#522=VERTEX_POINT('',#1569);
#523=VERTEX_POINT('',#1574);
#524=VERTEX_POINT('',#1576);
#525=VERTEX_POINT('',#1579);
#526=VERTEX_POINT('',#1581);
#527=VERTEX_POINT('',#1586);
#528=VERTEX_POINT('',#1590);
#529=VERTEX_POINT('',#1597);
#530=VERTEX_POINT('',#1601);
#531=VERTEX_POINT('',#1628);
#532=VERTEX_POINT('',#1629);
#533=VERTEX_POINT('',#1631);
#534=VERTEX_POINT('',#1633);
#535=VERTEX_POINT('',#1635);
#536=VERTEX_POINT('',#1637);
#537=VERTEX_POINT('',#1639);
#538=VERTEX_POINT('',#1641);
#539=VERTEX_POINT('',#1645);
#540=VERTEX_POINT('',#1646);
#541=VERTEX_POINT('',#1652);
#542=VERTEX_POINT('',#1655);
#543=VERTEX_POINT('',#1656);
#544=VERTEX_POINT('',#1658);
#545=VERTEX_POINT('',#1660);
#546=VERTEX_POINT('',#1662);
#547=VERTEX_POINT('',#1664);
#548=VERTEX_POINT('',#1668);
#549=VERTEX_POINT('',#1670);
#550=VERTEX_POINT('',#1674);
#551=VERTEX_POINT('',#1676);
#552=VERTEX_POINT('',#1678);
#553=VERTEX_POINT('',#1680);
#554=VERTEX_POINT('',#1682);
#555=VERTEX_POINT('',#1685);
#556=VERTEX_POINT('',#1689);
#557=VERTEX_POINT('',#1693);
#558=VERTEX_POINT('',#1695);
#559=VERTEX_POINT('',#1696);
#560=VERTEX_POINT('',#1699);
#561=VERTEX_POINT('',#1703);
#562=VERTEX_POINT('',#1704);
#563=VERTEX_POINT('',#1710);
#564=VERTEX_POINT('',#1712);
#565=VERTEX_POINT('',#1716);
#566=VERTEX_POINT('',#1720);
#567=VERTEX_POINT('',#1721);
#568=VERTEX_POINT('',#1723);
#569=VERTEX_POINT('',#1726);
#570=VERTEX_POINT('',#1728);
#571=VERTEX_POINT('',#1730);
#572=VERTEX_POINT('',#1732);
#573=VERTEX_POINT('',#1736);
#574=VERTEX_POINT('',#1738);
#575=VERTEX_POINT('',#1742);
#576=VERTEX_POINT('',#1743);
#577=VERTEX_POINT('',#1745);
#578=VERTEX_POINT('',#1748);
#579=VERTEX_POINT('',#1763);
#580=VERTEX_POINT('',#1764);
#581=LINE('',#1474,#724);
#582=LINE('',#1477,#725);
#583=LINE('',#1479,#726);
#584=LINE('',#1481,#727);
#585=LINE('',#1483,#728);
#586=LINE('',#1485,#729);
#587=LINE('',#1487,#730);
#588=LINE('',#1490,#731);
#589=LINE('',#1492,#732);
#590=LINE('',#1494,#733);
#591=LINE('',#1496,#734);
#592=LINE('',#1499,#735);
#593=LINE('',#1501,#736);
#594=LINE('',#1503,#737);
#595=LINE('',#1505,#738);
#596=LINE('',#1507,#739);
#597=LINE('',#1509,#740);
#598=LINE('',#1510,#741);
#599=LINE('',#1512,#742);
#600=LINE('',#1514,#743);
#601=LINE('',#1516,#744);
#602=LINE('',#1518,#745);
#603=LINE('',#1520,#746);
#604=LINE('',#1522,#747);
#605=LINE('',#1524,#748);
#606=LINE('',#1526,#749);
#607=LINE('',#1528,#750);
#608=LINE('',#1531,#751);
#609=LINE('',#1533,#752);
#610=LINE('',#1535,#753);
#611=LINE('',#1537,#754);
#612=LINE('',#1539,#755);
#613=LINE('',#1541,#756);
#614=LINE('',#1543,#757);
#615=LINE('',#1545,#758);
#616=LINE('',#1547,#759);
#617=LINE('',#1549,#760);
#618=LINE('',#1551,#761);
#619=LINE('',#1553,#762);
#620=LINE('',#1556,#763);
#621=LINE('',#1558,#764);
#622=LINE('',#1559,#765);
#623=LINE('',#1561,#766);
#624=LINE('',#1563,#767);
#625=LINE('',#1565,#768);
#626=LINE('',#1566,#769);
#627=LINE('',#1568,#770);
#628=LINE('',#1570,#771);
#629=LINE('',#1572,#772);
#630=LINE('',#1573,#773);
#631=LINE('',#1575,#774);
#632=LINE('',#1577,#775);
#633=LINE('',#1578,#776);
#634=LINE('',#1580,#777);
#635=LINE('',#1582,#778);
#636=LINE('',#1583,#779);
#637=LINE('',#1585,#780);
#638=LINE('',#1587,#781);
#639=LINE('',#1589,#782);
#640=LINE('',#1591,#783);
#641=LINE('',#1593,#784);
#642=LINE('',#1596,#785);
#643=LINE('',#1598,#786);
#644=LINE('',#1600,#787);
#645=LINE('',#1602,#788);
#646=LINE('',#1604,#789);
#647=LINE('',#1607,#790);
#648=LINE('',#1608,#791);
#649=LINE('',#1609,#792);
#650=LINE('',#1611,#793);
#651=LINE('',#1613,#794);
#652=LINE('',#1615,#795);
#653=LINE('',#1616,#796);
#654=LINE('',#1618,#797);
#655=LINE('',#1619,#798);
#656=LINE('',#1627,#799);
#657=LINE('',#1630,#800);
#658=LINE('',#1632,#801);
#659=LINE('',#1634,#802);
#660=LINE('',#1636,#803);
#661=LINE('',#1638,#804);
#662=LINE('',#1640,#805);
#663=LINE('',#1642,#806);
#664=LINE('',#1644,#807);
#665=LINE('',#1654,#808);
#666=LINE('',#1657,#809);
#667=LINE('',#1659,#810);
#668=LINE('',#1661,#811);
#669=LINE('',#1663,#812);
#670=LINE('',#1665,#813);
#671=LINE('',#1667,#814);
#672=LINE('',#1669,#815);
#673=LINE('',#1671,#816);
#674=LINE('',#1673,#817);
#675=LINE('',#1675,#818);
#676=LINE('',#1677,#819);
#677=LINE('',#1679,#820);
#678=LINE('',#1681,#821);
#679=LINE('',#1683,#822);
#680=LINE('',#1684,#823);
#681=LINE('',#1686,#824);
#682=LINE('',#1688,#825);
#683=LINE('',#1690,#826);
#684=LINE('',#1694,#827);
#685=LINE('',#1697,#828);
#686=LINE('',#1698,#829);
#687=LINE('',#1700,#830);
#688=LINE('',#1702,#831);
#689=LINE('',#1705,#832);
#690=LINE('',#1706,#833);
#691=LINE('',#1708,#834);
#692=LINE('',#1709,#835);
#693=LINE('',#1711,#836);
#694=LINE('',#1713,#837);
#695=LINE('',#1715,#838);
#696=LINE('',#1717,#839);
#697=LINE('',#1719,#840);
#698=LINE('',#1722,#841);
#699=LINE('',#1724,#842);
#700=LINE('',#1725,#843);
#701=LINE('',#1727,#844);
#702=LINE('',#1729,#845);
#703=LINE('',#1731,#846);
#704=LINE('',#1733,#847);
#705=LINE('',#1735,#848);
#706=LINE('',#1737,#849);
#707=LINE('',#1739,#850);
#708=LINE('',#1741,#851);
#709=LINE('',#1744,#852);
#710=LINE('',#1746,#853);
#711=LINE('',#1747,#854);
#712=LINE('',#1749,#855);
#713=LINE('',#1751,#856);
#714=LINE('',#1752,#857);
#715=LINE('',#1754,#858);
#716=LINE('',#1755,#859);
#717=LINE('',#1757,#860);
#718=LINE('',#1758,#861);
#719=LINE('',#1767,#862);
#720=LINE('',#1770,#863);
#721=LINE('',#1771,#864);
#722=LINE('',#1773,#865);
#723=LINE('',#1775,#866);
#724=VECTOR('',#1199,1.);
#725=VECTOR('',#1200,1.);
#726=VECTOR('',#1201,1.);
#727=VECTOR('',#1202,1.);
#728=VECTOR('',#1203,1.);
#729=VECTOR('',#1204,1.);
#730=VECTOR('',#1207,1.);
#731=VECTOR('',#1208,1.);
#732=VECTOR('',#1209,1.);
#733=VECTOR('',#1210,1.);
#734=VECTOR('',#1213,1.);
#735=VECTOR('',#1214,1.);
#736=VECTOR('',#1215,1.);
#737=VECTOR('',#1216,1.);
#738=VECTOR('',#1217,1.);
#739=VECTOR('',#1218,1.);
#740=VECTOR('',#1221,1.);
#741=VECTOR('',#1222,1.);
#742=VECTOR('',#1223,1.);
#743=VECTOR('',#1224,1.);
#744=VECTOR('',#1225,1.);
#745=VECTOR('',#1226,1.);
#746=VECTOR('',#1229,1.);
#747=VECTOR('',#1230,1.);
#748=VECTOR('',#1231,1.);
#749=VECTOR('',#1232,1.);
#750=VECTOR('',#1235,1.);
#751=VECTOR('',#1236,1.);
#752=VECTOR('',#1237,1.);
#753=VECTOR('',#1238,1.);
#754=VECTOR('',#1239,1.);
#755=VECTOR('',#1240,1.);
#756=VECTOR('',#1241,1.);
#757=VECTOR('',#1242,1.);
#758=VECTOR('',#1243,1.);
#759=VECTOR('',#1244,1.);
#760=VECTOR('',#1245,1.);
#761=VECTOR('',#1246,1.);
#762=VECTOR('',#1249,1.);
#763=VECTOR('',#1250,1.);
#764=VECTOR('',#1251,1.);
#765=VECTOR('',#1252,1.);
#766=VECTOR('',#1255,1.);
#767=VECTOR('',#1256,1.);
#768=VECTOR('',#1257,1.);
#769=VECTOR('',#1258,1.);
#770=VECTOR('',#1259,1.);
#771=VECTOR('',#1260,1.);
#772=VECTOR('',#1263,1.);
#773=VECTOR('',#1264,1.);
#774=VECTOR('',#1265,1.);
#775=VECTOR('',#1266,1.);
#776=VECTOR('',#1267,1.);
#777=VECTOR('',#1268,1.);
#778=VECTOR('',#1269,1.);
#779=VECTOR('',#1270,1.);
#780=VECTOR('',#1273,1.);
#781=VECTOR('',#1274,1.);
#782=VECTOR('',#1277,1.);
#783=VECTOR('',#1278,1.);
#784=VECTOR('',#1281,1.);
#785=VECTOR('',#1286,1.);
#786=VECTOR('',#1287,1.);
#787=VECTOR('',#1290,1.);
#788=VECTOR('',#1291,1.);
#789=VECTOR('',#1294,1.);
#790=VECTOR('',#1299,1.);
#791=VECTOR('',#1300,1.);
#792=VECTOR('',#1301,1.);
#793=VECTOR('',#1304,1.);
#794=VECTOR('',#1307,1.);
#795=VECTOR('',#1310,1.);
#796=VECTOR('',#1311,1.);
#797=VECTOR('',#1314,1.);
#798=VECTOR('',#1315,1.);
#799=VECTOR('',#1330,1.);
#800=VECTOR('',#1331,1.);
#801=VECTOR('',#1332,1.);
#802=VECTOR('',#1333,1.);
#803=VECTOR('',#1334,1.);
#804=VECTOR('',#1335,1.);
#805=VECTOR('',#1336,1.);
#806=VECTOR('',#1337,1.);
#807=VECTOR('',#1340,1.);
#808=VECTOR('',#1353,1.);
#809=VECTOR('',#1354,1.);
#810=VECTOR('',#1355,1.);
#811=VECTOR('',#1356,1.);
#812=VECTOR('',#1357,1.);
#813=VECTOR('',#1358,1.);
#814=VECTOR('',#1361,1.);
#815=VECTOR('',#1362,1.);
#816=VECTOR('',#1363,1.);
#817=VECTOR('',#1366,1.);
#818=VECTOR('',#1367,1.);
#819=VECTOR('',#1368,1.);
#820=VECTOR('',#1369,1.);
#821=VECTOR('',#1370,1.);
#822=VECTOR('',#1371,1.);
#823=VECTOR('',#1372,1.);
#824=VECTOR('',#1373,1.);
#825=VECTOR('',#1376,1.);
#826=VECTOR('',#1377,1.);
#827=VECTOR('',#1382,1.);
#828=VECTOR('',#1383,1.);
#829=VECTOR('',#1384,1.);
#830=VECTOR('',#1385,1.);
#831=VECTOR('',#1388,1.);
#832=VECTOR('',#1389,1.);
#833=VECTOR('',#1390,1.);
#834=VECTOR('',#1393,1.);
#835=VECTOR('',#1394,1.);
#836=VECTOR('',#1395,1.);
#837=VECTOR('',#1396,1.);
#838=VECTOR('',#1399,1.);
#839=VECTOR('',#1400,1.);
#840=VECTOR('',#1403,1.);
#841=VECTOR('',#1404,1.);
#842=VECTOR('',#1405,1.);
#843=VECTOR('',#1406,1.);
#844=VECTOR('',#1407,1.);
#845=VECTOR('',#1408,1.);
#846=VECTOR('',#1409,1.);
#847=VECTOR('',#1410,1.);
#848=VECTOR('',#1413,1.);
#849=VECTOR('',#1414,1.);
#850=VECTOR('',#1415,1.);
#851=VECTOR('',#1418,1.);
#852=VECTOR('',#1419,1.);
#853=VECTOR('',#1420,1.);
#854=VECTOR('',#1421,1.);
#855=VECTOR('',#1422,1.);
#856=VECTOR('',#1425,1.);
#857=VECTOR('',#1426,1.);
#858=VECTOR('',#1429,1.);
#859=VECTOR('',#1430,1.);
#860=VECTOR('',#1433,1.);
#861=VECTOR('',#1434,1.);
#862=VECTOR('',#1447,1.);
#863=VECTOR('',#1452,1.);
#864=VECTOR('',#1453,1.);
#865=VECTOR('',#1456,1.);
#866=VECTOR('',#1459,1.);
#867=EDGE_LOOP('',(#34,#35,#36,#37,#38,#39));
#868=EDGE_LOOP('',(#40,#41,#42,#43));
#869=EDGE_LOOP('',(#44,#45,#46,#47,#48,#49));
#870=EDGE_LOOP('',(#50,#51,#52,#53,#54,#55,#56,#57));
#871=EDGE_LOOP('',(#58,#59,#60,#61,#62));
#872=EDGE_LOOP('',(#63,#64,#65,#66,#67,#68,#69,#70,#71,#72,#73,#74));
#873=EDGE_LOOP('',(#75,#76,#77,#78,#79));
#874=EDGE_LOOP('',(#80,#81,#82,#83,#84,#85,#86,#87));
#875=EDGE_LOOP('',(#88,#89,#90,#91,#92,#93,#94,#95,#96,#97,#98,#99,#100,
#101));
#876=EDGE_LOOP('',(#102,#103,#104,#105));
#877=EDGE_LOOP('',(#106,#107,#108,#109));
#878=EDGE_LOOP('',(#110,#111,#112,#113));
#879=EDGE_LOOP('',(#114,#115,#116,#117));
#880=EDGE_LOOP('',(#118,#119,#120,#121));
#881=EDGE_LOOP('',(#122,#123,#124,#125));
#882=EDGE_LOOP('',(#126,#127,#128,#129));
#883=EDGE_LOOP('',(#130,#131,#132,#133));
#884=EDGE_LOOP('',(#134,#135,#136,#137,#138,#139));
#885=EDGE_LOOP('',(#140,#141,#142,#143));
#886=EDGE_LOOP('',(#144,#145,#146,#147));
#887=EDGE_LOOP('',(#148,#149,#150,#151,#152,#153));
#888=EDGE_LOOP('',(#154,#155,#156,#157,#158,#159));
#889=EDGE_LOOP('',(#160,#161,#162,#163,#164));
#890=EDGE_LOOP('',(#165,#166,#167,#168,#169));
#891=EDGE_LOOP('',(#170,#171,#172,#173,#174));
#892=EDGE_LOOP('',(#175,#176,#177,#178,#179));
#893=EDGE_LOOP('',(#180,#181,#182,#183));
#894=EDGE_LOOP('',(#184,#185,#186,#187,#188,#189,#190,#191));
#895=EDGE_LOOP('',(#192,#193));
#896=EDGE_LOOP('',(#194,#195));
#897=EDGE_LOOP('',(#196,#197));
#898=EDGE_LOOP('',(#198));
#899=EDGE_LOOP('',(#199));
#900=EDGE_LOOP('',(#200,#201,#202,#203,#204,#205));
#901=EDGE_LOOP('',(#206,#207,#208,#209));
#902=EDGE_LOOP('',(#210,#211,#212,#213,#214,#215,#216,#217,#218,#219));
#903=EDGE_LOOP('',(#220,#221,#222,#223));
#904=EDGE_LOOP('',(#224));
#905=EDGE_LOOP('',(#225,#226,#227,#228,#229,#230));
#906=EDGE_LOOP('',(#231,#232,#233,#234));
#907=EDGE_LOOP('',(#235,#236,#237,#238,#239,#240));
#908=EDGE_LOOP('',(#241,#242,#243,#244));
#909=EDGE_LOOP('',(#245,#246,#247,#248,#249,#250,#251,#252,#253,#254));
#910=EDGE_LOOP('',(#255,#256,#257,#258));
#911=EDGE_LOOP('',(#259,#260,#261,#262,#263,#264));
#912=EDGE_LOOP('',(#265,#266,#267,#268));
#913=EDGE_LOOP('',(#269,#270,#271,#272,#273,#274,#275,#276));
#914=EDGE_LOOP('',(#277,#278,#279,#280,#281,#282,#283,#284,#285,#286,#287,
#288));
#915=EDGE_LOOP('',(#289,#290,#291,#292));
#916=EDGE_LOOP('',(#293,#294,#295,#296));
#917=EDGE_LOOP('',(#297,#298));
#918=EDGE_LOOP('',(#299));
#919=EDGE_LOOP('',(#300,#301));
#920=EDGE_LOOP('',(#302,#303));
#921=EDGE_LOOP('',(#304,#305,#306,#307));
#922=EDGE_LOOP('',(#308,#309,#310,#311));
#923=EDGE_LOOP('',(#312,#313,#314,#315));
#924=EDGE_LOOP('',(#316,#317,#318,#319));
#925=EDGE_LOOP('',(#320,#321,#322,#323));
#926=EDGE_LOOP('',(#324,#325,#326,#327));
#927=EDGE_LOOP('',(#328,#329,#330,#331));
#928=FACE_BOUND('',#867,.T.);
#929=FACE_BOUND('',#868,.T.);
#930=FACE_BOUND('',#869,.T.);
#931=FACE_BOUND('',#870,.T.);
#932=FACE_BOUND('',#871,.T.);
#933=FACE_BOUND('',#872,.T.);
#934=FACE_BOUND('',#873,.T.);
#935=FACE_BOUND('',#874,.T.);
#936=FACE_BOUND('',#875,.T.);
#937=FACE_BOUND('',#876,.T.);
#938=FACE_BOUND('',#877,.T.);
#939=FACE_BOUND('',#878,.T.);
#940=FACE_BOUND('',#879,.T.);
#941=FACE_BOUND('',#880,.T.);
#942=FACE_BOUND('',#881,.T.);
#943=FACE_BOUND('',#882,.T.);
#944=FACE_BOUND('',#883,.T.);
#945=FACE_BOUND('',#884,.T.);
#946=FACE_BOUND('',#885,.T.);
#947=FACE_BOUND('',#886,.T.);
#948=FACE_BOUND('',#887,.T.);
#949=FACE_BOUND('',#888,.T.);
#950=FACE_BOUND('',#889,.T.);
#951=FACE_BOUND('',#890,.T.);
#952=FACE_BOUND('',#891,.T.);
#953=FACE_BOUND('',#892,.T.);
#954=FACE_BOUND('',#893,.T.);
#955=FACE_BOUND('',#894,.T.);
#956=FACE_BOUND('',#895,.T.);
#957=FACE_BOUND('',#896,.T.);
#958=FACE_BOUND('',#897,.T.);
#959=FACE_BOUND('',#898,.T.);
#960=FACE_BOUND('',#899,.T.);
#961=FACE_BOUND('',#900,.T.);
#962=FACE_BOUND('',#901,.T.);
#963=FACE_BOUND('',#902,.T.);
#964=FACE_BOUND('',#903,.T.);
#965=FACE_BOUND('',#904,.T.);
#966=FACE_BOUND('',#905,.T.);
#967=FACE_BOUND('',#906,.T.);
#968=FACE_BOUND('',#907,.T.);
#969=FACE_BOUND('',#908,.T.);
#970=FACE_BOUND('',#909,.T.);
#971=FACE_BOUND('',#910,.T.);
#972=FACE_BOUND('',#911,.T.);
#973=FACE_BOUND('',#912,.T.);
#974=FACE_BOUND('',#913,.T.);
#975=FACE_BOUND('',#914,.T.);
#976=FACE_BOUND('',#915,.T.);
#977=FACE_BOUND('',#916,.T.);
#978=FACE_BOUND('',#917,.T.);
#979=FACE_BOUND('',#918,.T.);
#980=FACE_BOUND('',#919,.T.);
#981=FACE_BOUND('',#920,.T.);
#982=FACE_BOUND('',#921,.T.);
#983=FACE_BOUND('',#922,.T.);
#984=FACE_BOUND('',#923,.T.);
#985=FACE_BOUND('',#924,.T.);
#986=FACE_BOUND('',#925,.T.);
#987=FACE_BOUND('',#926,.T.);
#988=FACE_BOUND('',#927,.T.);
#989=PLANE('',#1129);
#990=PLANE('',#1130);
#991=PLANE('',#1131);
#992=PLANE('',#1132);
#993=PLANE('',#1133);
#994=PLANE('',#1134);
#995=PLANE('',#1135);
#996=PLANE('',#1136);
#997=PLANE('',#1137);
#998=PLANE('',#1138);
#999=PLANE('',#1139);
#1000=PLANE('',#1140);
#1001=PLANE('',#1141);
#1002=PLANE('',#1142);
#1003=PLANE('',#1143);
#1004=PLANE('',#1144);
#1005=PLANE('',#1145);
#1006=PLANE('',#1146);
#1007=PLANE('',#1147);
#1008=PLANE('',#1148);
#1009=PLANE('',#1149);
#1010=PLANE('',#1150);
#1011=PLANE('',#1151);
#1012=PLANE('',#1152);
#1013=PLANE('',#1153);
#1014=PLANE('',#1154);
#1015=PLANE('',#1155);
#1016=PLANE('',#1157);
#1017=PLANE('',#1158);
#1018=PLANE('',#1160);
#1019=PLANE('',#1164);
#1020=PLANE('',#1165);
#1021=PLANE('',#1166);
#1022=PLANE('',#1167);
#1023=PLANE('',#1168);
#1024=PLANE('',#1170);
#1025=PLANE('',#1171);
#1026=PLANE('',#1172);
#1027=PLANE('',#1173);
#1028=PLANE('',#1174);
#1029=PLANE('',#1175);
#1030=PLANE('',#1176);
#1031=PLANE('',#1177);
#1032=PLANE('',#1178);
#1033=PLANE('',#1179);
#1034=PLANE('',#1180);
#1035=PLANE('',#1184);
#1036=PLANE('',#1185);
#1037=PLANE('',#1186);
#1038=PLANE('',#1187);
#1039=PLANE('',#1188);
#1040=PLANE('',#1189);
#1041=PLANE('',#1190);
#1042=PLANE('',#1191);
#1043=PLANE('',#1192);
#1044=ADVANCED_FACE('',(#928),#989,.T.);
#1045=ADVANCED_FACE('',(#929),#990,.T.);
#1046=ADVANCED_FACE('',(#930),#991,.F.);
#1047=ADVANCED_FACE('',(#931),#992,.F.);
#1048=ADVANCED_FACE('',(#932),#993,.T.);
#1049=ADVANCED_FACE('',(#933),#994,.F.);
#1050=ADVANCED_FACE('',(#934),#995,.F.);
#1051=ADVANCED_FACE('',(#935),#996,.T.);
#1052=ADVANCED_FACE('',(#936),#997,.F.);
#1053=ADVANCED_FACE('',(#937),#998,.F.);
#1054=ADVANCED_FACE('',(#938),#999,.F.);
#1055=ADVANCED_FACE('',(#939),#1000,.T.);
#1056=ADVANCED_FACE('',(#940),#1001,.T.);
#1057=ADVANCED_FACE('',(#941),#1002,.T.);
#1058=ADVANCED_FACE('',(#942),#1003,.F.);
#1059=ADVANCED_FACE('',(#943),#1004,.T.);
#1060=ADVANCED_FACE('',(#944),#1005,.T.);
#1061=ADVANCED_FACE('',(#945),#1006,.T.);
#1062=ADVANCED_FACE('',(#946),#1007,.T.);
#1063=ADVANCED_FACE('',(#947),#1008,.T.);
#1064=ADVANCED_FACE('',(#948),#1009,.F.);
#1065=ADVANCED_FACE('',(#949),#1010,.F.);
#1066=ADVANCED_FACE('',(#950),#1011,.T.);
#1067=ADVANCED_FACE('',(#951),#1012,.F.);
#1068=ADVANCED_FACE('',(#952),#1013,.F.);
#1069=ADVANCED_FACE('',(#953),#1014,.T.);
#1070=ADVANCED_FACE('',(#954),#1015,.T.);
#1071=ADVANCED_FACE('',(#955),#1016,.T.);
#1072=ADVANCED_FACE('',(#956),#1017,.F.);
#1073=ADVANCED_FACE('',(#957),#1018,.T.);
#1074=ADVANCED_FACE('',(#958,#959),#12,.T.);
#1075=ADVANCED_FACE('',(#960,#961),#1019,.F.);
#1076=ADVANCED_FACE('',(#962),#1020,.F.);
#1077=ADVANCED_FACE('',(#963),#1021,.T.);
#1078=ADVANCED_FACE('',(#964),#1022,.T.);
#1079=ADVANCED_FACE('',(#965,#966),#1023,.F.);
#1080=ADVANCED_FACE('',(#967),#1024,.T.);
#1081=ADVANCED_FACE('',(#968),#1025,.T.);
#1082=ADVANCED_FACE('',(#969),#1026,.F.);
#1083=ADVANCED_FACE('',(#970),#1027,.F.);
#1084=ADVANCED_FACE('',(#971),#1028,.T.);
#1085=ADVANCED_FACE('',(#972),#1029,.F.);
#1086=ADVANCED_FACE('',(#973),#1030,.F.);
#1087=ADVANCED_FACE('',(#974),#1031,.T.);
#1088=ADVANCED_FACE('',(#975),#1032,.F.);
#1089=ADVANCED_FACE('',(#976),#1033,.F.);
#1090=ADVANCED_FACE('',(#977),#1034,.T.);
#1091=ADVANCED_FACE('',(#978,#979),#13,.T.);
#1092=ADVANCED_FACE('',(#980),#1035,.F.);
#1093=ADVANCED_FACE('',(#981),#1036,.T.);
#1094=ADVANCED_FACE('',(#982),#1037,.T.);
#1095=ADVANCED_FACE('',(#983),#1038,.F.);
#1096=ADVANCED_FACE('',(#984),#1039,.T.);
#1097=ADVANCED_FACE('',(#985),#1040,.T.);
#1098=ADVANCED_FACE('',(#986),#1041,.F.);
#1099=ADVANCED_FACE('',(#987),#1042,.T.);
#1100=ADVANCED_FACE('',(#988),#1043,.F.);
#1101=CLOSED_SHELL('',(#1044,#1045,#1046,#1047,#1048,#1049,#1050,#1051,
#1052,#1053,#1054,#1055,#1056,#1057,#1058,#1059,#1060,#1061,#1062,#1063,
#1064,#1065,#1066,#1067,#1068,#1069,#1070));
#1102=CLOSED_SHELL('',(#1071,#1072,#1073,#1074,#1075,#1076,#1077,#1078,
#1079,#1080,#1081,#1082,#1083,#1084,#1085,#1086,#1087,#1088,#1089,#1090,
#1091,#1092,#1093,#1094,#1095,#1096,#1097,#1098,#1099,#1100));
#1103=STYLED_ITEM('',(#1105),#1118);
#1104=STYLED_ITEM('',(#1106),#1119);
#1105=PRESENTATION_STYLE_ASSIGNMENT((#1107));
#1106=PRESENTATION_STYLE_ASSIGNMENT((#1108));
#1107=SURFACE_STYLE_USAGE(.BOTH.,#1109);
#1108=SURFACE_STYLE_USAGE(.BOTH.,#1110);
#1109=SURFACE_SIDE_STYLE('',(#1111));
#1110=SURFACE_SIDE_STYLE('',(#1112));
#1111=SURFACE_STYLE_FILL_AREA(#1113);
#1112=SURFACE_STYLE_FILL_AREA(#1114);
#1113=FILL_AREA_STYLE('',(#1115));
#1114=FILL_AREA_STYLE('',(#1116));
#1115=FILL_AREA_STYLE_COLOUR('',#1117);
#1116=FILL_AREA_STYLE_COLOUR('',#1117);
#1117=COLOUR_RGB('',0.,0.588235294117647,1.);
#1118=MANIFOLD_SOLID_BREP('Bulldozer',#1101);
#1119=MANIFOLD_SOLID_BREP('bumper long',#1102);
#1120=SHAPE_DEFINITION_REPRESENTATION(#1794,#1124);
#1121=SHAPE_DEFINITION_REPRESENTATION(#1795,#1125);
#1122=SHAPE_DEFINITION_REPRESENTATION(#1796,#1126);
#1123=SHAPE_DEFINITION_REPRESENTATION(#1798,#1127);
#1124=SHAPE_REPRESENTATION('FULL assembly',(#1128,#1194),#1783);
#1125=SHAPE_REPRESENTATION('Assembly 1 <1>',(#1128,#1156,#1193),#1784);
#1126=SHAPE_REPRESENTATION('Bulldozer',(#1128),#1785);
#1127=SHAPE_REPRESENTATION('bumper long',(#1128),#1786);
#1128=AXIS2_PLACEMENT_3D('',#1472,#1195,#1196);
#1129=AXIS2_PLACEMENT_3D('',#1473,#1197,#1198);
#1130=AXIS2_PLACEMENT_3D('',#1486,#1205,#1206);
#1131=AXIS2_PLACEMENT_3D('',#1495,#1211,#1212);
#1132=AXIS2_PLACEMENT_3D('',#1508,#1219,#1220);
#1133=AXIS2_PLACEMENT_3D('',#1519,#1227,#1228);
#1134=AXIS2_PLACEMENT_3D('',#1527,#1233,#1234);
#1135=AXIS2_PLACEMENT_3D('',#1552,#1247,#1248);
#1136=AXIS2_PLACEMENT_3D('',#1560,#1253,#1254);
#1137=AXIS2_PLACEMENT_3D('',#1571,#1261,#1262);
#1138=AXIS2_PLACEMENT_3D('',#1584,#1271,#1272);
#1139=AXIS2_PLACEMENT_3D('',#1588,#1275,#1276);
#1140=AXIS2_PLACEMENT_3D('',#1592,#1279,#1280);
#1141=AXIS2_PLACEMENT_3D('',#1594,#1282,#1283);
#1142=AXIS2_PLACEMENT_3D('',#1595,#1284,#1285);
#1143=AXIS2_PLACEMENT_3D('',#1599,#1288,#1289);
#1144=AXIS2_PLACEMENT_3D('',#1603,#1292,#1293);
#1145=AXIS2_PLACEMENT_3D('',#1605,#1295,#1296);
#1146=AXIS2_PLACEMENT_3D('',#1606,#1297,#1298);
#1147=AXIS2_PLACEMENT_3D('',#1610,#1302,#1303);
#1148=AXIS2_PLACEMENT_3D('',#1612,#1305,#1306);
#1149=AXIS2_PLACEMENT_3D('',#1614,#1308,#1309);
#1150=AXIS2_PLACEMENT_3D('',#1617,#1312,#1313);
#1151=AXIS2_PLACEMENT_3D('',#1620,#1316,#1317);
#1152=AXIS2_PLACEMENT_3D('',#1621,#1318,#1319);
#1153=AXIS2_PLACEMENT_3D('',#1622,#1320,#1321);
#1154=AXIS2_PLACEMENT_3D('',#1623,#1322,#1323);
#1155=AXIS2_PLACEMENT_3D('',#1624,#1324,#1325);
#1156=AXIS2_PLACEMENT_3D('',#1625,#1326,#1327);
#1157=AXIS2_PLACEMENT_3D('',#1626,#1328,#1329);
#1158=AXIS2_PLACEMENT_3D('',#1643,#1338,#1339);
#1159=AXIS2_PLACEMENT_3D('',#1647,#1341,#1342);
#1160=AXIS2_PLACEMENT_3D('',#1648,#1343,#1344);
#1161=AXIS2_PLACEMENT_3D('',#1649,#1345,#1346);
#1162=AXIS2_PLACEMENT_3D('',#1650,#1347,#1348);
#1163=AXIS2_PLACEMENT_3D('',#1651,#1349,#1350);
#1164=AXIS2_PLACEMENT_3D('',#1653,#1351,#1352);
#1165=AXIS2_PLACEMENT_3D('',#1666,#1359,#1360);
#1166=AXIS2_PLACEMENT_3D('',#1672,#1364,#1365);
#1167=AXIS2_PLACEMENT_3D('',#1687,#1374,#1375);
#1168=AXIS2_PLACEMENT_3D('',#1691,#1378,#1379);
#1169=AXIS2_PLACEMENT_3D('',#1692,#1380,#1381);
#1170=AXIS2_PLACEMENT_3D('',#1701,#1386,#1387);
#1171=AXIS2_PLACEMENT_3D('',#1707,#1391,#1392);
#1172=AXIS2_PLACEMENT_3D('',#1714,#1397,#1398);
#1173=AXIS2_PLACEMENT_3D('',#1718,#1401,#1402);
#1174=AXIS2_PLACEMENT_3D('',#1734,#1411,#1412);
#1175=AXIS2_PLACEMENT_3D('',#1740,#1416,#1417);
#1176=AXIS2_PLACEMENT_3D('',#1750,#1423,#1424);
#1177=AXIS2_PLACEMENT_3D('',#1753,#1427,#1428);
#1178=AXIS2_PLACEMENT_3D('',#1756,#1431,#1432);
#1179=AXIS2_PLACEMENT_3D('',#1759,#1435,#1436);
#1180=AXIS2_PLACEMENT_3D('',#1760,#1437,#1438);
#1181=AXIS2_PLACEMENT_3D('',#1761,#1439,#1440);
#1182=AXIS2_PLACEMENT_3D('',#1762,#1441,#1442);
#1183=AXIS2_PLACEMENT_3D('',#1765,#1443,#1444);
#1184=AXIS2_PLACEMENT_3D('',#1766,#1445,#1446);
#1185=AXIS2_PLACEMENT_3D('',#1768,#1448,#1449);
#1186=AXIS2_PLACEMENT_3D('',#1769,#1450,#1451);
#1187=AXIS2_PLACEMENT_3D('',#1772,#1454,#1455);
#1188=AXIS2_PLACEMENT_3D('',#1774,#1457,#1458);
#1189=AXIS2_PLACEMENT_3D('',#1776,#1460,#1461);
#1190=AXIS2_PLACEMENT_3D('',#1777,#1462,#1463);
#1191=AXIS2_PLACEMENT_3D('',#1778,#1464,#1465);
#1192=AXIS2_PLACEMENT_3D('',#1779,#1466,#1467);
#1193=AXIS2_PLACEMENT_3D('',#1780,#1468,#1469);
#1194=AXIS2_PLACEMENT_3D('',#1781,#1470,#1471);
#1195=DIRECTION('',(0.,0.,1.));
#1196=DIRECTION('',(1.,0.,0.));
#1197=DIRECTION('',(0.,1.,0.));
#1198=DIRECTION('',(0.,0.,1.));
#1199=DIRECTION('',(0.,0.,-1.));
#1200=DIRECTION('',(-0.668239999507281,0.,0.743945766207799));
#1201=DIRECTION('',(0.994268636888287,0.,-0.10691060611702));
#1202=DIRECTION('',(0.,0.,1.));
#1203=DIRECTION('',(-0.923879532511287,0.,0.38268343236509));
#1204=DIRECTION('',(0.707106781186548,0.,-0.707106781186548));
#1205=DIRECTION('',(1.,3.0657852300032E-16,0.));
#1206=DIRECTION('',(-3.0657852300032E-16,1.,0.));
#1207=DIRECTION('',(3.0657852300032E-16,-1.,0.));
#1208=DIRECTION('',(0.,0.,-1.));
#1209=DIRECTION('',(-3.0657852300032E-16,1.,0.));
#1210=DIRECTION('',(0.,0.,1.));
#1211=DIRECTION('',(0.,1.,0.));
#1212=DIRECTION('',(0.,0.,1.));
#1213=DIRECTION('',(0.923879532511287,0.,-0.38268343236509));
#1214=DIRECTION('',(0.,0.,-1.));
#1215=DIRECTION('',(-0.994268636888287,0.,0.10691060611702));
#1216=DIRECTION('',(0.668239999507281,0.,-0.743945766207799));
#1217=DIRECTION('',(0.,0.,-1.));
#1218=DIRECTION('',(-0.707106781186548,0.,0.707106781186548));
#1219=DIRECTION('',(-1.,0.,0.));
#1220=DIRECTION('',(0.,0.,1.));
#1221=DIRECTION('',(0.,-1.,3.29654325806795E-17));
#1222=DIRECTION('',(0.,-1.,0.));
#1223=DIRECTION('',(0.,0.,-1.));
#1224=DIRECTION('',(0.,1.,0.));
#1225=DIRECTION('',(0.,0.,-1.));
#1226=DIRECTION('',(0.,-1.,0.));
#1227=DIRECTION('',(0.,1.,0.));
#1228=DIRECTION('',(0.,0.,1.));
#1229=DIRECTION('',(1.,0.,0.));
#1230=DIRECTION('',(0.,0.,1.));
#1231=DIRECTION('',(-0.923879532511287,0.,0.38268343236509));
#1232=DIRECTION('',(0.707106781186548,0.,-0.707106781186548));
#1233=DIRECTION('',(1.,0.,0.));
#1234=DIRECTION('',(0.,0.,-1.));
#1235=DIRECTION('',(0.,-1.,0.));
#1236=DIRECTION('',(0.,0.,1.));
#1237=DIRECTION('',(0.,-1.,0.));
#1238=DIRECTION('',(0.,0.,-1.));
#1239=DIRECTION('',(0.,-1.,0.));
#1240=DIRECTION('',(0.,0.,1.));
#1241=DIRECTION('',(0.,1.,0.));
#1242=DIRECTION('',(0.,2.16840434497101E-16,1.));
#1243=DIRECTION('',(0.,-1.,0.));
#1244=DIRECTION('',(0.,2.16840434497101E-16,1.));
#1245=DIRECTION('',(0.,-1.,0.));
#1246=DIRECTION('',(0.,0.,1.));
#1247=DIRECTION('',(-2.77555756156289E-16,1.,0.));
#1248=DIRECTION('',(-1.,-2.77555756156289E-16,0.));
#1249=DIRECTION('',(0.923879532511287,2.56428082243489E-16,-0.38268343236509));
#1250=DIRECTION('',(0.,0.,-1.));
#1251=DIRECTION('',(1.,2.77555756156289E-16,0.));
#1252=DIRECTION('',(-0.707106781186548,-1.96261557335472E-16,0.707106781186548));
#1253=DIRECTION('',(0.,0.,1.));
#1254=DIRECTION('',(1.,0.,0.));
#1255=DIRECTION('',(-0.707106781186547,0.707106781186548,0.));
#1256=DIRECTION('',(0.,1.,0.));
#1257=DIRECTION('',(0.707106781186548,-0.707106781186547,0.));
#1258=DIRECTION('',(0.707106781186548,0.707106781186547,0.));
#1259=DIRECTION('',(0.,1.,0.));
#1260=DIRECTION('',(-0.707106781186548,-0.707106781186548,0.));
#1261=DIRECTION('',(0.,0.,1.));
#1262=DIRECTION('',(1.,0.,0.));
#1263=DIRECTION('',(0.707106781186547,-0.707106781186548,0.));
#1264=DIRECTION('',(1.,0.,0.));
#1265=DIRECTION('',(0.,-1.,0.));
#1266=DIRECTION('',(1.,0.,0.));
#1267=DIRECTION('',(1.,0.,0.));
#1268=DIRECTION('',(0.,-1.,0.));
#1269=DIRECTION('',(1.,0.,0.));
#1270=DIRECTION('',(0.707106781186548,0.707106781186548,0.));
#1271=DIRECTION('',(0.,1.,-2.16840434497101E-16));
#1272=DIRECTION('',(0.,2.16840434497101E-16,1.));
#1273=DIRECTION('',(1.,0.,0.));
#1274=DIRECTION('',(0.,2.16840434497101E-16,1.));
#1275=DIRECTION('',(0.,0.,-1.));
#1276=DIRECTION('',(-1.,0.,0.));
#1277=DIRECTION('',(1.,0.,0.));
#1278=DIRECTION('',(0.,1.,0.));
#1279=DIRECTION('',(0.,1.,0.));
#1280=DIRECTION('',(0.,0.,1.));
#1281=DIRECTION('',(0.,0.,1.));
#1282=DIRECTION('',(-1.,0.,0.));
#1283=DIRECTION('',(0.,-1.,0.));
#1284=DIRECTION('',(0.,1.,-2.16840434497101E-16));
#1285=DIRECTION('',(0.,2.16840434497101E-16,1.));
#1286=DIRECTION('',(0.,2.16840434497101E-16,1.));
#1287=DIRECTION('',(1.,0.,0.));
#1288=DIRECTION('',(0.,1.,0.));
#1289=DIRECTION('',(0.,0.,1.));
#1290=DIRECTION('',(1.,0.,0.));
#1291=DIRECTION('',(0.,0.,1.));
#1292=DIRECTION('',(0.,0.,1.));
#1293=DIRECTION('',(1.,0.,0.));
#1294=DIRECTION('',(0.,-1.,0.));
#1295=DIRECTION('',(-1.,0.,0.));
#1296=DIRECTION('',(0.,-1.,0.));
#1297=DIRECTION('',(0.10691060611702,3.27764957164249E-17,0.994268636888286));
#1298=DIRECTION('',(-3.0657852300032E-16,1.,0.));
#1299=DIRECTION('',(1.07069215600546E-34,-1.,3.29654325806795E-17));
#1300=DIRECTION('',(0.705071703055099,0.705071703055098,-0.0758141616188279));
#1301=DIRECTION('',(0.705071703055099,-0.705071703055098,-0.0758141616188278));
#1302=DIRECTION('',(0.707106781186548,0.,0.707106781186548));
#1303=DIRECTION('',(0.,1.,0.));
#1304=DIRECTION('',(0.,-1.,0.));
#1305=DIRECTION('',(0.707106781186548,0.,0.707106781186548));
#1306=DIRECTION('',(0.,-1.,0.));
#1307=DIRECTION('',(0.,-1.,0.));
#1308=DIRECTION('',(-0.38268343236509,0.,-0.923879532511287));
#1309=DIRECTION('',(0.,1.,0.));
#1310=DIRECTION('',(0.678598344545847,-0.678598344545848,-0.281084637714821));
#1311=DIRECTION('',(-0.678598344545848,0.678598344545846,0.281084637714821));
#1312=DIRECTION('',(-0.38268343236509,0.,-0.923879532511287));
#1313=DIRECTION('',(0.,1.,0.));
#1314=DIRECTION('',(0.678598344545847,0.678598344545847,-0.281084637714821));
#1315=DIRECTION('',(-0.678598344545847,-0.678598344545847,0.281084637714821));
#1316=DIRECTION('',(0.707106781186547,0.707106781186548,0.));
#1317=DIRECTION('',(0.,0.,1.));
#1318=DIRECTION('',(-0.707106781186547,0.707106781186548,0.));
#1319=DIRECTION('',(0.,0.,-1.));
#1320=DIRECTION('',(0.707106781186548,0.707106781186547,0.));
#1321=DIRECTION('',(0.,0.,-1.));
#1322=DIRECTION('',(-0.707106781186548,0.707106781186548,0.));
#1323=DIRECTION('',(0.,0.,1.));
#1324=DIRECTION('',(0.743945766207799,2.20288206514705E-17,0.668239999507281));
#1325=DIRECTION('',(0.,-1.,3.29654325806795E-17));
#1326=DIRECTION('',(0.,0.,1.));
#1327=DIRECTION('',(5.76205749780456E-14,-1.,0.));
#1328=DIRECTION('',(0.,0.,1.));
#1329=DIRECTION('',(1.,0.,0.));
#1330=DIRECTION('',(8.16340459283203E-16,-1.,0.));
#1331=DIRECTION('',(1.,0.,0.));
#1332=DIRECTION('',(0.,-1.,0.));
#1333=DIRECTION('',(-0.707106781186547,0.707106781186548,0.));
#1334=DIRECTION('',(-1.,-1.02193601151012E-16,0.));
#1335=DIRECTION('',(1.20096240644548E-16,-1.,0.));
#1336=DIRECTION('',(-1.,-1.20096240644548E-16,0.));
#1337=DIRECTION('',(-0.707106781186547,0.707106781186548,0.));
#1338=DIRECTION('',(-0.913811548620257,0.406138466053448,0.));
#1339=DIRECTION('',(0.406138466053448,0.913811548620257,0.));
#1340=DIRECTION('',(0.,0.,1.));
#1341=DIRECTION('',(0.913811548620257,-0.406138466053448,0.));
#1342=DIRECTION('',(-0.406138466053448,-0.913811548620257,0.));
#1343=DIRECTION('',(0.866025403784439,0.5,0.));
#1344=DIRECTION('',(0.5,-0.866025403784439,0.));
#1345=DIRECTION('',(-0.866025403784439,-0.5,0.));
#1346=DIRECTION('',(-0.5,0.866025403784439,0.));
#1347=DIRECTION('',(-1.,8.16340459283203E-16,0.));
#1348=DIRECTION('',(8.16340459283203E-16,1.,0.));
#1349=DIRECTION('',(1.,-8.16340459283203E-16,0.));
#1350=DIRECTION('',(8.16340459283203E-16,1.,0.));
#1351=DIRECTION('',(-1.,0.,0.));
#1352=DIRECTION('',(0.,0.,1.));
#1353=DIRECTION('',(0.,1.,0.));
#1354=DIRECTION('',(0.,-0.707106781186548,-0.707106781186548));
#1355=DIRECTION('',(0.,0.,-1.));
#1356=DIRECTION('',(0.,-0.707106781186548,0.707106781186548));
#1357=DIRECTION('',(0.,1.,0.));
#1358=DIRECTION('',(0.,0.,-1.));
#1359=DIRECTION('',(-0.707106781186547,0.707106781186548,0.));
#1360=DIRECTION('',(-0.707106781186548,-0.707106781186547,0.));
#1361=DIRECTION('',(0.707106781186548,0.707106781186547,0.));
#1362=DIRECTION('',(0.,0.,-1.));
#1363=DIRECTION('',(0.707106781186548,0.707106781186547,0.));
#1364=DIRECTION('',(1.20096240644548E-16,-1.,0.));
#1365=DIRECTION('',(1.,1.20096240644548E-16,0.));
#1366=DIRECTION('',(0.,0.,1.));
#1367=DIRECTION('',(-0.707106781186548,-8.49208661547715E-17,-0.707106781186548));
#1368=DIRECTION('',(-1.,-1.20096240644548E-16,-1.35525271560688E-16));
#1369=DIRECTION('',(0.707106781186548,8.49208661547715E-17,-0.707106781186548));
#1370=DIRECTION('',(0.,0.,1.));
#1371=DIRECTION('',(-1.,-1.20096240644548E-16,0.));
#1372=DIRECTION('',(-1.,-1.20096240644548E-16,0.));
#1373=DIRECTION('',(0.,0.,-1.));
#1374=DIRECTION('',(-0.707106781186548,-0.707106781186547,0.));
#1375=DIRECTION('',(0.707106781186547,-0.707106781186548,0.));
#1376=DIRECTION('',(-0.707106781186547,0.707106781186548,0.));
#1377=DIRECTION('',(0.,0.,-1.));
#1378=DIRECTION('',(1.,8.16340459283203E-16,0.));
#1379=DIRECTION('',(-8.16340459283203E-16,1.,0.));
#1380=DIRECTION('',(1.,8.16340459283203E-16,0.));
#1381=DIRECTION('',(-8.16340459283203E-16,1.,0.));
#1382=DIRECTION('',(0.,0.,-1.));
#1383=DIRECTION('',(5.77239874516094E-16,-0.707106781186548,-0.707106781186548));
#1384=DIRECTION('',(8.16340459283203E-16,-1.,0.));
#1385=DIRECTION('',(5.77239874516094E-16,-0.707106781186548,0.707106781186548));
#1386=DIRECTION('',(0.,-1.,0.));
#1387=DIRECTION('',(0.,0.,-1.));
#1388=DIRECTION('',(0.,0.,-1.));
#1389=DIRECTION('',(-1.,0.,0.));
#1390=DIRECTION('',(1.,0.,0.));
#1391=DIRECTION('',(1.,0.,0.));
#1392=DIRECTION('',(0.,0.,-1.));
#1393=DIRECTION('',(0.,0.707106781186548,0.707106781186548));
#1394=DIRECTION('',(0.,0.707106781186548,-0.707106781186548));
#1395=DIRECTION('',(0.,-1.,0.));
#1396=DIRECTION('',(0.,0.,-1.));
#1397=DIRECTION('',(-0.707106781186548,-0.707106781186547,0.));
#1398=DIRECTION('',(0.707106781186547,-0.707106781186548,0.));
#1399=DIRECTION('',(-0.707106781186547,0.707106781186548,0.));
#1400=DIRECTION('',(0.,0.,-1.));
#1401=DIRECTION('',(1.02193601151012E-16,-1.,0.));
#1402=DIRECTION('',(1.,1.02193601151012E-16,0.));
#1403=DIRECTION('',(-1.,-1.02193601151012E-16,-1.35525271560688E-16));
#1404=DIRECTION('',(0.707106781186548,7.22617883677537E-17,0.707106781186548));
#1405=DIRECTION('',(0.,0.,1.));
#1406=DIRECTION('',(-1.,-1.02193601151012E-16,0.));
#1407=DIRECTION('',(0.,0.,-1.));
#1408=DIRECTION('',(-1.,-1.02193601151012E-16,0.));
#1409=DIRECTION('',(0.,0.,1.));
#1410=DIRECTION('',(-0.707106781186548,-7.22617883677537E-17,0.707106781186548));
#1411=DIRECTION('',(-0.707106781186547,0.707106781186548,0.));
#1412=DIRECTION('',(-0.707106781186548,-0.707106781186547,0.));
#1413=DIRECTION('',(0.707106781186548,0.707106781186547,0.));
#1414=DIRECTION('',(0.,0.,-1.));
#1415=DIRECTION('',(0.707106781186548,0.707106781186547,0.));
#1416=DIRECTION('',(1.,6.97393971657125E-16,0.));
#1417=DIRECTION('',(-6.97393971657125E-16,1.,0.));
#1418=DIRECTION('',(0.,0.,-1.));
#1419=DIRECTION('',(-4.93132006517372E-16,0.707106781186548,0.707106781186548));
#1420=DIRECTION('',(6.97393971657125E-16,-1.,0.));
#1421=DIRECTION('',(6.97393971657125E-16,-1.,0.));
#1422=DIRECTION('',(-4.93132006517372E-16,0.707106781186548,-0.707106781186548));
#1423=DIRECTION('',(0.,1.,0.));
#1424=DIRECTION('',(0.,0.,1.));
#1425=DIRECTION('',(-1.,0.,0.));
#1426=DIRECTION('',(1.,0.,0.));
#1427=DIRECTION('',(0.,0.,1.));
#1428=DIRECTION('',(1.,0.,0.));
#1429=DIRECTION('',(1.,0.,0.));
#1430=DIRECTION('',(1.20096240644548E-16,-1.,0.));
#1431=DIRECTION('',(0.,0.,1.));
#1432=DIRECTION('',(1.,0.,0.));
#1433=DIRECTION('',(-1.,0.,0.));
#1434=DIRECTION('',(-1.,0.,0.));
#1435=DIRECTION('',(0.,0.707106781186548,0.707106781186548));
#1436=DIRECTION('',(1.,0.,0.));
#1437=DIRECTION('',(0.,-0.707106781186548,-0.707106781186548));
#1438=DIRECTION('',(1.,0.,0.));
#1439=DIRECTION('',(1.,8.16340459283203E-16,0.));
#1440=DIRECTION('',(-8.16340459283203E-16,1.,0.));
#1441=DIRECTION('',(-0.866025403784439,0.5,0.));
#1442=DIRECTION('',(0.5,0.866025403784439,0.));
#1443=DIRECTION('',(0.913811548620257,0.406138466053448,0.));
#1444=DIRECTION('',(0.406138466053448,-0.913811548620257,0.));
#1445=DIRECTION('',(0.913811548620257,0.406138466053448,0.));
#1446=DIRECTION('',(-0.406138466053448,0.913811548620257,0.));
#1447=DIRECTION('',(0.,0.,1.));
#1448=DIRECTION('',(-0.866025403784439,0.5,0.));
#1449=DIRECTION('',(-0.5,-0.866025403784439,0.));
#1450=DIRECTION('',(-1.35525271560688E-16,-1.62760756267701E-32,1.));
#1451=DIRECTION('',(1.,0.,1.35525271560688E-16));
#1452=DIRECTION('',(1.20096240644548E-16,-1.,0.));
#1453=DIRECTION('',(-1.20096240644548E-16,1.,0.));
#1454=DIRECTION('',(1.,1.20096240644548E-16,0.));
#1455=DIRECTION('',(-1.20096240644548E-16,1.,0.));
#1456=DIRECTION('',(1.20096240644548E-16,-1.,0.));
#1457=DIRECTION('',(1.,1.20096240644548E-16,0.));
#1458=DIRECTION('',(-1.20096240644548E-16,1.,0.));
#1459=DIRECTION('',(-1.20096240644548E-16,1.,0.));
#1460=DIRECTION('',(0.707106781186548,8.49208661547715E-17,0.707106781186548));
#1461=DIRECTION('',(-1.20096240644548E-16,1.,0.));
#1462=DIRECTION('',(0.707106781186548,8.49208661547715E-17,-0.707106781186548));
#1463=DIRECTION('',(1.20096240644548E-16,-1.,0.));
#1464=DIRECTION('',(0.,-0.707106781186548,0.707106781186548));
#1465=DIRECTION('',(-1.,0.,0.));
#1466=DIRECTION('',(0.,0.707106781186548,-0.707106781186548));
#1467=DIRECTION('',(-1.,0.,0.));
#1468=DIRECTION('',(0.,0.,1.));
#1469=DIRECTION('',(-1.,-5.75183813768946E-14,0.));
#1470=DIRECTION('',(0.,0.,1.));
#1471=DIRECTION('',(1.,0.,0.));
#1472=CARTESIAN_POINT('',(0.,0.,0.));
#1473=CARTESIAN_POINT('',(0.02625,-0.03395,0.032));
#1474=CARTESIAN_POINT('',(0.041,-0.03395,0.032));
#1475=CARTESIAN_POINT('',(0.041,-0.03395,0.011));
#1476=CARTESIAN_POINT('',(0.041,-0.03395,0.000660215053763444));
#1477=CARTESIAN_POINT('',(0.0400057313631117,-0.03395,0.00176712565988046));
#1478=CARTESIAN_POINT('',(0.0400057313631118,-0.03395,0.00176712565988046));
#1479=CARTESIAN_POINT('',(0.0231935364041605,-0.03395,0.00357488855869242));
#1480=CARTESIAN_POINT('',(0.0125,-0.03395,0.0047247311827957));
#1481=CARTESIAN_POINT('',(0.0125,-0.03395,0.032));
#1482=CARTESIAN_POINT('',(0.0125,-0.03395,0.0280649711574556));
#1483=CARTESIAN_POINT('',(0.0228451163312937,-0.03395,0.0237798836687064));
#1484=CARTESIAN_POINT('',(0.0320208152801713,-0.03395,0.0199791847198287));
#1485=CARTESIAN_POINT('',(0.023125,-0.03395,0.028875));
#1486=CARTESIAN_POINT('',(0.0025,6.93889390390723E-18,0.032));
#1487=CARTESIAN_POINT('',(0.0025,6.93889390390723E-18,0.032));
#1488=CARTESIAN_POINT('',(0.0025,0.02395,0.032));
#1489=CARTESIAN_POINT('',(0.0025,-0.02395,0.032));
#1490=CARTESIAN_POINT('',(0.0025,-0.02395,0.0058));
#1491=CARTESIAN_POINT('',(0.0025,-0.02395,0.0058));
#1492=CARTESIAN_POINT('',(0.0025,0.03395,0.0058));
#1493=CARTESIAN_POINT('',(0.0025,0.02395,0.0058));
#1494=CARTESIAN_POINT('',(0.0025,0.02395,0.032));
#1495=CARTESIAN_POINT('',(0.02625,0.03395,0.032));
#1496=CARTESIAN_POINT('',(0.003,0.03395,0.032));
#1497=CARTESIAN_POINT('',(0.0320208152801713,0.03395,0.0199791847198287));
#1498=CARTESIAN_POINT('',(0.0125,0.03395,0.0280649711574556));
#1499=CARTESIAN_POINT('',(0.0125,0.03395,0.032));
#1500=CARTESIAN_POINT('',(0.0125,0.03395,0.0047247311827957));
#1501=CARTESIAN_POINT('',(0.049,0.03395,0.0008));
#1502=CARTESIAN_POINT('',(0.0400057313631117,0.03395,0.00176712565988046));
#1503=CARTESIAN_POINT('',(0.0188333830906797,0.03395,0.0253381164260224));
#1504=CARTESIAN_POINT('',(0.041,0.03395,0.000660215053763444));
#1505=CARTESIAN_POINT('',(0.041,0.03395,0.032));
#1506=CARTESIAN_POINT('',(0.041,0.03395,0.011));
#1507=CARTESIAN_POINT('',(0.02,0.03395,0.032));
#1508=CARTESIAN_POINT('',(0.041,0.0352,0.032));
#1509=CARTESIAN_POINT('',(0.041,0.0352,0.000660215053763444));
#1510=CARTESIAN_POINT('',(0.041,0.0352,0.011));
#1511=CARTESIAN_POINT('',(0.041,-0.03645,0.011));
#1512=CARTESIAN_POINT('',(0.041,-0.03645,0.032));
#1513=CARTESIAN_POINT('',(0.041,-0.03645,0.));
#1514=CARTESIAN_POINT('',(0.041,0.0352,0.));
#1515=CARTESIAN_POINT('',(0.041,0.03645,0.));
#1516=CARTESIAN_POINT('',(0.041,0.03645,0.032));
#1517=CARTESIAN_POINT('',(0.041,0.03645,0.011));
#1518=CARTESIAN_POINT('',(0.041,0.,0.011));
#1519=CARTESIAN_POINT('',(0.025,0.03645,0.032));
#1520=CARTESIAN_POINT('',(0.025,0.03645,0.));
#1521=CARTESIAN_POINT('',(0.01,0.03645,0.));
#1522=CARTESIAN_POINT('',(0.01,0.03645,0.032));
#1523=CARTESIAN_POINT('',(0.01,0.03645,0.0291005050633883));
#1524=CARTESIAN_POINT('',(0.021778174593052,0.03645,0.024221825406948));
#1525=CARTESIAN_POINT('',(0.0320208152801713,0.03645,0.0199791847198287));
#1526=CARTESIAN_POINT('',(0.0225,0.03645,0.0295));
#1527=CARTESIAN_POINT('',(0.,-0.0352,0.032));
#1528=CARTESIAN_POINT('',(0.,-0.0352,0.));
#1529=CARTESIAN_POINT('',(0.,-0.0085,0.));
#1530=CARTESIAN_POINT('',(0.,-0.02645,0.));
#1531=CARTESIAN_POINT('',(0.,-0.02645,0.032));
#1532=CARTESIAN_POINT('',(0.,-0.02645,0.032));
#1533=CARTESIAN_POINT('',(0.,-0.0352,0.032));
#1534=CARTESIAN_POINT('',(0.,0.02645,0.032));
#1535=CARTESIAN_POINT('',(0.,0.02645,0.));
#1536=CARTESIAN_POINT('',(0.,0.02645,0.));
#1537=CARTESIAN_POINT('',(0.,-0.0352,0.));
#1538=CARTESIAN_POINT('',(0.,0.0085,0.));
#1539=CARTESIAN_POINT('',(0.,0.0085,0.004));
#1540=CARTESIAN_POINT('',(0.,0.0085,0.008));
#1541=CARTESIAN_POINT('',(0.,0.00675,0.008));
#1542=CARTESIAN_POINT('',(0.,0.005,0.008));
#1543=CARTESIAN_POINT('',(0.,0.005,0.004));
#1544=CARTESIAN_POINT('',(0.,0.005,0.));
#1545=CARTESIAN_POINT('',(0.,-0.0352,0.));
#1546=CARTESIAN_POINT('',(0.,-0.005,0.));
#1547=CARTESIAN_POINT('',(0.,-0.005,0.004));
#1548=CARTESIAN_POINT('',(0.,-0.005,0.008));
#1549=CARTESIAN_POINT('',(0.,-0.00675,0.008));
#1550=CARTESIAN_POINT('',(0.,-0.0085,0.008));
#1551=CARTESIAN_POINT('',(0.,-0.0085,0.004));
#1552=CARTESIAN_POINT('',(0.025,-0.03645,0.032));
#1553=CARTESIAN_POINT('',(0.003,-0.03645,0.032));
#1554=CARTESIAN_POINT('',(0.0320208152801713,-0.03645,0.0199791847198287));
#1555=CARTESIAN_POINT('',(0.01,-0.03645,0.0291005050633883));
#1556=CARTESIAN_POINT('',(0.01,-0.03645,0.032));
#1557=CARTESIAN_POINT('',(0.01,-0.03645,0.));
#1558=CARTESIAN_POINT('',(0.025,-0.03645,0.));
#1559=CARTESIAN_POINT('',(0.05,-0.03645,0.002));
#1560=CARTESIAN_POINT('',(0.025,0.,0.032));
#1561=CARTESIAN_POINT('',(-0.000725,-0.025725,0.032));
#1562=CARTESIAN_POINT('',(0.003,-0.02945,0.032));
#1563=CARTESIAN_POINT('',(0.003,0.,0.032));
#1564=CARTESIAN_POINT('',(0.003,-0.02445,0.032));
#1565=CARTESIAN_POINT('',(0.0025,-0.02395,0.032));
#1566=CARTESIAN_POINT('',(0.0125,0.03395,0.032));
#1567=CARTESIAN_POINT('',(0.003,0.02445,0.032));
#1568=CARTESIAN_POINT('',(0.003,0.,0.032));
#1569=CARTESIAN_POINT('',(0.003,0.02945,0.032));
#1570=CARTESIAN_POINT('',(-0.000725,0.025725,0.032));
#1571=CARTESIAN_POINT('',(0.025,0.,0.));
#1572=CARTESIAN_POINT('',(0.01,-0.03645,0.));
#1573=CARTESIAN_POINT('',(-0.008,-0.0085,0.));
#1574=CARTESIAN_POINT('',(-0.008,-0.0085,0.));
#1575=CARTESIAN_POINT('',(-0.008,-0.0352,0.));
#1576=CARTESIAN_POINT('',(-0.008,-0.005,0.));
#1577=CARTESIAN_POINT('',(-0.008,-0.005,0.));
#1578=CARTESIAN_POINT('',(-0.008,0.005,0.));
#1579=CARTESIAN_POINT('',(-0.008,0.005,0.));
#1580=CARTESIAN_POINT('',(-0.008,-0.0352,0.));
#1581=CARTESIAN_POINT('',(-0.008,0.0085,0.));
#1582=CARTESIAN_POINT('',(-0.008,0.0085,0.));
#1583=CARTESIAN_POINT('',(0.,0.02645,0.));
#1584=CARTESIAN_POINT('',(-0.008,0.005,0.004));
#1585=CARTESIAN_POINT('',(-0.008,0.005,0.008));
#1586=CARTESIAN_POINT('',(-0.008,0.005,0.008));
#1587=CARTESIAN_POINT('',(-0.008,0.005,0.004));
#1588=CARTESIAN_POINT('',(-0.008,0.00675,0.008));
#1589=CARTESIAN_POINT('',(-0.008,0.0085,0.008));
#1590=CARTESIAN_POINT('',(-0.008,0.0085,0.008));
#1591=CARTESIAN_POINT('',(-0.008,0.00675,0.008));
#1592=CARTESIAN_POINT('',(-0.008,0.0085,0.004));
#1593=CARTESIAN_POINT('',(-0.008,0.0085,0.004));
#1594=CARTESIAN_POINT('',(-0.008,6.93889390390723E-18,0.016));
#1595=CARTESIAN_POINT('',(-0.008,-0.005,0.004));
#1596=CARTESIAN_POINT('',(-0.008,-0.005,0.004));
#1597=CARTESIAN_POINT('',(-0.008,-0.005,0.008));
#1598=CARTESIAN_POINT('',(-0.008,-0.005,0.008));
#1599=CARTESIAN_POINT('',(-0.008,-0.0085,0.004));
#1600=CARTESIAN_POINT('',(-0.008,-0.0085,0.008));
#1601=CARTESIAN_POINT('',(-0.008,-0.0085,0.008));
#1602=CARTESIAN_POINT('',(-0.008,-0.0085,0.004));
#1603=CARTESIAN_POINT('',(-0.008,-0.00675,0.008));
#1604=CARTESIAN_POINT('',(-0.008,-0.00675,0.008));
#1605=CARTESIAN_POINT('',(-0.008,6.93889390390723E-18,0.016));
#1606=CARTESIAN_POINT('',(0.049,7.35788455200766E-18,0.0008));
#1607=CARTESIAN_POINT('',(0.0400057313631117,7.3897662677455E-18,0.00176712565988046));
#1608=CARTESIAN_POINT('',(0.0110420163237154,0.0324920163237154,0.00488150362110587));
#1609=CARTESIAN_POINT('',(0.00109949419473503,-0.0225494941947351,0.0059505920220715));
#1610=CARTESIAN_POINT('',(0.05,0.0352,0.002));
#1611=CARTESIAN_POINT('',(0.0320208152801713,0.0352,0.0199791847198287));
#1612=CARTESIAN_POINT('',(0.02,0.,0.032));
#1613=CARTESIAN_POINT('',(0.0320208152801713,0.,0.0199791847198287));
#1614=CARTESIAN_POINT('',(0.003,0.,0.032));
#1615=CARTESIAN_POINT('',(-0.0105615987543397,-0.0158884012456602,0.0376173981315096));
#1616=CARTESIAN_POINT('',(0.00253950428677964,-0.0239895042867797,0.0321907435698306));
#1617=CARTESIAN_POINT('',(0.003,0.,0.032));
#1618=CARTESIAN_POINT('',(-0.0105615987543397,0.0158884012456603,0.0376173981315096));
#1619=CARTESIAN_POINT('',(0.0117494185511869,0.033199418551187,0.0283758721732197));
#1620=CARTESIAN_POINT('',(0.0025,-0.02395,0.032));
#1621=CARTESIAN_POINT('',(0.0125,0.03395,0.032));
#1622=CARTESIAN_POINT('',(0.01,-0.03645,0.032));
#1623=CARTESIAN_POINT('',(0.,0.02645,0.032));
#1624=CARTESIAN_POINT('',(0.0400057313631117,7.3897662677455E-18,0.00176712565988046));
#1625=CARTESIAN_POINT('',(-1.38777878078145E-17,-0.047699999999999,-0.0430234117454861));
#1626=CARTESIAN_POINT('',(0.00207554379105568,0.00177157483994961,0.032));
#1627=CARTESIAN_POINT('',(0.037,-0.00225,0.032));
#1628=CARTESIAN_POINT('',(0.037,0.002,0.032));
#1629=CARTESIAN_POINT('',(0.037,-0.009838682487607,0.032));
#1630=CARTESIAN_POINT('',(0.00207554379105568,-0.009838682487607,0.032));
#1631=CARTESIAN_POINT('',(0.0405,-0.009838682487607,0.032));
#1632=CARTESIAN_POINT('',(0.0405,-0.0106693412438035,0.032));
#1633=CARTESIAN_POINT('',(0.0405,0.00344974746830584,0.032));
#1634=CARTESIAN_POINT('',(0.0372248737341529,0.00672487373415293,0.032));
#1635=CARTESIAN_POINT('',(0.0339497474683058,0.01,0.032));
#1636=CARTESIAN_POINT('',(6.93889390390723E-18,0.01,0.032));
#1637=CARTESIAN_POINT('',(0.032,0.01,0.032));
#1638=CARTESIAN_POINT('',(0.032,0.0970746738398596,0.032));
#1639=CARTESIAN_POINT('',(0.032,0.0065,0.032));
#1640=CARTESIAN_POINT('',(0.,0.0065,0.032));
#1641=CARTESIAN_POINT('',(0.0325,0.0065,0.032));
#1642=CARTESIAN_POINT('',(0.03475,0.00425,0.032));
#1643=CARTESIAN_POINT('',(-0.0356524467760218,-0.00846800524604905,0.007));
#1644=CARTESIAN_POINT('',(-0.0343048935520436,-0.0054360104920981,0.007));
#1645=CARTESIAN_POINT('',(-0.0343048935520436,-0.0054360104920981,0.0206291943805799));
#1646=CARTESIAN_POINT('',(-0.0343048935520436,-0.0054360104920981,0.02737080561942));
#1647=CARTESIAN_POINT('',(-0.0348666666666666,-0.0067,0.024));
#1648=CARTESIAN_POINT('',(-0.0351524467760218,-0.00396800524604904,0.007));
#1649=CARTESIAN_POINT('',(-0.0335751288694036,-0.0067,0.024));
#1650=CARTESIAN_POINT('',(-0.0325,-0.0067,0.024));
#1651=CARTESIAN_POINT('',(-0.037,-0.0067,0.024));
#1652=CARTESIAN_POINT('',(-0.037,-0.0031,0.024));
#1653=CARTESIAN_POINT('',(-0.037,-0.0106693412438035,0.032));
#1654=CARTESIAN_POINT('',(-0.037,-0.0106693412438035,0.032));
#1655=CARTESIAN_POINT('',(-0.037,-0.009838682487607,0.032));
#1656=CARTESIAN_POINT('',(-0.037,0.002,0.032));
#1657=CARTESIAN_POINT('',(-0.037,-0.009838682487607,0.032));
#1658=CARTESIAN_POINT('',(-0.037,-0.014838682487607,0.027));
#1659=CARTESIAN_POINT('',(-0.037,-0.014838682487607,0.032));
#1660=CARTESIAN_POINT('',(-0.037,-0.014838682487607,0.015));
#1661=CARTESIAN_POINT('',(-0.037,-0.014838682487607,0.015));
#1662=CARTESIAN_POINT('',(-0.037,0.000161317512392997,0.));
#1663=CARTESIAN_POINT('',(-0.037,-0.0106693412438035,0.));
#1664=CARTESIAN_POINT('',(-0.037,0.002,0.));
#1665=CARTESIAN_POINT('',(-0.037,0.002,0.032));
#1666=CARTESIAN_POINT('',(-0.03475,0.00425,0.032));
#1667=CARTESIAN_POINT('',(-0.03475,0.00425,0.));
#1668=CARTESIAN_POINT('',(-0.0325,0.0065,0.));
#1669=CARTESIAN_POINT('',(-0.0325,0.0065,0.032));
#1670=CARTESIAN_POINT('',(-0.0325,0.0065,0.032));
#1671=CARTESIAN_POINT('',(-0.03475,0.00425,0.032));
#1672=CARTESIAN_POINT('',(0.,0.0065,0.032));
#1673=CARTESIAN_POINT('',(0.032,0.0065,0.032));
#1674=CARTESIAN_POINT('',(0.032,0.0065,0.017));
#1675=CARTESIAN_POINT('',(0.032,0.0065,0.017));
#1676=CARTESIAN_POINT('',(0.027,0.0065,0.012));
#1677=CARTESIAN_POINT('',(-1.12590460524756E-50,0.0065,0.012));
#1678=CARTESIAN_POINT('',(-0.027,0.0065,0.012));
#1679=CARTESIAN_POINT('',(-0.027,0.0065,0.012));
#1680=CARTESIAN_POINT('',(-0.032,0.0065,0.017));
#1681=CARTESIAN_POINT('',(-0.032,0.0065,0.032));
#1682=CARTESIAN_POINT('',(-0.032,0.0065,0.032));
#1683=CARTESIAN_POINT('',(0.,0.0065,0.032));
#1684=CARTESIAN_POINT('',(0.,0.0065,0.));
#1685=CARTESIAN_POINT('',(0.0325,0.0065,0.));
#1686=CARTESIAN_POINT('',(0.0325,0.0065,0.032));
#1687=CARTESIAN_POINT('',(0.03475,0.00425,0.032));
#1688=CARTESIAN_POINT('',(0.03475,0.00425,0.));
#1689=CARTESIAN_POINT('',(0.037,0.002,0.));
#1690=CARTESIAN_POINT('',(0.037,0.002,0.032));
#1691=CARTESIAN_POINT('',(0.037,-0.00225,0.032));
#1692=CARTESIAN_POINT('',(0.037,-0.0067,0.024));
#1693=CARTESIAN_POINT('',(0.037,-0.0031,0.024));
#1694=CARTESIAN_POINT('',(0.037,-0.014838682487607,0.032));
#1695=CARTESIAN_POINT('',(0.037,-0.014838682487607,0.027));
#1696=CARTESIAN_POINT('',(0.037,-0.014838682487607,0.015));
#1697=CARTESIAN_POINT('',(0.037,-0.014838682487607,0.027));
#1698=CARTESIAN_POINT('',(0.037,-0.00225,0.));
#1699=CARTESIAN_POINT('',(0.037,0.000161317512392997,0.));
#1700=CARTESIAN_POINT('',(0.037,0.000161317512393011,-1.42551233109129E-17));
#1701=CARTESIAN_POINT('',(0.03875,-0.014838682487607,0.032));
#1702=CARTESIAN_POINT('',(0.0405,-0.014838682487607,0.032));
#1703=CARTESIAN_POINT('',(0.0405,-0.014838682487607,0.027));
#1704=CARTESIAN_POINT('',(0.0405,-0.014838682487607,0.015));
#1705=CARTESIAN_POINT('',(0.03875,-0.014838682487607,0.027));
#1706=CARTESIAN_POINT('',(0.0405,-0.014838682487607,0.015));
#1707=CARTESIAN_POINT('',(0.0405,-0.0106693412438035,0.032));
#1708=CARTESIAN_POINT('',(0.0405,-0.0102540118657052,0.0315846706219018));
#1709=CARTESIAN_POINT('',(0.0405,-0.0212540118657053,0.0214153293780983));
#1710=CARTESIAN_POINT('',(0.0405,0.000161317512392997,0.));
#1711=CARTESIAN_POINT('',(0.0405,-0.0106693412438035,0.));
#1712=CARTESIAN_POINT('',(0.0405,0.00344974746830584,0.));
#1713=CARTESIAN_POINT('',(0.0405,0.00344974746830584,0.032));
#1714=CARTESIAN_POINT('',(0.0372248737341529,0.00672487373415293,0.032));
#1715=CARTESIAN_POINT('',(0.0372248737341529,0.00672487373415293,0.));
#1716=CARTESIAN_POINT('',(0.0339497474683058,0.01,0.));
#1717=CARTESIAN_POINT('',(0.0339497474683058,0.01,0.032));
#1718=CARTESIAN_POINT('',(6.93889390390723E-18,0.01,0.032));
#1719=CARTESIAN_POINT('',(9.64939933512099E-18,0.01,0.012));
#1720=CARTESIAN_POINT('',(0.027,0.01,0.012));
#1721=CARTESIAN_POINT('',(-0.027,0.01,0.012));
#1722=CARTESIAN_POINT('',(0.0235,0.01,0.0085));
#1723=CARTESIAN_POINT('',(0.032,0.01,0.017));
#1724=CARTESIAN_POINT('',(0.032,0.01,0.032));
#1725=CARTESIAN_POINT('',(6.93889390390723E-18,0.01,0.));
#1726=CARTESIAN_POINT('',(-0.0339497474683058,0.01,0.));
#1727=CARTESIAN_POINT('',(-0.0339497474683058,0.01,0.032));
#1728=CARTESIAN_POINT('',(-0.0339497474683058,0.01,0.032));
#1729=CARTESIAN_POINT('',(6.93889390390723E-18,0.01,0.032));
#1730=CARTESIAN_POINT('',(-0.032,0.01,0.032));
#1731=CARTESIAN_POINT('',(-0.032,0.01,0.032));
#1732=CARTESIAN_POINT('',(-0.032,0.01,0.017));
#1733=CARTESIAN_POINT('',(-0.0235,0.01,0.0085));
#1734=CARTESIAN_POINT('',(-0.037224873734153,0.00672487373415292,0.032));
#1735=CARTESIAN_POINT('',(-0.037224873734153,0.00672487373415292,0.));
#1736=CARTESIAN_POINT('',(-0.0405,0.00344974746830584,0.));
#1737=CARTESIAN_POINT('',(-0.0405,0.00344974746830584,0.032));
#1738=CARTESIAN_POINT('',(-0.0405,0.00344974746830584,0.032));
#1739=CARTESIAN_POINT('',(-0.037224873734153,0.00672487373415292,0.032));
#1740=CARTESIAN_POINT('',(-0.0405,-0.00152512626584708,0.032));
#1741=CARTESIAN_POINT('',(-0.0405,-0.014838682487607,0.032));
#1742=CARTESIAN_POINT('',(-0.0405,-0.014838682487607,0.027));
#1743=CARTESIAN_POINT('',(-0.0405,-0.014838682487607,0.015));
#1744=CARTESIAN_POINT('',(-0.0405,-0.00983868248760702,0.032));
#1745=CARTESIAN_POINT('',(-0.0405,-0.009838682487607,0.032));
#1746=CARTESIAN_POINT('',(-0.0405,-0.00152512626584708,0.032));
#1747=CARTESIAN_POINT('',(-0.0405,-0.00152512626584708,0.));
#1748=CARTESIAN_POINT('',(-0.0405,0.000161317512392998,0.));
#1749=CARTESIAN_POINT('',(-0.0405,-0.014838682487607,0.015));
#1750=CARTESIAN_POINT('',(-0.03875,-0.014838682487607,0.032));
#1751=CARTESIAN_POINT('',(-0.0405,-0.014838682487607,0.027));
#1752=CARTESIAN_POINT('',(-0.03875,-0.014838682487607,0.015));
#1753=CARTESIAN_POINT('',(0.00207554379105568,0.00177157483994961,0.032));
#1754=CARTESIAN_POINT('',(-0.037,-0.009838682487607,0.032));
#1755=CARTESIAN_POINT('',(-0.032,0.0970746738398596,0.032));
#1756=CARTESIAN_POINT('',(0.00207554379105568,0.00177157483994961,0.));
#1757=CARTESIAN_POINT('',(0.00207554379105568,0.000161317512392998,0.));
#1758=CARTESIAN_POINT('',(0.037,0.000161317512392997,0.));
#1759=CARTESIAN_POINT('',(-0.03875,-0.014838682487607,0.015));
#1760=CARTESIAN_POINT('',(0.00207554379105568,0.000161317512392997,0.));
#1761=CARTESIAN_POINT('',(0.0325,-0.0067,0.024));
#1762=CARTESIAN_POINT('',(0.0335751288694036,-0.0067,0.024));
#1763=CARTESIAN_POINT('',(0.0343048935520436,-0.0054360104920981,0.02737080561942));
#1764=CARTESIAN_POINT('',(0.0343048935520436,-0.0054360104920981,0.0206291943805799));
#1765=CARTESIAN_POINT('',(0.0348666666666666,-0.0067,0.024));
#1766=CARTESIAN_POINT('',(0.0356524467760218,-0.00846800524604905,0.007));
#1767=CARTESIAN_POINT('',(0.0343048935520436,-0.0054360104920981,0.007));
#1768=CARTESIAN_POINT('',(0.0351524467760218,-0.00396800524604904,0.007));
#1769=CARTESIAN_POINT('',(-1.08776778257732E-17,0.0970746738398596,0.012));
#1770=CARTESIAN_POINT('',(-0.027,0.0065,0.012));
#1771=CARTESIAN_POINT('',(0.027,0.0970746738398596,0.012));
#1772=CARTESIAN_POINT('',(0.032,0.0970746738398596,0.032));
#1773=CARTESIAN_POINT('',(0.032,0.0970746738398596,0.017));
#1774=CARTESIAN_POINT('',(-0.032,0.0970746738398596,0.032));
#1775=CARTESIAN_POINT('',(-0.032,0.01,0.017));
#1776=CARTESIAN_POINT('',(-0.027,0.0970746738398596,0.012));
#1777=CARTESIAN_POINT('',(0.032,0.0970746738398596,0.017));
#1778=CARTESIAN_POINT('',(0.00207554379105568,-0.009838682487607,0.032));
#1779=CARTESIAN_POINT('',(0.03875,-0.014838682487607,0.027));
#1780=CARTESIAN_POINT('',(-9.59952603518666E-16,-0.0306999999999991,-0.03459131217224));
#1781=CARTESIAN_POINT('',(0.,0.,0.));
#1782=MECHANICAL_DESIGN_GEOMETRIC_PRESENTATION_REPRESENTATION('',(#1103,
#1104),#1783);
#1783=(
GEOMETRIC_REPRESENTATION_CONTEXT(3)
GLOBAL_UNCERTAINTY_ASSIGNED_CONTEXT((#1787))
GLOBAL_UNIT_ASSIGNED_CONTEXT((#1793,#1792,#1791))
REPRESENTATION_CONTEXT('FULL assembly','TOP_LEVEL_ASSEMBLY_PART')
);
#1784=(
GEOMETRIC_REPRESENTATION_CONTEXT(3)
GLOBAL_UNCERTAINTY_ASSIGNED_CONTEXT((#1788))
GLOBAL_UNIT_ASSIGNED_CONTEXT((#1793,#1792,#1791))
REPRESENTATION_CONTEXT('Assembly 1 <1>','COMPONENT_PART')
);
#1785=(
GEOMETRIC_REPRESENTATION_CONTEXT(3)
GLOBAL_UNCERTAINTY_ASSIGNED_CONTEXT((#1789))
GLOBAL_UNIT_ASSIGNED_CONTEXT((#1793,#1792,#1791))
REPRESENTATION_CONTEXT('Bulldozer','COMPONENT_PART')
);
#1786=(
GEOMETRIC_REPRESENTATION_CONTEXT(3)
GLOBAL_UNCERTAINTY_ASSIGNED_CONTEXT((#1790))
GLOBAL_UNIT_ASSIGNED_CONTEXT((#1793,#1792,#1791))
REPRESENTATION_CONTEXT('bumper long','COMPONENT_PART')
);
#1787=UNCERTAINTY_MEASURE_WITH_UNIT(LENGTH_MEASURE(1.E-8),#1793,
'DISTANCE_ACCURACY_VALUE','Maximum Tolerance applied to model');
#1788=UNCERTAINTY_MEASURE_WITH_UNIT(LENGTH_MEASURE(1.E-8),#1793,
'DISTANCE_ACCURACY_VALUE','Maximum Tolerance applied to model');
#1789=UNCERTAINTY_MEASURE_WITH_UNIT(LENGTH_MEASURE(1.E-8),#1793,
'DISTANCE_ACCURACY_VALUE','Maximum Tolerance applied to model');
#1790=UNCERTAINTY_MEASURE_WITH_UNIT(LENGTH_MEASURE(1.E-8),#1793,
'DISTANCE_ACCURACY_VALUE','Maximum Tolerance applied to model');
#1791=(
NAMED_UNIT(*)
SI_UNIT($,.STERADIAN.)
SOLID_ANGLE_UNIT()
);
#1792=(
NAMED_UNIT(*)
PLANE_ANGLE_UNIT()
SI_UNIT($,.RADIAN.)
);
#1793=(
LENGTH_UNIT()
NAMED_UNIT(*)
SI_UNIT($,.METRE.)
);
#1794=PRODUCT_DEFINITION_SHAPE('','',#1801);
#1795=PRODUCT_DEFINITION_SHAPE('','',#1802);
#1796=PRODUCT_DEFINITION_SHAPE('','',#1803);
#1797=PRODUCT_DEFINITION_SHAPE(' ','NAUO PRDDFN',#21);
#1798=PRODUCT_DEFINITION_SHAPE('','',#1804);
#1799=PRODUCT_DEFINITION_SHAPE(' ','NAUO PRDDFN',#22);
#1800=PRODUCT_DEFINITION_SHAPE(' ','NAUO PRDDFN',#23);
#1801=PRODUCT_DEFINITION('','',#1809,#1805);
#1802=PRODUCT_DEFINITION('','',#1810,#1806);
#1803=PRODUCT_DEFINITION('','',#1811,#1807);
#1804=PRODUCT_DEFINITION('','',#1812,#1808);
#1805=PRODUCT_DEFINITION_CONTEXT('',#1830,'design');
#1806=PRODUCT_DEFINITION_CONTEXT('',#1830,'design');
#1807=PRODUCT_DEFINITION_CONTEXT('',#1830,'design');
#1808=PRODUCT_DEFINITION_CONTEXT('',#1830,'design');
#1809=PRODUCT_DEFINITION_FORMATION_WITH_SPECIFIED_SOURCE('','',#1817,
 .NOT_KNOWN.);
#1810=PRODUCT_DEFINITION_FORMATION_WITH_SPECIFIED_SOURCE('','',#1818,
 .NOT_KNOWN.);
#1811=PRODUCT_DEFINITION_FORMATION_WITH_SPECIFIED_SOURCE('','',#1819,
 .NOT_KNOWN.);
#1812=PRODUCT_DEFINITION_FORMATION_WITH_SPECIFIED_SOURCE('','',#1820,
 .NOT_KNOWN.);
#1813=PRODUCT_RELATED_PRODUCT_CATEGORY('','',(#1817));
#1814=PRODUCT_RELATED_PRODUCT_CATEGORY('','',(#1818));
#1815=PRODUCT_RELATED_PRODUCT_CATEGORY('','',(#1819));
#1816=PRODUCT_RELATED_PRODUCT_CATEGORY('','',(#1820));
#1817=PRODUCT('FULL assembly','FULL assembly','FULL assembly',(#1825));
#1818=PRODUCT('Assembly 1 <1>','Assembly 1 <1>','Assembly 1 <1>',(#1826));
#1819=PRODUCT('Bulldozer','Bulldozer','Bulldozer',(#1827));
#1820=PRODUCT('bumper long','bumper long','bumper long',(#1828));
#1821=PRODUCT_CATEGORY('','');
#1822=PRODUCT_CATEGORY('','');
#1823=PRODUCT_CATEGORY('','');
#1824=PRODUCT_CATEGORY('','');
#1825=PRODUCT_CONTEXT('',#1830,'mechanical');
#1826=PRODUCT_CONTEXT('',#1830,'mechanical');
#1827=PRODUCT_CONTEXT('',#1830,'mechanical');
#1828=PRODUCT_CONTEXT('',#1830,'mechanical');
#1829=APPLICATION_PROTOCOL_DEFINITION('international standard',
'ap242_managed_model_based_3d_engineering',2011,#1830);
#1830=APPLICATION_CONTEXT('managed model based 3d engineering');
ENDSEC;
END-ISO-10303-21;
