ISO-10303-21;
HEADER;
/*Generated by software containing ST-Developer
 * from STEP Tools, Inc. (www.steptools.com) 
 */
/*OPTION: using custom renumber hook */
/*description */
/*implementation_level */
FILE_DESCRIPTION(('STEP AP242 Edition 2','STEP AP242 Edition 2''CAx-IF Rec.Pracs.---Representation and Presentation of Product Manufa
cturing Information (PMI)---4.0---2014-10-13','STEP AP242 Edition 2''CAx-IF Rec.Pracs.---Representation and Presentation of Product Manufa
cturing Information (PMI)---4.0---2014-10-13''CAx-IF Rec.Pracs.---3D Tessellated Geometry---0.4---2014-09-14','STEP AP242 Edition 2''CAx-IF Rec.Pracs.---Representation and Presentation of Product Manufa
cturing Information (PMI)---4.0---2014-10-13''CAx-IF Rec.Pracs.---3D Tessellated Geometry---0.4---2014-09-14''2;1','STEP AP242 Edition 2''CAx-IF Rec.Pracs.---Representation and Presentation of Product Manufa
cturing Information (PMI)---4.0---2014-10-13''CAx-IF Rec.Pracs.---3D Tessellated Geometry---0.4---2014-09-14''2;1''CAx-IF Rec.Pracs.---User Defined Attributes---1.5---2016-08-15'),'2;1');
/*name */
/*time_stamp */
/*author */
/*organization */
/*preprocessor_version */
/*originating_system */
/*authorisation */
FILE_NAME('/vol/tmp/translate-17211901411532514126/Toplightsnologo - Part 15.step','2026-03-31T07:12:11',(''),(''),'ST-DEVELOPER v20','ONSHAPE BY PTC INC, 1.212','  ');
FILE_SCHEMA(('AP242_MANAGED_MODEL_BASED_3D_ENGINEERING_MIM_LF { 1 0 10303 442 3 1 4 }'));
ENDSEC;
DATA;
#10=SHAPE_REPRESENTATION_RELATIONSHIP('','',#469,#11);
#11=ADVANCED_BREP_SHAPE_REPRESENTATION('',(#467),#845);
#12=SPHERICAL_SURFACE('',#501,0.026);
#13=SPHERICAL_SURFACE('',#508,0.0248);
#14=PLANE('',#483);
#15=PLANE('',#517);
#16=PLANE('',#526);
#17=PLANE('',#535);
#18=PLANE('',#544);
#19=LINE('',#716,#35);
#20=LINE('',#720,#36);
#21=LINE('',#722,#37);
#22=LINE('',#727,#38);
#23=LINE('',#731,#39);
#24=LINE('',#736,#40);
#25=LINE('',#740,#41);
#26=LINE('',#745,#42);
#27=LINE('',#789,#43);
#28=LINE('',#793,#44);
#29=LINE('',#803,#45);
#30=LINE('',#807,#46);
#31=LINE('',#817,#47);
#32=LINE('',#821,#48);
#33=LINE('',#831,#49);
#34=LINE('',#835,#50);
#35=VECTOR('',#551,1.);
#36=VECTOR('',#554,1.);
#37=VECTOR('',#557,1.);
#38=VECTOR('',#560,1.);
#39=VECTOR('',#565,1.);
#40=VECTOR('',#568,1.);
#41=VECTOR('',#573,1.);
#42=VECTOR('',#576,1.);
#43=VECTOR('',#633,1.);
#44=VECTOR('',#638,1.);
#45=VECTOR('',#653,1.);
#46=VECTOR('',#658,1.);
#47=VECTOR('',#673,1.);
#48=VECTOR('',#678,1.);
#49=VECTOR('',#693,1.);
#50=VECTOR('',#698,1.);
#51=ORIENTED_EDGE('',*,*,#175,.F.);
#52=ORIENTED_EDGE('',*,*,#176,.T.);
#53=ORIENTED_EDGE('',*,*,#177,.T.);
#54=ORIENTED_EDGE('',*,*,#178,.F.);
#55=ORIENTED_EDGE('',*,*,#179,.F.);
#56=ORIENTED_EDGE('',*,*,#180,.F.);
#57=ORIENTED_EDGE('',*,*,#181,.T.);
#58=ORIENTED_EDGE('',*,*,#182,.T.);
#59=ORIENTED_EDGE('',*,*,#183,.F.);
#60=ORIENTED_EDGE('',*,*,#184,.F.);
#61=ORIENTED_EDGE('',*,*,#185,.T.);
#62=ORIENTED_EDGE('',*,*,#186,.T.);
#63=ORIENTED_EDGE('',*,*,#187,.F.);
#64=ORIENTED_EDGE('',*,*,#188,.F.);
#65=ORIENTED_EDGE('',*,*,#189,.T.);
#66=ORIENTED_EDGE('',*,*,#190,.T.);
#67=ORIENTED_EDGE('',*,*,#191,.T.);
#68=ORIENTED_EDGE('',*,*,#190,.F.);
#69=ORIENTED_EDGE('',*,*,#192,.T.);
#70=ORIENTED_EDGE('',*,*,#193,.F.);
#71=ORIENTED_EDGE('',*,*,#194,.T.);
#72=ORIENTED_EDGE('',*,*,#177,.F.);
#73=ORIENTED_EDGE('',*,*,#195,.T.);
#74=ORIENTED_EDGE('',*,*,#196,.F.);
#75=ORIENTED_EDGE('',*,*,#197,.T.);
#76=ORIENTED_EDGE('',*,*,#182,.F.);
#77=ORIENTED_EDGE('',*,*,#198,.T.);
#78=ORIENTED_EDGE('',*,*,#199,.F.);
#79=ORIENTED_EDGE('',*,*,#200,.T.);
#80=ORIENTED_EDGE('',*,*,#186,.F.);
#81=ORIENTED_EDGE('',*,*,#201,.T.);
#82=ORIENTED_EDGE('',*,*,#202,.F.);
#83=ORIENTED_EDGE('',*,*,#203,.T.);
#84=ORIENTED_EDGE('',*,*,#204,.T.);
#85=ORIENTED_EDGE('',*,*,#205,.T.);
#86=ORIENTED_EDGE('',*,*,#206,.T.);
#87=ORIENTED_EDGE('',*,*,#207,.T.);
#88=ORIENTED_EDGE('',*,*,#208,.T.);
#89=ORIENTED_EDGE('',*,*,#188,.T.);
#90=ORIENTED_EDGE('',*,*,#209,.T.);
#91=ORIENTED_EDGE('',*,*,#184,.T.);
#92=ORIENTED_EDGE('',*,*,#210,.T.);
#93=ORIENTED_EDGE('',*,*,#180,.T.);
#94=ORIENTED_EDGE('',*,*,#211,.T.);
#95=ORIENTED_EDGE('',*,*,#175,.T.);
#96=ORIENTED_EDGE('',*,*,#191,.F.);
#97=ORIENTED_EDGE('',*,*,#212,.T.);
#98=ORIENTED_EDGE('',*,*,#212,.F.);
#99=ORIENTED_EDGE('',*,*,#194,.F.);
#100=ORIENTED_EDGE('',*,*,#213,.F.);
#101=ORIENTED_EDGE('',*,*,#214,.T.);
#102=ORIENTED_EDGE('',*,*,#178,.T.);
#103=ORIENTED_EDGE('',*,*,#193,.T.);
#104=ORIENTED_EDGE('',*,*,#215,.F.);
#105=ORIENTED_EDGE('',*,*,#216,.F.);
#106=ORIENTED_EDGE('',*,*,#213,.T.);
#107=ORIENTED_EDGE('',*,*,#192,.F.);
#108=ORIENTED_EDGE('',*,*,#189,.F.);
#109=ORIENTED_EDGE('',*,*,#217,.T.);
#110=ORIENTED_EDGE('',*,*,#215,.T.);
#111=ORIENTED_EDGE('',*,*,#218,.T.);
#112=ORIENTED_EDGE('',*,*,#204,.F.);
#113=ORIENTED_EDGE('',*,*,#214,.F.);
#114=ORIENTED_EDGE('',*,*,#216,.T.);
#115=ORIENTED_EDGE('',*,*,#217,.F.);
#116=ORIENTED_EDGE('',*,*,#208,.F.);
#117=ORIENTED_EDGE('',*,*,#218,.F.);
#118=ORIENTED_EDGE('',*,*,#203,.F.);
#119=ORIENTED_EDGE('',*,*,#219,.F.);
#120=ORIENTED_EDGE('',*,*,#220,.T.);
#121=ORIENTED_EDGE('',*,*,#187,.T.);
#122=ORIENTED_EDGE('',*,*,#202,.T.);
#123=ORIENTED_EDGE('',*,*,#221,.F.);
#124=ORIENTED_EDGE('',*,*,#222,.F.);
#125=ORIENTED_EDGE('',*,*,#219,.T.);
#126=ORIENTED_EDGE('',*,*,#201,.F.);
#127=ORIENTED_EDGE('',*,*,#185,.F.);
#128=ORIENTED_EDGE('',*,*,#223,.T.);
#129=ORIENTED_EDGE('',*,*,#221,.T.);
#130=ORIENTED_EDGE('',*,*,#224,.T.);
#131=ORIENTED_EDGE('',*,*,#205,.F.);
#132=ORIENTED_EDGE('',*,*,#220,.F.);
#133=ORIENTED_EDGE('',*,*,#222,.T.);
#134=ORIENTED_EDGE('',*,*,#223,.F.);
#135=ORIENTED_EDGE('',*,*,#209,.F.);
#136=ORIENTED_EDGE('',*,*,#224,.F.);
#137=ORIENTED_EDGE('',*,*,#200,.F.);
#138=ORIENTED_EDGE('',*,*,#225,.F.);
#139=ORIENTED_EDGE('',*,*,#226,.T.);
#140=ORIENTED_EDGE('',*,*,#183,.T.);
#141=ORIENTED_EDGE('',*,*,#199,.T.);
#142=ORIENTED_EDGE('',*,*,#227,.F.);
#143=ORIENTED_EDGE('',*,*,#228,.F.);
#144=ORIENTED_EDGE('',*,*,#225,.T.);
#145=ORIENTED_EDGE('',*,*,#198,.F.);
#146=ORIENTED_EDGE('',*,*,#181,.F.);
#147=ORIENTED_EDGE('',*,*,#229,.T.);
#148=ORIENTED_EDGE('',*,*,#227,.T.);
#149=ORIENTED_EDGE('',*,*,#230,.T.);
#150=ORIENTED_EDGE('',*,*,#206,.F.);
#151=ORIENTED_EDGE('',*,*,#226,.F.);
#152=ORIENTED_EDGE('',*,*,#228,.T.);
#153=ORIENTED_EDGE('',*,*,#229,.F.);
#154=ORIENTED_EDGE('',*,*,#210,.F.);
#155=ORIENTED_EDGE('',*,*,#230,.F.);
#156=ORIENTED_EDGE('',*,*,#197,.F.);
#157=ORIENTED_EDGE('',*,*,#231,.F.);
#158=ORIENTED_EDGE('',*,*,#232,.T.);
#159=ORIENTED_EDGE('',*,*,#179,.T.);
#160=ORIENTED_EDGE('',*,*,#196,.T.);
#161=ORIENTED_EDGE('',*,*,#233,.F.);
#162=ORIENTED_EDGE('',*,*,#234,.F.);
#163=ORIENTED_EDGE('',*,*,#231,.T.);
#164=ORIENTED_EDGE('',*,*,#195,.F.);
#165=ORIENTED_EDGE('',*,*,#176,.F.);
#166=ORIENTED_EDGE('',*,*,#235,.T.);
#167=ORIENTED_EDGE('',*,*,#233,.T.);
#168=ORIENTED_EDGE('',*,*,#236,.T.);
#169=ORIENTED_EDGE('',*,*,#207,.F.);
#170=ORIENTED_EDGE('',*,*,#232,.F.);
#171=ORIENTED_EDGE('',*,*,#234,.T.);
#172=ORIENTED_EDGE('',*,*,#235,.F.);
#173=ORIENTED_EDGE('',*,*,#211,.F.);
#174=ORIENTED_EDGE('',*,*,#236,.F.);
#175=EDGE_CURVE('',#237,#238,#279,.T.);
#176=EDGE_CURVE('',#237,#239,#19,.T.);
#177=EDGE_CURVE('',#239,#240,#280,.T.);
#178=EDGE_CURVE('',#238,#240,#20,.T.);
#179=EDGE_CURVE('',#241,#242,#21,.T.);
#180=EDGE_CURVE('',#243,#241,#281,.T.);
#181=EDGE_CURVE('',#243,#244,#22,.T.);
#182=EDGE_CURVE('',#244,#242,#282,.T.);
#183=EDGE_CURVE('',#245,#246,#23,.T.);
#184=EDGE_CURVE('',#247,#245,#283,.T.);
#185=EDGE_CURVE('',#247,#248,#24,.T.);
#186=EDGE_CURVE('',#248,#246,#284,.T.);
#187=EDGE_CURVE('',#249,#250,#25,.T.);
#188=EDGE_CURVE('',#251,#249,#285,.T.);
#189=EDGE_CURVE('',#251,#252,#26,.T.);
#190=EDGE_CURVE('',#252,#250,#286,.T.);
#191=EDGE_CURVE('',#253,#253,#287,.F.);
#192=EDGE_CURVE('',#252,#254,#288,.T.);
#193=EDGE_CURVE('',#255,#254,#289,.T.);
#194=EDGE_CURVE('',#255,#240,#290,.T.);
#195=EDGE_CURVE('',#239,#256,#291,.T.);
#196=EDGE_CURVE('',#257,#256,#292,.T.);
#197=EDGE_CURVE('',#257,#242,#293,.T.);
#198=EDGE_CURVE('',#244,#258,#294,.T.);
#199=EDGE_CURVE('',#259,#258,#295,.T.);
#200=EDGE_CURVE('',#259,#246,#296,.T.);
#201=EDGE_CURVE('',#248,#260,#297,.T.);
#202=EDGE_CURVE('',#261,#260,#298,.T.);
#203=EDGE_CURVE('',#261,#250,#299,.T.);
#204=EDGE_CURVE('',#262,#262,#300,.T.);
#205=EDGE_CURVE('',#263,#263,#301,.T.);
#206=EDGE_CURVE('',#264,#264,#302,.T.);
#207=EDGE_CURVE('',#265,#265,#303,.T.);
#208=EDGE_CURVE('',#238,#251,#304,.T.);
#209=EDGE_CURVE('',#249,#247,#305,.T.);
#210=EDGE_CURVE('',#245,#243,#306,.T.);
#211=EDGE_CURVE('',#241,#237,#307,.T.);
#212=EDGE_CURVE('',#266,#266,#308,.F.);
#213=EDGE_CURVE('',#267,#255,#27,.T.);
#214=EDGE_CURVE('',#267,#238,#309,.T.);
#215=EDGE_CURVE('',#268,#254,#28,.T.);
#216=EDGE_CURVE('',#267,#268,#310,.T.);
#217=EDGE_CURVE('',#251,#268,#311,.T.);
#218=EDGE_CURVE('',#269,#269,#312,.T.);
#219=EDGE_CURVE('',#270,#261,#29,.T.);
#220=EDGE_CURVE('',#270,#249,#313,.T.);
#221=EDGE_CURVE('',#271,#260,#30,.T.);
#222=EDGE_CURVE('',#270,#271,#314,.T.);
#223=EDGE_CURVE('',#247,#271,#315,.T.);
#224=EDGE_CURVE('',#272,#272,#316,.T.);
#225=EDGE_CURVE('',#273,#259,#31,.T.);
#226=EDGE_CURVE('',#273,#245,#317,.T.);
#227=EDGE_CURVE('',#274,#258,#32,.T.);
#228=EDGE_CURVE('',#273,#274,#318,.T.);
#229=EDGE_CURVE('',#243,#274,#319,.T.);
#230=EDGE_CURVE('',#275,#275,#320,.T.);
#231=EDGE_CURVE('',#276,#257,#33,.T.);
#232=EDGE_CURVE('',#276,#241,#321,.T.);
#233=EDGE_CURVE('',#277,#256,#34,.T.);
#234=EDGE_CURVE('',#276,#277,#322,.T.);
#235=EDGE_CURVE('',#237,#277,#323,.T.);
#236=EDGE_CURVE('',#278,#278,#324,.T.);
#237=VERTEX_POINT('',#714);
#238=VERTEX_POINT('',#715);
#239=VERTEX_POINT('',#717);
#240=VERTEX_POINT('',#719);
#241=VERTEX_POINT('',#723);
#242=VERTEX_POINT('',#724);
#243=VERTEX_POINT('',#726);
#244=VERTEX_POINT('',#728);
#245=VERTEX_POINT('',#732);
#246=VERTEX_POINT('',#733);
#247=VERTEX_POINT('',#735);
#248=VERTEX_POINT('',#737);
#249=VERTEX_POINT('',#741);
#250=VERTEX_POINT('',#742);
#251=VERTEX_POINT('',#744);
#252=VERTEX_POINT('',#746);
#253=VERTEX_POINT('',#750);
#254=VERTEX_POINT('',#752);
#255=VERTEX_POINT('',#754);
#256=VERTEX_POINT('',#757);
#257=VERTEX_POINT('',#759);
#258=VERTEX_POINT('',#762);
#259=VERTEX_POINT('',#764);
#260=VERTEX_POINT('',#767);
#261=VERTEX_POINT('',#769);
#262=VERTEX_POINT('',#772);
#263=VERTEX_POINT('',#774);
#264=VERTEX_POINT('',#776);
#265=VERTEX_POINT('',#778);
#266=VERTEX_POINT('',#786);
#267=VERTEX_POINT('',#790);
#268=VERTEX_POINT('',#794);
#269=VERTEX_POINT('',#800);
#270=VERTEX_POINT('',#804);
#271=VERTEX_POINT('',#808);
#272=VERTEX_POINT('',#814);
#273=VERTEX_POINT('',#818);
#274=VERTEX_POINT('',#822);
#275=VERTEX_POINT('',#828);
#276=VERTEX_POINT('',#832);
#277=VERTEX_POINT('',#836);
#278=VERTEX_POINT('',#842);
#279=CIRCLE('',#472,0.0259229627936314);
#280=CIRCLE('',#473,0.0259229627936314);
#281=CIRCLE('',#475,0.0259229627936314);
#282=CIRCLE('',#476,0.0259229627936314);
#283=CIRCLE('',#478,0.0259229627936314);
#284=CIRCLE('',#479,0.0259229627936314);
#285=CIRCLE('',#481,0.0259229627936314);
#286=CIRCLE('',#482,0.0259229627936314);
#287=CIRCLE('',#484,0.0247229627936314);
#288=CIRCLE('',#485,0.035);
#289=CIRCLE('',#486,0.0045);
#290=CIRCLE('',#487,0.035);
#291=CIRCLE('',#488,0.035);
#292=CIRCLE('',#489,0.0045);
#293=CIRCLE('',#490,0.035);
#294=CIRCLE('',#491,0.035);
#295=CIRCLE('',#492,0.0045);
#296=CIRCLE('',#493,0.035);
#297=CIRCLE('',#494,0.035);
#298=CIRCLE('',#495,0.0045);
#299=CIRCLE('',#496,0.035);
#300=CIRCLE('',#497,0.001);
#301=CIRCLE('',#498,0.001);
#302=CIRCLE('',#499,0.001);
#303=CIRCLE('',#500,0.001);
#304=CIRCLE('',#502,0.0259229627936314);
#305=CIRCLE('',#503,0.0259229627936314);
#306=CIRCLE('',#504,0.0259229627936314);
#307=CIRCLE('',#505,0.0259229627936314);
#308=CIRCLE('',#507,0.0247229627936314);
#309=CIRCLE('',#510,0.035);
#310=CIRCLE('',#512,0.0045);
#311=CIRCLE('',#514,0.035);
#312=CIRCLE('',#516,0.001);
#313=CIRCLE('',#519,0.035);
#314=CIRCLE('',#521,0.0045);
#315=CIRCLE('',#523,0.035);
#316=CIRCLE('',#525,0.001);
#317=CIRCLE('',#528,0.035);
#318=CIRCLE('',#530,0.0045);
#319=CIRCLE('',#532,0.035);
#320=CIRCLE('',#534,0.001);
#321=CIRCLE('',#537,0.035);
#322=CIRCLE('',#539,0.0045);
#323=CIRCLE('',#541,0.035);
#324=CIRCLE('',#543,0.001);
#325=EDGE_LOOP('',(#51,#52,#53,#54));
#326=EDGE_LOOP('',(#55,#56,#57,#58));
#327=EDGE_LOOP('',(#59,#60,#61,#62));
#328=EDGE_LOOP('',(#63,#64,#65,#66));
#329=EDGE_LOOP('',(#67));
#330=EDGE_LOOP('',(#68,#69,#70,#71,#72,#73,#74,#75,#76,#77,#78,#79,#80,#81,#82,#83));
#331=EDGE_LOOP('',(#84));
#332=EDGE_LOOP('',(#85));
#333=EDGE_LOOP('',(#86));
#334=EDGE_LOOP('',(#87));
#335=EDGE_LOOP('',(#88,#89,#90,#91,#92,#93,#94,#95));
#336=EDGE_LOOP('',(#96));
#337=EDGE_LOOP('',(#97));
#338=EDGE_LOOP('',(#98));
#339=EDGE_LOOP('',(#99,#100,#101,#102));
#340=EDGE_LOOP('',(#103,#104,#105,#106));
#341=EDGE_LOOP('',(#107,#108,#109,#110));
#342=EDGE_LOOP('',(#111));
#343=EDGE_LOOP('',(#112));
#344=EDGE_LOOP('',(#113,#114,#115,#116));
#345=EDGE_LOOP('',(#117));
#346=EDGE_LOOP('',(#118,#119,#120,#121));
#347=EDGE_LOOP('',(#122,#123,#124,#125));
#348=EDGE_LOOP('',(#126,#127,#128,#129));
#349=EDGE_LOOP('',(#130));
#350=EDGE_LOOP('',(#131));
#351=EDGE_LOOP('',(#132,#133,#134,#135));
#352=EDGE_LOOP('',(#136));
#353=EDGE_LOOP('',(#137,#138,#139,#140));
#354=EDGE_LOOP('',(#141,#142,#143,#144));
#355=EDGE_LOOP('',(#145,#146,#147,#148));
#356=EDGE_LOOP('',(#149));
#357=EDGE_LOOP('',(#150));
#358=EDGE_LOOP('',(#151,#152,#153,#154));
#359=EDGE_LOOP('',(#155));
#360=EDGE_LOOP('',(#156,#157,#158,#159));
#361=EDGE_LOOP('',(#160,#161,#162,#163));
#362=EDGE_LOOP('',(#164,#165,#166,#167));
#363=EDGE_LOOP('',(#168));
#364=EDGE_LOOP('',(#169));
#365=EDGE_LOOP('',(#170,#171,#172,#173));
#366=EDGE_LOOP('',(#174));
#367=FACE_BOUND('',#325,.T.);
#368=FACE_BOUND('',#326,.T.);
#369=FACE_BOUND('',#327,.T.);
#370=FACE_BOUND('',#328,.T.);
#371=FACE_BOUND('',#329,.T.);
#372=FACE_BOUND('',#330,.T.);
#373=FACE_BOUND('',#331,.T.);
#374=FACE_BOUND('',#332,.T.);
#375=FACE_BOUND('',#333,.T.);
#376=FACE_BOUND('',#334,.T.);
#377=FACE_BOUND('',#335,.T.);
#378=FACE_BOUND('',#336,.T.);
#379=FACE_BOUND('',#337,.T.);
#380=FACE_BOUND('',#338,.T.);
#381=FACE_BOUND('',#339,.T.);
#382=FACE_BOUND('',#340,.T.);
#383=FACE_BOUND('',#341,.T.);
#384=FACE_BOUND('',#342,.T.);
#385=FACE_BOUND('',#343,.T.);
#386=FACE_BOUND('',#344,.T.);
#387=FACE_BOUND('',#345,.T.);
#388=FACE_BOUND('',#346,.T.);
#389=FACE_BOUND('',#347,.T.);
#390=FACE_BOUND('',#348,.T.);
#391=FACE_BOUND('',#349,.T.);
#392=FACE_BOUND('',#350,.T.);
#393=FACE_BOUND('',#351,.T.);
#394=FACE_BOUND('',#352,.T.);
#395=FACE_BOUND('',#353,.T.);
#396=FACE_BOUND('',#354,.T.);
#397=FACE_BOUND('',#355,.T.);
#398=FACE_BOUND('',#356,.T.);
#399=FACE_BOUND('',#357,.T.);
#400=FACE_BOUND('',#358,.T.);
#401=FACE_BOUND('',#359,.T.);
#402=FACE_BOUND('',#360,.T.);
#403=FACE_BOUND('',#361,.T.);
#404=FACE_BOUND('',#362,.T.);
#405=FACE_BOUND('',#363,.T.);
#406=FACE_BOUND('',#364,.T.);
#407=FACE_BOUND('',#365,.T.);
#408=FACE_BOUND('',#366,.T.);
#409=CYLINDRICAL_SURFACE('',#471,0.0259229627936314);
#410=CYLINDRICAL_SURFACE('',#474,0.0259229627936314);
#411=CYLINDRICAL_SURFACE('',#477,0.0259229627936314);
#412=CYLINDRICAL_SURFACE('',#480,0.0259229627936314);
#413=CYLINDRICAL_SURFACE('',#506,0.0247229627936314);
#414=CYLINDRICAL_SURFACE('',#509,0.035);
#415=CYLINDRICAL_SURFACE('',#511,0.0045);
#416=CYLINDRICAL_SURFACE('',#513,0.035);
#417=CYLINDRICAL_SURFACE('',#515,0.001);
#418=CYLINDRICAL_SURFACE('',#518,0.035);
#419=CYLINDRICAL_SURFACE('',#520,0.0045);
#420=CYLINDRICAL_SURFACE('',#522,0.035);
#421=CYLINDRICAL_SURFACE('',#524,0.001);
#422=CYLINDRICAL_SURFACE('',#527,0.035);
#423=CYLINDRICAL_SURFACE('',#529,0.0045);
#424=CYLINDRICAL_SURFACE('',#531,0.035);
#425=CYLINDRICAL_SURFACE('',#533,0.001);
#426=CYLINDRICAL_SURFACE('',#536,0.035);
#427=CYLINDRICAL_SURFACE('',#538,0.0045);
#428=CYLINDRICAL_SURFACE('',#540,0.035);
#429=CYLINDRICAL_SURFACE('',#542,0.001);
#430=ADVANCED_FACE('',(#367),#409,.T.);
#431=ADVANCED_FACE('',(#368),#410,.T.);
#432=ADVANCED_FACE('',(#369),#411,.T.);
#433=ADVANCED_FACE('',(#370),#412,.T.);
#434=ADVANCED_FACE('',(#371,#372,#373,#374,#375,#376),#14,.T.);
#435=ADVANCED_FACE('',(#377),#12,.T.);
#436=ADVANCED_FACE('',(#378,#379),#413,.F.);
#437=ADVANCED_FACE('',(#380),#13,.F.);
#438=ADVANCED_FACE('',(#381),#414,.F.);
#439=ADVANCED_FACE('',(#382),#415,.T.);
#440=ADVANCED_FACE('',(#383),#416,.F.);
#441=ADVANCED_FACE('',(#384,#385),#417,.F.);
#442=ADVANCED_FACE('',(#386,#387),#15,.T.);
#443=ADVANCED_FACE('',(#388),#418,.F.);
#444=ADVANCED_FACE('',(#389),#419,.T.);
#445=ADVANCED_FACE('',(#390),#420,.F.);
#446=ADVANCED_FACE('',(#391,#392),#421,.F.);
#447=ADVANCED_FACE('',(#393,#394),#16,.T.);
#448=ADVANCED_FACE('',(#395),#422,.F.);
#449=ADVANCED_FACE('',(#396),#423,.T.);
#450=ADVANCED_FACE('',(#397),#424,.F.);
#451=ADVANCED_FACE('',(#398,#399),#425,.F.);
#452=ADVANCED_FACE('',(#400,#401),#17,.T.);
#453=ADVANCED_FACE('',(#402),#426,.F.);
#454=ADVANCED_FACE('',(#403),#427,.T.);
#455=ADVANCED_FACE('',(#404),#428,.F.);
#456=ADVANCED_FACE('',(#405,#406),#429,.F.);
#457=ADVANCED_FACE('',(#407,#408),#18,.T.);
#458=CLOSED_SHELL('',(#430,#431,#432,#433,#434,#435,#436,#437,#438,#439,#440,#441,#442,#443,#444,#445,#446,#447,#448,#449,#450,#451,#452,#453,#454,#455,#456,#457));
#459=STYLED_ITEM('',(#460),#467);
#460=PRESENTATION_STYLE_ASSIGNMENT((#461));
#461=SURFACE_STYLE_USAGE(.BOTH.,#462);
#462=SURFACE_SIDE_STYLE('',(#463));
#463=SURFACE_STYLE_FILL_AREA(#464);
#464=FILL_AREA_STYLE('',(#465));
#465=FILL_AREA_STYLE_COLOUR('',#466);
#466=COLOUR_RGB('',0.615686274509804,0.811764705882353,0.929411764705882);
#467=MANIFOLD_SOLID_BREP('Part 15',#458);
#468=SHAPE_DEFINITION_REPRESENTATION(#850,#469);
#469=SHAPE_REPRESENTATION('Part 15',(#470),#845);
#470=AXIS2_PLACEMENT_3D('',#711,#545,#546);
#471=AXIS2_PLACEMENT_3D('',#712,#547,#548);
#472=AXIS2_PLACEMENT_3D('',#713,#549,#550);
#473=AXIS2_PLACEMENT_3D('',#718,#552,#553);
#474=AXIS2_PLACEMENT_3D('',#721,#555,#556);
#475=AXIS2_PLACEMENT_3D('',#725,#558,#559);
#476=AXIS2_PLACEMENT_3D('',#729,#561,#562);
#477=AXIS2_PLACEMENT_3D('',#730,#563,#564);
#478=AXIS2_PLACEMENT_3D('',#734,#566,#567);
#479=AXIS2_PLACEMENT_3D('',#738,#569,#570);
#480=AXIS2_PLACEMENT_3D('',#739,#571,#572);
#481=AXIS2_PLACEMENT_3D('',#743,#574,#575);
#482=AXIS2_PLACEMENT_3D('',#747,#577,#578);
#483=AXIS2_PLACEMENT_3D('',#748,#579,#580);
#484=AXIS2_PLACEMENT_3D('',#749,#581,#582);
#485=AXIS2_PLACEMENT_3D('',#751,#583,#584);
#486=AXIS2_PLACEMENT_3D('',#753,#585,#586);
#487=AXIS2_PLACEMENT_3D('',#755,#587,#588);
#488=AXIS2_PLACEMENT_3D('',#756,#589,#590);
#489=AXIS2_PLACEMENT_3D('',#758,#591,#592);
#490=AXIS2_PLACEMENT_3D('',#760,#593,#594);
#491=AXIS2_PLACEMENT_3D('',#761,#595,#596);
#492=AXIS2_PLACEMENT_3D('',#763,#597,#598);
#493=AXIS2_PLACEMENT_3D('',#765,#599,#600);
#494=AXIS2_PLACEMENT_3D('',#766,#601,#602);
#495=AXIS2_PLACEMENT_3D('',#768,#603,#604);
#496=AXIS2_PLACEMENT_3D('',#770,#605,#606);
#497=AXIS2_PLACEMENT_3D('',#771,#607,#608);
#498=AXIS2_PLACEMENT_3D('',#773,#609,#610);
#499=AXIS2_PLACEMENT_3D('',#775,#611,#612);
#500=AXIS2_PLACEMENT_3D('',#777,#613,#614);
#501=AXIS2_PLACEMENT_3D('',#779,#615,#616);
#502=AXIS2_PLACEMENT_3D('',#780,#617,#618);
#503=AXIS2_PLACEMENT_3D('',#781,#619,#620);
#504=AXIS2_PLACEMENT_3D('',#782,#621,#622);
#505=AXIS2_PLACEMENT_3D('',#783,#623,#624);
#506=AXIS2_PLACEMENT_3D('',#784,#625,#626);
#507=AXIS2_PLACEMENT_3D('',#785,#627,#628);
#508=AXIS2_PLACEMENT_3D('',#787,#629,#630);
#509=AXIS2_PLACEMENT_3D('',#788,#631,#632);
#510=AXIS2_PLACEMENT_3D('',#791,#634,#635);
#511=AXIS2_PLACEMENT_3D('',#792,#636,#637);
#512=AXIS2_PLACEMENT_3D('',#795,#639,#640);
#513=AXIS2_PLACEMENT_3D('',#796,#641,#642);
#514=AXIS2_PLACEMENT_3D('',#797,#643,#644);
#515=AXIS2_PLACEMENT_3D('',#798,#645,#646);
#516=AXIS2_PLACEMENT_3D('',#799,#647,#648);
#517=AXIS2_PLACEMENT_3D('',#801,#649,#650);
#518=AXIS2_PLACEMENT_3D('',#802,#651,#652);
#519=AXIS2_PLACEMENT_3D('',#805,#654,#655);
#520=AXIS2_PLACEMENT_3D('',#806,#656,#657);
#521=AXIS2_PLACEMENT_3D('',#809,#659,#660);
#522=AXIS2_PLACEMENT_3D('',#810,#661,#662);
#523=AXIS2_PLACEMENT_3D('',#811,#663,#664);
#524=AXIS2_PLACEMENT_3D('',#812,#665,#666);
#525=AXIS2_PLACEMENT_3D('',#813,#667,#668);
#526=AXIS2_PLACEMENT_3D('',#815,#669,#670);
#527=AXIS2_PLACEMENT_3D('',#816,#671,#672);
#528=AXIS2_PLACEMENT_3D('',#819,#674,#675);
#529=AXIS2_PLACEMENT_3D('',#820,#676,#677);
#530=AXIS2_PLACEMENT_3D('',#823,#679,#680);
#531=AXIS2_PLACEMENT_3D('',#824,#681,#682);
#532=AXIS2_PLACEMENT_3D('',#825,#683,#684);
#533=AXIS2_PLACEMENT_3D('',#826,#685,#686);
#534=AXIS2_PLACEMENT_3D('',#827,#687,#688);
#535=AXIS2_PLACEMENT_3D('',#829,#689,#690);
#536=AXIS2_PLACEMENT_3D('',#830,#691,#692);
#537=AXIS2_PLACEMENT_3D('',#833,#694,#695);
#538=AXIS2_PLACEMENT_3D('',#834,#696,#697);
#539=AXIS2_PLACEMENT_3D('',#837,#699,#700);
#540=AXIS2_PLACEMENT_3D('',#838,#701,#702);
#541=AXIS2_PLACEMENT_3D('',#839,#703,#704);
#542=AXIS2_PLACEMENT_3D('',#840,#705,#706);
#543=AXIS2_PLACEMENT_3D('',#841,#707,#708);
#544=AXIS2_PLACEMENT_3D('',#843,#709,#710);
#545=DIRECTION('',(0.,0.,1.));
#546=DIRECTION('',(1.,0.,0.));
#547=DIRECTION('',(-1.22464679914735E-16,0.,1.));
#548=DIRECTION('',(1.,0.,1.22464679914735E-16));
#549=DIRECTION('',(-1.22464679914735E-16,0.,1.));
#550=DIRECTION('',(1.,0.,1.22464679914735E-16));
#551=DIRECTION('',(1.22464679914735E-16,1.22464679914735E-16,-1.));
#552=DIRECTION('',(-1.22464679914735E-16,0.,1.));
#553=DIRECTION('',(1.,0.,1.22464679914735E-16));
#554=DIRECTION('',(0.,0.,-1.));
#555=DIRECTION('',(-1.22464679914735E-16,0.,1.));
#556=DIRECTION('',(1.,0.,1.22464679914735E-16));
#557=DIRECTION('',(1.22464679914735E-16,1.22464679914735E-16,-1.));
#558=DIRECTION('',(-1.22464679914735E-16,0.,1.));
#559=DIRECTION('',(1.,0.,1.22464679914735E-16));
#560=DIRECTION('',(2.4492935982947E-16,-1.49975978266186E-32,-1.));
#561=DIRECTION('',(-1.22464679914735E-16,0.,1.));
#562=DIRECTION('',(1.,0.,1.22464679914735E-16));
#563=DIRECTION('',(-1.22464679914735E-16,0.,1.));
#564=DIRECTION('',(1.,0.,1.22464679914735E-16));
#565=DIRECTION('',(2.4492935982947E-16,-1.49975978266186E-32,-1.));
#566=DIRECTION('',(-1.22464679914735E-16,0.,1.));
#567=DIRECTION('',(1.,0.,1.22464679914735E-16));
#568=DIRECTION('',(1.22464679914735E-16,-1.22464679914735E-16,-1.));
#569=DIRECTION('',(-1.22464679914735E-16,0.,1.));
#570=DIRECTION('',(1.,0.,1.22464679914735E-16));
#571=DIRECTION('',(-1.22464679914735E-16,0.,1.));
#572=DIRECTION('',(1.,0.,1.22464679914735E-16));
#573=DIRECTION('',(1.22464679914735E-16,-1.22464679914735E-16,-1.));
#574=DIRECTION('',(-1.22464679914735E-16,0.,1.));
#575=DIRECTION('',(1.,0.,1.22464679914735E-16));
#576=DIRECTION('',(0.,0.,-1.));
#577=DIRECTION('',(-1.22464679914735E-16,0.,1.));
#578=DIRECTION('',(1.,0.,1.22464679914735E-16));
#579=DIRECTION('',(1.22464679914735E-16,0.,-1.));
#580=DIRECTION('',(-1.,0.,-1.22464679914735E-16));
#581=DIRECTION('',(1.22464679914735E-16,0.,-1.));
#582=DIRECTION('',(-1.,0.,-1.22464679914735E-16));
#583=DIRECTION('',(0.,0.,1.));
#584=DIRECTION('',(1.,0.,0.));
#585=DIRECTION('',(0.,0.,1.));
#586=DIRECTION('',(1.,0.,0.));
#587=DIRECTION('',(0.,0.,1.));
#588=DIRECTION('',(1.,0.,0.));
#589=DIRECTION('',(-1.22464679914735E-16,-1.22464679914735E-16,1.));
#590=DIRECTION('',(-1.83697019872103E-16,-1.,-1.22464679914735E-16));
#591=DIRECTION('',(-1.22464679914735E-16,-1.22464679914735E-16,1.));
#592=DIRECTION('',(-1.83697019872103E-16,-1.,-1.22464679914735E-16));
#593=DIRECTION('',(-1.22464679914735E-16,-1.22464679914735E-16,1.));
#594=DIRECTION('',(-1.83697019872103E-16,-1.,-1.22464679914735E-16));
#595=DIRECTION('',(-2.4492935982947E-16,1.49975978266186E-32,1.));
#596=DIRECTION('',(-1.,1.22464679914735E-16,-2.4492935982947E-16));
#597=DIRECTION('',(-2.4492935982947E-16,1.49975978266186E-32,1.));
#598=DIRECTION('',(-1.,1.22464679914735E-16,-2.4492935982947E-16));
#599=DIRECTION('',(-2.4492935982947E-16,1.49975978266186E-32,1.));
#600=DIRECTION('',(-1.,1.22464679914735E-16,-2.4492935982947E-16));
#601=DIRECTION('',(-1.22464679914735E-16,1.22464679914735E-16,1.));
#602=DIRECTION('',(6.12323399573677E-17,1.,-1.22464679914735E-16));
#603=DIRECTION('',(-1.22464679914735E-16,1.22464679914735E-16,1.));
#604=DIRECTION('',(6.12323399573677E-17,1.,-1.22464679914735E-16));
#605=DIRECTION('',(-1.22464679914735E-16,1.22464679914735E-16,1.));
#606=DIRECTION('',(6.12323399573677E-17,1.,-1.22464679914735E-16));
#607=DIRECTION('',(0.,0.,1.));
#608=DIRECTION('',(1.,0.,0.));
#609=DIRECTION('',(-1.22464679914735E-16,1.22464679914735E-16,1.));
#610=DIRECTION('',(6.12323399573677E-17,1.,-1.22464679914735E-16));
#611=DIRECTION('',(-2.4492935982947E-16,1.49975978266186E-32,1.));
#612=DIRECTION('',(-1.,1.22464679914735E-16,-2.4492935982947E-16));
#613=DIRECTION('',(-1.22464679914735E-16,-1.22464679914735E-16,1.));
#614=DIRECTION('',(-1.83697019872103E-16,-1.,-1.22464679914735E-16));
#615=DIRECTION('',(-1.22464679914735E-16,0.,1.));
#616=DIRECTION('',(1.,0.,1.22464679914735E-16));
#617=DIRECTION('',(-1.22464679914735E-16,0.,1.));
#618=DIRECTION('',(1.,0.,1.22464679914735E-16));
#619=DIRECTION('',(-1.22464679914735E-16,1.22464679914735E-16,1.));
#620=DIRECTION('',(6.12323399573677E-17,1.,-1.22464679914735E-16));
#621=DIRECTION('',(-2.4492935982947E-16,1.49975978266186E-32,1.));
#622=DIRECTION('',(-1.,1.22464679914735E-16,-2.4492935982947E-16));
#623=DIRECTION('',(-1.22464679914735E-16,-1.22464679914735E-16,1.));
#624=DIRECTION('',(-1.83697019872103E-16,-1.,-1.22464679914735E-16));
#625=DIRECTION('',(-1.22464679914735E-16,0.,1.));
#626=DIRECTION('',(1.,0.,1.22464679914735E-16));
#627=DIRECTION('',(1.22464679914735E-16,0.,-1.));
#628=DIRECTION('',(-1.,0.,-1.22464679914736E-16));
#629=DIRECTION('',(-1.22464679914735E-16,0.,1.));
#630=DIRECTION('',(1.,0.,1.22464679914735E-16));
#631=DIRECTION('',(0.,0.,-1.));
#632=DIRECTION('',(-1.,0.,0.));
#633=DIRECTION('',(0.,0.,-1.));
#634=DIRECTION('',(0.,0.,1.));
#635=DIRECTION('',(1.,0.,0.));
#636=DIRECTION('',(0.,0.,-1.));
#637=DIRECTION('',(-1.,0.,0.));
#638=DIRECTION('',(0.,0.,-1.));
#639=DIRECTION('',(0.,0.,1.));
#640=DIRECTION('',(1.,0.,0.));
#641=DIRECTION('',(0.,0.,-1.));
#642=DIRECTION('',(-1.,0.,0.));
#643=DIRECTION('',(0.,0.,1.));
#644=DIRECTION('',(1.,0.,0.));
#645=DIRECTION('',(0.,0.,-1.));
#646=DIRECTION('',(-1.,0.,0.));
#647=DIRECTION('',(0.,0.,1.));
#648=DIRECTION('',(1.,0.,0.));
#649=DIRECTION('',(0.,0.,1.));
#650=DIRECTION('',(1.,0.,0.));
#651=DIRECTION('',(1.22464679914735E-16,-1.22464679914735E-16,-1.));
#652=DIRECTION('',(0.,1.,-1.22464679914735E-16));
#653=DIRECTION('',(1.22464679914735E-16,-1.22464679914735E-16,-1.));
#654=DIRECTION('',(-1.22464679914735E-16,1.22464679914735E-16,1.));
#655=DIRECTION('',(6.12323399573677E-17,1.,-1.22464679914735E-16));
#656=DIRECTION('',(1.22464679914735E-16,-1.22464679914735E-16,-1.));
#657=DIRECTION('',(0.,1.,-1.22464679914735E-16));
#658=DIRECTION('',(1.22464679914735E-16,-1.22464679914735E-16,-1.));
#659=DIRECTION('',(-1.22464679914735E-16,1.22464679914735E-16,1.));
#660=DIRECTION('',(6.12323399573677E-17,1.,-1.22464679914735E-16));
#661=DIRECTION('',(1.22464679914735E-16,-1.22464679914735E-16,-1.));
#662=DIRECTION('',(0.,1.,-1.22464679914735E-16));
#663=DIRECTION('',(-1.22464679914735E-16,1.22464679914735E-16,1.));
#664=DIRECTION('',(6.12323399573677E-17,1.,-1.22464679914735E-16));
#665=DIRECTION('',(1.22464679914735E-16,-1.22464679914735E-16,-1.));
#666=DIRECTION('',(0.,1.,-1.22464679914735E-16));
#667=DIRECTION('',(-1.22464679914735E-16,1.22464679914735E-16,1.));
#668=DIRECTION('',(6.12323399573677E-17,1.,-1.22464679914735E-16));
#669=DIRECTION('',(-1.22464679914735E-16,1.22464679914735E-16,1.));
#670=DIRECTION('',(6.12323399573677E-17,1.,-1.22464679914735E-16));
#671=DIRECTION('',(2.4492935982947E-16,-1.49975978266186E-32,-1.));
#672=DIRECTION('',(-1.,0.,-2.4492935982947E-16));
#673=DIRECTION('',(2.4492935982947E-16,-1.49975978266186E-32,-1.));
#674=DIRECTION('',(-2.4492935982947E-16,1.49975978266186E-32,1.));
#675=DIRECTION('',(-1.,1.22464679914735E-16,-2.4492935982947E-16));
#676=DIRECTION('',(2.4492935982947E-16,-1.49975978266186E-32,-1.));
#677=DIRECTION('',(-1.,0.,-2.4492935982947E-16));
#678=DIRECTION('',(2.4492935982947E-16,-1.49975978266186E-32,-1.));
#679=DIRECTION('',(-2.4492935982947E-16,1.49975978266186E-32,1.));
#680=DIRECTION('',(-1.,1.22464679914735E-16,-2.4492935982947E-16));
#681=DIRECTION('',(2.4492935982947E-16,-1.49975978266186E-32,-1.));
#682=DIRECTION('',(-1.,0.,-2.4492935982947E-16));
#683=DIRECTION('',(-2.4492935982947E-16,1.49975978266186E-32,1.));
#684=DIRECTION('',(-1.,1.22464679914735E-16,-2.4492935982947E-16));
#685=DIRECTION('',(2.4492935982947E-16,-1.49975978266186E-32,-1.));
#686=DIRECTION('',(-1.,0.,-2.4492935982947E-16));
#687=DIRECTION('',(-2.4492935982947E-16,1.49975978266186E-32,1.));
#688=DIRECTION('',(-1.,1.22464679914735E-16,-2.4492935982947E-16));
#689=DIRECTION('',(-2.4492935982947E-16,1.49975978266186E-32,1.));
#690=DIRECTION('',(-1.,1.22464679914735E-16,-2.4492935982947E-16));
#691=DIRECTION('',(1.22464679914735E-16,1.22464679914735E-16,-1.));
#692=DIRECTION('',(-1.,0.,-1.22464679914735E-16));
#693=DIRECTION('',(1.22464679914735E-16,1.22464679914735E-16,-1.));
#694=DIRECTION('',(-1.22464679914735E-16,-1.22464679914735E-16,1.));
#695=DIRECTION('',(-1.83697019872103E-16,-1.,-1.22464679914735E-16));
#696=DIRECTION('',(1.22464679914735E-16,1.22464679914735E-16,-1.));
#697=DIRECTION('',(-1.,0.,-1.22464679914735E-16));
#698=DIRECTION('',(1.22464679914735E-16,1.22464679914735E-16,-1.));
#699=DIRECTION('',(-1.22464679914735E-16,-1.22464679914735E-16,1.));
#700=DIRECTION('',(-1.83697019872103E-16,-1.,-1.22464679914735E-16));
#701=DIRECTION('',(1.22464679914735E-16,1.22464679914735E-16,-1.));
#702=DIRECTION('',(-1.,0.,-1.22464679914735E-16));
#703=DIRECTION('',(-1.22464679914735E-16,-1.22464679914735E-16,1.));
#704=DIRECTION('',(-1.83697019872103E-16,-1.,-1.22464679914735E-16));
#705=DIRECTION('',(1.22464679914735E-16,1.22464679914735E-16,-1.));
#706=DIRECTION('',(-1.,0.,-1.22464679914735E-16));
#707=DIRECTION('',(-1.22464679914735E-16,-1.22464679914735E-16,1.));
#708=DIRECTION('',(-1.83697019872103E-16,-1.,-1.22464679914735E-16));
#709=DIRECTION('',(-1.22464679914735E-16,-1.22464679914735E-16,1.));
#710=DIRECTION('',(-1.83697019872103E-16,-1.,-1.22464679914735E-16));
#711=CARTESIAN_POINT('',(0.,0.,0.));
#712=CARTESIAN_POINT('',(5.6204877503033E-19,0.,0.048));
#713=CARTESIAN_POINT('',(3.1711941520086E-19,0.,0.05));
#714=CARTESIAN_POINT('',(0.0257216819482682,-0.00322413984686347,0.05));
#715=CARTESIAN_POINT('',(0.0257216819482683,0.00322413984686346,0.05));
#716=CARTESIAN_POINT('',(0.0257216819482682,-0.00322413984686347,0.05));
#717=CARTESIAN_POINT('',(0.0257216819482682,-0.00322413984686346,0.048));
#718=CARTESIAN_POINT('',(5.6204877503033E-19,0.,0.048));
#719=CARTESIAN_POINT('',(0.0257216819482683,0.00322413984686346,0.048));
#720=CARTESIAN_POINT('',(0.0257216819482683,0.00322413984686346,0.05));
#721=CARTESIAN_POINT('',(5.6204877503033E-19,0.,0.048));
#722=CARTESIAN_POINT('',(0.00322413984686345,-0.0257216819482683,0.05));
#723=CARTESIAN_POINT('',(0.00322413984686345,-0.0257216819482683,0.05));
#724=CARTESIAN_POINT('',(0.00322413984686345,-0.0257216819482683,0.048));
#725=CARTESIAN_POINT('',(3.1711941520086E-19,0.,0.05));
#726=CARTESIAN_POINT('',(-0.00322413984686348,-0.0257216819482682,0.05));
#727=CARTESIAN_POINT('',(-0.00322413984686348,-0.0257216819482682,0.05));
#728=CARTESIAN_POINT('',(-0.00322413984686346,-0.0257216819482682,0.048));
#729=CARTESIAN_POINT('',(5.6204877503033E-19,0.,0.048));
#730=CARTESIAN_POINT('',(5.6204877503033E-19,0.,0.048));
#731=CARTESIAN_POINT('',(-0.0257216819482683,-0.00322413984686346,0.05));
#732=CARTESIAN_POINT('',(-0.0257216819482683,-0.00322413984686346,0.05));
#733=CARTESIAN_POINT('',(-0.0257216819482683,-0.00322413984686346,0.048));
#734=CARTESIAN_POINT('',(3.1711941520086E-19,0.,0.05));
#735=CARTESIAN_POINT('',(-0.0257216819482682,0.00322413984686347,0.05));
#736=CARTESIAN_POINT('',(-0.0257216819482682,0.00322413984686347,0.05));
#737=CARTESIAN_POINT('',(-0.0257216819482682,0.00322413984686346,0.048));
#738=CARTESIAN_POINT('',(5.6204877503033E-19,0.,0.048));
#739=CARTESIAN_POINT('',(5.6204877503033E-19,0.,0.048));
#740=CARTESIAN_POINT('',(-0.00322413984686347,0.0257216819482683,0.05));
#741=CARTESIAN_POINT('',(-0.00322413984686347,0.0257216819482683,0.05));
#742=CARTESIAN_POINT('',(-0.00322413984686347,0.0257216819482683,0.048));
#743=CARTESIAN_POINT('',(3.1711941520086E-19,0.,0.05));
#744=CARTESIAN_POINT('',(0.00322413984686346,0.0257216819482682,0.05));
#745=CARTESIAN_POINT('',(0.00322413984686346,0.0257216819482682,0.05));
#746=CARTESIAN_POINT('',(0.00322413984686345,0.0257216819482682,0.048));
#747=CARTESIAN_POINT('',(5.6204877503033E-19,0.,0.048));
#748=CARTESIAN_POINT('',(0.0129614813968157,0.,0.048));
#749=CARTESIAN_POINT('',(5.62048775030331E-19,0.,0.048));
#750=CARTESIAN_POINT('',(-0.0247229627936314,0.,0.048));
#751=CARTESIAN_POINT('',(0.0075772261641398,0.0604499217469442,0.048));
#752=CARTESIAN_POINT('',(0.0230151270313577,0.0290385986800316,0.048));
#753=CARTESIAN_POINT('',(0.025,0.025,0.048));
#754=CARTESIAN_POINT('',(0.0290385986800316,0.0230151270313577,0.048));
#755=CARTESIAN_POINT('',(0.0604499217469442,0.0075772261641398,0.048));
#756=CARTESIAN_POINT('',(0.0604499217469442,-0.00757722616413982,0.048));
#757=CARTESIAN_POINT('',(0.0290385986800316,-0.0230151270313577,0.048));
#758=CARTESIAN_POINT('',(0.025,-0.025,0.048));
#759=CARTESIAN_POINT('',(0.0230151270313577,-0.0290385986800317,0.048));
#760=CARTESIAN_POINT('',(0.00757722616413979,-0.0604499217469442,0.048));
#761=CARTESIAN_POINT('',(-0.00757722616413982,-0.0604499217469442,0.048));
#762=CARTESIAN_POINT('',(-0.0230151270313577,-0.0290385986800316,0.048));
#763=CARTESIAN_POINT('',(-0.025,-0.025,0.048));
#764=CARTESIAN_POINT('',(-0.0290385986800317,-0.0230151270313577,0.048));
#765=CARTESIAN_POINT('',(-0.0604499217469442,-0.00757722616413979,0.048));
#766=CARTESIAN_POINT('',(-0.0604499217469442,0.00757722616413981,0.048));
#767=CARTESIAN_POINT('',(-0.0290385986800316,0.0230151270313577,0.048));
#768=CARTESIAN_POINT('',(-0.025,0.025,0.048));
#769=CARTESIAN_POINT('',(-0.0230151270313577,0.0290385986800317,0.048));
#770=CARTESIAN_POINT('',(-0.0075772261641398,0.0604499217469442,0.048));
#771=CARTESIAN_POINT('',(0.025,0.025,0.048));
#772=CARTESIAN_POINT('',(0.026,0.025,0.048));
#773=CARTESIAN_POINT('',(-0.025,0.025,0.048));
#774=CARTESIAN_POINT('',(-0.025,0.026,0.048));
#775=CARTESIAN_POINT('',(-0.025,-0.025,0.048));
#776=CARTESIAN_POINT('',(-0.026,-0.025,0.048));
#777=CARTESIAN_POINT('',(0.025,-0.025,0.048));
#778=CARTESIAN_POINT('',(0.025,-0.026,0.048));
#779=CARTESIAN_POINT('',(0.,0.,0.048));
#780=CARTESIAN_POINT('',(3.1711941520086E-19,0.,0.05));
#781=CARTESIAN_POINT('',(-1.34958087686382E-17,2.22010617478896E-18,0.05));
#782=CARTESIAN_POINT('',(-8.34334017052572E-18,-7.37257477290143E-18,0.05));
#783=CARTESIAN_POINT('',(1.24934077716466E-18,-2.22010617478896E-18,0.05));
#784=CARTESIAN_POINT('',(5.6204877503033E-19,0.,0.048));
#785=CARTESIAN_POINT('',(3.22846985711445E-19,0.,0.0499532308375397));
#786=CARTESIAN_POINT('',(-0.0247229627936314,0.,0.0499532308375397));
#787=CARTESIAN_POINT('',(0.,0.,0.048));
#788=CARTESIAN_POINT('',(0.0604499217469442,0.0075772261641398,0.05));
#789=CARTESIAN_POINT('',(0.0290385986800316,0.0230151270313577,0.05));
#790=CARTESIAN_POINT('',(0.0290385986800316,0.0230151270313577,0.05));
#791=CARTESIAN_POINT('',(0.0604499217469442,0.0075772261641398,0.05));
#792=CARTESIAN_POINT('',(0.025,0.025,0.05));
#793=CARTESIAN_POINT('',(0.0230151270313577,0.0290385986800316,0.05));
#794=CARTESIAN_POINT('',(0.0230151270313577,0.0290385986800316,0.05));
#795=CARTESIAN_POINT('',(0.025,0.025,0.05));
#796=CARTESIAN_POINT('',(0.0075772261641398,0.0604499217469442,0.05));
#797=CARTESIAN_POINT('',(0.0075772261641398,0.0604499217469442,0.05));
#798=CARTESIAN_POINT('',(0.025,0.025,0.05));
#799=CARTESIAN_POINT('',(0.025,0.025,0.05));
#800=CARTESIAN_POINT('',(0.026,0.025,0.05));
#801=CARTESIAN_POINT('',(0.,0.,0.05));
#802=CARTESIAN_POINT('',(-0.0075772261641398,0.0604499217469442,0.05));
#803=CARTESIAN_POINT('',(-0.0230151270313577,0.0290385986800317,0.05));
#804=CARTESIAN_POINT('',(-0.0230151270313577,0.0290385986800317,0.05));
#805=CARTESIAN_POINT('',(-0.0075772261641398,0.0604499217469442,0.05));
#806=CARTESIAN_POINT('',(-0.025,0.025,0.05));
#807=CARTESIAN_POINT('',(-0.0290385986800316,0.0230151270313577,0.05));
#808=CARTESIAN_POINT('',(-0.0290385986800316,0.0230151270313577,0.05));
#809=CARTESIAN_POINT('',(-0.025,0.025,0.05));
#810=CARTESIAN_POINT('',(-0.0604499217469442,0.00757722616413981,0.05));
#811=CARTESIAN_POINT('',(-0.0604499217469442,0.00757722616413981,0.05));
#812=CARTESIAN_POINT('',(-0.025,0.025,0.05));
#813=CARTESIAN_POINT('',(-0.025,0.025,0.05));
#814=CARTESIAN_POINT('',(-0.025,0.026,0.05));
#815=CARTESIAN_POINT('',(-6.12323399573677E-18,6.12323399573677E-18,0.05));
#816=CARTESIAN_POINT('',(-0.0604499217469442,-0.00757722616413979,0.05));
#817=CARTESIAN_POINT('',(-0.0290385986800317,-0.0230151270313577,0.05));
#818=CARTESIAN_POINT('',(-0.0290385986800317,-0.0230151270313577,0.05));
#819=CARTESIAN_POINT('',(-0.0604499217469442,-0.00757722616413979,0.05));
#820=CARTESIAN_POINT('',(-0.025,-0.025,0.05));
#821=CARTESIAN_POINT('',(-0.0230151270313577,-0.0290385986800316,0.05));
#822=CARTESIAN_POINT('',(-0.0230151270313577,-0.0290385986800316,0.05));
#823=CARTESIAN_POINT('',(-0.025,-0.025,0.05));
#824=CARTESIAN_POINT('',(-0.00757722616413982,-0.0604499217469442,0.05));
#825=CARTESIAN_POINT('',(-0.00757722616413982,-0.0604499217469442,0.05));
#826=CARTESIAN_POINT('',(-0.025,-0.025,0.05));
#827=CARTESIAN_POINT('',(-0.025,-0.025,0.05));
#828=CARTESIAN_POINT('',(-0.026,-0.025,0.05));
#829=CARTESIAN_POINT('',(-1.22464679914735E-17,7.49879891330929E-34,0.05));
#830=CARTESIAN_POINT('',(0.00757722616413979,-0.0604499217469442,0.05));
#831=CARTESIAN_POINT('',(0.0230151270313577,-0.0290385986800317,0.05));
#832=CARTESIAN_POINT('',(0.0230151270313577,-0.0290385986800317,0.05));
#833=CARTESIAN_POINT('',(0.00757722616413979,-0.0604499217469442,0.05));
#834=CARTESIAN_POINT('',(0.025,-0.025,0.05));
#835=CARTESIAN_POINT('',(0.0290385986800316,-0.0230151270313577,0.05));
#836=CARTESIAN_POINT('',(0.0290385986800316,-0.0230151270313577,0.05));
#837=CARTESIAN_POINT('',(0.025,-0.025,0.05));
#838=CARTESIAN_POINT('',(0.0604499217469442,-0.00757722616413982,0.05));
#839=CARTESIAN_POINT('',(0.0604499217469442,-0.00757722616413982,0.05));
#840=CARTESIAN_POINT('',(0.025,-0.025,0.05));
#841=CARTESIAN_POINT('',(0.025,-0.025,0.05));
#842=CARTESIAN_POINT('',(0.025,-0.026,0.05));
#843=CARTESIAN_POINT('',(-6.12323399573677E-18,-6.12323399573677E-18,0.05));
#844=MECHANICAL_DESIGN_GEOMETRIC_PRESENTATION_REPRESENTATION('',(#459),#845);
#845=(
GEOMETRIC_REPRESENTATION_CONTEXT(3)
GLOBAL_UNCERTAINTY_ASSIGNED_CONTEXT((#846))
GLOBAL_UNIT_ASSIGNED_CONTEXT((#849,#848,#847))
REPRESENTATION_CONTEXT('Part 15','TOP_LEVEL_ASSEMBLY_PART')
);
#846=UNCERTAINTY_MEASURE_WITH_UNIT(LENGTH_MEASURE(1.E-08),#849,'DISTANCE_ACCURACY_VALUE','Maximum Tolerance applied to model');
#847=(
NAMED_UNIT(*)
SI_UNIT($,.STERADIAN.)
SOLID_ANGLE_UNIT()
);
#848=(
NAMED_UNIT(*)
PLANE_ANGLE_UNIT()
SI_UNIT($,.RADIAN.)
);
#849=(
LENGTH_UNIT()
NAMED_UNIT(*)
SI_UNIT($,.METRE.)
);
#850=PRODUCT_DEFINITION_SHAPE('','',#851);
#851=PRODUCT_DEFINITION('','',#853,#852);
#852=PRODUCT_DEFINITION_CONTEXT('',#859,'design');
#853=PRODUCT_DEFINITION_FORMATION_WITH_SPECIFIED_SOURCE('','',#855,.NOT_KNOWN.);
#854=PRODUCT_RELATED_PRODUCT_CATEGORY('','',(#855));
#855=PRODUCT('Part 15','Part 15','Part 15',(#857));
#856=PRODUCT_CATEGORY('','');
#857=PRODUCT_CONTEXT('',#859,'mechanical');
#858=APPLICATION_PROTOCOL_DEFINITION('international standard','ap242_managed_model_based_3d_engineering',2020,#859);
#859=APPLICATION_CONTEXT('managed model based 3d engineering');
ENDSEC;
END-ISO-10303-21;
