ISO-10303-21;
HEADER;
/* Generated by software containing ST-Developer
 * from STEP Tools, Inc. (www.steptools.com) 
 */
/* OPTION: using custom renumber hook */

FILE_DESCRIPTION(
/* description */ ('STEP AP242 Edition 2',
'CAx-IF Rec.Pracs.---Representation and Presentation of Product Manufa
cturing Information (PMI)---4.0---2014-10-13',
'CAx-IF Rec.Pracs.---3D Tessellated Geometry---0.4---2014-09-14','2;1',
'CAx-IF Rec.Pracs.---User Defined Attributes---1.5---2016-08-15'),
/* implementation_level */ '2;1');

FILE_NAME(
/* name */ 'Toplightsmagnet - ear',
/* time_stamp */ '2026-08-28T10:33:35Z',
/* author */ (''),
/* organization */ (''),
/* preprocessor_version */ 'ST-DEVELOPER v20',
/* originating_system */ 'ONSHAPE BY PTC INC, 1.219',
/* authorisation */ '  ');

FILE_SCHEMA (('AP242_MANAGED_MODEL_BASED_3D_ENGINEERING_MIM_LF { 1 0 10303 442 3 1 4 }'));
ENDSEC;

DATA;
#10=SHAPE_REPRESENTATION_RELATIONSHIP('','',#671,#11);
#11=ADVANCED_BREP_SHAPE_REPRESENTATION('',(#669),#1245);
#12=(
BOUNDED_SURFACE()
B_SPLINE_SURFACE(3,2,((#1017,#1018,#1019),(#1020,#1021,#1022),(#1023,#1024,
#1025),(#1026,#1027,#1028),(#1029,#1030,#1031),(#1032,#1033,#1034),(#1035,
#1036,#1037),(#1038,#1039,#1040),(#1041,#1042,#1043),(#1044,#1045,#1046),
(#1047,#1048,#1049),(#1050,#1051,#1052),(#1053,#1054,#1055),(#1056,#1057,
#1058),(#1059,#1060,#1061),(#1062,#1063,#1064)),.UNSPECIFIED.,.F.,.F.,.F.)
B_SPLINE_SURFACE_WITH_KNOTS((4,1,1,1,1,1,1,1,1,1,1,1,1,4),(3,3),(-3.94649590784724E-17,
0.000901709583340263,0.00180341916668057,0.00270512875002087,0.00360683833336117,
0.00541025750004177,0.00721367666672238,0.00901709583340298,0.0108205150000836,
0.0144273533334448,0.018034191666806,0.0216410300001672,0.0252478683335284,
0.0288547066668896),(0.,1.),.UNSPECIFIED.)
GEOMETRIC_REPRESENTATION_ITEM()
RATIONAL_B_SPLINE_SURFACE(((1.,0.480700192509148,1.),(1.,0.480700192952229,
1.),(1.,0.488534810987096,1.),(1.,0.519516488623515,1.),(1.,0.560990826701331,
1.),(1.,0.620261213427881,1.),(1.,0.693756499428917,1.),(1.,0.767608129648648,
1.),(1.,0.828920446817803,1.),(1.,0.892928802191723,1.),(1.,0.946483149932855,
1.),(1.,0.981006710189723,1.),(1.,0.995909958133185,1.),(1.,0.999962095252089,
1.),(1.,1.00000000001855,1.),(1.,1.,1.)))
REPRESENTATION_ITEM('')
SURFACE()
);
#13=(
BOUNDED_SURFACE()
B_SPLINE_SURFACE(3,2,((#1181,#1182,#1183),(#1184,#1185,#1186),(#1187,#1188,
#1189),(#1190,#1191,#1192),(#1193,#1194,#1195),(#1196,#1197,#1198),(#1199,
#1200,#1201),(#1202,#1203,#1204),(#1205,#1206,#1207),(#1208,#1209,#1210),
(#1211,#1212,#1213),(#1214,#1215,#1216),(#1217,#1218,#1219),(#1220,#1221,
#1222),(#1223,#1224,#1225),(#1226,#1227,#1228)),.UNSPECIFIED.,.F.,.F.,.F.)
B_SPLINE_SURFACE_WITH_KNOTS((4,1,1,1,1,1,1,1,1,1,1,1,1,4),(3,3),(-3.94649590784724E-17,
0.000901709583340263,0.00180341916668057,0.00270512875002087,0.00360683833336117,
0.00541025750004177,0.00721367666672238,0.00901709583340298,0.0108205150000836,
0.0144273533334448,0.018034191666806,0.0216410300001672,0.0252478683335284,
0.0288547066668896),(0.,1.),.UNSPECIFIED.)
GEOMETRIC_REPRESENTATION_ITEM()
RATIONAL_B_SPLINE_SURFACE(((1.,0.480700192509148,1.),(1.,0.480700192952229,
1.),(1.,0.488534810987096,1.),(1.,0.519516488623515,1.),(1.,0.560990826701331,
1.),(1.,0.620261213427881,1.),(1.,0.693756499428917,1.),(1.,0.767608129648648,
1.),(1.,0.828920446817803,1.),(1.,0.892928802191723,1.),(1.,0.946483149932855,
1.),(1.,0.981006710189723,1.),(1.,0.995909958133185,1.),(1.,0.999962095252089,
1.),(1.,1.00000000001855,1.),(1.,1.,1.)))
REPRESENTATION_ITEM('')
SURFACE()
);
#14=PLANE('',#683);
#15=PLANE('',#684);
#16=PLANE('',#685);
#17=PLANE('',#686);
#18=PLANE('',#693);
#19=PLANE('',#694);
#20=PLANE('',#695);
#21=PLANE('',#696);
#22=PLANE('',#697);
#23=PLANE('',#698);
#24=PLANE('',#699);
#25=PLANE('',#700);
#26=PLANE('',#701);
#27=PLANE('',#702);
#28=PLANE('',#711);
#29=PLANE('',#712);
#30=PLANE('',#715);
#31=PLANE('',#716);
#32=PLANE('',#717);
#33=PLANE('',#718);
#34=PLANE('',#719);
#35=PLANE('',#720);
#36=PLANE('',#721);
#37=PLANE('',#722);
#38=B_SPLINE_CURVE_WITH_KNOTS('',3,(#913,#914,#915,#916,#917),
 .UNSPECIFIED.,.F.,.F.,(4,1,4),(-6.75084237752411E-5,0.0069164966460323,
0.0139005017158398),.UNSPECIFIED.);
#39=B_SPLINE_CURVE_WITH_KNOTS('',3,(#920,#921,#922,#923,#924,#925),
 .UNSPECIFIED.,.F.,.F.,(4,1,1,4),(2.89153708080002E-7,0.00295296673986456,
0.00590564432602103,0.011810999498334),.UNSPECIFIED.);
#40=B_SPLINE_CURVE_WITH_KNOTS('',3,(#926,#927,#928,#929,#930,#931,#932,
#933,#934,#935,#936),.UNSPECIFIED.,.F.,.F.,(4,1,1,1,1,1,1,1,4),(0.,0.0038674714394194,
0.0058012071591291,0.0077349428788388,0.0116024143182582,0.0154698857576776,
0.019337357197097,0.0232048286365164,0.0309397715153552),.UNSPECIFIED.);
#41=B_SPLINE_CURVE_WITH_KNOTS('',3,(#940,#941,#942,#943,#944),
 .UNSPECIFIED.,.F.,.F.,(4,1,4),(0.0499815982153583,0.0558812310792089,0.0617808639430595),
 .UNSPECIFIED.);
#42=B_SPLINE_CURVE_WITH_KNOTS('',3,(#946,#947,#948,#949,#950,#951,#952,
#953,#954,#955,#956),.UNSPECIFIED.,.F.,.F.,(4,1,1,1,1,1,1,1,4),(1.38777878078145E-17,
0.00386749296013146,0.00580123944019718,0.0077349859202629,0.0116024788803944,
0.0154699718405258,0.0193374648006572,0.0232049577607887,0.0309399436810516),
 .UNSPECIFIED.);
#43=B_SPLINE_CURVE_WITH_KNOTS('',3,(#1074,#1075,#1076,#1077,#1078),
 .UNSPECIFIED.,.F.,.F.,(4,1,4),(0.0499815982153583,0.0558812310792089,0.0617808639430595),
 .UNSPECIFIED.);
#44=B_SPLINE_CURVE_WITH_KNOTS('',3,(#1138,#1139,#1140,#1141,#1142),
 .UNSPECIFIED.,.F.,.F.,(4,1,4),(-6.75084237752411E-5,0.0069164966460323,
0.0139005017158398),.UNSPECIFIED.);
#45=B_SPLINE_CURVE_WITH_KNOTS('',3,(#1146,#1147,#1148,#1149,#1150,#1151,
#1152,#1153,#1154,#1155,#1156),.UNSPECIFIED.,.F.,.F.,(4,1,1,1,1,1,1,1,4),
(0.,0.0038674714394194,0.0058012071591291,0.0077349428788388,0.0116024143182582,
0.0154698857576776,0.019337357197097,0.0232048286365164,0.0309397715153552),
 .UNSPECIFIED.);
#46=B_SPLINE_CURVE_WITH_KNOTS('',3,(#1157,#1158,#1159,#1160,#1161,#1162),
 .UNSPECIFIED.,.F.,.F.,(4,1,1,4),(2.89153708080002E-7,0.00295296673986456,
0.00590564432602103,0.011810999498334),.UNSPECIFIED.);
#47=B_SPLINE_CURVE_WITH_KNOTS('',3,(#1164,#1165,#1166,#1167,#1168,#1169,
#1170,#1171,#1172,#1173,#1174),.UNSPECIFIED.,.F.,.F.,(4,1,1,1,1,1,1,1,4),
(1.38777878078145E-17,0.00386749296013146,0.00580123944019718,0.0077349859202629,
0.0116024788803944,0.0154699718405258,0.0193374648006572,0.0232049577607887,
0.0309399436810516),.UNSPECIFIED.);
#48=TOROIDAL_SURFACE('',#679,0.0509,0.0091);
#49=TOROIDAL_SURFACE('',#681,0.0509,0.0091);
#50=TOROIDAL_SURFACE('',#707,0.0509,0.0091);
#51=TOROIDAL_SURFACE('',#709,0.0509,0.0091);
#52=CIRCLE('',#674,0.06);
#53=CIRCLE('',#675,0.06);
#54=CIRCLE('',#677,0.06);
#55=CIRCLE('',#678,0.06);
#56=CIRCLE('',#680,0.0509);
#57=CIRCLE('',#682,0.0509);
#58=CIRCLE('',#687,0.06);
#59=CIRCLE('',#688,0.002);
#60=CIRCLE('',#689,0.06);
#61=CIRCLE('',#690,0.002);
#62=CIRCLE('',#692,0.002);
#63=CIRCLE('',#704,0.06);
#64=CIRCLE('',#706,0.06);
#65=CIRCLE('',#708,0.0509);
#66=CIRCLE('',#710,0.0509);
#67=CIRCLE('',#714,0.002);
#68=ORIENTED_EDGE('',*,*,#256,.F.);
#69=ORIENTED_EDGE('',*,*,#257,.T.);
#70=ORIENTED_EDGE('',*,*,#258,.T.);
#71=ORIENTED_EDGE('',*,*,#259,.T.);
#72=ORIENTED_EDGE('',*,*,#260,.F.);
#73=ORIENTED_EDGE('',*,*,#261,.T.);
#74=ORIENTED_EDGE('',*,*,#262,.T.);
#75=ORIENTED_EDGE('',*,*,#263,.T.);
#76=ORIENTED_EDGE('',*,*,#264,.F.);
#77=ORIENTED_EDGE('',*,*,#265,.T.);
#78=ORIENTED_EDGE('',*,*,#259,.F.);
#79=ORIENTED_EDGE('',*,*,#266,.T.);
#80=ORIENTED_EDGE('',*,*,#267,.F.);
#81=ORIENTED_EDGE('',*,*,#261,.F.);
#82=ORIENTED_EDGE('',*,*,#268,.T.);
#83=ORIENTED_EDGE('',*,*,#264,.T.);
#84=ORIENTED_EDGE('',*,*,#269,.F.);
#85=ORIENTED_EDGE('',*,*,#270,.T.);
#86=ORIENTED_EDGE('',*,*,#271,.F.);
#87=ORIENTED_EDGE('',*,*,#272,.F.);
#88=ORIENTED_EDGE('',*,*,#273,.T.);
#89=ORIENTED_EDGE('',*,*,#274,.T.);
#90=ORIENTED_EDGE('',*,*,#275,.F.);
#91=ORIENTED_EDGE('',*,*,#276,.F.);
#92=ORIENTED_EDGE('',*,*,#277,.F.);
#93=ORIENTED_EDGE('',*,*,#271,.T.);
#94=ORIENTED_EDGE('',*,*,#267,.T.);
#95=ORIENTED_EDGE('',*,*,#269,.T.);
#96=ORIENTED_EDGE('',*,*,#274,.F.);
#97=ORIENTED_EDGE('',*,*,#278,.F.);
#98=ORIENTED_EDGE('',*,*,#279,.T.);
#99=ORIENTED_EDGE('',*,*,#280,.T.);
#100=ORIENTED_EDGE('',*,*,#281,.T.);
#101=ORIENTED_EDGE('',*,*,#282,.T.);
#102=ORIENTED_EDGE('',*,*,#283,.T.);
#103=ORIENTED_EDGE('',*,*,#284,.T.);
#104=ORIENTED_EDGE('',*,*,#285,.T.);
#105=ORIENTED_EDGE('',*,*,#286,.T.);
#106=ORIENTED_EDGE('',*,*,#287,.T.);
#107=ORIENTED_EDGE('',*,*,#288,.F.);
#108=ORIENTED_EDGE('',*,*,#289,.T.);
#109=ORIENTED_EDGE('',*,*,#290,.F.);
#110=ORIENTED_EDGE('',*,*,#263,.F.);
#111=ORIENTED_EDGE('',*,*,#291,.T.);
#112=ORIENTED_EDGE('',*,*,#257,.F.);
#113=ORIENTED_EDGE('',*,*,#292,.F.);
#114=ORIENTED_EDGE('',*,*,#293,.F.);
#115=ORIENTED_EDGE('',*,*,#294,.F.);
#116=ORIENTED_EDGE('',*,*,#295,.F.);
#117=ORIENTED_EDGE('',*,*,#296,.F.);
#118=ORIENTED_EDGE('',*,*,#297,.F.);
#119=ORIENTED_EDGE('',*,*,#298,.F.);
#120=ORIENTED_EDGE('',*,*,#299,.F.);
#121=ORIENTED_EDGE('',*,*,#275,.T.);
#122=ORIENTED_EDGE('',*,*,#262,.F.);
#123=ORIENTED_EDGE('',*,*,#300,.T.);
#124=ORIENTED_EDGE('',*,*,#258,.F.);
#125=ORIENTED_EDGE('',*,*,#291,.F.);
#126=ORIENTED_EDGE('',*,*,#270,.F.);
#127=ORIENTED_EDGE('',*,*,#266,.F.);
#128=ORIENTED_EDGE('',*,*,#300,.F.);
#129=ORIENTED_EDGE('',*,*,#292,.T.);
#130=ORIENTED_EDGE('',*,*,#256,.T.);
#131=ORIENTED_EDGE('',*,*,#265,.F.);
#132=ORIENTED_EDGE('',*,*,#301,.F.);
#133=ORIENTED_EDGE('',*,*,#302,.F.);
#134=ORIENTED_EDGE('',*,*,#303,.T.);
#135=ORIENTED_EDGE('',*,*,#268,.F.);
#136=ORIENTED_EDGE('',*,*,#260,.T.);
#137=ORIENTED_EDGE('',*,*,#290,.T.);
#138=ORIENTED_EDGE('',*,*,#304,.F.);
#139=ORIENTED_EDGE('',*,*,#305,.T.);
#140=ORIENTED_EDGE('',*,*,#306,.F.);
#141=ORIENTED_EDGE('',*,*,#307,.F.);
#142=ORIENTED_EDGE('',*,*,#301,.T.);
#143=ORIENTED_EDGE('',*,*,#298,.T.);
#144=ORIENTED_EDGE('',*,*,#308,.F.);
#145=ORIENTED_EDGE('',*,*,#309,.F.);
#146=ORIENTED_EDGE('',*,*,#310,.T.);
#147=ORIENTED_EDGE('',*,*,#297,.T.);
#148=ORIENTED_EDGE('',*,*,#311,.F.);
#149=ORIENTED_EDGE('',*,*,#312,.F.);
#150=ORIENTED_EDGE('',*,*,#308,.T.);
#151=ORIENTED_EDGE('',*,*,#296,.T.);
#152=ORIENTED_EDGE('',*,*,#313,.F.);
#153=ORIENTED_EDGE('',*,*,#314,.F.);
#154=ORIENTED_EDGE('',*,*,#311,.T.);
#155=ORIENTED_EDGE('',*,*,#295,.T.);
#156=ORIENTED_EDGE('',*,*,#315,.F.);
#157=ORIENTED_EDGE('',*,*,#316,.F.);
#158=ORIENTED_EDGE('',*,*,#313,.T.);
#159=ORIENTED_EDGE('',*,*,#294,.T.);
#160=ORIENTED_EDGE('',*,*,#317,.F.);
#161=ORIENTED_EDGE('',*,*,#318,.F.);
#162=ORIENTED_EDGE('',*,*,#315,.T.);
#163=ORIENTED_EDGE('',*,*,#293,.T.);
#164=ORIENTED_EDGE('',*,*,#303,.F.);
#165=ORIENTED_EDGE('',*,*,#319,.F.);
#166=ORIENTED_EDGE('',*,*,#317,.T.);
#167=ORIENTED_EDGE('',*,*,#299,.T.);
#168=ORIENTED_EDGE('',*,*,#310,.F.);
#169=ORIENTED_EDGE('',*,*,#320,.F.);
#170=ORIENTED_EDGE('',*,*,#276,.T.);
#171=ORIENTED_EDGE('',*,*,#309,.T.);
#172=ORIENTED_EDGE('',*,*,#312,.T.);
#173=ORIENTED_EDGE('',*,*,#314,.T.);
#174=ORIENTED_EDGE('',*,*,#316,.T.);
#175=ORIENTED_EDGE('',*,*,#318,.T.);
#176=ORIENTED_EDGE('',*,*,#319,.T.);
#177=ORIENTED_EDGE('',*,*,#302,.T.);
#178=ORIENTED_EDGE('',*,*,#307,.T.);
#179=ORIENTED_EDGE('',*,*,#321,.F.);
#180=ORIENTED_EDGE('',*,*,#322,.F.);
#181=ORIENTED_EDGE('',*,*,#323,.F.);
#182=ORIENTED_EDGE('',*,*,#324,.F.);
#183=ORIENTED_EDGE('',*,*,#325,.F.);
#184=ORIENTED_EDGE('',*,*,#326,.F.);
#185=ORIENTED_EDGE('',*,*,#327,.F.);
#186=ORIENTED_EDGE('',*,*,#328,.F.);
#187=ORIENTED_EDGE('',*,*,#329,.F.);
#188=ORIENTED_EDGE('',*,*,#272,.T.);
#189=ORIENTED_EDGE('',*,*,#277,.T.);
#190=ORIENTED_EDGE('',*,*,#320,.T.);
#191=ORIENTED_EDGE('',*,*,#330,.T.);
#192=ORIENTED_EDGE('',*,*,#331,.F.);
#193=ORIENTED_EDGE('',*,*,#332,.F.);
#194=ORIENTED_EDGE('',*,*,#287,.F.);
#195=ORIENTED_EDGE('',*,*,#304,.T.);
#196=ORIENTED_EDGE('',*,*,#289,.F.);
#197=ORIENTED_EDGE('',*,*,#333,.F.);
#198=ORIENTED_EDGE('',*,*,#334,.F.);
#199=ORIENTED_EDGE('',*,*,#335,.T.);
#200=ORIENTED_EDGE('',*,*,#336,.T.);
#201=ORIENTED_EDGE('',*,*,#337,.F.);
#202=ORIENTED_EDGE('',*,*,#331,.T.);
#203=ORIENTED_EDGE('',*,*,#338,.F.);
#204=ORIENTED_EDGE('',*,*,#334,.T.);
#205=ORIENTED_EDGE('',*,*,#339,.F.);
#206=ORIENTED_EDGE('',*,*,#340,.T.);
#207=ORIENTED_EDGE('',*,*,#335,.F.);
#208=ORIENTED_EDGE('',*,*,#305,.F.);
#209=ORIENTED_EDGE('',*,*,#278,.T.);
#210=ORIENTED_EDGE('',*,*,#273,.F.);
#211=ORIENTED_EDGE('',*,*,#329,.T.);
#212=ORIENTED_EDGE('',*,*,#341,.T.);
#213=ORIENTED_EDGE('',*,*,#336,.F.);
#214=ORIENTED_EDGE('',*,*,#340,.F.);
#215=ORIENTED_EDGE('',*,*,#333,.T.);
#216=ORIENTED_EDGE('',*,*,#288,.T.);
#217=ORIENTED_EDGE('',*,*,#332,.T.);
#218=ORIENTED_EDGE('',*,*,#342,.F.);
#219=ORIENTED_EDGE('',*,*,#339,.T.);
#220=ORIENTED_EDGE('',*,*,#342,.T.);
#221=ORIENTED_EDGE('',*,*,#337,.T.);
#222=ORIENTED_EDGE('',*,*,#286,.F.);
#223=ORIENTED_EDGE('',*,*,#343,.F.);
#224=ORIENTED_EDGE('',*,*,#321,.T.);
#225=ORIENTED_EDGE('',*,*,#306,.T.);
#226=ORIENTED_EDGE('',*,*,#338,.T.);
#227=ORIENTED_EDGE('',*,*,#330,.F.);
#228=ORIENTED_EDGE('',*,*,#280,.F.);
#229=ORIENTED_EDGE('',*,*,#344,.F.);
#230=ORIENTED_EDGE('',*,*,#327,.T.);
#231=ORIENTED_EDGE('',*,*,#345,.T.);
#232=ORIENTED_EDGE('',*,*,#281,.F.);
#233=ORIENTED_EDGE('',*,*,#345,.F.);
#234=ORIENTED_EDGE('',*,*,#326,.T.);
#235=ORIENTED_EDGE('',*,*,#346,.T.);
#236=ORIENTED_EDGE('',*,*,#282,.F.);
#237=ORIENTED_EDGE('',*,*,#346,.F.);
#238=ORIENTED_EDGE('',*,*,#325,.T.);
#239=ORIENTED_EDGE('',*,*,#347,.T.);
#240=ORIENTED_EDGE('',*,*,#283,.F.);
#241=ORIENTED_EDGE('',*,*,#347,.F.);
#242=ORIENTED_EDGE('',*,*,#324,.T.);
#243=ORIENTED_EDGE('',*,*,#348,.T.);
#244=ORIENTED_EDGE('',*,*,#284,.F.);
#245=ORIENTED_EDGE('',*,*,#348,.F.);
#246=ORIENTED_EDGE('',*,*,#323,.T.);
#247=ORIENTED_EDGE('',*,*,#349,.T.);
#248=ORIENTED_EDGE('',*,*,#285,.F.);
#249=ORIENTED_EDGE('',*,*,#349,.F.);
#250=ORIENTED_EDGE('',*,*,#322,.T.);
#251=ORIENTED_EDGE('',*,*,#343,.T.);
#252=ORIENTED_EDGE('',*,*,#279,.F.);
#253=ORIENTED_EDGE('',*,*,#341,.F.);
#254=ORIENTED_EDGE('',*,*,#328,.T.);
#255=ORIENTED_EDGE('',*,*,#344,.T.);
#256=EDGE_CURVE('',#350,#351,#410,.F.);
#257=EDGE_CURVE('',#350,#352,#52,.T.);
#258=EDGE_CURVE('',#352,#353,#411,.F.);
#259=EDGE_CURVE('',#353,#351,#53,.F.);
#260=EDGE_CURVE('',#354,#355,#412,.T.);
#261=EDGE_CURVE('',#354,#356,#54,.F.);
#262=EDGE_CURVE('',#356,#357,#413,.T.);
#263=EDGE_CURVE('',#357,#355,#55,.T.);
#264=EDGE_CURVE('',#358,#359,#38,.F.);
#265=EDGE_CURVE('',#358,#351,#39,.T.);
#266=EDGE_CURVE('',#353,#360,#40,.T.);
#267=EDGE_CURVE('',#359,#360,#56,.T.);
#268=EDGE_CURVE('',#354,#358,#41,.T.);
#269=EDGE_CURVE('',#360,#359,#57,.T.);
#270=EDGE_CURVE('',#360,#356,#42,.F.);
#271=EDGE_CURVE('',#361,#362,#414,.T.);
#272=EDGE_CURVE('',#363,#361,#415,.F.);
#273=EDGE_CURVE('',#363,#364,#416,.T.);
#274=EDGE_CURVE('',#364,#362,#417,.T.);
#275=EDGE_CURVE('',#365,#362,#418,.T.);
#276=EDGE_CURVE('',#366,#365,#419,.T.);
#277=EDGE_CURVE('',#361,#366,#420,.F.);
#278=EDGE_CURVE('',#367,#364,#421,.T.);
#279=EDGE_CURVE('',#367,#368,#422,.F.);
#280=EDGE_CURVE('',#368,#369,#423,.F.);
#281=EDGE_CURVE('',#369,#370,#424,.T.);
#282=EDGE_CURVE('',#370,#371,#425,.T.);
#283=EDGE_CURVE('',#371,#372,#426,.F.);
#284=EDGE_CURVE('',#372,#373,#427,.T.);
#285=EDGE_CURVE('',#373,#374,#428,.T.);
#286=EDGE_CURVE('',#374,#375,#429,.T.);
#287=EDGE_CURVE('',#375,#376,#58,.T.);
#288=EDGE_CURVE('',#377,#376,#59,.F.);
#289=EDGE_CURVE('',#377,#378,#60,.T.);
#290=EDGE_CURVE('',#355,#378,#430,.T.);
#291=EDGE_CURVE('',#357,#352,#61,.F.);
#292=EDGE_CURVE('',#379,#350,#431,.T.);
#293=EDGE_CURVE('',#380,#379,#432,.T.);
#294=EDGE_CURVE('',#381,#380,#433,.T.);
#295=EDGE_CURVE('',#382,#381,#434,.F.);
#296=EDGE_CURVE('',#383,#382,#435,.T.);
#297=EDGE_CURVE('',#384,#383,#436,.T.);
#298=EDGE_CURVE('',#385,#384,#437,.F.);
#299=EDGE_CURVE('',#365,#385,#438,.F.);
#300=EDGE_CURVE('',#356,#353,#62,.T.);
#301=EDGE_CURVE('',#386,#358,#439,.T.);
#302=EDGE_CURVE('',#387,#386,#440,.T.);
#303=EDGE_CURVE('',#387,#379,#441,.T.);
#304=EDGE_CURVE('',#388,#378,#442,.T.);
#305=EDGE_CURVE('',#388,#389,#43,.T.);
#306=EDGE_CURVE('',#390,#389,#443,.T.);
#307=EDGE_CURVE('',#386,#390,#444,.T.);
#308=EDGE_CURVE('',#391,#384,#445,.T.);
#309=EDGE_CURVE('',#392,#391,#446,.F.);
#310=EDGE_CURVE('',#392,#385,#447,.T.);
#311=EDGE_CURVE('',#393,#383,#448,.T.);
#312=EDGE_CURVE('',#391,#393,#449,.T.);
#313=EDGE_CURVE('',#394,#382,#450,.T.);
#314=EDGE_CURVE('',#393,#394,#451,.T.);
#315=EDGE_CURVE('',#395,#381,#452,.T.);
#316=EDGE_CURVE('',#394,#395,#453,.F.);
#317=EDGE_CURVE('',#396,#380,#454,.T.);
#318=EDGE_CURVE('',#395,#396,#455,.T.);
#319=EDGE_CURVE('',#396,#387,#456,.T.);
#320=EDGE_CURVE('',#366,#392,#457,.F.);
#321=EDGE_CURVE('',#397,#390,#458,.T.);
#322=EDGE_CURVE('',#398,#397,#459,.T.);
#323=EDGE_CURVE('',#399,#398,#460,.T.);
#324=EDGE_CURVE('',#400,#399,#461,.F.);
#325=EDGE_CURVE('',#401,#400,#462,.T.);
#326=EDGE_CURVE('',#402,#401,#463,.T.);
#327=EDGE_CURVE('',#403,#402,#464,.F.);
#328=EDGE_CURVE('',#404,#403,#465,.F.);
#329=EDGE_CURVE('',#363,#404,#466,.F.);
#330=EDGE_CURVE('',#375,#405,#467,.F.);
#331=EDGE_CURVE('',#406,#405,#63,.F.);
#332=EDGE_CURVE('',#376,#406,#468,.F.);
#333=EDGE_CURVE('',#407,#377,#469,.T.);
#334=EDGE_CURVE('',#388,#407,#64,.F.);
#335=EDGE_CURVE('',#389,#408,#44,.F.);
#336=EDGE_CURVE('',#408,#409,#65,.T.);
#337=EDGE_CURVE('',#406,#409,#45,.T.);
#338=EDGE_CURVE('',#389,#405,#46,.T.);
#339=EDGE_CURVE('',#409,#407,#47,.F.);
#340=EDGE_CURVE('',#409,#408,#66,.T.);
#341=EDGE_CURVE('',#404,#367,#470,.T.);
#342=EDGE_CURVE('',#407,#406,#67,.T.);
#343=EDGE_CURVE('',#397,#374,#471,.T.);
#344=EDGE_CURVE('',#403,#368,#472,.T.);
#345=EDGE_CURVE('',#402,#369,#473,.T.);
#346=EDGE_CURVE('',#401,#370,#474,.T.);
#347=EDGE_CURVE('',#400,#371,#475,.T.);
#348=EDGE_CURVE('',#399,#372,#476,.T.);
#349=EDGE_CURVE('',#398,#373,#477,.T.);
#350=VERTEX_POINT('',#896);
#351=VERTEX_POINT('',#897);
#352=VERTEX_POINT('',#899);
#353=VERTEX_POINT('',#901);
#354=VERTEX_POINT('',#905);
#355=VERTEX_POINT('',#906);
#356=VERTEX_POINT('',#908);
#357=VERTEX_POINT('',#910);
#358=VERTEX_POINT('',#918);
#359=VERTEX_POINT('',#919);
#360=VERTEX_POINT('',#937);
#361=VERTEX_POINT('',#959);
#362=VERTEX_POINT('',#960);
#363=VERTEX_POINT('',#962);
#364=VERTEX_POINT('',#964);
#365=VERTEX_POINT('',#968);
#366=VERTEX_POINT('',#970);
#367=VERTEX_POINT('',#975);
#368=VERTEX_POINT('',#977);
#369=VERTEX_POINT('',#979);
#370=VERTEX_POINT('',#981);
#371=VERTEX_POINT('',#983);
#372=VERTEX_POINT('',#985);
#373=VERTEX_POINT('',#987);
#374=VERTEX_POINT('',#989);
#375=VERTEX_POINT('',#991);
#376=VERTEX_POINT('',#993);
#377=VERTEX_POINT('',#995);
#378=VERTEX_POINT('',#997);
#379=VERTEX_POINT('',#1001);
#380=VERTEX_POINT('',#1003);
#381=VERTEX_POINT('',#1005);
#382=VERTEX_POINT('',#1007);
#383=VERTEX_POINT('',#1009);
#384=VERTEX_POINT('',#1011);
#385=VERTEX_POINT('',#1013);
#386=VERTEX_POINT('',#1067);
#387=VERTEX_POINT('',#1069);
#388=VERTEX_POINT('',#1073);
#389=VERTEX_POINT('',#1079);
#390=VERTEX_POINT('',#1081);
#391=VERTEX_POINT('',#1085);
#392=VERTEX_POINT('',#1087);
#393=VERTEX_POINT('',#1091);
#394=VERTEX_POINT('',#1095);
#395=VERTEX_POINT('',#1099);
#396=VERTEX_POINT('',#1103);
#397=VERTEX_POINT('',#1111);
#398=VERTEX_POINT('',#1113);
#399=VERTEX_POINT('',#1115);
#400=VERTEX_POINT('',#1117);
#401=VERTEX_POINT('',#1119);
#402=VERTEX_POINT('',#1121);
#403=VERTEX_POINT('',#1123);
#404=VERTEX_POINT('',#1125);
#405=VERTEX_POINT('',#1129);
#406=VERTEX_POINT('',#1131);
#407=VERTEX_POINT('',#1135);
#408=VERTEX_POINT('',#1143);
#409=VERTEX_POINT('',#1145);
#410=LINE('',#895,#478);
#411=LINE('',#900,#479);
#412=LINE('',#904,#480);
#413=LINE('',#909,#481);
#414=LINE('',#958,#482);
#415=LINE('',#961,#483);
#416=LINE('',#963,#484);
#417=LINE('',#965,#485);
#418=LINE('',#967,#486);
#419=LINE('',#969,#487);
#420=LINE('',#971,#488);
#421=LINE('',#974,#489);
#422=LINE('',#976,#490);
#423=LINE('',#978,#491);
#424=LINE('',#980,#492);
#425=LINE('',#982,#493);
#426=LINE('',#984,#494);
#427=LINE('',#986,#495);
#428=LINE('',#988,#496);
#429=LINE('',#990,#497);
#430=LINE('',#998,#498);
#431=LINE('',#1000,#499);
#432=LINE('',#1002,#500);
#433=LINE('',#1004,#501);
#434=LINE('',#1006,#502);
#435=LINE('',#1008,#503);
#436=LINE('',#1010,#504);
#437=LINE('',#1012,#505);
#438=LINE('',#1014,#506);
#439=LINE('',#1066,#507);
#440=LINE('',#1068,#508);
#441=LINE('',#1070,#509);
#442=LINE('',#1072,#510);
#443=LINE('',#1080,#511);
#444=LINE('',#1082,#512);
#445=LINE('',#1084,#513);
#446=LINE('',#1086,#514);
#447=LINE('',#1088,#515);
#448=LINE('',#1090,#516);
#449=LINE('',#1092,#517);
#450=LINE('',#1094,#518);
#451=LINE('',#1096,#519);
#452=LINE('',#1098,#520);
#453=LINE('',#1100,#521);
#454=LINE('',#1102,#522);
#455=LINE('',#1104,#523);
#456=LINE('',#1106,#524);
#457=LINE('',#1108,#525);
#458=LINE('',#1110,#526);
#459=LINE('',#1112,#527);
#460=LINE('',#1114,#528);
#461=LINE('',#1116,#529);
#462=LINE('',#1118,#530);
#463=LINE('',#1120,#531);
#464=LINE('',#1122,#532);
#465=LINE('',#1124,#533);
#466=LINE('',#1126,#534);
#467=LINE('',#1128,#535);
#468=LINE('',#1132,#536);
#469=LINE('',#1134,#537);
#470=LINE('',#1177,#538);
#471=LINE('',#1230,#539);
#472=LINE('',#1232,#540);
#473=LINE('',#1233,#541);
#474=LINE('',#1235,#542);
#475=LINE('',#1237,#543);
#476=LINE('',#1239,#544);
#477=LINE('',#1241,#545);
#478=VECTOR('',#727,1.);
#479=VECTOR('',#730,1.);
#480=VECTOR('',#735,1.);
#481=VECTOR('',#738,1.);
#482=VECTOR('',#751,1.);
#483=VECTOR('',#752,1.);
#484=VECTOR('',#753,1.);
#485=VECTOR('',#754,1.);
#486=VECTOR('',#757,1.);
#487=VECTOR('',#758,1.);
#488=VECTOR('',#759,1.);
#489=VECTOR('',#764,1.);
#490=VECTOR('',#765,1.);
#491=VECTOR('',#766,1.);
#492=VECTOR('',#767,1.);
#493=VECTOR('',#768,1.);
#494=VECTOR('',#769,1.);
#495=VECTOR('',#770,1.);
#496=VECTOR('',#771,1.);
#497=VECTOR('',#772,1.);
#498=VECTOR('',#779,1.);
#499=VECTOR('',#782,1.);
#500=VECTOR('',#783,1.);
#501=VECTOR('',#784,1.);
#502=VECTOR('',#785,1.);
#503=VECTOR('',#786,1.);
#504=VECTOR('',#787,1.);
#505=VECTOR('',#788,1.);
#506=VECTOR('',#789,1.);
#507=VECTOR('',#796,1.);
#508=VECTOR('',#797,1.);
#509=VECTOR('',#798,1.);
#510=VECTOR('',#801,1.);
#511=VECTOR('',#802,1.);
#512=VECTOR('',#803,1.);
#513=VECTOR('',#806,1.);
#514=VECTOR('',#807,1.);
#515=VECTOR('',#808,1.);
#516=VECTOR('',#811,1.);
#517=VECTOR('',#812,1.);
#518=VECTOR('',#815,1.);
#519=VECTOR('',#816,1.);
#520=VECTOR('',#819,1.);
#521=VECTOR('',#820,1.);
#522=VECTOR('',#823,1.);
#523=VECTOR('',#824,1.);
#524=VECTOR('',#827,1.);
#525=VECTOR('',#830,1.);
#526=VECTOR('',#833,1.);
#527=VECTOR('',#834,1.);
#528=VECTOR('',#835,1.);
#529=VECTOR('',#836,1.);
#530=VECTOR('',#837,1.);
#531=VECTOR('',#838,1.);
#532=VECTOR('',#839,1.);
#533=VECTOR('',#840,1.);
#534=VECTOR('',#841,1.);
#535=VECTOR('',#844,1.);
#536=VECTOR('',#847,1.);
#537=VECTOR('',#850,1.);
#538=VECTOR('',#863,1.);
#539=VECTOR('',#872,1.);
#540=VECTOR('',#875,1.);
#541=VECTOR('',#876,1.);
#542=VECTOR('',#879,1.);
#543=VECTOR('',#882,1.);
#544=VECTOR('',#885,1.);
#545=VECTOR('',#888,1.);
#546=EDGE_LOOP('',(#68,#69,#70,#71));
#547=EDGE_LOOP('',(#72,#73,#74,#75));
#548=EDGE_LOOP('',(#76,#77,#78,#79,#80));
#549=EDGE_LOOP('',(#81,#82,#83,#84,#85));
#550=EDGE_LOOP('',(#86,#87,#88,#89));
#551=EDGE_LOOP('',(#90,#91,#92,#93));
#552=EDGE_LOOP('',(#94,#95));
#553=EDGE_LOOP('',(#96,#97,#98,#99,#100,#101,#102,#103,#104,#105,#106,#107,
#108,#109,#110,#111,#112,#113,#114,#115,#116,#117,#118,#119,#120,#121));
#554=EDGE_LOOP('',(#122,#123,#124,#125));
#555=EDGE_LOOP('',(#126,#127,#128));
#556=EDGE_LOOP('',(#129,#130,#131,#132,#133,#134));
#557=EDGE_LOOP('',(#135,#136,#137,#138,#139,#140,#141,#142));
#558=EDGE_LOOP('',(#143,#144,#145,#146));
#559=EDGE_LOOP('',(#147,#148,#149,#150));
#560=EDGE_LOOP('',(#151,#152,#153,#154));
#561=EDGE_LOOP('',(#155,#156,#157,#158));
#562=EDGE_LOOP('',(#159,#160,#161,#162));
#563=EDGE_LOOP('',(#163,#164,#165,#166));
#564=EDGE_LOOP('',(#167,#168,#169,#170));
#565=EDGE_LOOP('',(#171,#172,#173,#174,#175,#176,#177,#178,#179,#180,#181,
#182,#183,#184,#185,#186,#187,#188,#189,#190));
#566=EDGE_LOOP('',(#191,#192,#193,#194));
#567=EDGE_LOOP('',(#195,#196,#197,#198));
#568=EDGE_LOOP('',(#199,#200,#201,#202,#203));
#569=EDGE_LOOP('',(#204,#205,#206,#207,#208));
#570=EDGE_LOOP('',(#209,#210,#211,#212));
#571=EDGE_LOOP('',(#213,#214));
#572=EDGE_LOOP('',(#215,#216,#217,#218));
#573=EDGE_LOOP('',(#219,#220,#221));
#574=EDGE_LOOP('',(#222,#223,#224,#225,#226,#227));
#575=EDGE_LOOP('',(#228,#229,#230,#231));
#576=EDGE_LOOP('',(#232,#233,#234,#235));
#577=EDGE_LOOP('',(#236,#237,#238,#239));
#578=EDGE_LOOP('',(#240,#241,#242,#243));
#579=EDGE_LOOP('',(#244,#245,#246,#247));
#580=EDGE_LOOP('',(#248,#249,#250,#251));
#581=EDGE_LOOP('',(#252,#253,#254,#255));
#582=FACE_BOUND('',#546,.T.);
#583=FACE_BOUND('',#547,.T.);
#584=FACE_BOUND('',#548,.T.);
#585=FACE_BOUND('',#549,.T.);
#586=FACE_BOUND('',#550,.T.);
#587=FACE_BOUND('',#551,.T.);
#588=FACE_BOUND('',#552,.T.);
#589=FACE_BOUND('',#553,.T.);
#590=FACE_BOUND('',#554,.T.);
#591=FACE_BOUND('',#555,.T.);
#592=FACE_BOUND('',#556,.T.);
#593=FACE_BOUND('',#557,.T.);
#594=FACE_BOUND('',#558,.T.);
#595=FACE_BOUND('',#559,.T.);
#596=FACE_BOUND('',#560,.T.);
#597=FACE_BOUND('',#561,.T.);
#598=FACE_BOUND('',#562,.T.);
#599=FACE_BOUND('',#563,.T.);
#600=FACE_BOUND('',#564,.T.);
#601=FACE_BOUND('',#565,.T.);
#602=FACE_BOUND('',#566,.T.);
#603=FACE_BOUND('',#567,.T.);
#604=FACE_BOUND('',#568,.T.);
#605=FACE_BOUND('',#569,.T.);
#606=FACE_BOUND('',#570,.T.);
#607=FACE_BOUND('',#571,.T.);
#608=FACE_BOUND('',#572,.T.);
#609=FACE_BOUND('',#573,.T.);
#610=FACE_BOUND('',#574,.T.);
#611=FACE_BOUND('',#575,.T.);
#612=FACE_BOUND('',#576,.T.);
#613=FACE_BOUND('',#577,.T.);
#614=FACE_BOUND('',#578,.T.);
#615=FACE_BOUND('',#579,.T.);
#616=FACE_BOUND('',#580,.T.);
#617=FACE_BOUND('',#581,.T.);
#618=CYLINDRICAL_SURFACE('',#673,0.06);
#619=CYLINDRICAL_SURFACE('',#676,0.06);
#620=CYLINDRICAL_SURFACE('',#691,0.002);
#621=CYLINDRICAL_SURFACE('',#703,0.06);
#622=CYLINDRICAL_SURFACE('',#705,0.06);
#623=CYLINDRICAL_SURFACE('',#713,0.002);
#624=ADVANCED_FACE('',(#582),#618,.T.);
#625=ADVANCED_FACE('',(#583),#619,.T.);
#626=ADVANCED_FACE('',(#584),#48,.T.);
#627=ADVANCED_FACE('',(#585),#49,.T.);
#628=ADVANCED_FACE('',(#586),#14,.F.);
#629=ADVANCED_FACE('',(#587),#15,.T.);
#630=ADVANCED_FACE('',(#588),#16,.T.);
#631=ADVANCED_FACE('',(#589),#17,.F.);
#632=ADVANCED_FACE('',(#590),#620,.T.);
#633=ADVANCED_FACE('',(#591),#12,.T.);
#634=ADVANCED_FACE('',(#592),#18,.F.);
#635=ADVANCED_FACE('',(#593),#19,.F.);
#636=ADVANCED_FACE('',(#594),#20,.F.);
#637=ADVANCED_FACE('',(#595),#21,.F.);
#638=ADVANCED_FACE('',(#596),#22,.F.);
#639=ADVANCED_FACE('',(#597),#23,.F.);
#640=ADVANCED_FACE('',(#598),#24,.F.);
#641=ADVANCED_FACE('',(#599),#25,.F.);
#642=ADVANCED_FACE('',(#600),#26,.F.);
#643=ADVANCED_FACE('',(#601),#27,.T.);
#644=ADVANCED_FACE('',(#602),#621,.T.);
#645=ADVANCED_FACE('',(#603),#622,.T.);
#646=ADVANCED_FACE('',(#604),#50,.T.);
#647=ADVANCED_FACE('',(#605),#51,.T.);
#648=ADVANCED_FACE('',(#606),#28,.T.);
#649=ADVANCED_FACE('',(#607),#29,.T.);
#650=ADVANCED_FACE('',(#608),#623,.T.);
#651=ADVANCED_FACE('',(#609),#13,.T.);
#652=ADVANCED_FACE('',(#610),#30,.F.);
#653=ADVANCED_FACE('',(#611),#31,.F.);
#654=ADVANCED_FACE('',(#612),#32,.F.);
#655=ADVANCED_FACE('',(#613),#33,.F.);
#656=ADVANCED_FACE('',(#614),#34,.F.);
#657=ADVANCED_FACE('',(#615),#35,.F.);
#658=ADVANCED_FACE('',(#616),#36,.F.);
#659=ADVANCED_FACE('',(#617),#37,.F.);
#660=CLOSED_SHELL('',(#624,#625,#626,#627,#628,#629,#630,#631,#632,#633,
#634,#635,#636,#637,#638,#639,#640,#641,#642,#643,#644,#645,#646,#647,#648,
#649,#650,#651,#652,#653,#654,#655,#656,#657,#658,#659));
#661=STYLED_ITEM('',(#662),#669);
#662=PRESENTATION_STYLE_ASSIGNMENT((#663));
#663=SURFACE_STYLE_USAGE(.BOTH.,#664);
#664=SURFACE_SIDE_STYLE('',(#665));
#665=SURFACE_STYLE_FILL_AREA(#666);
#666=FILL_AREA_STYLE('',(#667));
#667=FILL_AREA_STYLE_COLOUR('',#668);
#668=DRAUGHTING_PRE_DEFINED_COLOUR('yellow');
#669=MANIFOLD_SOLID_BREP('ear',#660);
#670=SHAPE_DEFINITION_REPRESENTATION(#1250,#671);
#671=SHAPE_REPRESENTATION('ear',(#672),#1245);
#672=AXIS2_PLACEMENT_3D('',#893,#723,#724);
#673=AXIS2_PLACEMENT_3D('',#894,#725,#726);
#674=AXIS2_PLACEMENT_3D('',#898,#728,#729);
#675=AXIS2_PLACEMENT_3D('',#902,#731,#732);
#676=AXIS2_PLACEMENT_3D('',#903,#733,#734);
#677=AXIS2_PLACEMENT_3D('',#907,#736,#737);
#678=AXIS2_PLACEMENT_3D('',#911,#739,#740);
#679=AXIS2_PLACEMENT_3D('',#912,#741,#742);
#680=AXIS2_PLACEMENT_3D('',#938,#743,#744);
#681=AXIS2_PLACEMENT_3D('',#939,#745,#746);
#682=AXIS2_PLACEMENT_3D('',#945,#747,#748);
#683=AXIS2_PLACEMENT_3D('',#957,#749,#750);
#684=AXIS2_PLACEMENT_3D('',#966,#755,#756);
#685=AXIS2_PLACEMENT_3D('',#972,#760,#761);
#686=AXIS2_PLACEMENT_3D('',#973,#762,#763);
#687=AXIS2_PLACEMENT_3D('',#992,#773,#774);
#688=AXIS2_PLACEMENT_3D('',#994,#775,#776);
#689=AXIS2_PLACEMENT_3D('',#996,#777,#778);
#690=AXIS2_PLACEMENT_3D('',#999,#780,#781);
#691=AXIS2_PLACEMENT_3D('',#1015,#790,#791);
#692=AXIS2_PLACEMENT_3D('',#1016,#792,#793);
#693=AXIS2_PLACEMENT_3D('',#1065,#794,#795);
#694=AXIS2_PLACEMENT_3D('',#1071,#799,#800);
#695=AXIS2_PLACEMENT_3D('',#1083,#804,#805);
#696=AXIS2_PLACEMENT_3D('',#1089,#809,#810);
#697=AXIS2_PLACEMENT_3D('',#1093,#813,#814);
#698=AXIS2_PLACEMENT_3D('',#1097,#817,#818);
#699=AXIS2_PLACEMENT_3D('',#1101,#821,#822);
#700=AXIS2_PLACEMENT_3D('',#1105,#825,#826);
#701=AXIS2_PLACEMENT_3D('',#1107,#828,#829);
#702=AXIS2_PLACEMENT_3D('',#1109,#831,#832);
#703=AXIS2_PLACEMENT_3D('',#1127,#842,#843);
#704=AXIS2_PLACEMENT_3D('',#1130,#845,#846);
#705=AXIS2_PLACEMENT_3D('',#1133,#848,#849);
#706=AXIS2_PLACEMENT_3D('',#1136,#851,#852);
#707=AXIS2_PLACEMENT_3D('',#1137,#853,#854);
#708=AXIS2_PLACEMENT_3D('',#1144,#855,#856);
#709=AXIS2_PLACEMENT_3D('',#1163,#857,#858);
#710=AXIS2_PLACEMENT_3D('',#1175,#859,#860);
#711=AXIS2_PLACEMENT_3D('',#1176,#861,#862);
#712=AXIS2_PLACEMENT_3D('',#1178,#864,#865);
#713=AXIS2_PLACEMENT_3D('',#1179,#866,#867);
#714=AXIS2_PLACEMENT_3D('',#1180,#868,#869);
#715=AXIS2_PLACEMENT_3D('',#1229,#870,#871);
#716=AXIS2_PLACEMENT_3D('',#1231,#873,#874);
#717=AXIS2_PLACEMENT_3D('',#1234,#877,#878);
#718=AXIS2_PLACEMENT_3D('',#1236,#880,#881);
#719=AXIS2_PLACEMENT_3D('',#1238,#883,#884);
#720=AXIS2_PLACEMENT_3D('',#1240,#886,#887);
#721=AXIS2_PLACEMENT_3D('',#1242,#889,#890);
#722=AXIS2_PLACEMENT_3D('',#1243,#891,#892);
#723=DIRECTION('',(0.,0.,1.));
#724=DIRECTION('',(1.,0.,0.));
#725=DIRECTION('',(0.,1.,0.));
#726=DIRECTION('',(0.,0.,1.));
#727=DIRECTION('',(0.,1.,0.));
#728=DIRECTION('',(0.,-1.,0.));
#729=DIRECTION('',(0.,0.,-1.));
#730=DIRECTION('',(0.,1.,0.));
#731=DIRECTION('',(0.,-1.,0.));
#732=DIRECTION('',(0.,0.,-1.));
#733=DIRECTION('',(0.,1.,0.));
#734=DIRECTION('',(0.,0.,1.));
#735=DIRECTION('',(0.,1.,0.));
#736=DIRECTION('',(0.,-1.,0.));
#737=DIRECTION('',(0.,0.,-1.));
#738=DIRECTION('',(0.,1.,0.));
#739=DIRECTION('',(0.,-1.,0.));
#740=DIRECTION('',(0.,0.,-1.));
#741=DIRECTION('',(0.,-1.,0.));
#742=DIRECTION('',(0.,0.,-1.));
#743=DIRECTION('',(0.,-1.,0.));
#744=DIRECTION('',(0.,0.,-1.));
#745=DIRECTION('',(0.,-1.,0.));
#746=DIRECTION('',(0.,0.,-1.));
#747=DIRECTION('',(0.,-1.,0.));
#748=DIRECTION('',(0.,0.,-1.));
#749=DIRECTION('',(0.,0.,1.));
#750=DIRECTION('',(1.,0.,0.));
#751=DIRECTION('',(0.,1.,0.));
#752=DIRECTION('',(-1.,0.,-1.22464679914735E-16));
#753=DIRECTION('',(0.,1.,0.));
#754=DIRECTION('',(1.,0.,0.));
#755=DIRECTION('',(-0.707106781186548,0.,-0.707106781186548));
#756=DIRECTION('',(-0.707106781186548,0.,0.707106781186548));
#757=DIRECTION('',(-0.707106781186548,0.,0.707106781186548));
#758=DIRECTION('',(0.,1.,0.));
#759=DIRECTION('',(-0.707106781186547,0.,0.707106781186548));
#760=DIRECTION('',(0.,-1.,0.));
#761=DIRECTION('',(1.,0.,0.));
#762=DIRECTION('',(0.,-1.,0.));
#763=DIRECTION('',(1.,0.,0.));
#764=DIRECTION('',(0.707106781186548,0.,0.707106781186548));
#765=DIRECTION('',(0.,0.,1.));
#766=DIRECTION('',(-0.707106781186548,0.,0.707106781186548));
#767=DIRECTION('',(0.,0.,-1.));
#768=DIRECTION('',(-1.,0.,0.));
#769=DIRECTION('',(0.,0.,-1.));
#770=DIRECTION('',(-0.707106781186548,0.,0.707106781186548));
#771=DIRECTION('',(0.,0.,1.));
#772=DIRECTION('',(0.707106781186547,0.,0.707106781186548));
#773=DIRECTION('',(0.,1.,0.));
#774=DIRECTION('',(0.,0.,-1.));
#775=DIRECTION('',(0.,1.,0.));
#776=DIRECTION('',(0.,0.,-1.));
#777=DIRECTION('',(0.,1.,0.));
#778=DIRECTION('',(0.,0.,-1.));
#779=DIRECTION('',(-1.,0.,-1.22464679914735E-16));
#780=DIRECTION('',(0.,-1.,0.));
#781=DIRECTION('',(0.,0.,-1.));
#782=DIRECTION('',(-0.707106781186547,0.,0.707106781186548));
#783=DIRECTION('',(0.,0.,1.));
#784=DIRECTION('',(0.707106781186548,0.,0.707106781186548));
#785=DIRECTION('',(0.,0.,-1.));
#786=DIRECTION('',(1.,0.,0.));
#787=DIRECTION('',(0.,0.,-1.));
#788=DIRECTION('',(0.707106781186548,0.,0.707106781186548));
#789=DIRECTION('',(0.,0.,1.));
#790=DIRECTION('',(0.,1.,0.));
#791=DIRECTION('',(0.,0.,1.));
#792=DIRECTION('',(0.,1.,0.));
#793=DIRECTION('',(0.,0.,1.));
#794=DIRECTION('',(-0.707106781186548,0.,-0.707106781186547));
#795=DIRECTION('',(-0.707106781186547,0.,0.707106781186548));
#796=DIRECTION('',(0.,1.,0.));
#797=DIRECTION('',(-0.707106781186547,0.,0.707106781186548));
#798=DIRECTION('',(0.,1.,0.));
#799=DIRECTION('',(1.22464679914735E-16,0.,-1.));
#800=DIRECTION('',(-1.,0.,-1.22464679914735E-16));
#801=DIRECTION('',(0.,1.,0.));
#802=DIRECTION('',(0.,1.,0.));
#803=DIRECTION('',(-1.,0.,-1.22464679914735E-16));
#804=DIRECTION('',(0.707106781186548,0.,-0.707106781186548));
#805=DIRECTION('',(-0.707106781186548,0.,-0.707106781186548));
#806=DIRECTION('',(0.,1.,0.));
#807=DIRECTION('',(0.707106781186548,0.,0.707106781186548));
#808=DIRECTION('',(0.,1.,0.));
#809=DIRECTION('',(1.,0.,0.));
#810=DIRECTION('',(0.,0.,-1.));
#811=DIRECTION('',(0.,1.,0.));
#812=DIRECTION('',(0.,0.,-1.));
#813=DIRECTION('',(0.,0.,1.));
#814=DIRECTION('',(1.,0.,0.));
#815=DIRECTION('',(0.,1.,0.));
#816=DIRECTION('',(1.,0.,0.));
#817=DIRECTION('',(-1.,0.,0.));
#818=DIRECTION('',(0.,0.,1.));
#819=DIRECTION('',(0.,1.,0.));
#820=DIRECTION('',(0.,0.,-1.));
#821=DIRECTION('',(-0.707106781186548,0.,0.707106781186548));
#822=DIRECTION('',(0.707106781186548,0.,0.707106781186548));
#823=DIRECTION('',(0.,1.,0.));
#824=DIRECTION('',(0.707106781186548,0.,0.707106781186548));
#825=DIRECTION('',(-1.,0.,0.));
#826=DIRECTION('',(0.,0.,1.));
#827=DIRECTION('',(0.,0.,1.));
#828=DIRECTION('',(1.,0.,0.));
#829=DIRECTION('',(0.,0.,-1.));
#830=DIRECTION('',(0.,0.,1.));
#831=DIRECTION('',(0.,-1.,0.));
#832=DIRECTION('',(0.,0.,-1.));
#833=DIRECTION('',(0.707106781186547,0.,0.707106781186548));
#834=DIRECTION('',(0.,0.,1.));
#835=DIRECTION('',(-0.707106781186548,0.,0.707106781186548));
#836=DIRECTION('',(0.,0.,-1.));
#837=DIRECTION('',(-1.,0.,0.));
#838=DIRECTION('',(0.,0.,-1.));
#839=DIRECTION('',(-0.707106781186548,0.,0.707106781186548));
#840=DIRECTION('',(0.,0.,1.));
#841=DIRECTION('',(0.707106781186547,0.,0.707106781186548));
#842=DIRECTION('',(0.,1.,0.));
#843=DIRECTION('',(0.,0.,1.));
#844=DIRECTION('',(0.,1.,0.));
#845=DIRECTION('',(0.,1.,0.));
#846=DIRECTION('',(0.,0.,-1.));
#847=DIRECTION('',(0.,1.,0.));
#848=DIRECTION('',(0.,1.,0.));
#849=DIRECTION('',(0.,0.,1.));
#850=DIRECTION('',(0.,1.,0.));
#851=DIRECTION('',(0.,1.,0.));
#852=DIRECTION('',(0.,0.,-1.));
#853=DIRECTION('',(0.,-1.,0.));
#854=DIRECTION('',(0.,0.,-1.));
#855=DIRECTION('',(0.,1.,0.));
#856=DIRECTION('',(0.,0.,-1.));
#857=DIRECTION('',(0.,-1.,0.));
#858=DIRECTION('',(0.,0.,-1.));
#859=DIRECTION('',(0.,1.,0.));
#860=DIRECTION('',(0.,0.,-1.));
#861=DIRECTION('',(0.707106781186548,0.,-0.707106781186548));
#862=DIRECTION('',(0.707106781186548,0.,0.707106781186548));
#863=DIRECTION('',(0.,1.,0.));
#864=DIRECTION('',(0.,-1.,0.));
#865=DIRECTION('',(-1.,0.,0.));
#866=DIRECTION('',(0.,1.,0.));
#867=DIRECTION('',(0.,0.,1.));
#868=DIRECTION('',(0.,-1.,0.));
#869=DIRECTION('',(0.,0.,1.));
#870=DIRECTION('',(0.707106781186548,0.,-0.707106781186547));
#871=DIRECTION('',(0.707106781186547,0.,0.707106781186548));
#872=DIRECTION('',(0.,1.,0.));
#873=DIRECTION('',(-0.707106781186548,0.,-0.707106781186548));
#874=DIRECTION('',(0.707106781186548,0.,-0.707106781186548));
#875=DIRECTION('',(0.,1.,0.));
#876=DIRECTION('',(0.,1.,0.));
#877=DIRECTION('',(-1.,0.,0.));
#878=DIRECTION('',(0.,0.,-1.));
#879=DIRECTION('',(0.,1.,0.));
#880=DIRECTION('',(0.,0.,1.));
#881=DIRECTION('',(-1.,0.,0.));
#882=DIRECTION('',(0.,1.,0.));
#883=DIRECTION('',(1.,0.,0.));
#884=DIRECTION('',(0.,0.,1.));
#885=DIRECTION('',(0.,1.,0.));
#886=DIRECTION('',(0.707106781186548,0.,0.707106781186548));
#887=DIRECTION('',(-0.707106781186548,0.,0.707106781186548));
#888=DIRECTION('',(0.,1.,0.));
#889=DIRECTION('',(1.,0.,0.));
#890=DIRECTION('',(0.,0.,1.));
#891=DIRECTION('',(-1.,0.,0.));
#892=DIRECTION('',(0.,0.,-1.));
#893=CARTESIAN_POINT('',(0.,0.,0.));
#894=CARTESIAN_POINT('',(-0.00903561618777305,-0.006,0.0842473082893989));
#895=CARTESIAN_POINT('',(0.0365699699605775,-0.006,0.0452584571641686));
#896=CARTESIAN_POINT('',(0.0365699699605775,0.006,0.0452584571641686));
#897=CARTESIAN_POINT('',(0.0365699699605776,0.0031,0.0452584571641686));
#898=CARTESIAN_POINT('',(-0.00903561618777305,0.006,0.0842473082893989));
#899=CARTESIAN_POINT('',(0.0506099107064576,0.006,0.0907596904579766));
#900=CARTESIAN_POINT('',(0.0506099107064576,-0.006,0.0907596904579766));
#901=CARTESIAN_POINT('',(0.0506099107064576,0.0031,0.0907596904579766));
#902=CARTESIAN_POINT('',(-0.00903561618777305,0.0031,0.0842473082893989));
#903=CARTESIAN_POINT('',(0.0849401731865495,-0.006,0.0453212617958372));
#904=CARTESIAN_POINT('',(0.0251228729397404,-0.006,0.05));
#905=CARTESIAN_POINT('',(0.0251228729397405,0.0031,0.05));
#906=CARTESIAN_POINT('',(0.0251228729397404,0.006,0.05));
#907=CARTESIAN_POINT('',(0.0849401731865495,0.0031,0.0453212617958372));
#908=CARTESIAN_POINT('',(0.0473693662452741,0.0031,0.0921019679232719));
#909=CARTESIAN_POINT('',(0.0473693662452741,-0.006,0.0921019679232719));
#910=CARTESIAN_POINT('',(0.0473693662452741,0.006,0.0921019679232718));
#911=CARTESIAN_POINT('',(0.0849401731865495,0.006,0.0453212617958372));
#912=CARTESIAN_POINT('',(-0.00903561618777305,0.0031,0.0842473082893989));
#913=CARTESIAN_POINT('',(0.0371737759545584,-0.006,0.062904813640548));
#914=CARTESIAN_POINT('',(0.0362828882772865,-0.006,0.0607540205275238));
#915=CARTESIAN_POINT('',(0.0344975878048082,-0.00600493958522561,0.0564439239139603));
#916=CARTESIAN_POINT('',(0.0327168370263089,-0.00586502575029685,0.0521448112332994));
#917=CARTESIAN_POINT('',(0.0318284271247525,-0.00567302914600528,0.0500000000000154));
#918=CARTESIAN_POINT('',(0.0318284271247525,-0.00567302914600527,0.0500000000000154));
#919=CARTESIAN_POINT('',(0.0371737759545583,-0.006,0.0629048136405477));
#920=CARTESIAN_POINT('',(0.0318284271247418,-0.00567302914600561,0.0500000000000044));
#921=CARTESIAN_POINT('',(0.0325091853573975,-0.00540876799884438,0.0493192417673487));
#922=CARTESIAN_POINT('',(0.0337866210669708,-0.00457785108712926,0.0480418060577753));
#923=CARTESIAN_POINT('',(0.0358589739531868,-0.00183137758298289,0.0459694531715594));
#924=CARTESIAN_POINT('',(0.0365699699605775,0.00111720723180098,0.0452584571641686));
#925=CARTESIAN_POINT('',(0.0365699699605775,0.00310000000000001,0.0452584571641686));
#926=CARTESIAN_POINT('',(0.0506099107064576,0.0031,0.0907596904579766));
#927=CARTESIAN_POINT('',(0.0506099107064576,0.00179604052463988,0.0907596904579766));
#928=CARTESIAN_POINT('',(0.0502391551704408,-7.71359982661123E-5,0.0900615482068941));
#929=CARTESIAN_POINT('',(0.0493722296779292,-0.00189375543519967,0.0884228782964934));
#930=CARTESIAN_POINT('',(0.0483780725462623,-0.00332430588206995,0.0865370418760148));
#931=CARTESIAN_POINT('',(0.0469830019214007,-0.00453166441321659,0.083871289852509));
#932=CARTESIAN_POINT('',(0.0452797695213993,-0.0053483276685858,0.0805609674169748));
#933=CARTESIAN_POINT('',(0.0435631847327318,-0.00577594570635918,0.0771397121808757));
#934=CARTESIAN_POINT('',(0.0413265020815475,-0.00601044271798889,0.0725254162707949));
#935=CARTESIAN_POINT('',(0.0397450750683799,-0.006,0.0690341809275067));
#936=CARTESIAN_POINT('',(0.0387307810442181,-0.006,0.0666637564446882));
#937=CARTESIAN_POINT('',(0.0387307810442181,-0.006,0.0666637564446881));
#938=CARTESIAN_POINT('',(-0.00903561618777305,-0.006,0.0842473082893989));
#939=CARTESIAN_POINT('',(0.0849401731865495,0.0031,0.0453212617958372));
#940=CARTESIAN_POINT('',(0.0251228729397404,0.0031,0.05));
#941=CARTESIAN_POINT('',(0.0251228729397404,0.00112913535972745,0.05));
#942=CARTESIAN_POINT('',(0.0264574453518455,-0.00282367021813527,0.05));
#943=CARTESIAN_POINT('',(0.029931594678871,-0.00515236894014605,0.05));
#944=CARTESIAN_POINT('',(0.0318284271247524,-0.00567302914600563,0.05));
#945=CARTESIAN_POINT('',(0.0849401731865495,-0.006,0.0453212617958372));
#946=CARTESIAN_POINT('',(0.0473693662452741,0.0031,0.0921019679232718));
#947=CARTESIAN_POINT('',(0.0473693662452741,0.00179603326870099,0.0921019679232718));
#948=CARTESIAN_POINT('',(0.0471378663097716,-7.71524242613405E-5,0.0913461346885875));
#949=CARTESIAN_POINT('',(0.0465921557783522,-0.00189377636339901,0.0895743955403054));
#950=CARTESIAN_POINT('',(0.0459616384339548,-0.00332432750712775,0.0875379174376895));
#951=CARTESIAN_POINT('',(0.0450631256573664,-0.00453168368194012,0.0846664630395683));
#952=CARTESIAN_POINT('',(0.0439267299541296,-0.00534834161291037,0.0811213219809828));
#953=CARTESIAN_POINT('',(0.0427213523644035,-0.00577595395470598,0.0774883030567216));
#954=CARTESIAN_POINT('',(0.0410400409678611,-0.00601044451303008,0.0726438834094186));
#955=CARTESIAN_POINT('',(0.0396899275117045,-0.006,0.0690570421843983));
#956=CARTESIAN_POINT('',(0.0387307810442181,-0.006,0.0666637564446882));
#957=CARTESIAN_POINT('',(0.028,-0.006,0.048));
#958=CARTESIAN_POINT('',(0.031,-0.006,0.048));
#959=CARTESIAN_POINT('',(0.031,-0.006,0.048));
#960=CARTESIAN_POINT('',(0.031,0.006,0.048));
#961=CARTESIAN_POINT('',(-0.00109816037225226,-0.006,0.048));
#962=CARTESIAN_POINT('',(-0.031,-0.006,0.048));
#963=CARTESIAN_POINT('',(-0.031,-0.006,0.048));
#964=CARTESIAN_POINT('',(-0.031,0.006,0.048));
#965=CARTESIAN_POINT('',(0.028,0.006,0.048));
#966=CARTESIAN_POINT('',(0.0331213203435596,-0.006,0.0458786796564403));
#967=CARTESIAN_POINT('',(0.0331213203435596,0.006,0.0458786796564403));
#968=CARTESIAN_POINT('',(0.036,0.006,0.043));
#969=CARTESIAN_POINT('',(0.036,-0.006,0.043));
#970=CARTESIAN_POINT('',(0.036,-0.006,0.043));
#971=CARTESIAN_POINT('',(0.0340627802091004,-0.006,0.0449372197908996));
#972=CARTESIAN_POINT('',(0.0379821919061134,-0.006,0.0689756679692225));
#973=CARTESIAN_POINT('',(0.0379821919061134,0.006,0.0689756679692225));
#974=CARTESIAN_POINT('',(-0.0331213203435596,0.006,0.0458786796564403));
#975=CARTESIAN_POINT('',(-0.036,0.006,0.043));
#976=CARTESIAN_POINT('',(-0.036,0.006,0.0395388368200175));
#977=CARTESIAN_POINT('',(-0.036,0.006,0.0382426406871192));
#978=CARTESIAN_POINT('',(-0.0343751880804056,0.006,0.0366178287675248));
#979=CARTESIAN_POINT('',(-0.0348,0.006,0.0370426406871192));
#980=CARTESIAN_POINT('',(-0.0348,0.006,0.0364820643221792));
#981=CARTESIAN_POINT('',(-0.0348,0.006,0.0360426406871192));
#982=CARTESIAN_POINT('',(-0.0348,0.006,0.0360426406871192));
#983=CARTESIAN_POINT('',(-0.0368,0.006,0.0360426406871192));
#984=CARTESIAN_POINT('',(-0.0368,0.006,0.0364820643221792));
#985=CARTESIAN_POINT('',(-0.0368,0.006,0.036214213562373));
#986=CARTESIAN_POINT('',(-0.0357894016427788,0.006,0.0352036152051518));
#987=CARTESIAN_POINT('',(-0.038,0.006,0.037414213562373));
#988=CARTESIAN_POINT('',(-0.038,0.006,0.0395388368200175));
#989=CARTESIAN_POINT('',(-0.038,0.006,0.0438284271247462));
#990=CARTESIAN_POINT('',(-0.0354769937714736,0.006,0.0463514333532726));
#991=CARTESIAN_POINT('',(-0.0365699699605775,0.006,0.0452584571641686));
#992=CARTESIAN_POINT('',(0.00903561618777305,0.006,0.0842473082893989));
#993=CARTESIAN_POINT('',(-0.0506099107064576,0.006,0.0907596904579766));
#994=CARTESIAN_POINT('',(-0.0486217264766499,0.006,0.0905426110523573));
#995=CARTESIAN_POINT('',(-0.0473693662452741,0.006,0.0921019679232718));
#996=CARTESIAN_POINT('',(-0.0849401731865495,0.006,0.0453212617958372));
#997=CARTESIAN_POINT('',(-0.0251228729397404,0.006,0.05));
#998=CARTESIAN_POINT('',(-0.00109816037225226,0.006,0.05));
#999=CARTESIAN_POINT('',(0.0486217264766499,0.006,0.0905426110523573));
#1000=CARTESIAN_POINT('',(0.0354769937714736,0.006,0.0463514333532726));
#1001=CARTESIAN_POINT('',(0.038,0.006,0.0438284271247462));
#1002=CARTESIAN_POINT('',(0.038,0.006,0.0395388368200175));
#1003=CARTESIAN_POINT('',(0.038,0.006,0.037414213562373));
#1004=CARTESIAN_POINT('',(0.0357894016427788,0.006,0.0352036152051518));
#1005=CARTESIAN_POINT('',(0.0368,0.006,0.036214213562373));
#1006=CARTESIAN_POINT('',(0.0368,0.006,0.0364820643221792));
#1007=CARTESIAN_POINT('',(0.0368,0.006,0.0360426406871192));
#1008=CARTESIAN_POINT('',(0.0348,0.006,0.0360426406871192));
#1009=CARTESIAN_POINT('',(0.0348,0.006,0.0360426406871192));
#1010=CARTESIAN_POINT('',(0.0348,0.006,0.0364820643221792));
#1011=CARTESIAN_POINT('',(0.0348,0.006,0.0370426406871192));
#1012=CARTESIAN_POINT('',(0.0343751880804056,0.006,0.0366178287675248));
#1013=CARTESIAN_POINT('',(0.036,0.006,0.0382426406871192));
#1014=CARTESIAN_POINT('',(0.036,0.006,0.0395388368200175));
#1015=CARTESIAN_POINT('',(0.0486217264766499,-0.006,0.0905426110523573));
#1016=CARTESIAN_POINT('',(0.0486217264766499,0.0031,0.0905426110523573));
#1017=CARTESIAN_POINT('',(0.0473693662452741,0.0031,0.0921019679232718));
#1018=CARTESIAN_POINT('',(0.050213918193352,0.0031,0.0943865018887177));
#1019=CARTESIAN_POINT('',(0.0506099107064576,0.0031,0.0907596904579766));
#1020=CARTESIAN_POINT('',(0.0473693662420106,0.00270872653446312,0.0921019679206508));
#1021=CARTESIAN_POINT('',(0.0502139181879179,0.0024225686558683,0.0943865018756931));
#1022=CARTESIAN_POINT('',(0.0506099107069084,0.00270872653446312,0.0907596904538475));
#1023=CARTESIAN_POINT('',(0.0473432784555411,0.00194353426570911,0.0920168780628724));
#1024=CARTESIAN_POINT('',(0.050119994947297,0.00113073847451402,0.0941597511142265));
#1025=CARTESIAN_POINT('',(0.0505681899421868,0.00194353426570912,0.0906810759876368));
#1026=CARTESIAN_POINT('',(0.0472331467542762,0.000852852119211249,0.0916578613071779));
#1027=CARTESIAN_POINT('',(0.0497683529145453,-0.000480920022413463,0.093310812149711));
#1028=CARTESIAN_POINT('',(0.0503922016324617,0.000852852119211247,0.0903493379323564));
#1029=CARTESIAN_POINT('',(0.0470689386505104,-0.000117778575317835,0.091123157043566));
#1030=CARTESIAN_POINT('',(0.0493327059905512,-0.00165122701966924,0.0922590674373848));
#1031=CARTESIAN_POINT('',(0.0501302212854314,-0.000117778575317833,0.0898551322579234));
#1032=CARTESIAN_POINT('',(0.0468040936479075,-0.00123581557950899,0.09026212098772));
#1033=CARTESIAN_POINT('',(0.0487575311494071,-0.00274096807012407,0.0908704725351628));
#1034=CARTESIAN_POINT('',(0.0497086505488004,-0.001235815579509,0.0890590141266864));
#1035=CARTESIAN_POINT('',(0.0464072924578488,-0.00236806114694746,0.0889760224880691));
#1036=CARTESIAN_POINT('',(0.0480521063136604,-0.00363630400616768,0.0891674263294665));
#1037=CARTESIAN_POINT('',(0.0490798223906968,-0.00236806114694746,0.0878690243440352));
#1038=CARTESIAN_POINT('',(0.0458927004544287,-0.00337072540027837,0.0873187042557243));
#1039=CARTESIAN_POINT('',(0.0472545121766061,-0.00434580312474599,0.0872418637465214));
#1040=CARTESIAN_POINT('',(0.0482717929251843,-0.00337072540027838,0.0863332518881977));
#1041=CARTESIAN_POINT('',(0.045345276974049,-0.00413696018365287,0.0855707223894002));
#1042=CARTESIAN_POINT('',(0.0464797267537879,-0.00485118858349885,0.0853713662708244));
#1043=CARTESIAN_POINT('',(0.0474228699492728,-0.00413696018365287,0.0847101552019715));
#1044=CARTESIAN_POINT('',(0.0446062854597959,-0.00488877308131052,0.0832367854609943));
#1045=CARTESIAN_POINT('',(0.0455070236413964,-0.00532183622672826,0.0830230532247265));
#1046=CARTESIAN_POINT('',(0.0462950732313029,-0.00488877308131052,0.0825372666620663));
#1047=CARTESIAN_POINT('',(0.0436618594807901,-0.00546893197179708,0.0803119968326362));
#1048=CARTESIAN_POINT('',(0.0443093115532101,-0.0056823801757999,0.0801315204576093));
#1049=CARTESIAN_POINT('',(0.0448947453727369,-0.00546893197179708,0.0798013187753332));
#1050=CARTESIAN_POINT('',(0.042494888339314,-0.00581895974259469,0.0768251966945998));
#1051=CARTESIAN_POINT('',(0.0428865983216223,-0.00589434334400944,0.0766967868785404));
#1052=CARTESIAN_POINT('',(0.0432543785580779,-0.00581895974259469,0.0765106055454989));
#1053=CARTESIAN_POINT('',(0.0412901731161218,-0.00596218651513807,0.0733827118529914));
#1054=CARTESIAN_POINT('',(0.0414849036344921,-0.0059784838967076,0.0733127965545719));
#1055=CARTESIAN_POINT('',(0.0416720364861552,-0.00596218651513807,0.073224538866147));
#1056=CARTESIAN_POINT('',(0.0400408362922949,-0.00599969111774388,0.0699931386307338));
#1057=CARTESIAN_POINT('',(0.0401002858177635,-0.00599984160747795,0.0699700334426934));
#1058=CARTESIAN_POINT('',(0.0401586608155101,-0.00599969111774388,0.0699443341152493));
#1059=CARTESIAN_POINT('',(0.0391785851592621,-0.006,0.0677801933540704));
#1060=CARTESIAN_POINT('',(0.0391910804932196,-0.00600000000017076,0.06777501761727));
#1061=CARTESIAN_POINT('',(0.0392035758271715,-0.006,0.0677698418804651));
#1062=CARTESIAN_POINT('',(0.0387307810442181,-0.006,0.0666637564446882));
#1063=CARTESIAN_POINT('',(0.0387307810442181,-0.006,0.0666637564446882));
#1064=CARTESIAN_POINT('',(0.0387307810442181,-0.006,0.0666637564446882));
#1065=CARTESIAN_POINT('',(0.0354769937714736,-0.006,0.0463514333532726));
#1066=CARTESIAN_POINT('',(0.0318284271247462,-0.006,0.05));
#1067=CARTESIAN_POINT('',(0.0318284271247462,-0.006,0.05));
#1068=CARTESIAN_POINT('',(0.0354769937714736,-0.006,0.0463514333532726));
#1069=CARTESIAN_POINT('',(0.038,-0.006,0.0438284271247462));
#1070=CARTESIAN_POINT('',(0.038,-0.006,0.0438284271247462));
#1071=CARTESIAN_POINT('',(-0.00109816037225226,-0.006,0.05));
#1072=CARTESIAN_POINT('',(-0.0251228729397404,-0.006,0.05));
#1073=CARTESIAN_POINT('',(-0.0251228729397405,0.0031,0.05));
#1074=CARTESIAN_POINT('',(-0.0251228729397404,0.0031,0.05));
#1075=CARTESIAN_POINT('',(-0.0251228729397404,0.00112913535972745,0.05));
#1076=CARTESIAN_POINT('',(-0.0264574453518455,-0.00282367021813527,0.05));
#1077=CARTESIAN_POINT('',(-0.029931594678871,-0.00515236894014605,0.05));
#1078=CARTESIAN_POINT('',(-0.0318284271247524,-0.00567302914600563,0.05));
#1079=CARTESIAN_POINT('',(-0.0318284271247525,-0.00567302914600527,0.0500000000000154));
#1080=CARTESIAN_POINT('',(-0.0318284271247462,-0.006,0.05));
#1081=CARTESIAN_POINT('',(-0.0318284271247462,-0.006,0.05));
#1082=CARTESIAN_POINT('',(-0.00109816037225226,-0.006,0.05));
#1083=CARTESIAN_POINT('',(0.0343751880804056,-0.006,0.0366178287675248));
#1084=CARTESIAN_POINT('',(0.0348,-0.006,0.0370426406871192));
#1085=CARTESIAN_POINT('',(0.0348,-0.006,0.0370426406871192));
#1086=CARTESIAN_POINT('',(0.0343751880804056,-0.006,0.0366178287675248));
#1087=CARTESIAN_POINT('',(0.036,-0.006,0.0382426406871192));
#1088=CARTESIAN_POINT('',(0.036,-0.006,0.0382426406871192));
#1089=CARTESIAN_POINT('',(0.0348,-0.006,0.0364820643221792));
#1090=CARTESIAN_POINT('',(0.0348,-0.006,0.0360426406871192));
#1091=CARTESIAN_POINT('',(0.0348,-0.006,0.0360426406871192));
#1092=CARTESIAN_POINT('',(0.0348,-0.006,0.0364820643221792));
#1093=CARTESIAN_POINT('',(0.0348,-0.006,0.0360426406871192));
#1094=CARTESIAN_POINT('',(0.0368,-0.006,0.0360426406871192));
#1095=CARTESIAN_POINT('',(0.0368,-0.006,0.0360426406871192));
#1096=CARTESIAN_POINT('',(0.0348,-0.006,0.0360426406871192));
#1097=CARTESIAN_POINT('',(0.0368,-0.006,0.0364820643221792));
#1098=CARTESIAN_POINT('',(0.0368,-0.006,0.036214213562373));
#1099=CARTESIAN_POINT('',(0.0368,-0.006,0.036214213562373));
#1100=CARTESIAN_POINT('',(0.0368,-0.006,0.0364820643221792));
#1101=CARTESIAN_POINT('',(0.0357894016427788,-0.006,0.0352036152051518));
#1102=CARTESIAN_POINT('',(0.038,-0.006,0.037414213562373));
#1103=CARTESIAN_POINT('',(0.038,-0.006,0.037414213562373));
#1104=CARTESIAN_POINT('',(0.0357894016427788,-0.006,0.0352036152051518));
#1105=CARTESIAN_POINT('',(0.038,-0.006,0.0395388368200175));
#1106=CARTESIAN_POINT('',(0.038,-0.006,0.0395388368200175));
#1107=CARTESIAN_POINT('',(0.036,-0.006,0.0395388368200175));
#1108=CARTESIAN_POINT('',(0.036,-0.006,0.0395388368200175));
#1109=CARTESIAN_POINT('',(0.,-0.006,0.));
#1110=CARTESIAN_POINT('',(-0.0354769937714736,-0.006,0.0463514333532726));
#1111=CARTESIAN_POINT('',(-0.038,-0.006,0.0438284271247462));
#1112=CARTESIAN_POINT('',(-0.038,-0.006,0.0395388368200175));
#1113=CARTESIAN_POINT('',(-0.038,-0.006,0.037414213562373));
#1114=CARTESIAN_POINT('',(-0.0357894016427788,-0.006,0.0352036152051518));
#1115=CARTESIAN_POINT('',(-0.0368,-0.006,0.036214213562373));
#1116=CARTESIAN_POINT('',(-0.0368,-0.006,0.0364820643221792));
#1117=CARTESIAN_POINT('',(-0.0368,-0.006,0.0360426406871192));
#1118=CARTESIAN_POINT('',(-0.0348,-0.006,0.0360426406871192));
#1119=CARTESIAN_POINT('',(-0.0348,-0.006,0.0360426406871192));
#1120=CARTESIAN_POINT('',(-0.0348,-0.006,0.0364820643221792));
#1121=CARTESIAN_POINT('',(-0.0348,-0.006,0.0370426406871192));
#1122=CARTESIAN_POINT('',(-0.0343751880804056,-0.006,0.0366178287675248));
#1123=CARTESIAN_POINT('',(-0.036,-0.006,0.0382426406871192));
#1124=CARTESIAN_POINT('',(-0.036,-0.006,0.0395388368200175));
#1125=CARTESIAN_POINT('',(-0.036,-0.006,0.043));
#1126=CARTESIAN_POINT('',(-0.0340627802091004,-0.006,0.0449372197908996));
#1127=CARTESIAN_POINT('',(0.00903561618777305,-0.006,0.0842473082893989));
#1128=CARTESIAN_POINT('',(-0.0365699699605775,-0.006,0.0452584571641686));
#1129=CARTESIAN_POINT('',(-0.0365699699605776,0.0031,0.0452584571641686));
#1130=CARTESIAN_POINT('',(0.00903561618777305,0.0031,0.0842473082893989));
#1131=CARTESIAN_POINT('',(-0.0506099107064576,0.0031,0.0907596904579766));
#1132=CARTESIAN_POINT('',(-0.0506099107064576,-0.006,0.0907596904579766));
#1133=CARTESIAN_POINT('',(-0.0849401731865495,-0.006,0.0453212617958372));
#1134=CARTESIAN_POINT('',(-0.0473693662452741,-0.006,0.0921019679232719));
#1135=CARTESIAN_POINT('',(-0.0473693662452741,0.0031,0.0921019679232719));
#1136=CARTESIAN_POINT('',(-0.0849401731865495,0.0031,0.0453212617958372));
#1137=CARTESIAN_POINT('',(0.00903561618777305,0.0031,0.0842473082893989));
#1138=CARTESIAN_POINT('',(-0.0371737759545584,-0.006,0.062904813640548));
#1139=CARTESIAN_POINT('',(-0.0362828882772865,-0.006,0.0607540205275238));
#1140=CARTESIAN_POINT('',(-0.0344975878048082,-0.00600493958522561,0.0564439239139603));
#1141=CARTESIAN_POINT('',(-0.0327168370263089,-0.00586502575029685,0.0521448112332994));
#1142=CARTESIAN_POINT('',(-0.0318284271247525,-0.00567302914600528,0.0500000000000154));
#1143=CARTESIAN_POINT('',(-0.0371737759545583,-0.006,0.0629048136405477));
#1144=CARTESIAN_POINT('',(0.00903561618777305,-0.006,0.0842473082893989));
#1145=CARTESIAN_POINT('',(-0.0387307810442181,-0.006,0.0666637564446881));
#1146=CARTESIAN_POINT('',(-0.0506099107064576,0.0031,0.0907596904579766));
#1147=CARTESIAN_POINT('',(-0.0506099107064576,0.00179604052463988,0.0907596904579766));
#1148=CARTESIAN_POINT('',(-0.0502391551704408,-7.71359982661123E-5,0.0900615482068941));
#1149=CARTESIAN_POINT('',(-0.0493722296779292,-0.00189375543519967,0.0884228782964934));
#1150=CARTESIAN_POINT('',(-0.0483780725462623,-0.00332430588206995,0.0865370418760148));
#1151=CARTESIAN_POINT('',(-0.0469830019214007,-0.0045316644132166,0.083871289852509));
#1152=CARTESIAN_POINT('',(-0.0452797695213993,-0.00534832766858579,0.0805609674169748));
#1153=CARTESIAN_POINT('',(-0.0435631847327318,-0.00577594570635918,0.0771397121808757));
#1154=CARTESIAN_POINT('',(-0.0413265020815475,-0.00601044271798889,0.0725254162707949));
#1155=CARTESIAN_POINT('',(-0.0397450750683799,-0.006,0.0690341809275067));
#1156=CARTESIAN_POINT('',(-0.0387307810442181,-0.006,0.0666637564446882));
#1157=CARTESIAN_POINT('',(-0.0318284271247418,-0.00567302914600561,0.0500000000000044));
#1158=CARTESIAN_POINT('',(-0.0325091853573975,-0.00540876799884438,0.0493192417673487));
#1159=CARTESIAN_POINT('',(-0.0337866210669708,-0.00457785108712926,0.0480418060577753));
#1160=CARTESIAN_POINT('',(-0.0358589739531868,-0.00183137758298289,0.0459694531715594));
#1161=CARTESIAN_POINT('',(-0.0365699699605775,0.00111720723180098,0.0452584571641686));
#1162=CARTESIAN_POINT('',(-0.0365699699605775,0.00310000000000001,0.0452584571641686));
#1163=CARTESIAN_POINT('',(-0.0849401731865495,0.0031,0.0453212617958372));
#1164=CARTESIAN_POINT('',(-0.0473693662452741,0.0031,0.0921019679232718));
#1165=CARTESIAN_POINT('',(-0.0473693662452741,0.00179603326870099,0.0921019679232718));
#1166=CARTESIAN_POINT('',(-0.0471378663097716,-7.71524242613405E-5,0.0913461346885875));
#1167=CARTESIAN_POINT('',(-0.0465921557783522,-0.00189377636339901,0.0895743955403054));
#1168=CARTESIAN_POINT('',(-0.0459616384339548,-0.00332432750712775,0.0875379174376895));
#1169=CARTESIAN_POINT('',(-0.0450631256573664,-0.00453168368194012,0.0846664630395683));
#1170=CARTESIAN_POINT('',(-0.0439267299541296,-0.00534834161291037,0.0811213219809828));
#1171=CARTESIAN_POINT('',(-0.0427213523644035,-0.00577595395470598,0.0774883030567216));
#1172=CARTESIAN_POINT('',(-0.0410400409678611,-0.00601044451303008,0.0726438834094186));
#1173=CARTESIAN_POINT('',(-0.0396899275117045,-0.006,0.0690570421843983));
#1174=CARTESIAN_POINT('',(-0.0387307810442181,-0.006,0.0666637564446882));
#1175=CARTESIAN_POINT('',(-0.0849401731865495,-0.006,0.0453212617958372));
#1176=CARTESIAN_POINT('',(-0.0331213203435596,-0.006,0.0458786796564403));
#1177=CARTESIAN_POINT('',(-0.036,-0.006,0.043));
#1178=CARTESIAN_POINT('',(-0.0379821919061134,-0.006,0.0689756679692225));
#1179=CARTESIAN_POINT('',(-0.0486217264766499,-0.006,0.0905426110523573));
#1180=CARTESIAN_POINT('',(-0.0486217264766499,0.0031,0.0905426110523573));
#1181=CARTESIAN_POINT('',(-0.0506099107064576,0.0031,0.0907596904579766));
#1182=CARTESIAN_POINT('',(-0.050213918193352,0.0031,0.0943865018887177));
#1183=CARTESIAN_POINT('',(-0.0473693662452741,0.0031,0.0921019679232718));
#1184=CARTESIAN_POINT('',(-0.0506099107069084,0.00270872653446312,0.0907596904538475));
#1185=CARTESIAN_POINT('',(-0.0502139181879168,0.0024225686558683,0.0943865018756931));
#1186=CARTESIAN_POINT('',(-0.0473693662420106,0.00270872653446312,0.0921019679206508));
#1187=CARTESIAN_POINT('',(-0.0505681899421868,0.00194353426570912,0.0906810759876368));
#1188=CARTESIAN_POINT('',(-0.0501199949472975,0.00113073847451402,0.0941597511142265));
#1189=CARTESIAN_POINT('',(-0.0473432784555411,0.00194353426570911,0.0920168780628724));
#1190=CARTESIAN_POINT('',(-0.0503922016324617,0.000852852119211247,0.0903493379323564));
#1191=CARTESIAN_POINT('',(-0.0497683529145452,-0.000480920022413463,0.093310812149711));
#1192=CARTESIAN_POINT('',(-0.0472331467542762,0.000852852119211249,0.0916578613071779));
#1193=CARTESIAN_POINT('',(-0.0501302212854314,-0.000117778575317833,0.0898551322579234));
#1194=CARTESIAN_POINT('',(-0.0493327059905513,-0.00165122701966924,0.0922590674373848));
#1195=CARTESIAN_POINT('',(-0.0470689386505104,-0.000117778575317835,0.091123157043566));
#1196=CARTESIAN_POINT('',(-0.0497086505488004,-0.001235815579509,0.0890590141266864));
#1197=CARTESIAN_POINT('',(-0.0487575311494071,-0.00274096807012407,0.0908704725351628));
#1198=CARTESIAN_POINT('',(-0.0468040936479075,-0.00123581557950899,0.09026212098772));
#1199=CARTESIAN_POINT('',(-0.0490798223906968,-0.00236806114694746,0.0878690243440352));
#1200=CARTESIAN_POINT('',(-0.0480521063136604,-0.00363630400616768,0.0891674263294665));
#1201=CARTESIAN_POINT('',(-0.0464072924578488,-0.00236806114694746,0.0889760224880691));
#1202=CARTESIAN_POINT('',(-0.0482717929251843,-0.00337072540027838,0.0863332518881977));
#1203=CARTESIAN_POINT('',(-0.0472545121766061,-0.00434580312474599,0.0872418637465214));
#1204=CARTESIAN_POINT('',(-0.0458927004544287,-0.00337072540027837,0.0873187042557243));
#1205=CARTESIAN_POINT('',(-0.0474228699492728,-0.00413696018365287,0.0847101552019715));
#1206=CARTESIAN_POINT('',(-0.0464797267537879,-0.00485118858349885,0.0853713662708244));
#1207=CARTESIAN_POINT('',(-0.045345276974049,-0.00413696018365287,0.0855707223894002));
#1208=CARTESIAN_POINT('',(-0.0462950732313029,-0.00488877308131052,0.0825372666620663));
#1209=CARTESIAN_POINT('',(-0.0455070236413964,-0.00532183622672827,0.0830230532247265));
#1210=CARTESIAN_POINT('',(-0.0446062854597959,-0.00488877308131052,0.0832367854609943));
#1211=CARTESIAN_POINT('',(-0.0448947453727369,-0.00546893197179708,0.0798013187753332));
#1212=CARTESIAN_POINT('',(-0.0443093115532101,-0.0056823801757999,0.0801315204576093));
#1213=CARTESIAN_POINT('',(-0.0436618594807901,-0.00546893197179708,0.0803119968326362));
#1214=CARTESIAN_POINT('',(-0.0432543785580779,-0.00581895974259469,0.0765106055454989));
#1215=CARTESIAN_POINT('',(-0.0428865983216223,-0.00589434334400944,0.0766967868785404));
#1216=CARTESIAN_POINT('',(-0.042494888339314,-0.00581895974259469,0.0768251966945998));
#1217=CARTESIAN_POINT('',(-0.0416720364861552,-0.00596218651513807,0.073224538866147));
#1218=CARTESIAN_POINT('',(-0.0414849036344921,-0.0059784838967076,0.0733127965545719));
#1219=CARTESIAN_POINT('',(-0.0412901731161218,-0.00596218651513807,0.0733827118529914));
#1220=CARTESIAN_POINT('',(-0.0401586608155101,-0.00599969111774388,0.0699443341152493));
#1221=CARTESIAN_POINT('',(-0.0401002858177635,-0.00599984160747795,0.0699700334426934));
#1222=CARTESIAN_POINT('',(-0.0400408362922949,-0.00599969111774388,0.0699931386307338));
#1223=CARTESIAN_POINT('',(-0.0392035758271715,-0.006,0.0677698418804651));
#1224=CARTESIAN_POINT('',(-0.0391910804932196,-0.00600000000017076,0.06777501761727));
#1225=CARTESIAN_POINT('',(-0.0391785851592621,-0.006,0.0677801933540704));
#1226=CARTESIAN_POINT('',(-0.0387307810442181,-0.006,0.0666637564446882));
#1227=CARTESIAN_POINT('',(-0.0387307810442181,-0.006,0.0666637564446882));
#1228=CARTESIAN_POINT('',(-0.0387307810442181,-0.006,0.0666637564446882));
#1229=CARTESIAN_POINT('',(-0.0354769937714736,-0.006,0.0463514333532726));
#1230=CARTESIAN_POINT('',(-0.038,-0.006,0.0438284271247462));
#1231=CARTESIAN_POINT('',(-0.0343751880804056,-0.006,0.0366178287675248));
#1232=CARTESIAN_POINT('',(-0.036,-0.006,0.0382426406871192));
#1233=CARTESIAN_POINT('',(-0.0348,-0.006,0.0370426406871192));
#1234=CARTESIAN_POINT('',(-0.0348,-0.006,0.0364820643221792));
#1235=CARTESIAN_POINT('',(-0.0348,-0.006,0.0360426406871192));
#1236=CARTESIAN_POINT('',(-0.0348,-0.006,0.0360426406871192));
#1237=CARTESIAN_POINT('',(-0.0368,-0.006,0.0360426406871192));
#1238=CARTESIAN_POINT('',(-0.0368,-0.006,0.0364820643221792));
#1239=CARTESIAN_POINT('',(-0.0368,-0.006,0.036214213562373));
#1240=CARTESIAN_POINT('',(-0.0357894016427788,-0.006,0.0352036152051518));
#1241=CARTESIAN_POINT('',(-0.038,-0.006,0.037414213562373));
#1242=CARTESIAN_POINT('',(-0.038,-0.006,0.0395388368200175));
#1243=CARTESIAN_POINT('',(-0.036,-0.006,0.0395388368200175));
#1244=MECHANICAL_DESIGN_GEOMETRIC_PRESENTATION_REPRESENTATION('',(#661),
#1245);
#1245=(
GEOMETRIC_REPRESENTATION_CONTEXT(3)
GLOBAL_UNCERTAINTY_ASSIGNED_CONTEXT((#1246))
GLOBAL_UNIT_ASSIGNED_CONTEXT((#1249,#1248,#1247))
REPRESENTATION_CONTEXT('ear','TOP_LEVEL_ASSEMBLY_PART')
);
#1246=UNCERTAINTY_MEASURE_WITH_UNIT(LENGTH_MEASURE(2.E-5),#1249,
'DISTANCE_ACCURACY_VALUE','Maximum Tolerance applied to model');
#1247=(
NAMED_UNIT(*)
SI_UNIT($,.STERADIAN.)
SOLID_ANGLE_UNIT()
);
#1248=(
NAMED_UNIT(*)
PLANE_ANGLE_UNIT()
SI_UNIT($,.RADIAN.)
);
#1249=(
LENGTH_UNIT()
NAMED_UNIT(*)
SI_UNIT($,.METRE.)
);
#1250=PRODUCT_DEFINITION_SHAPE('','',#1251);
#1251=PRODUCT_DEFINITION('','',#1253,#1252);
#1252=PRODUCT_DEFINITION_CONTEXT('',#1259,'design');
#1253=PRODUCT_DEFINITION_FORMATION_WITH_SPECIFIED_SOURCE('','',#1255,
 .NOT_KNOWN.);
#1254=PRODUCT_RELATED_PRODUCT_CATEGORY('','',(#1255));
#1255=PRODUCT('ear','ear','ear',(#1257));
#1256=PRODUCT_CATEGORY('','');
#1257=PRODUCT_CONTEXT('',#1259,'mechanical');
#1258=APPLICATION_PROTOCOL_DEFINITION('international standard',
'ap242_managed_model_based_3d_engineering',2020,#1259);
#1259=APPLICATION_CONTEXT('managed model based 3d engineering');
ENDSEC;
END-ISO-10303-21;
