ISO-10303-21;
HEADER;
/* Generated by software containing ST-Developer
 * from STEP Tools, Inc. (www.steptools.com) 
 */
/* OPTION: using custom renumber hook */

FILE_DESCRIPTION(
/* description */ ('STEP AP242 Edition 2',
'CAx-IF Rec.Pracs.---Representation and Presentation of Product Manufa
cturing Information (PMI)---4.0---2014-10-13',
'CAx-IF Rec.Pracs.---3D Tessellated Geometry---0.4---2014-09-14','2;1',
'CAx-IF Rec.Pracs.---User Defined Attributes---1.5---2016-08-15'),
/* implementation_level */ '2;1');

FILE_NAME(
/* name */ 'Toplightsnologo',
/* time_stamp */ '2026-08-28T11:43:07Z',
/* author */ (''),
/* organization */ (''),
/* preprocessor_version */ 'ST-DEVELOPER v20',
/* originating_system */ 'ONSHAPE BY PTC INC, 1.219',
/* authorisation */ '  ');

FILE_SCHEMA (('AP242_MANAGED_MODEL_BASED_3D_ENGINEERING_MIM_LF { 1 0 10303 442 3 1 4 }'));
ENDSEC;

DATA;
#10=TOROIDAL_SURFACE('',#298,0.0408,0.0012);
#11=TOROIDAL_SURFACE('',#299,0.0408,0.0012);
#12=TOROIDAL_SURFACE('',#300,0.01867967484106,0.003);
#13=CYLINDRICAL_SURFACE('',#286,0.042);
#14=CYLINDRICAL_SURFACE('',#301,0.0009);
#15=CYLINDRICAL_SURFACE('',#304,0.0009);
#16=CYLINDRICAL_SURFACE('',#307,0.0009);
#17=CYLINDRICAL_SURFACE('',#310,0.0009);
#18=CYLINDRICAL_SURFACE('',#313,0.001);
#19=SHAPE_REPRESENTATION_RELATIONSHIP('','',#269,#21);
#20=SHAPE_REPRESENTATION_RELATIONSHIP('','',#270,#22);
#21=ADVANCED_BREP_SHAPE_REPRESENTATION('',(#265),#474);
#22=ADVANCED_BREP_SHAPE_REPRESENTATION('',(#266),#475);
#23=PLANE('',#275);
#24=PLANE('',#279);
#25=PLANE('',#284);
#26=PLANE('',#289);
#27=PLANE('',#296);
#28=PLANE('',#303);
#29=PLANE('',#306);
#30=PLANE('',#309);
#31=PLANE('',#312);
#32=PLANE('',#315);
#33=ORIENTED_EDGE('',*,*,#75,.T.);
#34=ORIENTED_EDGE('',*,*,#76,.F.);
#35=ORIENTED_EDGE('',*,*,#77,.T.);
#36=ORIENTED_EDGE('',*,*,#75,.F.);
#37=ORIENTED_EDGE('',*,*,#78,.T.);
#38=ORIENTED_EDGE('',*,*,#77,.F.);
#39=ORIENTED_EDGE('',*,*,#76,.T.);
#40=ORIENTED_EDGE('',*,*,#78,.F.);
#41=ORIENTED_EDGE('',*,*,#79,.T.);
#42=ORIENTED_EDGE('',*,*,#80,.T.);
#43=ORIENTED_EDGE('',*,*,#81,.T.);
#44=ORIENTED_EDGE('',*,*,#80,.F.);
#45=ORIENTED_EDGE('',*,*,#82,.T.);
#46=ORIENTED_EDGE('',*,*,#83,.T.);
#47=ORIENTED_EDGE('',*,*,#84,.F.);
#48=ORIENTED_EDGE('',*,*,#85,.T.);
#49=ORIENTED_EDGE('',*,*,#86,.T.);
#50=ORIENTED_EDGE('',*,*,#87,.T.);
#51=ORIENTED_EDGE('',*,*,#88,.T.);
#52=ORIENTED_EDGE('',*,*,#89,.T.);
#53=ORIENTED_EDGE('',*,*,#90,.T.);
#54=ORIENTED_EDGE('',*,*,#89,.F.);
#55=ORIENTED_EDGE('',*,*,#82,.F.);
#56=ORIENTED_EDGE('',*,*,#83,.F.);
#57=ORIENTED_EDGE('',*,*,#81,.F.);
#58=ORIENTED_EDGE('',*,*,#79,.F.);
#59=ORIENTED_EDGE('',*,*,#90,.F.);
#60=ORIENTED_EDGE('',*,*,#91,.T.);
#61=ORIENTED_EDGE('',*,*,#88,.F.);
#62=ORIENTED_EDGE('',*,*,#91,.F.);
#63=ORIENTED_EDGE('',*,*,#92,.T.);
#64=ORIENTED_EDGE('',*,*,#87,.F.);
#65=ORIENTED_EDGE('',*,*,#92,.F.);
#66=ORIENTED_EDGE('',*,*,#93,.T.);
#67=ORIENTED_EDGE('',*,*,#86,.F.);
#68=ORIENTED_EDGE('',*,*,#93,.F.);
#69=ORIENTED_EDGE('',*,*,#94,.T.);
#70=ORIENTED_EDGE('',*,*,#85,.F.);
#71=ORIENTED_EDGE('',*,*,#94,.F.);
#72=ORIENTED_EDGE('',*,*,#95,.F.);
#73=ORIENTED_EDGE('',*,*,#84,.T.);
#74=ORIENTED_EDGE('',*,*,#95,.T.);
#75=EDGE_CURVE('',#96,#96,#117,.T.);
#76=EDGE_CURVE('',#97,#97,#118,.T.);
#77=EDGE_CURVE('',#98,#98,#119,.T.);
#78=EDGE_CURVE('',#99,#99,#120,.T.);
#79=EDGE_CURVE('',#100,#100,#121,.F.);
#80=EDGE_CURVE('',#101,#101,#122,.T.);
#81=EDGE_CURVE('',#102,#102,#123,.F.);
#82=EDGE_CURVE('',#103,#103,#124,.F.);
#83=EDGE_CURVE('',#104,#104,#125,.T.);
#84=EDGE_CURVE('',#105,#105,#126,.T.);
#85=EDGE_CURVE('',#106,#106,#127,.F.);
#86=EDGE_CURVE('',#107,#107,#128,.F.);
#87=EDGE_CURVE('',#108,#108,#129,.F.);
#88=EDGE_CURVE('',#109,#109,#130,.F.);
#89=EDGE_CURVE('',#110,#110,#131,.T.);
#90=EDGE_CURVE('',#111,#111,#132,.F.);
#91=EDGE_CURVE('',#112,#112,#133,.T.);
#92=EDGE_CURVE('',#113,#113,#134,.T.);
#93=EDGE_CURVE('',#114,#114,#135,.T.);
#94=EDGE_CURVE('',#115,#115,#136,.T.);
#95=EDGE_CURVE('',#116,#116,#137,.T.);
#96=VERTEX_POINT('',#409);
#97=VERTEX_POINT('',#411);
#98=VERTEX_POINT('',#414);
#99=VERTEX_POINT('',#417);
#100=VERTEX_POINT('',#422);
#101=VERTEX_POINT('',#424);
#102=VERTEX_POINT('',#427);
#103=VERTEX_POINT('',#430);
#104=VERTEX_POINT('',#432);
#105=VERTEX_POINT('',#435);
#106=VERTEX_POINT('',#437);
#107=VERTEX_POINT('',#439);
#108=VERTEX_POINT('',#441);
#109=VERTEX_POINT('',#443);
#110=VERTEX_POINT('',#445);
#111=VERTEX_POINT('',#448);
#112=VERTEX_POINT('',#454);
#113=VERTEX_POINT('',#458);
#114=VERTEX_POINT('',#462);
#115=VERTEX_POINT('',#466);
#116=VERTEX_POINT('',#470);
#117=CIRCLE('',#273,0.027);
#118=CIRCLE('',#274,0.0254415584415585);
#119=CIRCLE('',#276,0.025);
#120=CIRCLE('',#278,0.0234415584415585);
#121=CIRCLE('',#282,0.0215833259498221);
#122=CIRCLE('',#283,0.025);
#123=CIRCLE('',#285,0.0408);
#124=CIRCLE('',#287,0.042);
#125=CIRCLE('',#288,0.042);
#126=CIRCLE('',#290,0.001);
#127=CIRCLE('',#291,0.0009);
#128=CIRCLE('',#292,0.0009);
#129=CIRCLE('',#293,0.0009);
#130=CIRCLE('',#294,0.0009);
#131=CIRCLE('',#295,0.0408);
#132=CIRCLE('',#297,0.01867967484106);
#133=CIRCLE('',#302,0.0009);
#134=CIRCLE('',#305,0.0009);
#135=CIRCLE('',#308,0.0009);
#136=CIRCLE('',#311,0.0009);
#137=CIRCLE('',#314,0.001);
#138=EDGE_LOOP('',(#33));
#139=EDGE_LOOP('',(#34));
#140=EDGE_LOOP('',(#35));
#141=EDGE_LOOP('',(#36));
#142=EDGE_LOOP('',(#37));
#143=EDGE_LOOP('',(#38));
#144=EDGE_LOOP('',(#39));
#145=EDGE_LOOP('',(#40));
#146=EDGE_LOOP('',(#41));
#147=EDGE_LOOP('',(#42));
#148=EDGE_LOOP('',(#43));
#149=EDGE_LOOP('',(#44));
#150=EDGE_LOOP('',(#45));
#151=EDGE_LOOP('',(#46));
#152=EDGE_LOOP('',(#47));
#153=EDGE_LOOP('',(#48));
#154=EDGE_LOOP('',(#49));
#155=EDGE_LOOP('',(#50));
#156=EDGE_LOOP('',(#51));
#157=EDGE_LOOP('',(#52));
#158=EDGE_LOOP('',(#53));
#159=EDGE_LOOP('',(#54));
#160=EDGE_LOOP('',(#55));
#161=EDGE_LOOP('',(#56));
#162=EDGE_LOOP('',(#57));
#163=EDGE_LOOP('',(#58));
#164=EDGE_LOOP('',(#59));
#165=EDGE_LOOP('',(#60));
#166=EDGE_LOOP('',(#61));
#167=EDGE_LOOP('',(#62));
#168=EDGE_LOOP('',(#63));
#169=EDGE_LOOP('',(#64));
#170=EDGE_LOOP('',(#65));
#171=EDGE_LOOP('',(#66));
#172=EDGE_LOOP('',(#67));
#173=EDGE_LOOP('',(#68));
#174=EDGE_LOOP('',(#69));
#175=EDGE_LOOP('',(#70));
#176=EDGE_LOOP('',(#71));
#177=EDGE_LOOP('',(#72));
#178=EDGE_LOOP('',(#73));
#179=EDGE_LOOP('',(#74));
#180=FACE_BOUND('',#138,.T.);
#181=FACE_BOUND('',#139,.T.);
#182=FACE_BOUND('',#140,.T.);
#183=FACE_BOUND('',#141,.T.);
#184=FACE_BOUND('',#142,.T.);
#185=FACE_BOUND('',#143,.T.);
#186=FACE_BOUND('',#144,.T.);
#187=FACE_BOUND('',#145,.T.);
#188=FACE_BOUND('',#146,.T.);
#189=FACE_BOUND('',#147,.T.);
#190=FACE_BOUND('',#148,.T.);
#191=FACE_BOUND('',#149,.T.);
#192=FACE_BOUND('',#150,.T.);
#193=FACE_BOUND('',#151,.T.);
#194=FACE_BOUND('',#152,.T.);
#195=FACE_BOUND('',#153,.T.);
#196=FACE_BOUND('',#154,.T.);
#197=FACE_BOUND('',#155,.T.);
#198=FACE_BOUND('',#156,.T.);
#199=FACE_BOUND('',#157,.T.);
#200=FACE_BOUND('',#158,.T.);
#201=FACE_BOUND('',#159,.T.);
#202=FACE_BOUND('',#160,.T.);
#203=FACE_BOUND('',#161,.T.);
#204=FACE_BOUND('',#162,.T.);
#205=FACE_BOUND('',#163,.T.);
#206=FACE_BOUND('',#164,.T.);
#207=FACE_BOUND('',#165,.T.);
#208=FACE_BOUND('',#166,.T.);
#209=FACE_BOUND('',#167,.T.);
#210=FACE_BOUND('',#168,.T.);
#211=FACE_BOUND('',#169,.T.);
#212=FACE_BOUND('',#170,.T.);
#213=FACE_BOUND('',#171,.T.);
#214=FACE_BOUND('',#172,.T.);
#215=FACE_BOUND('',#173,.T.);
#216=FACE_BOUND('',#174,.T.);
#217=FACE_BOUND('',#175,.T.);
#218=FACE_BOUND('',#176,.T.);
#219=FACE_BOUND('',#177,.T.);
#220=FACE_BOUND('',#178,.T.);
#221=FACE_BOUND('',#179,.T.);
#222=CONICAL_SURFACE('',#272,0.0254415584415585,0.254124749555634);
#223=CONICAL_SURFACE('',#277,0.025,0.254124749555634);
#224=CONICAL_SURFACE('',#281,0.025,0.254124749555634);
#225=ADVANCED_FACE('',(#180,#181),#222,.T.);
#226=ADVANCED_FACE('',(#182,#183),#23,.T.);
#227=ADVANCED_FACE('',(#184,#185),#223,.F.);
#228=ADVANCED_FACE('',(#186,#187),#24,.T.);
#229=ADVANCED_FACE('',(#188,#189),#224,.T.);
#230=ADVANCED_FACE('',(#190,#191),#25,.F.);
#231=ADVANCED_FACE('',(#192,#193),#13,.T.);
#232=ADVANCED_FACE('',(#194,#195,#196,#197,#198,#199),#26,.T.);
#233=ADVANCED_FACE('',(#200),#27,.F.);
#234=ADVANCED_FACE('',(#201,#202),#10,.T.);
#235=ADVANCED_FACE('',(#203,#204),#11,.T.);
#236=ADVANCED_FACE('',(#205,#206),#12,.T.);
#237=ADVANCED_FACE('',(#207,#208),#14,.F.);
#238=ADVANCED_FACE('',(#209),#28,.F.);
#239=ADVANCED_FACE('',(#210,#211),#15,.F.);
#240=ADVANCED_FACE('',(#212),#29,.F.);
#241=ADVANCED_FACE('',(#213,#214),#16,.F.);
#242=ADVANCED_FACE('',(#215),#30,.F.);
#243=ADVANCED_FACE('',(#216,#217),#17,.F.);
#244=ADVANCED_FACE('',(#218),#31,.F.);
#245=ADVANCED_FACE('',(#219,#220),#18,.F.);
#246=ADVANCED_FACE('',(#221),#32,.T.);
#247=CLOSED_SHELL('',(#225,#226,#227,#228));
#248=CLOSED_SHELL('',(#229,#230,#231,#232,#233,#234,#235,#236,#237,#238,
#239,#240,#241,#242,#243,#244,#245,#246));
#249=STYLED_ITEM('',(#251),#265);
#250=STYLED_ITEM('',(#252),#266);
#251=PRESENTATION_STYLE_ASSIGNMENT((#253));
#252=PRESENTATION_STYLE_ASSIGNMENT((#254));
#253=SURFACE_STYLE_USAGE(.BOTH.,#255);
#254=SURFACE_STYLE_USAGE(.BOTH.,#256);
#255=SURFACE_SIDE_STYLE('',(#257));
#256=SURFACE_SIDE_STYLE('',(#258));
#257=SURFACE_STYLE_FILL_AREA(#259);
#258=SURFACE_STYLE_FILL_AREA(#260);
#259=FILL_AREA_STYLE('',(#261));
#260=FILL_AREA_STYLE('',(#262));
#261=FILL_AREA_STYLE_COLOUR('',#263);
#262=FILL_AREA_STYLE_COLOUR('',#264);
#263=DRAUGHTING_PRE_DEFINED_COLOUR('red');
#264=DRAUGHTING_PRE_DEFINED_COLOUR('black');
#265=MANIFOLD_SOLID_BREP('rose',#247);
#266=MANIFOLD_SOLID_BREP('spanish',#248);
#267=SHAPE_DEFINITION_REPRESENTATION(#484,#269);
#268=SHAPE_DEFINITION_REPRESENTATION(#485,#270);
#269=SHAPE_REPRESENTATION('rose',(#271),#474);
#270=SHAPE_REPRESENTATION('spanish',(#280),#475);
#271=AXIS2_PLACEMENT_3D('',#406,#316,#317);
#272=AXIS2_PLACEMENT_3D('',#407,#318,#319);
#273=AXIS2_PLACEMENT_3D('',#408,#320,#321);
#274=AXIS2_PLACEMENT_3D('',#410,#322,#323);
#275=AXIS2_PLACEMENT_3D('',#412,#324,#325);
#276=AXIS2_PLACEMENT_3D('',#413,#326,#327);
#277=AXIS2_PLACEMENT_3D('',#415,#328,#329);
#278=AXIS2_PLACEMENT_3D('',#416,#330,#331);
#279=AXIS2_PLACEMENT_3D('',#418,#332,#333);
#280=AXIS2_PLACEMENT_3D('',#419,#334,#335);
#281=AXIS2_PLACEMENT_3D('',#420,#336,#337);
#282=AXIS2_PLACEMENT_3D('',#421,#338,#339);
#283=AXIS2_PLACEMENT_3D('',#423,#340,#341);
#284=AXIS2_PLACEMENT_3D('',#425,#342,#343);
#285=AXIS2_PLACEMENT_3D('',#426,#344,#345);
#286=AXIS2_PLACEMENT_3D('',#428,#346,#347);
#287=AXIS2_PLACEMENT_3D('',#429,#348,#349);
#288=AXIS2_PLACEMENT_3D('',#431,#350,#351);
#289=AXIS2_PLACEMENT_3D('',#433,#352,#353);
#290=AXIS2_PLACEMENT_3D('',#434,#354,#355);
#291=AXIS2_PLACEMENT_3D('',#436,#356,#357);
#292=AXIS2_PLACEMENT_3D('',#438,#358,#359);
#293=AXIS2_PLACEMENT_3D('',#440,#360,#361);
#294=AXIS2_PLACEMENT_3D('',#442,#362,#363);
#295=AXIS2_PLACEMENT_3D('',#444,#364,#365);
#296=AXIS2_PLACEMENT_3D('',#446,#366,#367);
#297=AXIS2_PLACEMENT_3D('',#447,#368,#369);
#298=AXIS2_PLACEMENT_3D('',#449,#370,#371);
#299=AXIS2_PLACEMENT_3D('',#450,#372,#373);
#300=AXIS2_PLACEMENT_3D('',#451,#374,#375);
#301=AXIS2_PLACEMENT_3D('',#452,#376,#377);
#302=AXIS2_PLACEMENT_3D('',#453,#378,#379);
#303=AXIS2_PLACEMENT_3D('',#455,#380,#381);
#304=AXIS2_PLACEMENT_3D('',#456,#382,#383);
#305=AXIS2_PLACEMENT_3D('',#457,#384,#385);
#306=AXIS2_PLACEMENT_3D('',#459,#386,#387);
#307=AXIS2_PLACEMENT_3D('',#460,#388,#389);
#308=AXIS2_PLACEMENT_3D('',#461,#390,#391);
#309=AXIS2_PLACEMENT_3D('',#463,#392,#393);
#310=AXIS2_PLACEMENT_3D('',#464,#394,#395);
#311=AXIS2_PLACEMENT_3D('',#465,#396,#397);
#312=AXIS2_PLACEMENT_3D('',#467,#398,#399);
#313=AXIS2_PLACEMENT_3D('',#468,#400,#401);
#314=AXIS2_PLACEMENT_3D('',#469,#402,#403);
#315=AXIS2_PLACEMENT_3D('',#471,#404,#405);
#316=DIRECTION('',(0.,0.,1.));
#317=DIRECTION('',(1.,0.,0.));
#318=DIRECTION('',(0.,0.,-1.));
#319=DIRECTION('',(-1.,0.,0.));
#320=DIRECTION('',(0.,0.,1.));
#321=DIRECTION('',(1.,0.,0.));
#322=DIRECTION('',(0.,0.,1.));
#323=DIRECTION('',(1.,0.,0.));
#324=DIRECTION('',(0.,0.,-1.));
#325=DIRECTION('',(-1.,0.,0.));
#326=DIRECTION('',(0.,0.,1.));
#327=DIRECTION('',(1.,0.,0.));
#328=DIRECTION('',(0.,0.,-1.));
#329=DIRECTION('',(-1.,0.,0.));
#330=DIRECTION('',(0.,0.,1.));
#331=DIRECTION('',(1.,0.,0.));
#332=DIRECTION('',(0.,0.,1.));
#333=DIRECTION('',(1.,0.,0.));
#334=DIRECTION('',(0.,0.,1.));
#335=DIRECTION('',(1.,0.,0.));
#336=DIRECTION('',(0.,0.,-1.));
#337=DIRECTION('',(-1.,0.,0.));
#338=DIRECTION('',(0.,0.,1.));
#339=DIRECTION('',(1.,0.,0.));
#340=DIRECTION('',(0.,0.,1.));
#341=DIRECTION('',(1.,0.,0.));
#342=DIRECTION('',(0.,0.,-1.));
#343=DIRECTION('',(-1.,0.,0.));
#344=DIRECTION('',(0.,0.,-1.));
#345=DIRECTION('',(-1.,0.,0.));
#346=DIRECTION('',(0.,0.,1.));
#347=DIRECTION('',(1.,0.,0.));
#348=DIRECTION('',(0.,0.,-1.));
#349=DIRECTION('',(-1.,0.,0.));
#350=DIRECTION('',(0.,0.,-1.));
#351=DIRECTION('',(-1.,0.,0.));
#352=DIRECTION('',(0.,0.,-1.));
#353=DIRECTION('',(-1.,0.,0.));
#354=DIRECTION('',(0.,0.,-1.));
#355=DIRECTION('',(-1.,0.,0.));
#356=DIRECTION('',(0.,0.,-1.));
#357=DIRECTION('',(-1.,0.,0.));
#358=DIRECTION('',(0.,0.,-1.));
#359=DIRECTION('',(-1.,0.,0.));
#360=DIRECTION('',(0.,0.,-1.));
#361=DIRECTION('',(-1.,0.,0.));
#362=DIRECTION('',(0.,0.,-1.));
#363=DIRECTION('',(-1.,0.,0.));
#364=DIRECTION('',(0.,0.,-1.));
#365=DIRECTION('',(-1.,0.,0.));
#366=DIRECTION('',(0.,0.,-1.));
#367=DIRECTION('',(-1.,0.,0.));
#368=DIRECTION('',(0.,0.,-1.));
#369=DIRECTION('',(-1.,0.,0.));
#370=DIRECTION('',(0.,0.,-1.));
#371=DIRECTION('',(-1.,0.,0.));
#372=DIRECTION('',(0.,0.,-1.));
#373=DIRECTION('',(-1.,0.,0.));
#374=DIRECTION('',(0.,0.,-1.));
#375=DIRECTION('',(-1.,0.,0.));
#376=DIRECTION('',(0.,0.,-1.));
#377=DIRECTION('',(-1.,0.,0.));
#378=DIRECTION('',(0.,0.,1.));
#379=DIRECTION('',(1.,0.,0.));
#380=DIRECTION('',(0.,0.,1.));
#381=DIRECTION('',(1.,0.,0.));
#382=DIRECTION('',(0.,0.,-1.));
#383=DIRECTION('',(-1.,0.,0.));
#384=DIRECTION('',(0.,0.,1.));
#385=DIRECTION('',(1.,0.,0.));
#386=DIRECTION('',(0.,0.,1.));
#387=DIRECTION('',(1.,0.,0.));
#388=DIRECTION('',(0.,0.,-1.));
#389=DIRECTION('',(-1.,0.,0.));
#390=DIRECTION('',(0.,0.,1.));
#391=DIRECTION('',(1.,0.,0.));
#392=DIRECTION('',(0.,0.,1.));
#393=DIRECTION('',(1.,0.,0.));
#394=DIRECTION('',(0.,0.,-1.));
#395=DIRECTION('',(-1.,0.,0.));
#396=DIRECTION('',(0.,0.,1.));
#397=DIRECTION('',(1.,0.,0.));
#398=DIRECTION('',(0.,0.,1.));
#399=DIRECTION('',(1.,0.,0.));
#400=DIRECTION('',(0.,0.,-1.));
#401=DIRECTION('',(-1.,0.,0.));
#402=DIRECTION('',(0.,0.,-1.));
#403=DIRECTION('',(-1.,0.,0.));
#404=DIRECTION('',(0.,0.,-1.));
#405=DIRECTION('',(1.,0.,0.));
#406=CARTESIAN_POINT('',(0.,0.,0.));
#407=CARTESIAN_POINT('',(0.,0.,0.0566));
#408=CARTESIAN_POINT('',(0.,0.,0.0506));
#409=CARTESIAN_POINT('',(0.027,0.,0.0506));
#410=CARTESIAN_POINT('',(0.,0.,0.0566));
#411=CARTESIAN_POINT('',(0.0254415584415585,0.,0.0566));
#412=CARTESIAN_POINT('',(-0.026,0.,0.0506));
#413=CARTESIAN_POINT('',(0.,0.,0.0506));
#414=CARTESIAN_POINT('',(0.025,0.,0.0506));
#415=CARTESIAN_POINT('',(0.,0.,0.0506));
#416=CARTESIAN_POINT('',(0.,0.,0.0566));
#417=CARTESIAN_POINT('',(0.0234415584415585,0.,0.0566));
#418=CARTESIAN_POINT('',(-0.0244415584415585,0.,0.0566));
#419=CARTESIAN_POINT('',(0.,0.,0.));
#420=CARTESIAN_POINT('',(0.,0.,0.0506));
#421=CARTESIAN_POINT('',(0.,0.,0.063754195093185));
#422=CARTESIAN_POINT('',(0.0215833259498221,0.,0.063754195093185));
#423=CARTESIAN_POINT('',(0.,0.,0.0506));
#424=CARTESIAN_POINT('',(0.025,0.,0.0506));
#425=CARTESIAN_POINT('',(-0.026,0.,0.0506));
#426=CARTESIAN_POINT('',(0.,0.,0.0506));
#427=CARTESIAN_POINT('',(-0.0408,0.,0.0506));
#428=CARTESIAN_POINT('',(0.,0.,0.0583));
#429=CARTESIAN_POINT('',(0.,0.,0.0492));
#430=CARTESIAN_POINT('',(-0.042,0.,0.0492));
#431=CARTESIAN_POINT('',(0.,0.,0.0494));
#432=CARTESIAN_POINT('',(-0.042,0.,0.0494));
#433=CARTESIAN_POINT('',(-0.021,0.,0.048));
#434=CARTESIAN_POINT('',(0.,-6.73555739531045E-19,0.048));
#435=CARTESIAN_POINT('',(-0.001,-6.73555739531045E-19,0.048));
#436=CARTESIAN_POINT('',(-0.025,0.025,0.048));
#437=CARTESIAN_POINT('',(-0.0259,0.025,0.048));
#438=CARTESIAN_POINT('',(0.025,0.025,0.048));
#439=CARTESIAN_POINT('',(0.0241,0.025,0.048));
#440=CARTESIAN_POINT('',(0.025,-0.025,0.048));
#441=CARTESIAN_POINT('',(0.0241,-0.025,0.048));
#442=CARTESIAN_POINT('',(-0.025,-0.025,0.048));
#443=CARTESIAN_POINT('',(-0.0259,-0.025,0.048));
#444=CARTESIAN_POINT('',(0.,0.,0.048));
#445=CARTESIAN_POINT('',(-0.0408,0.,0.048));
#446=CARTESIAN_POINT('',(-0.0105,0.,0.066));
#447=CARTESIAN_POINT('',(0.,0.,0.066));
#448=CARTESIAN_POINT('',(-0.01867967484106,0.,0.066));
#449=CARTESIAN_POINT('',(0.,0.,0.0492));
#450=CARTESIAN_POINT('',(0.,0.,0.0494));
#451=CARTESIAN_POINT('',(0.,0.,0.063));
#452=CARTESIAN_POINT('',(-0.025,-0.025,0.05));
#453=CARTESIAN_POINT('',(-0.025,-0.025,0.05));
#454=CARTESIAN_POINT('',(-0.0241,-0.025,0.05));
#455=CARTESIAN_POINT('',(0.,0.,0.05));
#456=CARTESIAN_POINT('',(0.025,-0.025,0.05));
#457=CARTESIAN_POINT('',(0.025,-0.025,0.05));
#458=CARTESIAN_POINT('',(0.0259,-0.025,0.05));
#459=CARTESIAN_POINT('',(0.,0.,0.05));
#460=CARTESIAN_POINT('',(0.025,0.025,0.05));
#461=CARTESIAN_POINT('',(0.025,0.025,0.05));
#462=CARTESIAN_POINT('',(0.0259,0.025,0.05));
#463=CARTESIAN_POINT('',(0.,0.,0.05));
#464=CARTESIAN_POINT('',(-0.025,0.025,0.05));
#465=CARTESIAN_POINT('',(-0.025,0.025,0.05));
#466=CARTESIAN_POINT('',(-0.0241,0.025,0.05));
#467=CARTESIAN_POINT('',(0.,0.,0.05));
#468=CARTESIAN_POINT('',(0.,-6.73555739531045E-19,0.056));
#469=CARTESIAN_POINT('',(0.,-6.73555739531045E-19,0.056));
#470=CARTESIAN_POINT('',(-0.001,-6.73555739531045E-19,0.056));
#471=CARTESIAN_POINT('',(0.,0.,0.056));
#472=MECHANICAL_DESIGN_GEOMETRIC_PRESENTATION_REPRESENTATION('',(#249),
#474);
#473=MECHANICAL_DESIGN_GEOMETRIC_PRESENTATION_REPRESENTATION('',(#250),
#475);
#474=(
GEOMETRIC_REPRESENTATION_CONTEXT(3)
GLOBAL_UNCERTAINTY_ASSIGNED_CONTEXT((#476))
GLOBAL_UNIT_ASSIGNED_CONTEXT((#482,#480,#478))
REPRESENTATION_CONTEXT('rose','TOP_LEVEL_ASSEMBLY_PART')
);
#475=(
GEOMETRIC_REPRESENTATION_CONTEXT(3)
GLOBAL_UNCERTAINTY_ASSIGNED_CONTEXT((#477))
GLOBAL_UNIT_ASSIGNED_CONTEXT((#483,#481,#479))
REPRESENTATION_CONTEXT('spanish','TOP_LEVEL_ASSEMBLY_PART')
);
#476=UNCERTAINTY_MEASURE_WITH_UNIT(LENGTH_MEASURE(1.E-8),#482,
'DISTANCE_ACCURACY_VALUE','Maximum Tolerance applied to model');
#477=UNCERTAINTY_MEASURE_WITH_UNIT(LENGTH_MEASURE(1.E-8),#483,
'DISTANCE_ACCURACY_VALUE','Maximum Tolerance applied to model');
#478=(
NAMED_UNIT(*)
SI_UNIT($,.STERADIAN.)
SOLID_ANGLE_UNIT()
);
#479=(
NAMED_UNIT(*)
SI_UNIT($,.STERADIAN.)
SOLID_ANGLE_UNIT()
);
#480=(
NAMED_UNIT(*)
PLANE_ANGLE_UNIT()
SI_UNIT($,.RADIAN.)
);
#481=(
NAMED_UNIT(*)
PLANE_ANGLE_UNIT()
SI_UNIT($,.RADIAN.)
);
#482=(
LENGTH_UNIT()
NAMED_UNIT(*)
SI_UNIT($,.METRE.)
);
#483=(
LENGTH_UNIT()
NAMED_UNIT(*)
SI_UNIT($,.METRE.)
);
#484=PRODUCT_DEFINITION_SHAPE('','',#486);
#485=PRODUCT_DEFINITION_SHAPE('','',#487);
#486=PRODUCT_DEFINITION('','',#490,#488);
#487=PRODUCT_DEFINITION('','',#491,#489);
#488=PRODUCT_DEFINITION_CONTEXT('',#502,'design');
#489=PRODUCT_DEFINITION_CONTEXT('',#503,'design');
#490=PRODUCT_DEFINITION_FORMATION_WITH_SPECIFIED_SOURCE('','',#494,
 .NOT_KNOWN.);
#491=PRODUCT_DEFINITION_FORMATION_WITH_SPECIFIED_SOURCE('','',#495,
 .NOT_KNOWN.);
#492=PRODUCT_RELATED_PRODUCT_CATEGORY('','',(#494));
#493=PRODUCT_RELATED_PRODUCT_CATEGORY('','',(#495));
#494=PRODUCT('rose','rose','rose',(#498));
#495=PRODUCT('spanish','spanish','spanish',(#499));
#496=PRODUCT_CATEGORY('','');
#497=PRODUCT_CATEGORY('','');
#498=PRODUCT_CONTEXT('',#502,'mechanical');
#499=PRODUCT_CONTEXT('',#503,'mechanical');
#500=APPLICATION_PROTOCOL_DEFINITION('international standard',
'ap242_managed_model_based_3d_engineering',2020,#502);
#501=APPLICATION_PROTOCOL_DEFINITION('international standard',
'ap242_managed_model_based_3d_engineering',2020,#503);
#502=APPLICATION_CONTEXT('managed model based 3d engineering');
#503=APPLICATION_CONTEXT('managed model based 3d engineering');
ENDSEC;
END-ISO-10303-21;
