ISO-10303-21;
HEADER;
/* Generated by software containing ST-Developer
 * from STEP Tools, Inc. (www.steptools.com) 
 */
/* OPTION: using custom renumber hook */

FILE_DESCRIPTION(
/* description */ ('STEP AP242 Edition 2',
'CAx-IF Rec.Pracs.---Representation and Presentation of Product Manufa
cturing Information (PMI)---4.0---2014-10-13',
'CAx-IF Rec.Pracs.---3D Tessellated Geometry---0.4---2014-09-14','2;1',
'CAx-IF Rec.Pracs.---User Defined Attributes---1.5---2016-08-15'),
/* implementation_level */ '2;1');

FILE_NAME(
/* name */ 'Toplightsnologo',
/* time_stamp */ '2026-08-28T11:17:01Z',
/* author */ (''),
/* organization */ (''),
/* preprocessor_version */ 'ST-DEVELOPER v20',
/* originating_system */ 'ONSHAPE BY PTC INC, 1.219',
/* authorisation */ '  ');

FILE_SCHEMA (('AP242_MANAGED_MODEL_BASED_3D_ENGINEERING_MIM_LF { 1 0 10303 442 3 1 4 }'));
ENDSEC;

DATA;
#10=DRAUGHTING_PRE_DEFINED_COLOUR('black');
#11=TOROIDAL_SURFACE('',#1094,0.021,0.0004);
#12=TOROIDAL_SURFACE('',#1108,0.015,0.006);
#13=TOROIDAL_SURFACE('',#1109,0.028,0.001);
#14=TOROIDAL_SURFACE('',#1110,0.028,0.001);
#15=SHAPE_REPRESENTATION_RELATIONSHIP('','',#1018,#18);
#16=SHAPE_REPRESENTATION_RELATIONSHIP('','',#1019,#19);
#17=SHAPE_REPRESENTATION_RELATIONSHIP('','',#1020,#20);
#18=ADVANCED_BREP_SHAPE_REPRESENTATION('',(#1012),#1717);
#19=ADVANCED_BREP_SHAPE_REPRESENTATION('',(#1013),#1718);
#20=ADVANCED_BREP_SHAPE_REPRESENTATION('',(#1014),#1719);
#21=CYLINDRICAL_SURFACE('',#1068,0.004);
#22=CYLINDRICAL_SURFACE('',#1069,0.004);
#23=CYLINDRICAL_SURFACE('',#1070,0.004);
#24=CYLINDRICAL_SURFACE('',#1071,0.004);
#25=CYLINDRICAL_SURFACE('',#1072,0.0007);
#26=CYLINDRICAL_SURFACE('',#1074,0.0007);
#27=CYLINDRICAL_SURFACE('',#1077,0.0007);
#28=CYLINDRICAL_SURFACE('',#1079,0.0007);
#29=CYLINDRICAL_SURFACE('',#1081,0.0007);
#30=CYLINDRICAL_SURFACE('',#1083,0.0007);
#31=CYLINDRICAL_SURFACE('',#1085,0.0007);
#32=CYLINDRICAL_SURFACE('',#1087,0.0007);
#33=CYLINDRICAL_SURFACE('',#1091,0.021);
#34=CYLINDRICAL_SURFACE('',#1096,0.021);
#35=CYLINDRICAL_SURFACE('',#1103,0.029);
#36=CYLINDRICAL_SURFACE('',#1111,0.001);
#37=CYLINDRICAL_SURFACE('',#1115,0.0232);
#38=CYLINDRICAL_SURFACE('',#1118,0.0212);
#39=ELLIPSE('',#1043,0.00565685424949238,0.004);
#40=ELLIPSE('',#1044,0.00565685424949238,0.004);
#41=ELLIPSE('',#1045,0.000989949493661173,0.0007);
#42=ELLIPSE('',#1046,0.000989949493661173,0.0007);
#43=ELLIPSE('',#1057,0.000989949493661172,0.0007);
#44=ELLIPSE('',#1058,0.000989949493661172,0.0007);
#45=ELLIPSE('',#1059,0.00565685424949238,0.004);
#46=ELLIPSE('',#1060,0.00565685424949238,0.004);
#47=CIRCLE('',#1028,0.0007);
#48=CIRCLE('',#1029,0.0007);
#49=CIRCLE('',#1030,0.0007);
#50=CIRCLE('',#1031,0.0007);
#51=CIRCLE('',#1032,0.004);
#52=CIRCLE('',#1033,0.004);
#53=CIRCLE('',#1034,0.004);
#54=CIRCLE('',#1035,0.004);
#55=CIRCLE('',#1038,0.0007);
#56=CIRCLE('',#1039,0.0007);
#57=CIRCLE('',#1040,0.004);
#58=CIRCLE('',#1041,0.004);
#59=CIRCLE('',#1048,0.0007);
#60=CIRCLE('',#1049,0.0007);
#61=CIRCLE('',#1050,0.0007);
#62=CIRCLE('',#1051,0.0007);
#63=CIRCLE('',#1052,0.004);
#64=CIRCLE('',#1053,0.004);
#65=CIRCLE('',#1054,0.004);
#66=CIRCLE('',#1055,0.004);
#67=CIRCLE('',#1062,0.004);
#68=CIRCLE('',#1063,0.004);
#69=CIRCLE('',#1064,0.0007);
#70=CIRCLE('',#1065,0.0007);
#71=CIRCLE('',#1092,0.021);
#72=CIRCLE('',#1093,0.021);
#73=CIRCLE('',#1095,0.021);
#74=CIRCLE('',#1097,0.021);
#75=CIRCLE('',#1099,0.015);
#76=CIRCLE('',#1101,0.001);
#77=CIRCLE('',#1102,0.028);
#78=CIRCLE('',#1104,0.029);
#79=CIRCLE('',#1105,0.029);
#80=CIRCLE('',#1107,0.028);
#81=CIRCLE('',#1112,0.001);
#82=CIRCLE('',#1116,0.0232);
#83=CIRCLE('',#1117,0.0232);
#84=CIRCLE('',#1119,0.0212);
#85=CIRCLE('',#1120,0.0212);
#86=ORIENTED_EDGE('',*,*,#352,.T.);
#87=ORIENTED_EDGE('',*,*,#353,.T.);
#88=ORIENTED_EDGE('',*,*,#354,.F.);
#89=ORIENTED_EDGE('',*,*,#355,.T.);
#90=ORIENTED_EDGE('',*,*,#356,.F.);
#91=ORIENTED_EDGE('',*,*,#357,.T.);
#92=ORIENTED_EDGE('',*,*,#358,.F.);
#93=ORIENTED_EDGE('',*,*,#359,.T.);
#94=ORIENTED_EDGE('',*,*,#360,.T.);
#95=ORIENTED_EDGE('',*,*,#361,.T.);
#96=ORIENTED_EDGE('',*,*,#362,.T.);
#97=ORIENTED_EDGE('',*,*,#363,.T.);
#98=ORIENTED_EDGE('',*,*,#364,.F.);
#99=ORIENTED_EDGE('',*,*,#365,.T.);
#100=ORIENTED_EDGE('',*,*,#366,.T.);
#101=ORIENTED_EDGE('',*,*,#367,.T.);
#102=ORIENTED_EDGE('',*,*,#368,.F.);
#103=ORIENTED_EDGE('',*,*,#369,.T.);
#104=ORIENTED_EDGE('',*,*,#370,.F.);
#105=ORIENTED_EDGE('',*,*,#371,.F.);
#106=ORIENTED_EDGE('',*,*,#372,.F.);
#107=ORIENTED_EDGE('',*,*,#373,.F.);
#108=ORIENTED_EDGE('',*,*,#374,.F.);
#109=ORIENTED_EDGE('',*,*,#375,.F.);
#110=ORIENTED_EDGE('',*,*,#376,.F.);
#111=ORIENTED_EDGE('',*,*,#377,.F.);
#112=ORIENTED_EDGE('',*,*,#364,.T.);
#113=ORIENTED_EDGE('',*,*,#378,.T.);
#114=ORIENTED_EDGE('',*,*,#379,.F.);
#115=ORIENTED_EDGE('',*,*,#380,.T.);
#116=ORIENTED_EDGE('',*,*,#352,.F.);
#117=ORIENTED_EDGE('',*,*,#381,.T.);
#118=ORIENTED_EDGE('',*,*,#368,.T.);
#119=ORIENTED_EDGE('',*,*,#382,.T.);
#120=ORIENTED_EDGE('',*,*,#379,.T.);
#121=ORIENTED_EDGE('',*,*,#383,.T.);
#122=ORIENTED_EDGE('',*,*,#384,.F.);
#123=ORIENTED_EDGE('',*,*,#385,.T.);
#124=ORIENTED_EDGE('',*,*,#386,.F.);
#125=ORIENTED_EDGE('',*,*,#387,.F.);
#126=ORIENTED_EDGE('',*,*,#388,.F.);
#127=ORIENTED_EDGE('',*,*,#389,.F.);
#128=ORIENTED_EDGE('',*,*,#390,.F.);
#129=ORIENTED_EDGE('',*,*,#391,.F.);
#130=ORIENTED_EDGE('',*,*,#392,.T.);
#131=ORIENTED_EDGE('',*,*,#393,.T.);
#132=ORIENTED_EDGE('',*,*,#384,.T.);
#133=ORIENTED_EDGE('',*,*,#394,.T.);
#134=ORIENTED_EDGE('',*,*,#359,.F.);
#135=ORIENTED_EDGE('',*,*,#395,.F.);
#136=ORIENTED_EDGE('',*,*,#396,.F.);
#137=ORIENTED_EDGE('',*,*,#395,.T.);
#138=ORIENTED_EDGE('',*,*,#361,.F.);
#139=ORIENTED_EDGE('',*,*,#397,.T.);
#140=ORIENTED_EDGE('',*,*,#398,.F.);
#141=ORIENTED_EDGE('',*,*,#399,.T.);
#142=ORIENTED_EDGE('',*,*,#400,.T.);
#143=ORIENTED_EDGE('',*,*,#391,.T.);
#144=ORIENTED_EDGE('',*,*,#401,.F.);
#145=ORIENTED_EDGE('',*,*,#402,.F.);
#146=ORIENTED_EDGE('',*,*,#403,.F.);
#147=ORIENTED_EDGE('',*,*,#404,.F.);
#148=ORIENTED_EDGE('',*,*,#405,.F.);
#149=ORIENTED_EDGE('',*,*,#406,.F.);
#150=ORIENTED_EDGE('',*,*,#407,.F.);
#151=ORIENTED_EDGE('',*,*,#408,.F.);
#152=ORIENTED_EDGE('',*,*,#409,.F.);
#153=ORIENTED_EDGE('',*,*,#410,.F.);
#154=ORIENTED_EDGE('',*,*,#411,.F.);
#155=ORIENTED_EDGE('',*,*,#412,.F.);
#156=ORIENTED_EDGE('',*,*,#398,.T.);
#157=ORIENTED_EDGE('',*,*,#413,.T.);
#158=ORIENTED_EDGE('',*,*,#362,.F.);
#159=ORIENTED_EDGE('',*,*,#414,.T.);
#160=ORIENTED_EDGE('',*,*,#415,.F.);
#161=ORIENTED_EDGE('',*,*,#416,.T.);
#162=ORIENTED_EDGE('',*,*,#354,.T.);
#163=ORIENTED_EDGE('',*,*,#417,.T.);
#164=ORIENTED_EDGE('',*,*,#418,.F.);
#165=ORIENTED_EDGE('',*,*,#419,.F.);
#166=ORIENTED_EDGE('',*,*,#420,.F.);
#167=ORIENTED_EDGE('',*,*,#421,.F.);
#168=ORIENTED_EDGE('',*,*,#422,.F.);
#169=ORIENTED_EDGE('',*,*,#423,.F.);
#170=ORIENTED_EDGE('',*,*,#358,.T.);
#171=ORIENTED_EDGE('',*,*,#424,.T.);
#172=ORIENTED_EDGE('',*,*,#415,.T.);
#173=ORIENTED_EDGE('',*,*,#425,.T.);
#174=ORIENTED_EDGE('',*,*,#426,.F.);
#175=ORIENTED_EDGE('',*,*,#427,.F.);
#176=ORIENTED_EDGE('',*,*,#428,.F.);
#177=ORIENTED_EDGE('',*,*,#427,.T.);
#178=ORIENTED_EDGE('',*,*,#429,.F.);
#179=ORIENTED_EDGE('',*,*,#430,.T.);
#180=ORIENTED_EDGE('',*,*,#366,.F.);
#181=ORIENTED_EDGE('',*,*,#431,.T.);
#182=ORIENTED_EDGE('',*,*,#356,.T.);
#183=ORIENTED_EDGE('',*,*,#423,.T.);
#184=ORIENTED_EDGE('',*,*,#432,.F.);
#185=ORIENTED_EDGE('',*,*,#433,.F.);
#186=ORIENTED_EDGE('',*,*,#434,.F.);
#187=ORIENTED_EDGE('',*,*,#435,.F.);
#188=ORIENTED_EDGE('',*,*,#400,.F.);
#189=ORIENTED_EDGE('',*,*,#436,.T.);
#190=ORIENTED_EDGE('',*,*,#392,.F.);
#191=ORIENTED_EDGE('',*,*,#426,.T.);
#192=ORIENTED_EDGE('',*,*,#437,.T.);
#193=ORIENTED_EDGE('',*,*,#429,.T.);
#194=ORIENTED_EDGE('',*,*,#394,.F.);
#195=ORIENTED_EDGE('',*,*,#383,.F.);
#196=ORIENTED_EDGE('',*,*,#378,.F.);
#197=ORIENTED_EDGE('',*,*,#363,.F.);
#198=ORIENTED_EDGE('',*,*,#413,.F.);
#199=ORIENTED_EDGE('',*,*,#397,.F.);
#200=ORIENTED_EDGE('',*,*,#360,.F.);
#201=ORIENTED_EDGE('',*,*,#417,.F.);
#202=ORIENTED_EDGE('',*,*,#353,.F.);
#203=ORIENTED_EDGE('',*,*,#380,.F.);
#204=ORIENTED_EDGE('',*,*,#385,.F.);
#205=ORIENTED_EDGE('',*,*,#393,.F.);
#206=ORIENTED_EDGE('',*,*,#436,.F.);
#207=ORIENTED_EDGE('',*,*,#399,.F.);
#208=ORIENTED_EDGE('',*,*,#414,.F.);
#209=ORIENTED_EDGE('',*,*,#365,.F.);
#210=ORIENTED_EDGE('',*,*,#382,.F.);
#211=ORIENTED_EDGE('',*,*,#367,.F.);
#212=ORIENTED_EDGE('',*,*,#430,.F.);
#213=ORIENTED_EDGE('',*,*,#437,.F.);
#214=ORIENTED_EDGE('',*,*,#425,.F.);
#215=ORIENTED_EDGE('',*,*,#431,.F.);
#216=ORIENTED_EDGE('',*,*,#369,.F.);
#217=ORIENTED_EDGE('',*,*,#381,.F.);
#218=ORIENTED_EDGE('',*,*,#355,.F.);
#219=ORIENTED_EDGE('',*,*,#416,.F.);
#220=ORIENTED_EDGE('',*,*,#424,.F.);
#221=ORIENTED_EDGE('',*,*,#357,.F.);
#222=ORIENTED_EDGE('',*,*,#419,.T.);
#223=ORIENTED_EDGE('',*,*,#438,.F.);
#224=ORIENTED_EDGE('',*,*,#435,.T.);
#225=ORIENTED_EDGE('',*,*,#439,.T.);
#226=ORIENTED_EDGE('',*,*,#420,.T.);
#227=ORIENTED_EDGE('',*,*,#439,.F.);
#228=ORIENTED_EDGE('',*,*,#434,.T.);
#229=ORIENTED_EDGE('',*,*,#440,.T.);
#230=ORIENTED_EDGE('',*,*,#421,.T.);
#231=ORIENTED_EDGE('',*,*,#440,.F.);
#232=ORIENTED_EDGE('',*,*,#433,.T.);
#233=ORIENTED_EDGE('',*,*,#441,.T.);
#234=ORIENTED_EDGE('',*,*,#422,.T.);
#235=ORIENTED_EDGE('',*,*,#441,.F.);
#236=ORIENTED_EDGE('',*,*,#432,.T.);
#237=ORIENTED_EDGE('',*,*,#418,.T.);
#238=ORIENTED_EDGE('',*,*,#428,.T.);
#239=ORIENTED_EDGE('',*,*,#438,.T.);
#240=ORIENTED_EDGE('',*,*,#412,.T.);
#241=ORIENTED_EDGE('',*,*,#442,.T.);
#242=ORIENTED_EDGE('',*,*,#372,.T.);
#243=ORIENTED_EDGE('',*,*,#443,.F.);
#244=ORIENTED_EDGE('',*,*,#411,.T.);
#245=ORIENTED_EDGE('',*,*,#444,.T.);
#246=ORIENTED_EDGE('',*,*,#373,.T.);
#247=ORIENTED_EDGE('',*,*,#442,.F.);
#248=ORIENTED_EDGE('',*,*,#410,.T.);
#249=ORIENTED_EDGE('',*,*,#445,.T.);
#250=ORIENTED_EDGE('',*,*,#374,.T.);
#251=ORIENTED_EDGE('',*,*,#444,.F.);
#252=ORIENTED_EDGE('',*,*,#409,.T.);
#253=ORIENTED_EDGE('',*,*,#446,.T.);
#254=ORIENTED_EDGE('',*,*,#375,.T.);
#255=ORIENTED_EDGE('',*,*,#445,.F.);
#256=ORIENTED_EDGE('',*,*,#408,.T.);
#257=ORIENTED_EDGE('',*,*,#447,.T.);
#258=ORIENTED_EDGE('',*,*,#376,.T.);
#259=ORIENTED_EDGE('',*,*,#446,.F.);
#260=ORIENTED_EDGE('',*,*,#407,.T.);
#261=ORIENTED_EDGE('',*,*,#448,.T.);
#262=ORIENTED_EDGE('',*,*,#377,.T.);
#263=ORIENTED_EDGE('',*,*,#447,.F.);
#264=ORIENTED_EDGE('',*,*,#406,.T.);
#265=ORIENTED_EDGE('',*,*,#449,.T.);
#266=ORIENTED_EDGE('',*,*,#370,.T.);
#267=ORIENTED_EDGE('',*,*,#448,.F.);
#268=ORIENTED_EDGE('',*,*,#405,.T.);
#269=ORIENTED_EDGE('',*,*,#443,.T.);
#270=ORIENTED_EDGE('',*,*,#371,.T.);
#271=ORIENTED_EDGE('',*,*,#449,.F.);
#272=ORIENTED_EDGE('',*,*,#387,.T.);
#273=ORIENTED_EDGE('',*,*,#450,.T.);
#274=ORIENTED_EDGE('',*,*,#404,.T.);
#275=ORIENTED_EDGE('',*,*,#451,.F.);
#276=ORIENTED_EDGE('',*,*,#388,.T.);
#277=ORIENTED_EDGE('',*,*,#451,.T.);
#278=ORIENTED_EDGE('',*,*,#403,.T.);
#279=ORIENTED_EDGE('',*,*,#452,.F.);
#280=ORIENTED_EDGE('',*,*,#389,.T.);
#281=ORIENTED_EDGE('',*,*,#452,.T.);
#282=ORIENTED_EDGE('',*,*,#402,.T.);
#283=ORIENTED_EDGE('',*,*,#453,.F.);
#284=ORIENTED_EDGE('',*,*,#386,.T.);
#285=ORIENTED_EDGE('',*,*,#396,.T.);
#286=ORIENTED_EDGE('',*,*,#450,.F.);
#287=ORIENTED_EDGE('',*,*,#390,.T.);
#288=ORIENTED_EDGE('',*,*,#453,.T.);
#289=ORIENTED_EDGE('',*,*,#401,.T.);
#290=ORIENTED_EDGE('',*,*,#454,.F.);
#291=ORIENTED_EDGE('',*,*,#455,.T.);
#292=ORIENTED_EDGE('',*,*,#456,.T.);
#293=ORIENTED_EDGE('',*,*,#455,.F.);
#294=ORIENTED_EDGE('',*,*,#457,.T.);
#295=ORIENTED_EDGE('',*,*,#456,.F.);
#296=ORIENTED_EDGE('',*,*,#458,.T.);
#297=ORIENTED_EDGE('',*,*,#459,.F.);
#298=ORIENTED_EDGE('',*,*,#460,.T.);
#299=ORIENTED_EDGE('',*,*,#461,.T.);
#300=ORIENTED_EDGE('',*,*,#462,.T.);
#301=ORIENTED_EDGE('',*,*,#463,.T.);
#302=ORIENTED_EDGE('',*,*,#454,.T.);
#303=ORIENTED_EDGE('',*,*,#458,.F.);
#304=ORIENTED_EDGE('',*,*,#457,.F.);
#305=ORIENTED_EDGE('',*,*,#461,.F.);
#306=ORIENTED_EDGE('',*,*,#460,.F.);
#307=ORIENTED_EDGE('',*,*,#463,.F.);
#308=ORIENTED_EDGE('',*,*,#462,.F.);
#309=ORIENTED_EDGE('',*,*,#464,.F.);
#310=ORIENTED_EDGE('',*,*,#459,.T.);
#311=ORIENTED_EDGE('',*,*,#464,.T.);
#312=ORIENTED_EDGE('',*,*,#465,.F.);
#313=ORIENTED_EDGE('',*,*,#466,.F.);
#314=ORIENTED_EDGE('',*,*,#467,.T.);
#315=ORIENTED_EDGE('',*,*,#468,.T.);
#316=ORIENTED_EDGE('',*,*,#469,.T.);
#317=ORIENTED_EDGE('',*,*,#470,.F.);
#318=ORIENTED_EDGE('',*,*,#471,.F.);
#319=ORIENTED_EDGE('',*,*,#472,.T.);
#320=ORIENTED_EDGE('',*,*,#466,.T.);
#321=ORIENTED_EDGE('',*,*,#473,.F.);
#322=ORIENTED_EDGE('',*,*,#469,.F.);
#323=ORIENTED_EDGE('',*,*,#468,.F.);
#324=ORIENTED_EDGE('',*,*,#474,.F.);
#325=ORIENTED_EDGE('',*,*,#475,.F.);
#326=ORIENTED_EDGE('',*,*,#476,.F.);
#327=ORIENTED_EDGE('',*,*,#470,.T.);
#328=ORIENTED_EDGE('',*,*,#477,.T.);
#329=ORIENTED_EDGE('',*,*,#471,.T.);
#330=ORIENTED_EDGE('',*,*,#478,.F.);
#331=ORIENTED_EDGE('',*,*,#479,.T.);
#332=ORIENTED_EDGE('',*,*,#480,.F.);
#333=ORIENTED_EDGE('',*,*,#478,.T.);
#334=ORIENTED_EDGE('',*,*,#473,.T.);
#335=ORIENTED_EDGE('',*,*,#465,.T.);
#336=ORIENTED_EDGE('',*,*,#476,.T.);
#337=ORIENTED_EDGE('',*,*,#481,.F.);
#338=ORIENTED_EDGE('',*,*,#482,.F.);
#339=ORIENTED_EDGE('',*,*,#481,.T.);
#340=ORIENTED_EDGE('',*,*,#475,.T.);
#341=ORIENTED_EDGE('',*,*,#483,.F.);
#342=ORIENTED_EDGE('',*,*,#484,.F.);
#343=ORIENTED_EDGE('',*,*,#483,.T.);
#344=ORIENTED_EDGE('',*,*,#474,.T.);
#345=ORIENTED_EDGE('',*,*,#467,.F.);
#346=ORIENTED_EDGE('',*,*,#472,.F.);
#347=ORIENTED_EDGE('',*,*,#477,.F.);
#348=ORIENTED_EDGE('',*,*,#479,.F.);
#349=ORIENTED_EDGE('',*,*,#480,.T.);
#350=ORIENTED_EDGE('',*,*,#482,.T.);
#351=ORIENTED_EDGE('',*,*,#484,.T.);
#352=EDGE_CURVE('',#485,#486,#578,.T.);
#353=EDGE_CURVE('',#486,#487,#579,.F.);
#354=EDGE_CURVE('',#488,#487,#580,.T.);
#355=EDGE_CURVE('',#488,#485,#581,.T.);
#356=EDGE_CURVE('',#489,#490,#582,.T.);
#357=EDGE_CURVE('',#489,#491,#583,.T.);
#358=EDGE_CURVE('',#490,#491,#584,.T.);
#359=EDGE_CURVE('',#492,#493,#585,.T.);
#360=EDGE_CURVE('',#493,#494,#586,.T.);
#361=EDGE_CURVE('',#494,#492,#587,.T.);
#362=EDGE_CURVE('',#495,#496,#588,.T.);
#363=EDGE_CURVE('',#496,#497,#589,.T.);
#364=EDGE_CURVE('',#498,#497,#590,.T.);
#365=EDGE_CURVE('',#498,#495,#591,.F.);
#366=EDGE_CURVE('',#499,#500,#592,.T.);
#367=EDGE_CURVE('',#500,#501,#593,.T.);
#368=EDGE_CURVE('',#502,#501,#594,.T.);
#369=EDGE_CURVE('',#502,#499,#595,.F.);
#370=EDGE_CURVE('',#503,#504,#47,.T.);
#371=EDGE_CURVE('',#505,#503,#596,.T.);
#372=EDGE_CURVE('',#506,#505,#48,.T.);
#373=EDGE_CURVE('',#507,#506,#597,.T.);
#374=EDGE_CURVE('',#508,#507,#49,.T.);
#375=EDGE_CURVE('',#509,#508,#598,.T.);
#376=EDGE_CURVE('',#510,#509,#50,.T.);
#377=EDGE_CURVE('',#504,#510,#599,.T.);
#378=EDGE_CURVE('',#497,#511,#51,.F.);
#379=EDGE_CURVE('',#512,#511,#600,.T.);
#380=EDGE_CURVE('',#512,#486,#52,.F.);
#381=EDGE_CURVE('',#485,#502,#53,.F.);
#382=EDGE_CURVE('',#501,#498,#54,.F.);
#383=EDGE_CURVE('',#511,#513,#601,.F.);
#384=EDGE_CURVE('',#514,#513,#602,.T.);
#385=EDGE_CURVE('',#514,#512,#603,.T.);
#386=EDGE_CURVE('',#515,#516,#604,.T.);
#387=EDGE_CURVE('',#517,#515,#55,.T.);
#388=EDGE_CURVE('',#518,#517,#605,.T.);
#389=EDGE_CURVE('',#519,#518,#56,.T.);
#390=EDGE_CURVE('',#520,#519,#606,.T.);
#391=EDGE_CURVE('',#521,#520,#607,.T.);
#392=EDGE_CURVE('',#521,#522,#608,.T.);
#393=EDGE_CURVE('',#522,#514,#57,.T.);
#394=EDGE_CURVE('',#513,#493,#58,.T.);
#395=EDGE_CURVE('',#516,#492,#609,.T.);
#396=EDGE_CURVE('',#516,#523,#610,.T.);
#397=EDGE_CURVE('',#494,#524,#39,.T.);
#398=EDGE_CURVE('',#525,#524,#611,.T.);
#399=EDGE_CURVE('',#525,#526,#40,.T.);
#400=EDGE_CURVE('',#526,#521,#612,.T.);
#401=EDGE_CURVE('',#527,#520,#613,.T.);
#402=EDGE_CURVE('',#528,#527,#41,.T.);
#403=EDGE_CURVE('',#529,#528,#614,.T.);
#404=EDGE_CURVE('',#523,#529,#42,.T.);
#405=EDGE_CURVE('',#530,#531,#615,.T.);
#406=EDGE_CURVE('',#532,#530,#59,.T.);
#407=EDGE_CURVE('',#533,#532,#616,.T.);
#408=EDGE_CURVE('',#534,#533,#60,.T.);
#409=EDGE_CURVE('',#535,#534,#617,.T.);
#410=EDGE_CURVE('',#536,#535,#61,.T.);
#411=EDGE_CURVE('',#537,#536,#618,.T.);
#412=EDGE_CURVE('',#531,#537,#62,.T.);
#413=EDGE_CURVE('',#524,#496,#63,.T.);
#414=EDGE_CURVE('',#495,#538,#64,.T.);
#415=EDGE_CURVE('',#539,#538,#619,.T.);
#416=EDGE_CURVE('',#539,#488,#65,.T.);
#417=EDGE_CURVE('',#487,#525,#66,.T.);
#418=EDGE_CURVE('',#540,#541,#620,.T.);
#419=EDGE_CURVE('',#542,#540,#43,.T.);
#420=EDGE_CURVE('',#543,#542,#621,.T.);
#421=EDGE_CURVE('',#544,#543,#44,.T.);
#422=EDGE_CURVE('',#545,#544,#622,.T.);
#423=EDGE_CURVE('',#490,#545,#623,.T.);
#424=EDGE_CURVE('',#491,#539,#45,.T.);
#425=EDGE_CURVE('',#538,#546,#46,.T.);
#426=EDGE_CURVE('',#547,#546,#624,.T.);
#427=EDGE_CURVE('',#541,#547,#625,.T.);
#428=EDGE_CURVE('',#541,#548,#626,.T.);
#429=EDGE_CURVE('',#549,#547,#627,.T.);
#430=EDGE_CURVE('',#549,#500,#67,.T.);
#431=EDGE_CURVE('',#499,#489,#68,.T.);
#432=EDGE_CURVE('',#550,#545,#628,.T.);
#433=EDGE_CURVE('',#551,#550,#69,.T.);
#434=EDGE_CURVE('',#552,#551,#629,.T.);
#435=EDGE_CURVE('',#548,#552,#70,.T.);
#436=EDGE_CURVE('',#526,#522,#630,.F.);
#437=EDGE_CURVE('',#546,#549,#631,.F.);
#438=EDGE_CURVE('',#548,#540,#632,.T.);
#439=EDGE_CURVE('',#552,#542,#633,.T.);
#440=EDGE_CURVE('',#551,#543,#634,.T.);
#441=EDGE_CURVE('',#550,#544,#635,.T.);
#442=EDGE_CURVE('',#537,#506,#636,.T.);
#443=EDGE_CURVE('',#531,#505,#637,.T.);
#444=EDGE_CURVE('',#536,#507,#638,.T.);
#445=EDGE_CURVE('',#535,#508,#639,.T.);
#446=EDGE_CURVE('',#534,#509,#640,.T.);
#447=EDGE_CURVE('',#533,#510,#641,.T.);
#448=EDGE_CURVE('',#532,#504,#642,.T.);
#449=EDGE_CURVE('',#530,#503,#643,.T.);
#450=EDGE_CURVE('',#515,#523,#644,.T.);
#451=EDGE_CURVE('',#517,#529,#645,.T.);
#452=EDGE_CURVE('',#518,#528,#646,.T.);
#453=EDGE_CURVE('',#519,#527,#647,.T.);
#454=EDGE_CURVE('',#553,#553,#71,.T.);
#455=EDGE_CURVE('',#554,#554,#72,.T.);
#456=EDGE_CURVE('',#555,#555,#73,.T.);
#457=EDGE_CURVE('',#556,#556,#74,.T.);
#458=EDGE_CURVE('',#557,#557,#75,.F.);
#459=EDGE_CURVE('',#558,#558,#76,.T.);
#460=EDGE_CURVE('',#559,#559,#77,.F.);
#461=EDGE_CURVE('',#560,#560,#78,.T.);
#462=EDGE_CURVE('',#561,#561,#79,.T.);
#463=EDGE_CURVE('',#562,#562,#80,.F.);
#464=EDGE_CURVE('',#563,#563,#81,.T.);
#465=EDGE_CURVE('',#564,#565,#648,.T.);
#466=EDGE_CURVE('',#566,#564,#82,.T.);
#467=EDGE_CURVE('',#566,#567,#649,.T.);
#468=EDGE_CURVE('',#567,#565,#83,.T.);
#469=EDGE_CURVE('',#568,#568,#84,.T.);
#470=EDGE_CURVE('',#569,#569,#85,.T.);
#471=EDGE_CURVE('',#570,#571,#650,.T.);
#472=EDGE_CURVE('',#570,#566,#651,.T.);
#473=EDGE_CURVE('',#571,#564,#652,.T.);
#474=EDGE_CURVE('',#572,#567,#653,.T.);
#475=EDGE_CURVE('',#573,#572,#654,.T.);
#476=EDGE_CURVE('',#565,#573,#655,.T.);
#477=EDGE_CURVE('',#574,#570,#656,.T.);
#478=EDGE_CURVE('',#575,#571,#657,.T.);
#479=EDGE_CURVE('',#575,#574,#658,.T.);
#480=EDGE_CURVE('',#575,#576,#659,.T.);
#481=EDGE_CURVE('',#576,#573,#660,.T.);
#482=EDGE_CURVE('',#576,#577,#661,.T.);
#483=EDGE_CURVE('',#577,#572,#662,.T.);
#484=EDGE_CURVE('',#577,#574,#663,.T.);
#485=VERTEX_POINT('',#1431);
#486=VERTEX_POINT('',#1432);
#487=VERTEX_POINT('',#1434);
#488=VERTEX_POINT('',#1436);
#489=VERTEX_POINT('',#1440);
#490=VERTEX_POINT('',#1441);
#491=VERTEX_POINT('',#1443);
#492=VERTEX_POINT('',#1447);
#493=VERTEX_POINT('',#1448);
#494=VERTEX_POINT('',#1450);
#495=VERTEX_POINT('',#1454);
#496=VERTEX_POINT('',#1455);
#497=VERTEX_POINT('',#1457);
#498=VERTEX_POINT('',#1459);
#499=VERTEX_POINT('',#1463);
#500=VERTEX_POINT('',#1464);
#501=VERTEX_POINT('',#1466);
#502=VERTEX_POINT('',#1468);
#503=VERTEX_POINT('',#1472);
#504=VERTEX_POINT('',#1473);
#505=VERTEX_POINT('',#1475);
#506=VERTEX_POINT('',#1477);
#507=VERTEX_POINT('',#1479);
#508=VERTEX_POINT('',#1481);
#509=VERTEX_POINT('',#1483);
#510=VERTEX_POINT('',#1485);
#511=VERTEX_POINT('',#1488);
#512=VERTEX_POINT('',#1490);
#513=VERTEX_POINT('',#1496);
#514=VERTEX_POINT('',#1498);
#515=VERTEX_POINT('',#1502);
#516=VERTEX_POINT('',#1503);
#517=VERTEX_POINT('',#1505);
#518=VERTEX_POINT('',#1507);
#519=VERTEX_POINT('',#1509);
#520=VERTEX_POINT('',#1511);
#521=VERTEX_POINT('',#1513);
#522=VERTEX_POINT('',#1515);
#523=VERTEX_POINT('',#1521);
#524=VERTEX_POINT('',#1523);
#525=VERTEX_POINT('',#1525);
#526=VERTEX_POINT('',#1527);
#527=VERTEX_POINT('',#1530);
#528=VERTEX_POINT('',#1532);
#529=VERTEX_POINT('',#1534);
#530=VERTEX_POINT('',#1538);
#531=VERTEX_POINT('',#1539);
#532=VERTEX_POINT('',#1541);
#533=VERTEX_POINT('',#1543);
#534=VERTEX_POINT('',#1545);
#535=VERTEX_POINT('',#1547);
#536=VERTEX_POINT('',#1549);
#537=VERTEX_POINT('',#1551);
#538=VERTEX_POINT('',#1555);
#539=VERTEX_POINT('',#1557);
#540=VERTEX_POINT('',#1562);
#541=VERTEX_POINT('',#1563);
#542=VERTEX_POINT('',#1565);
#543=VERTEX_POINT('',#1567);
#544=VERTEX_POINT('',#1569);
#545=VERTEX_POINT('',#1571);
#546=VERTEX_POINT('',#1575);
#547=VERTEX_POINT('',#1577);
#548=VERTEX_POINT('',#1581);
#549=VERTEX_POINT('',#1583);
#550=VERTEX_POINT('',#1587);
#551=VERTEX_POINT('',#1589);
#552=VERTEX_POINT('',#1591);
#553=VERTEX_POINT('',#1638);
#554=VERTEX_POINT('',#1640);
#555=VERTEX_POINT('',#1643);
#556=VERTEX_POINT('',#1646);
#557=VERTEX_POINT('',#1649);
#558=VERTEX_POINT('',#1652);
#559=VERTEX_POINT('',#1654);
#560=VERTEX_POINT('',#1657);
#561=VERTEX_POINT('',#1659);
#562=VERTEX_POINT('',#1662);
#563=VERTEX_POINT('',#1668);
#564=VERTEX_POINT('',#1673);
#565=VERTEX_POINT('',#1674);
#566=VERTEX_POINT('',#1676);
#567=VERTEX_POINT('',#1678);
#568=VERTEX_POINT('',#1682);
#569=VERTEX_POINT('',#1684);
#570=VERTEX_POINT('',#1687);
#571=VERTEX_POINT('',#1688);
#572=VERTEX_POINT('',#1693);
#573=VERTEX_POINT('',#1695);
#574=VERTEX_POINT('',#1699);
#575=VERTEX_POINT('',#1701);
#576=VERTEX_POINT('',#1705);
#577=VERTEX_POINT('',#1709);
#578=LINE('',#1430,#664);
#579=LINE('',#1433,#665);
#580=LINE('',#1435,#666);
#581=LINE('',#1437,#667);
#582=LINE('',#1439,#668);
#583=LINE('',#1442,#669);
#584=LINE('',#1444,#670);
#585=LINE('',#1446,#671);
#586=LINE('',#1449,#672);
#587=LINE('',#1451,#673);
#588=LINE('',#1453,#674);
#589=LINE('',#1456,#675);
#590=LINE('',#1458,#676);
#591=LINE('',#1460,#677);
#592=LINE('',#1462,#678);
#593=LINE('',#1465,#679);
#594=LINE('',#1467,#680);
#595=LINE('',#1469,#681);
#596=LINE('',#1474,#682);
#597=LINE('',#1478,#683);
#598=LINE('',#1482,#684);
#599=LINE('',#1486,#685);
#600=LINE('',#1489,#686);
#601=LINE('',#1495,#687);
#602=LINE('',#1497,#688);
#603=LINE('',#1499,#689);
#604=LINE('',#1501,#690);
#605=LINE('',#1506,#691);
#606=LINE('',#1510,#692);
#607=LINE('',#1512,#693);
#608=LINE('',#1514,#694);
#609=LINE('',#1518,#695);
#610=LINE('',#1520,#696);
#611=LINE('',#1524,#697);
#612=LINE('',#1528,#698);
#613=LINE('',#1529,#699);
#614=LINE('',#1533,#700);
#615=LINE('',#1537,#701);
#616=LINE('',#1542,#702);
#617=LINE('',#1546,#703);
#618=LINE('',#1550,#704);
#619=LINE('',#1556,#705);
#620=LINE('',#1561,#706);
#621=LINE('',#1566,#707);
#622=LINE('',#1570,#708);
#623=LINE('',#1572,#709);
#624=LINE('',#1576,#710);
#625=LINE('',#1578,#711);
#626=LINE('',#1580,#712);
#627=LINE('',#1582,#713);
#628=LINE('',#1586,#714);
#629=LINE('',#1590,#715);
#630=LINE('',#1594,#716);
#631=LINE('',#1596,#717);
#632=LINE('',#1602,#718);
#633=LINE('',#1603,#719);
#634=LINE('',#1605,#720);
#635=LINE('',#1607,#721);
#636=LINE('',#1611,#722);
#637=LINE('',#1612,#723);
#638=LINE('',#1614,#724);
#639=LINE('',#1616,#725);
#640=LINE('',#1618,#726);
#641=LINE('',#1620,#727);
#642=LINE('',#1622,#728);
#643=LINE('',#1624,#729);
#644=LINE('',#1627,#730);
#645=LINE('',#1628,#731);
#646=LINE('',#1630,#732);
#647=LINE('',#1632,#733);
#648=LINE('',#1672,#734);
#649=LINE('',#1677,#735);
#650=LINE('',#1686,#736);
#651=LINE('',#1689,#737);
#652=LINE('',#1690,#738);
#653=LINE('',#1692,#739);
#654=LINE('',#1694,#740);
#655=LINE('',#1696,#741);
#656=LINE('',#1698,#742);
#657=LINE('',#1700,#743);
#658=LINE('',#1702,#744);
#659=LINE('',#1704,#745);
#660=LINE('',#1706,#746);
#661=LINE('',#1708,#747);
#662=LINE('',#1710,#748);
#663=LINE('',#1712,#749);
#664=VECTOR('',#1132,1.);
#665=VECTOR('',#1133,1.);
#666=VECTOR('',#1134,1.);
#667=VECTOR('',#1135,1.);
#668=VECTOR('',#1138,1.);
#669=VECTOR('',#1139,1.);
#670=VECTOR('',#1140,1.);
#671=VECTOR('',#1143,1.);
#672=VECTOR('',#1144,1.);
#673=VECTOR('',#1145,1.);
#674=VECTOR('',#1148,1.);
#675=VECTOR('',#1149,1.);
#676=VECTOR('',#1150,1.);
#677=VECTOR('',#1151,1.);
#678=VECTOR('',#1154,1.);
#679=VECTOR('',#1155,1.);
#680=VECTOR('',#1156,1.);
#681=VECTOR('',#1157,1.);
#682=VECTOR('',#1162,1.);
#683=VECTOR('',#1165,1.);
#684=VECTOR('',#1168,1.);
#685=VECTOR('',#1171,1.);
#686=VECTOR('',#1174,1.);
#687=VECTOR('',#1183,1.);
#688=VECTOR('',#1184,1.);
#689=VECTOR('',#1185,1.);
#690=VECTOR('',#1188,1.);
#691=VECTOR('',#1191,1.);
#692=VECTOR('',#1194,1.);
#693=VECTOR('',#1195,1.);
#694=VECTOR('',#1196,1.);
#695=VECTOR('',#1201,1.);
#696=VECTOR('',#1204,1.);
#697=VECTOR('',#1207,1.);
#698=VECTOR('',#1210,1.);
#699=VECTOR('',#1211,1.);
#700=VECTOR('',#1214,1.);
#701=VECTOR('',#1219,1.);
#702=VECTOR('',#1222,1.);
#703=VECTOR('',#1225,1.);
#704=VECTOR('',#1228,1.);
#705=VECTOR('',#1235,1.);
#706=VECTOR('',#1242,1.);
#707=VECTOR('',#1245,1.);
#708=VECTOR('',#1248,1.);
#709=VECTOR('',#1249,1.);
#710=VECTOR('',#1254,1.);
#711=VECTOR('',#1255,1.);
#712=VECTOR('',#1258,1.);
#713=VECTOR('',#1259,1.);
#714=VECTOR('',#1264,1.);
#715=VECTOR('',#1267,1.);
#716=VECTOR('',#1272,1.);
#717=VECTOR('',#1275,1.);
#718=VECTOR('',#1286,1.);
#719=VECTOR('',#1287,1.);
#720=VECTOR('',#1290,1.);
#721=VECTOR('',#1293,1.);
#722=VECTOR('',#1300,1.);
#723=VECTOR('',#1301,1.);
#724=VECTOR('',#1304,1.);
#725=VECTOR('',#1307,1.);
#726=VECTOR('',#1310,1.);
#727=VECTOR('',#1313,1.);
#728=VECTOR('',#1316,1.);
#729=VECTOR('',#1319,1.);
#730=VECTOR('',#1324,1.);
#731=VECTOR('',#1325,1.);
#732=VECTOR('',#1328,1.);
#733=VECTOR('',#1331,1.);
#734=VECTOR('',#1388,1.);
#735=VECTOR('',#1391,1.);
#736=VECTOR('',#1402,1.);
#737=VECTOR('',#1403,1.);
#738=VECTOR('',#1404,1.);
#739=VECTOR('',#1407,1.);
#740=VECTOR('',#1408,1.);
#741=VECTOR('',#1409,1.);
#742=VECTOR('',#1412,1.);
#743=VECTOR('',#1413,1.);
#744=VECTOR('',#1414,1.);
#745=VECTOR('',#1417,1.);
#746=VECTOR('',#1418,1.);
#747=VECTOR('',#1421,1.);
#748=VECTOR('',#1422,1.);
#749=VECTOR('',#1425,1.);
#750=EDGE_LOOP('',(#86,#87,#88,#89));
#751=EDGE_LOOP('',(#90,#91,#92));
#752=EDGE_LOOP('',(#93,#94,#95));
#753=EDGE_LOOP('',(#96,#97,#98,#99));
#754=EDGE_LOOP('',(#100,#101,#102,#103));
#755=EDGE_LOOP('',(#104,#105,#106,#107,#108,#109,#110,#111));
#756=EDGE_LOOP('',(#112,#113,#114,#115,#116,#117,#118,#119));
#757=EDGE_LOOP('',(#120,#121,#122,#123));
#758=EDGE_LOOP('',(#124,#125,#126,#127,#128,#129,#130,#131,#132,#133,#134,
#135));
#759=EDGE_LOOP('',(#136,#137,#138,#139,#140,#141,#142,#143,#144,#145,#146,
#147));
#760=EDGE_LOOP('',(#148,#149,#150,#151,#152,#153,#154,#155));
#761=EDGE_LOOP('',(#156,#157,#158,#159,#160,#161,#162,#163));
#762=EDGE_LOOP('',(#164,#165,#166,#167,#168,#169,#170,#171,#172,#173,#174,
#175));
#763=EDGE_LOOP('',(#176,#177,#178,#179,#180,#181,#182,#183,#184,#185,#186,
#187));
#764=EDGE_LOOP('',(#188,#189,#190));
#765=EDGE_LOOP('',(#191,#192,#193));
#766=EDGE_LOOP('',(#194,#195,#196,#197,#198,#199,#200));
#767=EDGE_LOOP('',(#201,#202,#203,#204,#205,#206,#207));
#768=EDGE_LOOP('',(#208,#209,#210,#211,#212,#213,#214));
#769=EDGE_LOOP('',(#215,#216,#217,#218,#219,#220,#221));
#770=EDGE_LOOP('',(#222,#223,#224,#225));
#771=EDGE_LOOP('',(#226,#227,#228,#229));
#772=EDGE_LOOP('',(#230,#231,#232,#233));
#773=EDGE_LOOP('',(#234,#235,#236));
#774=EDGE_LOOP('',(#237,#238,#239));
#775=EDGE_LOOP('',(#240,#241,#242,#243));
#776=EDGE_LOOP('',(#244,#245,#246,#247));
#777=EDGE_LOOP('',(#248,#249,#250,#251));
#778=EDGE_LOOP('',(#252,#253,#254,#255));
#779=EDGE_LOOP('',(#256,#257,#258,#259));
#780=EDGE_LOOP('',(#260,#261,#262,#263));
#781=EDGE_LOOP('',(#264,#265,#266,#267));
#782=EDGE_LOOP('',(#268,#269,#270,#271));
#783=EDGE_LOOP('',(#272,#273,#274,#275));
#784=EDGE_LOOP('',(#276,#277,#278,#279));
#785=EDGE_LOOP('',(#280,#281,#282,#283));
#786=EDGE_LOOP('',(#284,#285,#286));
#787=EDGE_LOOP('',(#287,#288,#289));
#788=EDGE_LOOP('',(#290));
#789=EDGE_LOOP('',(#291));
#790=EDGE_LOOP('',(#292));
#791=EDGE_LOOP('',(#293));
#792=EDGE_LOOP('',(#294));
#793=EDGE_LOOP('',(#295));
#794=EDGE_LOOP('',(#296));
#795=EDGE_LOOP('',(#297));
#796=EDGE_LOOP('',(#298));
#797=EDGE_LOOP('',(#299));
#798=EDGE_LOOP('',(#300));
#799=EDGE_LOOP('',(#301));
#800=EDGE_LOOP('',(#302));
#801=EDGE_LOOP('',(#303));
#802=EDGE_LOOP('',(#304));
#803=EDGE_LOOP('',(#305));
#804=EDGE_LOOP('',(#306));
#805=EDGE_LOOP('',(#307));
#806=EDGE_LOOP('',(#308));
#807=EDGE_LOOP('',(#309));
#808=EDGE_LOOP('',(#310));
#809=EDGE_LOOP('',(#311));
#810=EDGE_LOOP('',(#312,#313,#314,#315));
#811=EDGE_LOOP('',(#316));
#812=EDGE_LOOP('',(#317));
#813=EDGE_LOOP('',(#318,#319,#320,#321));
#814=EDGE_LOOP('',(#322));
#815=EDGE_LOOP('',(#323,#324,#325,#326));
#816=EDGE_LOOP('',(#327));
#817=EDGE_LOOP('',(#328,#329,#330,#331));
#818=EDGE_LOOP('',(#332,#333,#334,#335,#336,#337));
#819=EDGE_LOOP('',(#338,#339,#340,#341));
#820=EDGE_LOOP('',(#342,#343,#344,#345,#346,#347));
#821=EDGE_LOOP('',(#348,#349,#350,#351));
#822=FACE_BOUND('',#750,.T.);
#823=FACE_BOUND('',#751,.T.);
#824=FACE_BOUND('',#752,.T.);
#825=FACE_BOUND('',#753,.T.);
#826=FACE_BOUND('',#754,.T.);
#827=FACE_BOUND('',#755,.T.);
#828=FACE_BOUND('',#756,.T.);
#829=FACE_BOUND('',#757,.T.);
#830=FACE_BOUND('',#758,.T.);
#831=FACE_BOUND('',#759,.T.);
#832=FACE_BOUND('',#760,.T.);
#833=FACE_BOUND('',#761,.T.);
#834=FACE_BOUND('',#762,.T.);
#835=FACE_BOUND('',#763,.T.);
#836=FACE_BOUND('',#764,.T.);
#837=FACE_BOUND('',#765,.T.);
#838=FACE_BOUND('',#766,.T.);
#839=FACE_BOUND('',#767,.T.);
#840=FACE_BOUND('',#768,.T.);
#841=FACE_BOUND('',#769,.T.);
#842=FACE_BOUND('',#770,.T.);
#843=FACE_BOUND('',#771,.T.);
#844=FACE_BOUND('',#772,.T.);
#845=FACE_BOUND('',#773,.T.);
#846=FACE_BOUND('',#774,.T.);
#847=FACE_BOUND('',#775,.T.);
#848=FACE_BOUND('',#776,.T.);
#849=FACE_BOUND('',#777,.T.);
#850=FACE_BOUND('',#778,.T.);
#851=FACE_BOUND('',#779,.T.);
#852=FACE_BOUND('',#780,.T.);
#853=FACE_BOUND('',#781,.T.);
#854=FACE_BOUND('',#782,.T.);
#855=FACE_BOUND('',#783,.T.);
#856=FACE_BOUND('',#784,.T.);
#857=FACE_BOUND('',#785,.T.);
#858=FACE_BOUND('',#786,.T.);
#859=FACE_BOUND('',#787,.T.);
#860=FACE_BOUND('',#788,.T.);
#861=FACE_BOUND('',#789,.T.);
#862=FACE_BOUND('',#790,.T.);
#863=FACE_BOUND('',#791,.T.);
#864=FACE_BOUND('',#792,.T.);
#865=FACE_BOUND('',#793,.T.);
#866=FACE_BOUND('',#794,.T.);
#867=FACE_BOUND('',#795,.T.);
#868=FACE_BOUND('',#796,.T.);
#869=FACE_BOUND('',#797,.T.);
#870=FACE_BOUND('',#798,.T.);
#871=FACE_BOUND('',#799,.T.);
#872=FACE_BOUND('',#800,.T.);
#873=FACE_BOUND('',#801,.T.);
#874=FACE_BOUND('',#802,.T.);
#875=FACE_BOUND('',#803,.T.);
#876=FACE_BOUND('',#804,.T.);
#877=FACE_BOUND('',#805,.T.);
#878=FACE_BOUND('',#806,.T.);
#879=FACE_BOUND('',#807,.T.);
#880=FACE_BOUND('',#808,.T.);
#881=FACE_BOUND('',#809,.T.);
#882=FACE_BOUND('',#810,.T.);
#883=FACE_BOUND('',#811,.T.);
#884=FACE_BOUND('',#812,.T.);
#885=FACE_BOUND('',#813,.T.);
#886=FACE_BOUND('',#814,.T.);
#887=FACE_BOUND('',#815,.T.);
#888=FACE_BOUND('',#816,.T.);
#889=FACE_BOUND('',#817,.T.);
#890=FACE_BOUND('',#818,.T.);
#891=FACE_BOUND('',#819,.T.);
#892=FACE_BOUND('',#820,.T.);
#893=FACE_BOUND('',#821,.T.);
#894=PLANE('',#1022);
#895=PLANE('',#1023);
#896=PLANE('',#1024);
#897=PLANE('',#1025);
#898=PLANE('',#1026);
#899=PLANE('',#1027);
#900=PLANE('',#1036);
#901=PLANE('',#1037);
#902=PLANE('',#1042);
#903=PLANE('',#1047);
#904=PLANE('',#1056);
#905=PLANE('',#1061);
#906=PLANE('',#1066);
#907=PLANE('',#1067);
#908=PLANE('',#1073);
#909=PLANE('',#1075);
#910=PLANE('',#1076);
#911=PLANE('',#1078);
#912=PLANE('',#1080);
#913=PLANE('',#1082);
#914=PLANE('',#1084);
#915=PLANE('',#1086);
#916=PLANE('',#1088);
#917=PLANE('',#1089);
#918=PLANE('',#1098);
#919=PLANE('',#1100);
#920=PLANE('',#1106);
#921=PLANE('',#1113);
#922=PLANE('',#1121);
#923=PLANE('',#1122);
#924=PLANE('',#1123);
#925=PLANE('',#1124);
#926=PLANE('',#1125);
#927=PLANE('',#1126);
#928=PLANE('',#1127);
#929=ADVANCED_FACE('',(#822),#894,.T.);
#930=ADVANCED_FACE('',(#823),#895,.T.);
#931=ADVANCED_FACE('',(#824),#896,.F.);
#932=ADVANCED_FACE('',(#825),#897,.F.);
#933=ADVANCED_FACE('',(#826),#898,.F.);
#934=ADVANCED_FACE('',(#827,#828),#899,.F.);
#935=ADVANCED_FACE('',(#829),#900,.T.);
#936=ADVANCED_FACE('',(#830),#901,.T.);
#937=ADVANCED_FACE('',(#831),#902,.T.);
#938=ADVANCED_FACE('',(#832,#833),#903,.T.);
#939=ADVANCED_FACE('',(#834),#904,.T.);
#940=ADVANCED_FACE('',(#835),#905,.T.);
#941=ADVANCED_FACE('',(#836),#906,.T.);
#942=ADVANCED_FACE('',(#837),#907,.F.);
#943=ADVANCED_FACE('',(#838),#21,.T.);
#944=ADVANCED_FACE('',(#839),#22,.T.);
#945=ADVANCED_FACE('',(#840),#23,.T.);
#946=ADVANCED_FACE('',(#841),#24,.T.);
#947=ADVANCED_FACE('',(#842),#25,.F.);
#948=ADVANCED_FACE('',(#843),#908,.F.);
#949=ADVANCED_FACE('',(#844),#26,.F.);
#950=ADVANCED_FACE('',(#845),#909,.F.);
#951=ADVANCED_FACE('',(#846),#910,.F.);
#952=ADVANCED_FACE('',(#847),#27,.F.);
#953=ADVANCED_FACE('',(#848),#911,.F.);
#954=ADVANCED_FACE('',(#849),#28,.F.);
#955=ADVANCED_FACE('',(#850),#912,.F.);
#956=ADVANCED_FACE('',(#851),#29,.F.);
#957=ADVANCED_FACE('',(#852),#913,.F.);
#958=ADVANCED_FACE('',(#853),#30,.F.);
#959=ADVANCED_FACE('',(#854),#914,.F.);
#960=ADVANCED_FACE('',(#855),#31,.F.);
#961=ADVANCED_FACE('',(#856),#915,.F.);
#962=ADVANCED_FACE('',(#857),#32,.F.);
#963=ADVANCED_FACE('',(#858),#916,.F.);
#964=ADVANCED_FACE('',(#859),#917,.F.);
#965=ADVANCED_FACE('',(#860,#861),#33,.T.);
#966=ADVANCED_FACE('',(#862,#863),#11,.T.);
#967=ADVANCED_FACE('',(#864,#865),#34,.T.);
#968=ADVANCED_FACE('',(#866),#918,.F.);
#969=ADVANCED_FACE('',(#867,#868),#919,.F.);
#970=ADVANCED_FACE('',(#869,#870),#35,.T.);
#971=ADVANCED_FACE('',(#871,#872),#920,.F.);
#972=ADVANCED_FACE('',(#873,#874),#12,.T.);
#973=ADVANCED_FACE('',(#875,#876),#13,.T.);
#974=ADVANCED_FACE('',(#877,#878),#14,.T.);
#975=ADVANCED_FACE('',(#879,#880),#36,.F.);
#976=ADVANCED_FACE('',(#881),#921,.T.);
#977=ADVANCED_FACE('',(#882),#37,.T.);
#978=ADVANCED_FACE('',(#883,#884),#38,.F.);
#979=ADVANCED_FACE('',(#885,#886),#922,.T.);
#980=ADVANCED_FACE('',(#887,#888),#923,.F.);
#981=ADVANCED_FACE('',(#889),#924,.T.);
#982=ADVANCED_FACE('',(#890),#925,.F.);
#983=ADVANCED_FACE('',(#891),#926,.F.);
#984=ADVANCED_FACE('',(#892),#927,.F.);
#985=ADVANCED_FACE('',(#893),#928,.T.);
#986=CLOSED_SHELL('',(#929,#930,#931,#932,#933,#934,#935,#936,#937,#938,
#939,#940,#941,#942,#943,#944,#945,#946,#947,#948,#949,#950,#951,#952,#953,
#954,#955,#956,#957,#958,#959,#960,#961,#962,#963,#964));
#987=CLOSED_SHELL('',(#965,#966,#967,#968,#969,#970,#971,#972,#973,#974,
#975,#976));
#988=CLOSED_SHELL('',(#977,#978,#979,#980,#981,#982,#983,#984,#985));
#989=STYLED_ITEM('',(#992),#1012);
#990=STYLED_ITEM('',(#993),#1013);
#991=STYLED_ITEM('',(#994),#1014);
#992=PRESENTATION_STYLE_ASSIGNMENT((#995));
#993=PRESENTATION_STYLE_ASSIGNMENT((#996));
#994=PRESENTATION_STYLE_ASSIGNMENT((#997));
#995=SURFACE_STYLE_USAGE(.BOTH.,#998);
#996=SURFACE_STYLE_USAGE(.BOTH.,#999);
#997=SURFACE_STYLE_USAGE(.BOTH.,#1000);
#998=SURFACE_SIDE_STYLE('',(#1001));
#999=SURFACE_SIDE_STYLE('',(#1002));
#1000=SURFACE_SIDE_STYLE('',(#1003));
#1001=SURFACE_STYLE_FILL_AREA(#1004);
#1002=SURFACE_STYLE_FILL_AREA(#1005);
#1003=SURFACE_STYLE_FILL_AREA(#1006);
#1004=FILL_AREA_STYLE('',(#1007));
#1005=FILL_AREA_STYLE('',(#1008));
#1006=FILL_AREA_STYLE('',(#1009));
#1007=FILL_AREA_STYLE_COLOUR('',#1010);
#1008=FILL_AREA_STYLE_COLOUR('',#1011);
#1009=FILL_AREA_STYLE_COLOUR('',#10);
#1010=COLOUR_RGB('',0.972549019607843,0.529411764705882,0.00392156862745098);
#1011=COLOUR_RGB('',0.372549019607843,0.654901960784314,0.23921568627451);
#1012=MANIFOLD_SOLID_BREP('buckle',#986);
#1013=MANIFOLD_SOLID_BREP('irish',#987);
#1014=MANIFOLD_SOLID_BREP('belt',#988);
#1015=SHAPE_DEFINITION_REPRESENTATION(#1732,#1018);
#1016=SHAPE_DEFINITION_REPRESENTATION(#1733,#1019);
#1017=SHAPE_DEFINITION_REPRESENTATION(#1734,#1020);
#1018=SHAPE_REPRESENTATION('buckle',(#1021),#1717);
#1019=SHAPE_REPRESENTATION('irish',(#1090),#1718);
#1020=SHAPE_REPRESENTATION('belt',(#1114),#1719);
#1021=AXIS2_PLACEMENT_3D('',#1428,#1128,#1129);
#1022=AXIS2_PLACEMENT_3D('',#1429,#1130,#1131);
#1023=AXIS2_PLACEMENT_3D('',#1438,#1136,#1137);
#1024=AXIS2_PLACEMENT_3D('',#1445,#1141,#1142);
#1025=AXIS2_PLACEMENT_3D('',#1452,#1146,#1147);
#1026=AXIS2_PLACEMENT_3D('',#1461,#1152,#1153);
#1027=AXIS2_PLACEMENT_3D('',#1470,#1158,#1159);
#1028=AXIS2_PLACEMENT_3D('',#1471,#1160,#1161);
#1029=AXIS2_PLACEMENT_3D('',#1476,#1163,#1164);
#1030=AXIS2_PLACEMENT_3D('',#1480,#1166,#1167);
#1031=AXIS2_PLACEMENT_3D('',#1484,#1169,#1170);
#1032=AXIS2_PLACEMENT_3D('',#1487,#1172,#1173);
#1033=AXIS2_PLACEMENT_3D('',#1491,#1175,#1176);
#1034=AXIS2_PLACEMENT_3D('',#1492,#1177,#1178);
#1035=AXIS2_PLACEMENT_3D('',#1493,#1179,#1180);
#1036=AXIS2_PLACEMENT_3D('',#1494,#1181,#1182);
#1037=AXIS2_PLACEMENT_3D('',#1500,#1186,#1187);
#1038=AXIS2_PLACEMENT_3D('',#1504,#1189,#1190);
#1039=AXIS2_PLACEMENT_3D('',#1508,#1192,#1193);
#1040=AXIS2_PLACEMENT_3D('',#1516,#1197,#1198);
#1041=AXIS2_PLACEMENT_3D('',#1517,#1199,#1200);
#1042=AXIS2_PLACEMENT_3D('',#1519,#1202,#1203);
#1043=AXIS2_PLACEMENT_3D('',#1522,#1205,#1206);
#1044=AXIS2_PLACEMENT_3D('',#1526,#1208,#1209);
#1045=AXIS2_PLACEMENT_3D('',#1531,#1212,#1213);
#1046=AXIS2_PLACEMENT_3D('',#1535,#1215,#1216);
#1047=AXIS2_PLACEMENT_3D('',#1536,#1217,#1218);
#1048=AXIS2_PLACEMENT_3D('',#1540,#1220,#1221);
#1049=AXIS2_PLACEMENT_3D('',#1544,#1223,#1224);
#1050=AXIS2_PLACEMENT_3D('',#1548,#1226,#1227);
#1051=AXIS2_PLACEMENT_3D('',#1552,#1229,#1230);
#1052=AXIS2_PLACEMENT_3D('',#1553,#1231,#1232);
#1053=AXIS2_PLACEMENT_3D('',#1554,#1233,#1234);
#1054=AXIS2_PLACEMENT_3D('',#1558,#1236,#1237);
#1055=AXIS2_PLACEMENT_3D('',#1559,#1238,#1239);
#1056=AXIS2_PLACEMENT_3D('',#1560,#1240,#1241);
#1057=AXIS2_PLACEMENT_3D('',#1564,#1243,#1244);
#1058=AXIS2_PLACEMENT_3D('',#1568,#1246,#1247);
#1059=AXIS2_PLACEMENT_3D('',#1573,#1250,#1251);
#1060=AXIS2_PLACEMENT_3D('',#1574,#1252,#1253);
#1061=AXIS2_PLACEMENT_3D('',#1579,#1256,#1257);
#1062=AXIS2_PLACEMENT_3D('',#1584,#1260,#1261);
#1063=AXIS2_PLACEMENT_3D('',#1585,#1262,#1263);
#1064=AXIS2_PLACEMENT_3D('',#1588,#1265,#1266);
#1065=AXIS2_PLACEMENT_3D('',#1592,#1268,#1269);
#1066=AXIS2_PLACEMENT_3D('',#1593,#1270,#1271);
#1067=AXIS2_PLACEMENT_3D('',#1595,#1273,#1274);
#1068=AXIS2_PLACEMENT_3D('',#1597,#1276,#1277);
#1069=AXIS2_PLACEMENT_3D('',#1598,#1278,#1279);
#1070=AXIS2_PLACEMENT_3D('',#1599,#1280,#1281);
#1071=AXIS2_PLACEMENT_3D('',#1600,#1282,#1283);
#1072=AXIS2_PLACEMENT_3D('',#1601,#1284,#1285);
#1073=AXIS2_PLACEMENT_3D('',#1604,#1288,#1289);
#1074=AXIS2_PLACEMENT_3D('',#1606,#1291,#1292);
#1075=AXIS2_PLACEMENT_3D('',#1608,#1294,#1295);
#1076=AXIS2_PLACEMENT_3D('',#1609,#1296,#1297);
#1077=AXIS2_PLACEMENT_3D('',#1610,#1298,#1299);
#1078=AXIS2_PLACEMENT_3D('',#1613,#1302,#1303);
#1079=AXIS2_PLACEMENT_3D('',#1615,#1305,#1306);
#1080=AXIS2_PLACEMENT_3D('',#1617,#1308,#1309);
#1081=AXIS2_PLACEMENT_3D('',#1619,#1311,#1312);
#1082=AXIS2_PLACEMENT_3D('',#1621,#1314,#1315);
#1083=AXIS2_PLACEMENT_3D('',#1623,#1317,#1318);
#1084=AXIS2_PLACEMENT_3D('',#1625,#1320,#1321);
#1085=AXIS2_PLACEMENT_3D('',#1626,#1322,#1323);
#1086=AXIS2_PLACEMENT_3D('',#1629,#1326,#1327);
#1087=AXIS2_PLACEMENT_3D('',#1631,#1329,#1330);
#1088=AXIS2_PLACEMENT_3D('',#1633,#1332,#1333);
#1089=AXIS2_PLACEMENT_3D('',#1634,#1334,#1335);
#1090=AXIS2_PLACEMENT_3D('',#1635,#1336,#1337);
#1091=AXIS2_PLACEMENT_3D('',#1636,#1338,#1339);
#1092=AXIS2_PLACEMENT_3D('',#1637,#1340,#1341);
#1093=AXIS2_PLACEMENT_3D('',#1639,#1342,#1343);
#1094=AXIS2_PLACEMENT_3D('',#1641,#1344,#1345);
#1095=AXIS2_PLACEMENT_3D('',#1642,#1346,#1347);
#1096=AXIS2_PLACEMENT_3D('',#1644,#1348,#1349);
#1097=AXIS2_PLACEMENT_3D('',#1645,#1350,#1351);
#1098=AXIS2_PLACEMENT_3D('',#1647,#1352,#1353);
#1099=AXIS2_PLACEMENT_3D('',#1648,#1354,#1355);
#1100=AXIS2_PLACEMENT_3D('',#1650,#1356,#1357);
#1101=AXIS2_PLACEMENT_3D('',#1651,#1358,#1359);
#1102=AXIS2_PLACEMENT_3D('',#1653,#1360,#1361);
#1103=AXIS2_PLACEMENT_3D('',#1655,#1362,#1363);
#1104=AXIS2_PLACEMENT_3D('',#1656,#1364,#1365);
#1105=AXIS2_PLACEMENT_3D('',#1658,#1366,#1367);
#1106=AXIS2_PLACEMENT_3D('',#1660,#1368,#1369);
#1107=AXIS2_PLACEMENT_3D('',#1661,#1370,#1371);
#1108=AXIS2_PLACEMENT_3D('',#1663,#1372,#1373);
#1109=AXIS2_PLACEMENT_3D('',#1664,#1374,#1375);
#1110=AXIS2_PLACEMENT_3D('',#1665,#1376,#1377);
#1111=AXIS2_PLACEMENT_3D('',#1666,#1378,#1379);
#1112=AXIS2_PLACEMENT_3D('',#1667,#1380,#1381);
#1113=AXIS2_PLACEMENT_3D('',#1669,#1382,#1383);
#1114=AXIS2_PLACEMENT_3D('',#1670,#1384,#1385);
#1115=AXIS2_PLACEMENT_3D('',#1671,#1386,#1387);
#1116=AXIS2_PLACEMENT_3D('',#1675,#1389,#1390);
#1117=AXIS2_PLACEMENT_3D('',#1679,#1392,#1393);
#1118=AXIS2_PLACEMENT_3D('',#1680,#1394,#1395);
#1119=AXIS2_PLACEMENT_3D('',#1681,#1396,#1397);
#1120=AXIS2_PLACEMENT_3D('',#1683,#1398,#1399);
#1121=AXIS2_PLACEMENT_3D('',#1685,#1400,#1401);
#1122=AXIS2_PLACEMENT_3D('',#1691,#1405,#1406);
#1123=AXIS2_PLACEMENT_3D('',#1697,#1410,#1411);
#1124=AXIS2_PLACEMENT_3D('',#1703,#1415,#1416);
#1125=AXIS2_PLACEMENT_3D('',#1707,#1419,#1420);
#1126=AXIS2_PLACEMENT_3D('',#1711,#1423,#1424);
#1127=AXIS2_PLACEMENT_3D('',#1713,#1426,#1427);
#1128=DIRECTION('',(0.,0.,1.));
#1129=DIRECTION('',(1.,0.,0.));
#1130=DIRECTION('',(0.,0.,1.));
#1131=DIRECTION('',(1.,0.,0.));
#1132=DIRECTION('',(1.,4.33680868994202E-16,0.));
#1133=DIRECTION('',(3.46944695195362E-16,-1.,0.));
#1134=DIRECTION('',(1.,6.93889390390723E-16,0.));
#1135=DIRECTION('',(3.46944695195362E-16,-1.,0.));
#1136=DIRECTION('',(0.,0.,1.));
#1137=DIRECTION('',(1.,0.,0.));
#1138=DIRECTION('',(1.,0.,0.));
#1139=DIRECTION('',(3.46944695195362E-16,-1.,0.));
#1140=DIRECTION('',(-0.707106781186548,-0.707106781186548,0.));
#1141=DIRECTION('',(0.,0.,1.));
#1142=DIRECTION('',(1.,0.,0.));
#1143=DIRECTION('',(1.,6.93889390390722E-16,0.));
#1144=DIRECTION('',(3.46944695195362E-16,-1.,0.));
#1145=DIRECTION('',(-0.707106781186548,0.707106781186547,0.));
#1146=DIRECTION('',(0.,0.,1.));
#1147=DIRECTION('',(1.,0.,0.));
#1148=DIRECTION('',(1.,6.93889390390723E-16,0.));
#1149=DIRECTION('',(3.46944695195362E-16,-1.,0.));
#1150=DIRECTION('',(1.,4.33680868994202E-16,0.));
#1151=DIRECTION('',(3.46944695195362E-16,-1.,0.));
#1152=DIRECTION('',(1.,3.46944695195362E-16,0.));
#1153=DIRECTION('',(-3.46944695195362E-16,1.,0.));
#1154=DIRECTION('',(0.,0.,-1.));
#1155=DIRECTION('',(3.46944695195362E-16,-1.,0.));
#1156=DIRECTION('',(0.,0.,-1.));
#1157=DIRECTION('',(3.46944695195362E-16,-1.,0.));
#1158=DIRECTION('',(-4.33680868994202E-16,1.,0.));
#1159=DIRECTION('',(-1.,-4.33680868994202E-16,0.));
#1160=DIRECTION('',(4.33680868994202E-16,-1.,0.));
#1161=DIRECTION('',(1.,4.33680868994202E-16,0.));
#1162=DIRECTION('',(1.,4.33680868994202E-16,0.));
#1163=DIRECTION('',(4.33680868994202E-16,-1.,0.));
#1164=DIRECTION('',(1.,4.33680868994202E-16,0.));
#1165=DIRECTION('',(0.,0.,-1.));
#1166=DIRECTION('',(4.33680868994202E-16,-1.,0.));
#1167=DIRECTION('',(1.,4.33680868994202E-16,0.));
#1168=DIRECTION('',(-1.,-4.33680868994202E-16,0.));
#1169=DIRECTION('',(4.33680868994202E-16,-1.,0.));
#1170=DIRECTION('',(1.,4.33680868994202E-16,0.));
#1171=DIRECTION('',(0.,0.,1.));
#1172=DIRECTION('',(-4.33680868994202E-16,1.,0.));
#1173=DIRECTION('',(-1.,-4.33680868994202E-16,0.));
#1174=DIRECTION('',(0.,0.,-1.));
#1175=DIRECTION('',(-4.33680868994202E-16,1.,0.));
#1176=DIRECTION('',(-1.,-4.33680868994202E-16,0.));
#1177=DIRECTION('',(-4.33680868994202E-16,1.,0.));
#1178=DIRECTION('',(-1.,-4.33680868994202E-16,0.));
#1179=DIRECTION('',(-4.33680868994202E-16,1.,0.));
#1180=DIRECTION('',(-1.,-4.33680868994202E-16,0.));
#1181=DIRECTION('',(1.,3.46944695195362E-16,0.));
#1182=DIRECTION('',(-3.46944695195362E-16,1.,0.));
#1183=DIRECTION('',(3.46944695195362E-16,-1.,0.));
#1184=DIRECTION('',(0.,0.,-1.));
#1185=DIRECTION('',(3.46944695195362E-16,-1.,0.));
#1186=DIRECTION('',(-6.93889390390721E-16,1.,0.));
#1187=DIRECTION('',(-1.,-6.93889390390721E-16,0.));
#1188=DIRECTION('',(-1.,-6.93889390390721E-16,0.));
#1189=DIRECTION('',(-6.93889390390721E-16,1.,0.));
#1190=DIRECTION('',(-1.,-6.93889390390721E-16,0.));
#1191=DIRECTION('',(0.,0.,-1.));
#1192=DIRECTION('',(-6.93889390390721E-16,1.,0.));
#1193=DIRECTION('',(-1.,-6.93889390390721E-16,0.));
#1194=DIRECTION('',(1.,6.93889390390721E-16,0.));
#1195=DIRECTION('',(0.,0.,-1.));
#1196=DIRECTION('',(1.,6.93889390390722E-16,0.));
#1197=DIRECTION('',(-6.93889390390721E-16,1.,0.));
#1198=DIRECTION('',(-1.,-6.93889390390721E-16,0.));
#1199=DIRECTION('',(-6.93889390390721E-16,1.,0.));
#1200=DIRECTION('',(-1.,-6.93889390390721E-16,0.));
#1201=DIRECTION('',(0.,0.,-1.));
#1202=DIRECTION('',(-0.707106781186547,-0.707106781186548,0.));
#1203=DIRECTION('',(0.707106781186548,-0.707106781186547,0.));
#1204=DIRECTION('',(0.707106781186548,-0.707106781186547,0.));
#1205=DIRECTION('',(-0.707106781186547,-0.707106781186548,0.));
#1206=DIRECTION('',(-0.707106781186548,0.707106781186547,0.));
#1207=DIRECTION('',(0.,0.,-1.));
#1208=DIRECTION('',(-0.707106781186547,-0.707106781186548,0.));
#1209=DIRECTION('',(0.707106781186548,-0.707106781186547,0.));
#1210=DIRECTION('',(-0.707106781186548,0.707106781186547,0.));
#1211=DIRECTION('',(-0.707106781186548,0.707106781186547,0.));
#1212=DIRECTION('',(-0.707106781186547,-0.707106781186548,0.));
#1213=DIRECTION('',(0.707106781186548,-0.707106781186547,0.));
#1214=DIRECTION('',(0.,0.,1.));
#1215=DIRECTION('',(-0.707106781186547,-0.707106781186548,0.));
#1216=DIRECTION('',(0.707106781186548,-0.707106781186547,0.));
#1217=DIRECTION('',(-6.93889390390723E-16,1.,0.));
#1218=DIRECTION('',(-1.,-6.93889390390723E-16,0.));
#1219=DIRECTION('',(-1.,-6.93889390390723E-16,0.));
#1220=DIRECTION('',(-6.93889390390723E-16,1.,0.));
#1221=DIRECTION('',(-1.,-6.93889390390723E-16,0.));
#1222=DIRECTION('',(0.,0.,-1.));
#1223=DIRECTION('',(-6.93889390390723E-16,1.,0.));
#1224=DIRECTION('',(-1.,-6.93889390390723E-16,0.));
#1225=DIRECTION('',(1.,6.93889390390723E-16,0.));
#1226=DIRECTION('',(-6.93889390390723E-16,1.,0.));
#1227=DIRECTION('',(-1.,-6.93889390390723E-16,0.));
#1228=DIRECTION('',(0.,0.,1.));
#1229=DIRECTION('',(-6.93889390390723E-16,1.,0.));
#1230=DIRECTION('',(-1.,-6.93889390390723E-16,0.));
#1231=DIRECTION('',(-6.93889390390723E-16,1.,0.));
#1232=DIRECTION('',(-1.,-6.93889390390723E-16,0.));
#1233=DIRECTION('',(-6.93889390390723E-16,1.,0.));
#1234=DIRECTION('',(-1.,-6.93889390390723E-16,0.));
#1235=DIRECTION('',(0.,0.,-1.));
#1236=DIRECTION('',(-6.93889390390723E-16,1.,0.));
#1237=DIRECTION('',(-1.,-6.93889390390723E-16,0.));
#1238=DIRECTION('',(-6.93889390390723E-16,1.,0.));
#1239=DIRECTION('',(-1.,-6.93889390390723E-16,0.));
#1240=DIRECTION('',(0.707106781186548,-0.707106781186548,0.));
#1241=DIRECTION('',(0.707106781186548,0.707106781186548,0.));
#1242=DIRECTION('',(0.707106781186548,0.707106781186548,0.));
#1243=DIRECTION('',(0.707106781186548,-0.707106781186548,0.));
#1244=DIRECTION('',(-0.707106781186548,-0.707106781186548,0.));
#1245=DIRECTION('',(0.,0.,-1.));
#1246=DIRECTION('',(0.707106781186548,-0.707106781186548,0.));
#1247=DIRECTION('',(-0.707106781186548,-0.707106781186548,0.));
#1248=DIRECTION('',(-0.707106781186548,-0.707106781186548,0.));
#1249=DIRECTION('',(0.,0.,-1.));
#1250=DIRECTION('',(0.707106781186548,-0.707106781186548,0.));
#1251=DIRECTION('',(0.707106781186548,0.707106781186548,0.));
#1252=DIRECTION('',(0.707106781186548,-0.707106781186548,0.));
#1253=DIRECTION('',(-0.707106781186548,-0.707106781186548,0.));
#1254=DIRECTION('',(-0.707106781186548,-0.707106781186548,0.));
#1255=DIRECTION('',(0.,0.,-1.));
#1256=DIRECTION('',(0.,1.,0.));
#1257=DIRECTION('',(0.,0.,1.));
#1258=DIRECTION('',(-1.,0.,0.));
#1259=DIRECTION('',(1.,0.,0.));
#1260=DIRECTION('',(0.,1.,0.));
#1261=DIRECTION('',(0.,0.,1.));
#1262=DIRECTION('',(0.,1.,0.));
#1263=DIRECTION('',(0.,0.,1.));
#1264=DIRECTION('',(1.,0.,0.));
#1265=DIRECTION('',(0.,1.,0.));
#1266=DIRECTION('',(0.,0.,1.));
#1267=DIRECTION('',(0.,0.,1.));
#1268=DIRECTION('',(0.,1.,0.));
#1269=DIRECTION('',(0.,0.,1.));
#1270=DIRECTION('',(0.,0.,1.));
#1271=DIRECTION('',(1.,0.,0.));
#1272=DIRECTION('',(3.46944695195362E-16,-1.,0.));
#1273=DIRECTION('',(0.,0.,1.));
#1274=DIRECTION('',(1.,0.,0.));
#1275=DIRECTION('',(3.46944695195362E-16,-1.,0.));
#1276=DIRECTION('',(-3.46944695195362E-16,1.,0.));
#1277=DIRECTION('',(-1.,-3.46944695195362E-16,0.));
#1278=DIRECTION('',(3.46944695195362E-16,-1.,0.));
#1279=DIRECTION('',(1.,3.46944695195362E-16,0.));
#1280=DIRECTION('',(3.46944695195362E-16,-1.,0.));
#1281=DIRECTION('',(1.,3.46944695195362E-16,0.));
#1282=DIRECTION('',(-3.46944695195362E-16,1.,0.));
#1283=DIRECTION('',(-1.,-3.46944695195362E-16,0.));
#1284=DIRECTION('',(4.33680868994202E-16,-1.,0.));
#1285=DIRECTION('',(1.,4.33680868994202E-16,0.));
#1286=DIRECTION('',(4.33680868994202E-16,-1.,0.));
#1287=DIRECTION('',(4.33680868994202E-16,-1.,0.));
#1288=DIRECTION('',(-1.,-4.33680868994202E-16,0.));
#1289=DIRECTION('',(4.33680868994202E-16,-1.,0.));
#1290=DIRECTION('',(4.33680868994202E-16,-1.,0.));
#1291=DIRECTION('',(4.33680868994202E-16,-1.,0.));
#1292=DIRECTION('',(1.,4.33680868994202E-16,0.));
#1293=DIRECTION('',(4.33680868994202E-16,-1.,0.));
#1294=DIRECTION('',(0.,0.,1.));
#1295=DIRECTION('',(1.,0.,0.));
#1296=DIRECTION('',(0.,0.,-1.));
#1297=DIRECTION('',(-1.,0.,0.));
#1298=DIRECTION('',(4.33680868994202E-16,-1.,0.));
#1299=DIRECTION('',(1.,4.33680868994202E-16,0.));
#1300=DIRECTION('',(4.33680868994202E-16,-1.,0.));
#1301=DIRECTION('',(4.33680868994202E-16,-1.,0.));
#1302=DIRECTION('',(-1.,-4.33680868994202E-16,0.));
#1303=DIRECTION('',(4.33680868994202E-16,-1.,0.));
#1304=DIRECTION('',(4.33680868994202E-16,-1.,0.));
#1305=DIRECTION('',(4.33680868994202E-16,-1.,0.));
#1306=DIRECTION('',(1.,4.33680868994202E-16,0.));
#1307=DIRECTION('',(4.33680868994202E-16,-1.,0.));
#1308=DIRECTION('',(0.,0.,1.));
#1309=DIRECTION('',(1.,0.,0.));
#1310=DIRECTION('',(4.33680868994202E-16,-1.,0.));
#1311=DIRECTION('',(4.33680868994202E-16,-1.,0.));
#1312=DIRECTION('',(1.,4.33680868994202E-16,0.));
#1313=DIRECTION('',(4.33680868994202E-16,-1.,0.));
#1314=DIRECTION('',(1.,4.33680868994202E-16,0.));
#1315=DIRECTION('',(-4.33680868994202E-16,1.,0.));
#1316=DIRECTION('',(4.33680868994202E-16,-1.,0.));
#1317=DIRECTION('',(4.33680868994202E-16,-1.,0.));
#1318=DIRECTION('',(1.,4.33680868994202E-16,0.));
#1319=DIRECTION('',(4.33680868994202E-16,-1.,0.));
#1320=DIRECTION('',(0.,0.,-1.));
#1321=DIRECTION('',(-1.,0.,0.));
#1322=DIRECTION('',(4.33680868994202E-16,-1.,0.));
#1323=DIRECTION('',(1.,4.33680868994202E-16,0.));
#1324=DIRECTION('',(4.33680868994202E-16,-1.,0.));
#1325=DIRECTION('',(4.33680868994202E-16,-1.,0.));
#1326=DIRECTION('',(1.,4.33680868994202E-16,0.));
#1327=DIRECTION('',(-4.33680868994202E-16,1.,0.));
#1328=DIRECTION('',(4.33680868994202E-16,-1.,0.));
#1329=DIRECTION('',(4.33680868994202E-16,-1.,0.));
#1330=DIRECTION('',(1.,4.33680868994202E-16,0.));
#1331=DIRECTION('',(4.33680868994202E-16,-1.,0.));
#1332=DIRECTION('',(0.,0.,-1.));
#1333=DIRECTION('',(-1.,0.,0.));
#1334=DIRECTION('',(0.,0.,1.));
#1335=DIRECTION('',(1.,0.,0.));
#1336=DIRECTION('',(0.,0.,1.));
#1337=DIRECTION('',(1.,0.,0.));
#1338=DIRECTION('',(0.,0.,-1.));
#1339=DIRECTION('',(-1.,0.,0.));
#1340=DIRECTION('',(0.,0.,-1.));
#1341=DIRECTION('',(-1.,0.,0.));
#1342=DIRECTION('',(0.,0.,-1.));
#1343=DIRECTION('',(-1.,0.,0.));
#1344=DIRECTION('',(0.,0.,-1.));
#1345=DIRECTION('',(-1.,0.,0.));
#1346=DIRECTION('',(0.,0.,-1.));
#1347=DIRECTION('',(-1.,0.,0.));
#1348=DIRECTION('',(0.,0.,-1.));
#1349=DIRECTION('',(-1.,0.,0.));
#1350=DIRECTION('',(0.,0.,-1.));
#1351=DIRECTION('',(-1.,0.,0.));
#1352=DIRECTION('',(0.,0.,-1.));
#1353=DIRECTION('',(-1.,0.,0.));
#1354=DIRECTION('',(0.,0.,-1.));
#1355=DIRECTION('',(-1.,0.,0.));
#1356=DIRECTION('',(0.,0.,1.));
#1357=DIRECTION('',(1.,0.,0.));
#1358=DIRECTION('',(0.,0.,-1.));
#1359=DIRECTION('',(-1.,0.,0.));
#1360=DIRECTION('',(0.,0.,1.));
#1361=DIRECTION('',(1.,0.,0.));
#1362=DIRECTION('',(0.,0.,-1.));
#1363=DIRECTION('',(-1.,0.,0.));
#1364=DIRECTION('',(0.,0.,1.));
#1365=DIRECTION('',(1.,0.,0.));
#1366=DIRECTION('',(0.,0.,-1.));
#1367=DIRECTION('',(-1.,0.,0.));
#1368=DIRECTION('',(0.,0.,-1.));
#1369=DIRECTION('',(-1.,0.,0.));
#1370=DIRECTION('',(0.,0.,-1.));
#1371=DIRECTION('',(-1.,0.,0.));
#1372=DIRECTION('',(0.,0.,-1.));
#1373=DIRECTION('',(-1.,0.,0.));
#1374=DIRECTION('',(0.,0.,1.));
#1375=DIRECTION('',(1.,0.,0.));
#1376=DIRECTION('',(0.,0.,-1.));
#1377=DIRECTION('',(-1.,0.,0.));
#1378=DIRECTION('',(0.,0.,-1.));
#1379=DIRECTION('',(-1.,0.,0.));
#1380=DIRECTION('',(0.,0.,-1.));
#1381=DIRECTION('',(-1.,0.,0.));
#1382=DIRECTION('',(0.,0.,-1.));
#1383=DIRECTION('',(1.,0.,0.));
#1384=DIRECTION('',(0.,0.,1.));
#1385=DIRECTION('',(1.,0.,0.));
#1386=DIRECTION('',(0.,0.,-1.));
#1387=DIRECTION('',(-1.,0.,0.));
#1388=DIRECTION('',(0.,0.,-1.));
#1389=DIRECTION('',(0.,0.,1.));
#1390=DIRECTION('',(1.,0.,0.));
#1391=DIRECTION('',(0.,0.,-1.));
#1392=DIRECTION('',(0.,0.,1.));
#1393=DIRECTION('',(1.,0.,0.));
#1394=DIRECTION('',(0.,0.,-1.));
#1395=DIRECTION('',(-1.,0.,0.));
#1396=DIRECTION('',(0.,0.,1.));
#1397=DIRECTION('',(1.,0.,0.));
#1398=DIRECTION('',(0.,0.,1.));
#1399=DIRECTION('',(1.,0.,0.));
#1400=DIRECTION('',(0.,0.,1.));
#1401=DIRECTION('',(1.,0.,0.));
#1402=DIRECTION('',(-1.,-5.78241158658936E-16,0.));
#1403=DIRECTION('',(0.707106781186548,-0.707106781186547,0.));
#1404=DIRECTION('',(-0.707106781186548,-0.707106781186548,0.));
#1405=DIRECTION('',(0.,0.,1.));
#1406=DIRECTION('',(1.,0.,0.));
#1407=DIRECTION('',(-0.707106781186548,0.707106781186547,0.));
#1408=DIRECTION('',(1.,6.93889390390723E-16,0.));
#1409=DIRECTION('',(-0.707106781186548,-0.707106781186548,0.));
#1410=DIRECTION('',(-5.78241158658936E-16,1.,0.));
#1411=DIRECTION('',(-1.,-5.78241158658936E-16,0.));
#1412=DIRECTION('',(0.,0.,-1.));
#1413=DIRECTION('',(0.,0.,-1.));
#1414=DIRECTION('',(1.,5.78241158658936E-16,0.));
#1415=DIRECTION('',(0.707106781186548,-0.707106781186548,0.));
#1416=DIRECTION('',(0.707106781186548,0.707106781186548,0.));
#1417=DIRECTION('',(-0.707106781186548,-0.707106781186548,0.));
#1418=DIRECTION('',(0.,0.,-1.));
#1419=DIRECTION('',(-6.93889390390723E-16,1.,0.));
#1420=DIRECTION('',(-1.,-6.93889390390723E-16,0.));
#1421=DIRECTION('',(1.,6.93889390390723E-16,0.));
#1422=DIRECTION('',(0.,0.,-1.));
#1423=DIRECTION('',(-0.707106781186547,-0.707106781186548,0.));
#1424=DIRECTION('',(0.707106781186548,-0.707106781186547,0.));
#1425=DIRECTION('',(-0.707106781186548,0.707106781186547,0.));
#1426=DIRECTION('',(0.,0.,1.));
#1427=DIRECTION('',(1.,0.,0.));
#1428=CARTESIAN_POINT('',(0.,0.,0.));
#1429=CARTESIAN_POINT('',(0.,0.,0.066));
#1430=CARTESIAN_POINT('',(3.46944695195361E-18,-0.0280052167996739,0.066));
#1431=CARTESIAN_POINT('',(-0.004,-0.0280052167996739,0.066));
#1432=CARTESIAN_POINT('',(0.004,-0.0280052167996739,0.066));
#1433=CARTESIAN_POINT('',(0.004,1.38777878078144E-18,0.066));
#1434=CARTESIAN_POINT('',(0.004,-0.0250052167996739,0.066));
#1435=CARTESIAN_POINT('',(3.46944695195361E-18,-0.0250052167996739,0.066));
#1436=CARTESIAN_POINT('',(-0.004,-0.0250052167996739,0.066));
#1437=CARTESIAN_POINT('',(-0.004,-0.0280052167996739,0.066));
#1438=CARTESIAN_POINT('',(0.,0.,0.066));
#1439=CARTESIAN_POINT('',(-0.0055,-0.023005216799674,0.066));
#1440=CARTESIAN_POINT('',(-0.004,-0.023005216799674,0.066));
#1441=CARTESIAN_POINT('',(-0.003,-0.023005216799674,0.066));
#1442=CARTESIAN_POINT('',(-0.004,-0.0280052167996739,0.066));
#1443=CARTESIAN_POINT('',(-0.004,-0.0240052167996739,0.066));
#1444=CARTESIAN_POINT('',(-0.004,-0.0240052167996739,0.066));
#1445=CARTESIAN_POINT('',(0.,0.,0.054));
#1446=CARTESIAN_POINT('',(0.0055,-0.023005216799674,0.054));
#1447=CARTESIAN_POINT('',(0.003,-0.023005216799674,0.054));
#1448=CARTESIAN_POINT('',(0.004,-0.023005216799674,0.054));
#1449=CARTESIAN_POINT('',(0.004,-0.0280052167996739,0.054));
#1450=CARTESIAN_POINT('',(0.004,-0.0240052167996739,0.054));
#1451=CARTESIAN_POINT('',(0.004,-0.0240052167996739,0.054));
#1452=CARTESIAN_POINT('',(0.,0.,0.054));
#1453=CARTESIAN_POINT('',(3.46944695195361E-18,-0.0250052167996739,0.054));
#1454=CARTESIAN_POINT('',(-0.004,-0.0250052167996739,0.054));
#1455=CARTESIAN_POINT('',(0.004,-0.0250052167996739,0.054));
#1456=CARTESIAN_POINT('',(0.004,-0.0280052167996739,0.054));
#1457=CARTESIAN_POINT('',(0.004,-0.0280052167996739,0.054));
#1458=CARTESIAN_POINT('',(3.46944695195361E-18,-0.0280052167996739,0.054));
#1459=CARTESIAN_POINT('',(-0.004,-0.0280052167996739,0.054));
#1460=CARTESIAN_POINT('',(-0.004,-1.38777878078145E-18,0.054));
#1461=CARTESIAN_POINT('',(-0.008,-0.0255052167996739,0.066));
#1462=CARTESIAN_POINT('',(-0.008,-0.023005216799674,0.066));
#1463=CARTESIAN_POINT('',(-0.008,-0.023005216799674,0.062));
#1464=CARTESIAN_POINT('',(-0.008,-0.023005216799674,0.058));
#1465=CARTESIAN_POINT('',(-0.008,-0.0255052167996739,0.058));
#1466=CARTESIAN_POINT('',(-0.008,-0.0280052167996739,0.058));
#1467=CARTESIAN_POINT('',(-0.008,-0.0280052167996739,0.066));
#1468=CARTESIAN_POINT('',(-0.008,-0.0280052167996739,0.062));
#1469=CARTESIAN_POINT('',(-0.008,-0.023005216799674,0.062));
#1470=CARTESIAN_POINT('',(3.46944695195361E-18,-0.0280052167996739,0.066));
#1471=CARTESIAN_POINT('',(0.004,-0.0280052167996739,0.058));
#1472=CARTESIAN_POINT('',(0.004,-0.0280052167996739,0.0573));
#1473=CARTESIAN_POINT('',(0.0047,-0.0280052167996739,0.058));
#1474=CARTESIAN_POINT('',(4.33680868994202E-18,-0.0280052167996739,0.0573));
#1475=CARTESIAN_POINT('',(-0.004,-0.0280052167996739,0.0573));
#1476=CARTESIAN_POINT('',(-0.004,-0.0280052167996739,0.058));
#1477=CARTESIAN_POINT('',(-0.0047,-0.0280052167996739,0.058));
#1478=CARTESIAN_POINT('',(-0.0047,-0.0280052167996739,0.06));
#1479=CARTESIAN_POINT('',(-0.0047,-0.0280052167996739,0.062));
#1480=CARTESIAN_POINT('',(-0.004,-0.0280052167996739,0.062));
#1481=CARTESIAN_POINT('',(-0.004,-0.0280052167996739,0.0627));
#1482=CARTESIAN_POINT('',(3.46944695195361E-18,-0.0280052167996739,0.0627));
#1483=CARTESIAN_POINT('',(0.004,-0.0280052167996739,0.0627));
#1484=CARTESIAN_POINT('',(0.004,-0.0280052167996739,0.062));
#1485=CARTESIAN_POINT('',(0.0047,-0.0280052167996739,0.062));
#1486=CARTESIAN_POINT('',(0.0047,-0.0280052167996739,0.06));
#1487=CARTESIAN_POINT('',(0.004,-0.0280052167996739,0.058));
#1488=CARTESIAN_POINT('',(0.008,-0.0280052167996739,0.058));
#1489=CARTESIAN_POINT('',(0.008,-0.0280052167996739,0.066));
#1490=CARTESIAN_POINT('',(0.008,-0.0280052167996739,0.062));
#1491=CARTESIAN_POINT('',(0.004,-0.0280052167996739,0.062));
#1492=CARTESIAN_POINT('',(-0.004,-0.0280052167996739,0.062));
#1493=CARTESIAN_POINT('',(-0.004,-0.0280052167996739,0.058));
#1494=CARTESIAN_POINT('',(0.008,-0.0255052167996739,0.066));
#1495=CARTESIAN_POINT('',(0.008,-0.023005216799674,0.058));
#1496=CARTESIAN_POINT('',(0.008,-0.023005216799674,0.058));
#1497=CARTESIAN_POINT('',(0.008,-0.023005216799674,0.066));
#1498=CARTESIAN_POINT('',(0.008,-0.023005216799674,0.062));
#1499=CARTESIAN_POINT('',(0.008,-0.0255052167996739,0.062));
#1500=CARTESIAN_POINT('',(0.0055,-0.023005216799674,0.066));
#1501=CARTESIAN_POINT('',(0.0055,-0.023005216799674,0.0573));
#1502=CARTESIAN_POINT('',(0.004,-0.023005216799674,0.0573));
#1503=CARTESIAN_POINT('',(0.003,-0.023005216799674,0.0573));
#1504=CARTESIAN_POINT('',(0.004,-0.023005216799674,0.058));
#1505=CARTESIAN_POINT('',(0.0047,-0.023005216799674,0.058));
#1506=CARTESIAN_POINT('',(0.0047,-0.023005216799674,0.066));
#1507=CARTESIAN_POINT('',(0.0047,-0.023005216799674,0.062));
#1508=CARTESIAN_POINT('',(0.004,-0.023005216799674,0.062));
#1509=CARTESIAN_POINT('',(0.004,-0.023005216799674,0.0627));
#1510=CARTESIAN_POINT('',(0.0055,-0.023005216799674,0.0627));
#1511=CARTESIAN_POINT('',(0.003,-0.023005216799674,0.0627));
#1512=CARTESIAN_POINT('',(0.003,-0.023005216799674,0.066));
#1513=CARTESIAN_POINT('',(0.003,-0.023005216799674,0.066));
#1514=CARTESIAN_POINT('',(0.0055,-0.023005216799674,0.066));
#1515=CARTESIAN_POINT('',(0.004,-0.023005216799674,0.066));
#1516=CARTESIAN_POINT('',(0.004,-0.023005216799674,0.062));
#1517=CARTESIAN_POINT('',(0.004,-0.023005216799674,0.058));
#1518=CARTESIAN_POINT('',(0.003,-0.023005216799674,0.066));
#1519=CARTESIAN_POINT('',(0.004,-0.0240052167996739,0.066));
#1520=CARTESIAN_POINT('',(0.004,-0.0240052167996739,0.0573));
#1521=CARTESIAN_POINT('',(0.004,-0.0240052167996739,0.0573));
#1522=CARTESIAN_POINT('',(0.004,-0.0240052167996739,0.058));
#1523=CARTESIAN_POINT('',(0.005,-0.0250052167996739,0.0541270166537926));
#1524=CARTESIAN_POINT('',(0.005,-0.0250052167996739,0.066));
#1525=CARTESIAN_POINT('',(0.005,-0.0250052167996739,0.0658729833462074));
#1526=CARTESIAN_POINT('',(0.004,-0.0240052167996739,0.062));
#1527=CARTESIAN_POINT('',(0.004,-0.0240052167996739,0.066));
#1528=CARTESIAN_POINT('',(0.004,-0.0240052167996739,0.066));
#1529=CARTESIAN_POINT('',(0.004,-0.0240052167996739,0.0627));
#1530=CARTESIAN_POINT('',(0.004,-0.0240052167996739,0.0627));
#1531=CARTESIAN_POINT('',(0.004,-0.0240052167996739,0.062));
#1532=CARTESIAN_POINT('',(0.0047,-0.024705216799674,0.062));
#1533=CARTESIAN_POINT('',(0.0047,-0.024705216799674,0.066));
#1534=CARTESIAN_POINT('',(0.0047,-0.024705216799674,0.058));
#1535=CARTESIAN_POINT('',(0.004,-0.0240052167996739,0.058));
#1536=CARTESIAN_POINT('',(3.46944695195361E-18,-0.0250052167996739,0.066));
#1537=CARTESIAN_POINT('',(3.46944695195361E-18,-0.0250052167996739,0.0573));
#1538=CARTESIAN_POINT('',(0.004,-0.0250052167996739,0.0573));
#1539=CARTESIAN_POINT('',(-0.004,-0.0250052167996739,0.0573));
#1540=CARTESIAN_POINT('',(0.004,-0.0250052167996739,0.058));
#1541=CARTESIAN_POINT('',(0.0047,-0.0250052167996739,0.058));
#1542=CARTESIAN_POINT('',(0.0047,-0.0250052167996739,0.066));
#1543=CARTESIAN_POINT('',(0.0047,-0.0250052167996739,0.062));
#1544=CARTESIAN_POINT('',(0.004,-0.0250052167996739,0.062));
#1545=CARTESIAN_POINT('',(0.004,-0.0250052167996739,0.0627));
#1546=CARTESIAN_POINT('',(3.46944695195361E-18,-0.0250052167996739,0.0627));
#1547=CARTESIAN_POINT('',(-0.004,-0.0250052167996739,0.0627));
#1548=CARTESIAN_POINT('',(-0.004,-0.0250052167996739,0.062));
#1549=CARTESIAN_POINT('',(-0.0047,-0.0250052167996739,0.062));
#1550=CARTESIAN_POINT('',(-0.0047,-0.0250052167996739,0.066));
#1551=CARTESIAN_POINT('',(-0.0047,-0.0250052167996739,0.058));
#1552=CARTESIAN_POINT('',(-0.004,-0.0250052167996739,0.058));
#1553=CARTESIAN_POINT('',(0.004,-0.0250052167996739,0.058));
#1554=CARTESIAN_POINT('',(-0.004,-0.0250052167996739,0.058));
#1555=CARTESIAN_POINT('',(-0.005,-0.0250052167996739,0.0541270166537926));
#1556=CARTESIAN_POINT('',(-0.005,-0.0250052167996739,0.066));
#1557=CARTESIAN_POINT('',(-0.005,-0.0250052167996739,0.0658729833462074));
#1558=CARTESIAN_POINT('',(-0.004,-0.0250052167996739,0.062));
#1559=CARTESIAN_POINT('',(0.004,-0.0250052167996739,0.062));
#1560=CARTESIAN_POINT('',(-0.004,-0.0240052167996739,0.066));
#1561=CARTESIAN_POINT('',(-0.004,-0.0240052167996739,0.0573));
#1562=CARTESIAN_POINT('',(-0.004,-0.0240052167996739,0.0573));
#1563=CARTESIAN_POINT('',(-0.003,-0.023005216799674,0.0573));
#1564=CARTESIAN_POINT('',(-0.004,-0.0240052167996739,0.058));
#1565=CARTESIAN_POINT('',(-0.0047,-0.024705216799674,0.058));
#1566=CARTESIAN_POINT('',(-0.0047,-0.024705216799674,0.066));
#1567=CARTESIAN_POINT('',(-0.0047,-0.024705216799674,0.062));
#1568=CARTESIAN_POINT('',(-0.004,-0.0240052167996739,0.062));
#1569=CARTESIAN_POINT('',(-0.004,-0.0240052167996739,0.0627));
#1570=CARTESIAN_POINT('',(-0.004,-0.0240052167996739,0.0627));
#1571=CARTESIAN_POINT('',(-0.003,-0.023005216799674,0.0627));
#1572=CARTESIAN_POINT('',(-0.003,-0.023005216799674,0.066));
#1573=CARTESIAN_POINT('',(-0.004,-0.0240052167996739,0.062));
#1574=CARTESIAN_POINT('',(-0.004,-0.0240052167996739,0.058));
#1575=CARTESIAN_POINT('',(-0.004,-0.0240052167996739,0.054));
#1576=CARTESIAN_POINT('',(-0.004,-0.0240052167996739,0.054));
#1577=CARTESIAN_POINT('',(-0.003,-0.023005216799674,0.054));
#1578=CARTESIAN_POINT('',(-0.003,-0.023005216799674,0.066));
#1579=CARTESIAN_POINT('',(-0.0055,-0.023005216799674,0.066));
#1580=CARTESIAN_POINT('',(-0.0055,-0.023005216799674,0.0573));
#1581=CARTESIAN_POINT('',(-0.004,-0.023005216799674,0.0573));
#1582=CARTESIAN_POINT('',(-0.0055,-0.023005216799674,0.054));
#1583=CARTESIAN_POINT('',(-0.004,-0.023005216799674,0.054));
#1584=CARTESIAN_POINT('',(-0.004,-0.023005216799674,0.058));
#1585=CARTESIAN_POINT('',(-0.004,-0.023005216799674,0.062));
#1586=CARTESIAN_POINT('',(-0.0055,-0.023005216799674,0.0627));
#1587=CARTESIAN_POINT('',(-0.004,-0.023005216799674,0.0627));
#1588=CARTESIAN_POINT('',(-0.004,-0.023005216799674,0.062));
#1589=CARTESIAN_POINT('',(-0.0047,-0.023005216799674,0.062));
#1590=CARTESIAN_POINT('',(-0.0047,-0.023005216799674,0.066));
#1591=CARTESIAN_POINT('',(-0.0047,-0.023005216799674,0.058));
#1592=CARTESIAN_POINT('',(-0.004,-0.023005216799674,0.058));
#1593=CARTESIAN_POINT('',(0.,0.,0.066));
#1594=CARTESIAN_POINT('',(0.004,1.38777878078144E-18,0.066));
#1595=CARTESIAN_POINT('',(0.,0.,0.054));
#1596=CARTESIAN_POINT('',(-0.004,-1.38777878078145E-18,0.054));
#1597=CARTESIAN_POINT('',(0.004,1.38777878078144E-18,0.058));
#1598=CARTESIAN_POINT('',(0.004,-0.0255052167996739,0.062));
#1599=CARTESIAN_POINT('',(-0.004,-0.0255052167996739,0.058));
#1600=CARTESIAN_POINT('',(-0.004,-1.38777878078145E-18,0.062));
#1601=CARTESIAN_POINT('',(-0.004,-0.0193052167996739,0.058));
#1602=CARTESIAN_POINT('',(-0.004,-0.0193052167996739,0.0573));
#1603=CARTESIAN_POINT('',(-0.0047,-0.0193052167996739,0.058));
#1604=CARTESIAN_POINT('',(-0.0047,-0.0193052167996739,0.06));
#1605=CARTESIAN_POINT('',(-0.0047,-0.0193052167996739,0.062));
#1606=CARTESIAN_POINT('',(-0.004,-0.0193052167996739,0.062));
#1607=CARTESIAN_POINT('',(-0.004,-0.0193052167996739,0.0627));
#1608=CARTESIAN_POINT('',(-3.03576608295942E-19,-0.0193052167996739,0.0627));
#1609=CARTESIAN_POINT('',(5.63785129692461E-19,-0.0193052167996739,0.0573));
#1610=CARTESIAN_POINT('',(-0.004,-0.0193052167996739,0.058));
#1611=CARTESIAN_POINT('',(-0.0047,-0.0193052167996739,0.058));
#1612=CARTESIAN_POINT('',(-0.004,-0.0193052167996739,0.0573));
#1613=CARTESIAN_POINT('',(-0.0047,-0.0193052167996739,0.06));
#1614=CARTESIAN_POINT('',(-0.0047,-0.0193052167996739,0.062));
#1615=CARTESIAN_POINT('',(-0.004,-0.0193052167996739,0.062));
#1616=CARTESIAN_POINT('',(-0.004,-0.0193052167996739,0.0627));
#1617=CARTESIAN_POINT('',(-3.03576608295942E-19,-0.0193052167996739,0.0627));
#1618=CARTESIAN_POINT('',(0.004,-0.0193052167996739,0.0627));
#1619=CARTESIAN_POINT('',(0.004,-0.0193052167996739,0.062));
#1620=CARTESIAN_POINT('',(0.0047,-0.0193052167996739,0.062));
#1621=CARTESIAN_POINT('',(0.0047,-0.0193052167996739,0.06));
#1622=CARTESIAN_POINT('',(0.0047,-0.0193052167996739,0.058));
#1623=CARTESIAN_POINT('',(0.004,-0.0193052167996739,0.058));
#1624=CARTESIAN_POINT('',(0.004,-0.0193052167996739,0.0573));
#1625=CARTESIAN_POINT('',(5.63785129692461E-19,-0.0193052167996739,0.0573));
#1626=CARTESIAN_POINT('',(0.004,-0.0193052167996739,0.058));
#1627=CARTESIAN_POINT('',(0.004,-0.0193052167996739,0.0573));
#1628=CARTESIAN_POINT('',(0.0047,-0.0193052167996739,0.058));
#1629=CARTESIAN_POINT('',(0.0047,-0.0193052167996739,0.06));
#1630=CARTESIAN_POINT('',(0.0047,-0.0193052167996739,0.062));
#1631=CARTESIAN_POINT('',(0.004,-0.0193052167996739,0.062));
#1632=CARTESIAN_POINT('',(0.004,-0.0193052167996739,0.0627));
#1633=CARTESIAN_POINT('',(5.63785129692461E-19,-0.0193052167996739,0.0573));
#1634=CARTESIAN_POINT('',(-3.03576608295942E-19,-0.0193052167996739,0.0627));
#1635=CARTESIAN_POINT('',(0.,0.,0.));
#1636=CARTESIAN_POINT('',(0.,0.,0.0625));
#1637=CARTESIAN_POINT('',(0.,0.,0.054));
#1638=CARTESIAN_POINT('',(-0.021,0.,0.054));
#1639=CARTESIAN_POINT('',(0.,0.,0.064));
#1640=CARTESIAN_POINT('',(-0.021,0.,0.064));
#1641=CARTESIAN_POINT('',(0.,0.,0.0644));
#1642=CARTESIAN_POINT('',(0.,0.,0.0648));
#1643=CARTESIAN_POINT('',(-0.021,0.,0.0648));
#1644=CARTESIAN_POINT('',(0.,0.,0.0625));
#1645=CARTESIAN_POINT('',(0.,0.,0.071));
#1646=CARTESIAN_POINT('',(-0.021,0.,0.071));
#1647=CARTESIAN_POINT('',(0.0105,0.,0.077));
#1648=CARTESIAN_POINT('',(0.,0.,0.077));
#1649=CARTESIAN_POINT('',(-0.015,0.,0.077));
#1650=CARTESIAN_POINT('',(0.0248236904864083,0.,0.048));
#1651=CARTESIAN_POINT('',(0.,-6.73555739531045E-19,0.048));
#1652=CARTESIAN_POINT('',(-0.001,-6.73555739531045E-19,0.048));
#1653=CARTESIAN_POINT('',(0.,0.,0.048));
#1654=CARTESIAN_POINT('',(0.028,0.,0.048));
#1655=CARTESIAN_POINT('',(0.,0.,0.0625));
#1656=CARTESIAN_POINT('',(0.,0.,0.049));
#1657=CARTESIAN_POINT('',(0.029,0.,0.049));
#1658=CARTESIAN_POINT('',(0.,0.,0.053));
#1659=CARTESIAN_POINT('',(-0.029,0.,0.053));
#1660=CARTESIAN_POINT('',(0.025,0.,0.054));
#1661=CARTESIAN_POINT('',(0.,0.,0.054));
#1662=CARTESIAN_POINT('',(-0.028,0.,0.054));
#1663=CARTESIAN_POINT('',(0.,0.,0.071));
#1664=CARTESIAN_POINT('',(0.,0.,0.049));
#1665=CARTESIAN_POINT('',(0.,0.,0.053));
#1666=CARTESIAN_POINT('',(0.,-6.73555739531045E-19,0.056));
#1667=CARTESIAN_POINT('',(0.,-6.73555739531045E-19,0.056));
#1668=CARTESIAN_POINT('',(-0.001,-6.73555739531045E-19,0.056));
#1669=CARTESIAN_POINT('',(0.,0.,0.056));
#1670=CARTESIAN_POINT('',(0.,0.,0.));
#1671=CARTESIAN_POINT('',(0.,1.42059028701093E-18,0.064));
#1672=CARTESIAN_POINT('',(-0.00287458587820216,-0.0230212240341134,0.064));
#1673=CARTESIAN_POINT('',(-0.00287458587820216,-0.0230212240341134,0.064));
#1674=CARTESIAN_POINT('',(-0.00287458587820216,-0.0230212240341134,0.054));
#1675=CARTESIAN_POINT('',(0.,1.42059028701093E-18,0.064));
#1676=CARTESIAN_POINT('',(0.00287458587820216,-0.0230212240341134,0.064));
#1677=CARTESIAN_POINT('',(0.00287458587820216,-0.0230212240341134,0.064));
#1678=CARTESIAN_POINT('',(0.00287458587820216,-0.0230212240341134,0.054));
#1679=CARTESIAN_POINT('',(0.,1.42059028701093E-18,0.054));
#1680=CARTESIAN_POINT('',(0.,1.29812560709619E-18,0.064));
#1681=CARTESIAN_POINT('',(0.,1.29812560709619E-18,0.064));
#1682=CARTESIAN_POINT('',(0.0212,1.29812560709619E-18,0.064));
#1683=CARTESIAN_POINT('',(0.,1.29812560709619E-18,0.054));
#1684=CARTESIAN_POINT('',(0.0212,1.29812560709619E-18,0.054));
#1685=CARTESIAN_POINT('',(0.,0.,0.064));
#1686=CARTESIAN_POINT('',(1.33025632174435E-17,-0.023005216799674,0.064));
#1687=CARTESIAN_POINT('',(0.00285857864376269,-0.023005216799674,0.064));
#1688=CARTESIAN_POINT('',(-0.00285857864376269,-0.023005216799674,0.064));
#1689=CARTESIAN_POINT('',(-0.0100733190779556,-0.0100733190779556,0.064));
#1690=CARTESIAN_POINT('',(-0.00392928932188134,-0.0240759274777926,0.064));
#1691=CARTESIAN_POINT('',(0.,0.,0.054));
#1692=CARTESIAN_POINT('',(0.00392928932188135,-0.0240759274777926,0.054));
#1693=CARTESIAN_POINT('',(0.00475857864376269,-0.0249052167996739,0.054));
#1694=CARTESIAN_POINT('',(3.40005801291454E-18,-0.0249052167996739,0.054));
#1695=CARTESIAN_POINT('',(-0.00475857864376269,-0.0249052167996739,0.054));
#1696=CARTESIAN_POINT('',(-0.00392928932188134,-0.0240759274777926,0.054));
#1697=CARTESIAN_POINT('',(8.67361737988404E-19,-0.023005216799674,0.066002));
#1698=CARTESIAN_POINT('',(0.00285857864376269,-0.023005216799674,0.066002));
#1699=CARTESIAN_POINT('',(0.00285857864376269,-0.023005216799674,0.066));
#1700=CARTESIAN_POINT('',(-0.00285857864376269,-0.023005216799674,0.066002));
#1701=CARTESIAN_POINT('',(-0.00285857864376269,-0.023005216799674,0.066));
#1702=CARTESIAN_POINT('',(8.67361737988404E-19,-0.023005216799674,0.066));
#1703=CARTESIAN_POINT('',(-0.00392928932188134,-0.0240759274777926,0.066002));
#1704=CARTESIAN_POINT('',(-0.00392928932188134,-0.0240759274777926,0.066));
#1705=CARTESIAN_POINT('',(-0.00475857864376269,-0.0249052167996739,0.066));
#1706=CARTESIAN_POINT('',(-0.00475857864376269,-0.0249052167996739,0.066002));
#1707=CARTESIAN_POINT('',(3.40005801291454E-18,-0.0249052167996739,0.066002));
#1708=CARTESIAN_POINT('',(3.40005801291454E-18,-0.0249052167996739,0.066));
#1709=CARTESIAN_POINT('',(0.00475857864376269,-0.0249052167996739,0.066));
#1710=CARTESIAN_POINT('',(0.00475857864376269,-0.0249052167996739,0.066002));
#1711=CARTESIAN_POINT('',(0.00392928932188135,-0.0240759274777926,0.066002));
#1712=CARTESIAN_POINT('',(0.00392928932188135,-0.0240759274777926,0.066));
#1713=CARTESIAN_POINT('',(0.,0.,0.066));
#1714=MECHANICAL_DESIGN_GEOMETRIC_PRESENTATION_REPRESENTATION('',(#989),
#1717);
#1715=MECHANICAL_DESIGN_GEOMETRIC_PRESENTATION_REPRESENTATION('',(#990),
#1718);
#1716=MECHANICAL_DESIGN_GEOMETRIC_PRESENTATION_REPRESENTATION('',(#991),
#1719);
#1717=(
GEOMETRIC_REPRESENTATION_CONTEXT(3)
GLOBAL_UNCERTAINTY_ASSIGNED_CONTEXT((#1720))
GLOBAL_UNIT_ASSIGNED_CONTEXT((#1729,#1726,#1723))
REPRESENTATION_CONTEXT('buckle','TOP_LEVEL_ASSEMBLY_PART')
);
#1718=(
GEOMETRIC_REPRESENTATION_CONTEXT(3)
GLOBAL_UNCERTAINTY_ASSIGNED_CONTEXT((#1721))
GLOBAL_UNIT_ASSIGNED_CONTEXT((#1730,#1727,#1724))
REPRESENTATION_CONTEXT('irish','TOP_LEVEL_ASSEMBLY_PART')
);
#1719=(
GEOMETRIC_REPRESENTATION_CONTEXT(3)
GLOBAL_UNCERTAINTY_ASSIGNED_CONTEXT((#1722))
GLOBAL_UNIT_ASSIGNED_CONTEXT((#1731,#1728,#1725))
REPRESENTATION_CONTEXT('belt','TOP_LEVEL_ASSEMBLY_PART')
);
#1720=UNCERTAINTY_MEASURE_WITH_UNIT(LENGTH_MEASURE(1.E-8),#1729,
'DISTANCE_ACCURACY_VALUE','Maximum Tolerance applied to model');
#1721=UNCERTAINTY_MEASURE_WITH_UNIT(LENGTH_MEASURE(1.E-8),#1730,
'DISTANCE_ACCURACY_VALUE','Maximum Tolerance applied to model');
#1722=UNCERTAINTY_MEASURE_WITH_UNIT(LENGTH_MEASURE(1.E-8),#1731,
'DISTANCE_ACCURACY_VALUE','Maximum Tolerance applied to model');
#1723=(
NAMED_UNIT(*)
SI_UNIT($,.STERADIAN.)
SOLID_ANGLE_UNIT()
);
#1724=(
NAMED_UNIT(*)
SI_UNIT($,.STERADIAN.)
SOLID_ANGLE_UNIT()
);
#1725=(
NAMED_UNIT(*)
SI_UNIT($,.STERADIAN.)
SOLID_ANGLE_UNIT()
);
#1726=(
NAMED_UNIT(*)
PLANE_ANGLE_UNIT()
SI_UNIT($,.RADIAN.)
);
#1727=(
NAMED_UNIT(*)
PLANE_ANGLE_UNIT()
SI_UNIT($,.RADIAN.)
);
#1728=(
NAMED_UNIT(*)
PLANE_ANGLE_UNIT()
SI_UNIT($,.RADIAN.)
);
#1729=(
LENGTH_UNIT()
NAMED_UNIT(*)
SI_UNIT($,.METRE.)
);
#1730=(
LENGTH_UNIT()
NAMED_UNIT(*)
SI_UNIT($,.METRE.)
);
#1731=(
LENGTH_UNIT()
NAMED_UNIT(*)
SI_UNIT($,.METRE.)
);
#1732=PRODUCT_DEFINITION_SHAPE('','',#1735);
#1733=PRODUCT_DEFINITION_SHAPE('','',#1736);
#1734=PRODUCT_DEFINITION_SHAPE('','',#1737);
#1735=PRODUCT_DEFINITION('','',#1741,#1738);
#1736=PRODUCT_DEFINITION('','',#1742,#1739);
#1737=PRODUCT_DEFINITION('','',#1743,#1740);
#1738=PRODUCT_DEFINITION_CONTEXT('',#1759,'design');
#1739=PRODUCT_DEFINITION_CONTEXT('',#1760,'design');
#1740=PRODUCT_DEFINITION_CONTEXT('',#1761,'design');
#1741=PRODUCT_DEFINITION_FORMATION_WITH_SPECIFIED_SOURCE('','',#1747,
 .NOT_KNOWN.);
#1742=PRODUCT_DEFINITION_FORMATION_WITH_SPECIFIED_SOURCE('','',#1748,
 .NOT_KNOWN.);
#1743=PRODUCT_DEFINITION_FORMATION_WITH_SPECIFIED_SOURCE('','',#1749,
 .NOT_KNOWN.);
#1744=PRODUCT_RELATED_PRODUCT_CATEGORY('','',(#1747));
#1745=PRODUCT_RELATED_PRODUCT_CATEGORY('','',(#1748));
#1746=PRODUCT_RELATED_PRODUCT_CATEGORY('','',(#1749));
#1747=PRODUCT('buckle','buckle','buckle',(#1753));
#1748=PRODUCT('irish','irish','irish',(#1754));
#1749=PRODUCT('belt','belt','belt',(#1755));
#1750=PRODUCT_CATEGORY('','');
#1751=PRODUCT_CATEGORY('','');
#1752=PRODUCT_CATEGORY('','');
#1753=PRODUCT_CONTEXT('',#1759,'mechanical');
#1754=PRODUCT_CONTEXT('',#1760,'mechanical');
#1755=PRODUCT_CONTEXT('',#1761,'mechanical');
#1756=APPLICATION_PROTOCOL_DEFINITION('international standard',
'ap242_managed_model_based_3d_engineering',2020,#1759);
#1757=APPLICATION_PROTOCOL_DEFINITION('international standard',
'ap242_managed_model_based_3d_engineering',2020,#1760);
#1758=APPLICATION_PROTOCOL_DEFINITION('international standard',
'ap242_managed_model_based_3d_engineering',2020,#1761);
#1759=APPLICATION_CONTEXT('managed model based 3d engineering');
#1760=APPLICATION_CONTEXT('managed model based 3d engineering');
#1761=APPLICATION_CONTEXT('managed model based 3d engineering');
ENDSEC;
END-ISO-10303-21;
