ISO-10303-21;
HEADER;
/* Generated by software containing ST-Developer
 * from STEP Tools, Inc. (www.steptools.com) 
 */
/* OPTION: using custom renumber hook */

FILE_DESCRIPTION(
/* description */ ('STEP AP242',
'CAx-IF Rec.Pracs.---Representation and Presentation of Product Manufa
cturing Information (PMI)---4.0---2014-10-13',
'CAx-IF Rec.Pracs.---3D Tessellated Geometry---0.4---2014-09-14','2;1'),

/* implementation_level */ '2;1');

FILE_NAME(
/* name */ 'FULL assembly - Face ultrasonic',
/* time_stamp */ '2025-08-06T10:50:49Z',
/* author */ (''),
/* organization */ (''),
/* preprocessor_version */ 'ST-DEVELOPER v20',
/* originating_system */ 'ONSHAPE BY PTC INC, 1.201',
/* authorisation */ '  ');

FILE_SCHEMA (('AP242_MANAGED_MODEL_BASED_3D_ENGINEERING_MIM_LF { 1 0 10303 442 1 1 4 }'));
ENDSEC;

DATA;
#10=SHAPE_REPRESENTATION_RELATIONSHIP('','',#963,#11);
#11=ADVANCED_BREP_SHAPE_REPRESENTATION('',(#961),#1633);
#12=CONICAL_SURFACE('',#1002,0.00137642857142857,0.785398163397459);
#13=CONICAL_SURFACE('',#1006,0.00137642857142857,0.78539816339748);
#14=CONICAL_SURFACE('',#1014,0.000472857142857147,0.785398163397484);
#15=CONICAL_SURFACE('',#1017,0.000472857142857157,0.785398163397484);
#16=CONICAL_SURFACE('',#1020,0.000472857142857148,0.785398163397484);
#17=CONICAL_SURFACE('',#1023,0.000472857142857151,0.785398163397484);
#18=CONICAL_SURFACE('',#1045,0.000472857142857147,0.785398163397484);
#19=CONICAL_SURFACE('',#1047,0.00047285714285715,0.785398163397483);
#20=CONICAL_SURFACE('',#1049,0.000472857142857146,0.785398163397484);
#21=CONICAL_SURFACE('',#1051,0.000472857142857147,0.785398163397484);
#22=CYLINDRICAL_SURFACE('',#980,0.0025);
#23=CYLINDRICAL_SURFACE('',#988,0.0025);
#24=CYLINDRICAL_SURFACE('',#990,0.0025);
#25=CYLINDRICAL_SURFACE('',#998,0.0025);
#26=CYLINDRICAL_SURFACE('',#1000,0.00825);
#27=CYLINDRICAL_SURFACE('',#1004,0.00825);
#28=CYLINDRICAL_SURFACE('',#1009,0.0025);
#29=CYLINDRICAL_SURFACE('',#1012,0.0025);
#30=CYLINDRICAL_SURFACE('',#1040,0.0025);
#31=CYLINDRICAL_SURFACE('',#1043,0.0025);
#32=CYLINDRICAL_SURFACE('',#1056,0.000875);
#33=CYLINDRICAL_SURFACE('',#1060,0.0009);
#34=CYLINDRICAL_SURFACE('',#1064,0.0009);
#35=CYLINDRICAL_SURFACE('',#1068,0.000875);
#36=CIRCLE('',#975,0.00825);
#37=CIRCLE('',#976,0.00825);
#38=CIRCLE('',#977,0.00825);
#39=CIRCLE('',#978,0.00825);
#40=CIRCLE('',#981,0.0025);
#41=CIRCLE('',#982,0.0025);
#42=CIRCLE('',#985,0.0025);
#43=CIRCLE('',#986,0.0025);
#44=CIRCLE('',#987,0.0025);
#45=CIRCLE('',#989,0.0025);
#46=CIRCLE('',#991,0.0025);
#47=CIRCLE('',#992,0.0025);
#48=CIRCLE('',#995,0.0025);
#49=CIRCLE('',#996,0.0025);
#50=CIRCLE('',#997,0.0025);
#51=CIRCLE('',#999,0.0025);
#52=CIRCLE('',#1001,0.00825);
#53=CIRCLE('',#1003,0.00865);
#54=CIRCLE('',#1005,0.00825);
#55=CIRCLE('',#1007,0.00865);
#56=CIRCLE('',#1010,0.0025);
#57=CIRCLE('',#1013,0.0025);
#58=CIRCLE('',#1015,0.0029);
#59=CIRCLE('',#1018,0.0029);
#60=CIRCLE('',#1021,0.0029);
#61=CIRCLE('',#1024,0.0029);
#62=CIRCLE('',#1027,0.0029);
#63=CIRCLE('',#1028,0.0029);
#64=CIRCLE('',#1029,0.0029);
#65=CIRCLE('',#1030,0.0029);
#66=CIRCLE('',#1031,0.000875);
#67=CIRCLE('',#1032,0.000875);
#68=CIRCLE('',#1033,0.0009);
#69=CIRCLE('',#1034,0.0009);
#70=CIRCLE('',#1035,0.0009);
#71=CIRCLE('',#1036,0.0009);
#72=CIRCLE('',#1037,0.000875);
#73=CIRCLE('',#1038,0.000875);
#74=CIRCLE('',#1041,0.0025);
#75=CIRCLE('',#1044,0.0025);
#76=CIRCLE('',#1054,0.000875);
#77=CIRCLE('',#1055,0.000875);
#78=CIRCLE('',#1058,0.0009);
#79=CIRCLE('',#1059,0.0009);
#80=CIRCLE('',#1062,0.0009);
#81=CIRCLE('',#1063,0.0009);
#82=CIRCLE('',#1066,0.000875);
#83=CIRCLE('',#1067,0.000875);
#84=ORIENTED_EDGE('',*,*,#340,.F.);
#85=ORIENTED_EDGE('',*,*,#341,.T.);
#86=ORIENTED_EDGE('',*,*,#342,.F.);
#87=ORIENTED_EDGE('',*,*,#343,.F.);
#88=ORIENTED_EDGE('',*,*,#344,.T.);
#89=ORIENTED_EDGE('',*,*,#345,.F.);
#90=ORIENTED_EDGE('',*,*,#346,.F.);
#91=ORIENTED_EDGE('',*,*,#347,.T.);
#92=ORIENTED_EDGE('',*,*,#348,.F.);
#93=ORIENTED_EDGE('',*,*,#349,.F.);
#94=ORIENTED_EDGE('',*,*,#347,.F.);
#95=ORIENTED_EDGE('',*,*,#350,.F.);
#96=ORIENTED_EDGE('',*,*,#351,.F.);
#97=ORIENTED_EDGE('',*,*,#350,.T.);
#98=ORIENTED_EDGE('',*,*,#346,.T.);
#99=ORIENTED_EDGE('',*,*,#352,.F.);
#100=ORIENTED_EDGE('',*,*,#353,.F.);
#101=ORIENTED_EDGE('',*,*,#354,.F.);
#102=ORIENTED_EDGE('',*,*,#344,.F.);
#103=ORIENTED_EDGE('',*,*,#355,.F.);
#104=ORIENTED_EDGE('',*,*,#356,.F.);
#105=ORIENTED_EDGE('',*,*,#355,.T.);
#106=ORIENTED_EDGE('',*,*,#343,.T.);
#107=ORIENTED_EDGE('',*,*,#357,.F.);
#108=ORIENTED_EDGE('',*,*,#358,.T.);
#109=ORIENTED_EDGE('',*,*,#359,.T.);
#110=ORIENTED_EDGE('',*,*,#360,.F.);
#111=ORIENTED_EDGE('',*,*,#361,.F.);
#112=ORIENTED_EDGE('',*,*,#362,.T.);
#113=ORIENTED_EDGE('',*,*,#363,.T.);
#114=ORIENTED_EDGE('',*,*,#364,.F.);
#115=ORIENTED_EDGE('',*,*,#365,.F.);
#116=ORIENTED_EDGE('',*,*,#366,.F.);
#117=ORIENTED_EDGE('',*,*,#357,.T.);
#118=ORIENTED_EDGE('',*,*,#342,.T.);
#119=ORIENTED_EDGE('',*,*,#367,.T.);
#120=ORIENTED_EDGE('',*,*,#368,.F.);
#121=ORIENTED_EDGE('',*,*,#348,.T.);
#122=ORIENTED_EDGE('',*,*,#351,.T.);
#123=ORIENTED_EDGE('',*,*,#369,.F.);
#124=ORIENTED_EDGE('',*,*,#353,.T.);
#125=ORIENTED_EDGE('',*,*,#356,.T.);
#126=ORIENTED_EDGE('',*,*,#366,.T.);
#127=ORIENTED_EDGE('',*,*,#370,.T.);
#128=ORIENTED_EDGE('',*,*,#371,.F.);
#129=ORIENTED_EDGE('',*,*,#372,.T.);
#130=ORIENTED_EDGE('',*,*,#373,.F.);
#131=ORIENTED_EDGE('',*,*,#374,.T.);
#132=ORIENTED_EDGE('',*,*,#370,.F.);
#133=ORIENTED_EDGE('',*,*,#367,.F.);
#134=ORIENTED_EDGE('',*,*,#341,.F.);
#135=ORIENTED_EDGE('',*,*,#375,.F.);
#136=ORIENTED_EDGE('',*,*,#340,.T.);
#137=ORIENTED_EDGE('',*,*,#349,.T.);
#138=ORIENTED_EDGE('',*,*,#368,.T.);
#139=ORIENTED_EDGE('',*,*,#375,.T.);
#140=ORIENTED_EDGE('',*,*,#364,.T.);
#141=ORIENTED_EDGE('',*,*,#376,.T.);
#142=ORIENTED_EDGE('',*,*,#377,.T.);
#143=ORIENTED_EDGE('',*,*,#378,.F.);
#144=ORIENTED_EDGE('',*,*,#379,.T.);
#145=ORIENTED_EDGE('',*,*,#380,.T.);
#146=ORIENTED_EDGE('',*,*,#381,.T.);
#147=ORIENTED_EDGE('',*,*,#382,.F.);
#148=ORIENTED_EDGE('',*,*,#380,.F.);
#149=ORIENTED_EDGE('',*,*,#383,.T.);
#150=ORIENTED_EDGE('',*,*,#384,.T.);
#151=ORIENTED_EDGE('',*,*,#385,.T.);
#152=ORIENTED_EDGE('',*,*,#386,.T.);
#153=ORIENTED_EDGE('',*,*,#376,.F.);
#154=ORIENTED_EDGE('',*,*,#363,.F.);
#155=ORIENTED_EDGE('',*,*,#387,.T.);
#156=ORIENTED_EDGE('',*,*,#381,.F.);
#157=ORIENTED_EDGE('',*,*,#387,.F.);
#158=ORIENTED_EDGE('',*,*,#362,.F.);
#159=ORIENTED_EDGE('',*,*,#388,.T.);
#160=ORIENTED_EDGE('',*,*,#360,.T.);
#161=ORIENTED_EDGE('',*,*,#389,.T.);
#162=ORIENTED_EDGE('',*,*,#390,.T.);
#163=ORIENTED_EDGE('',*,*,#391,.T.);
#164=ORIENTED_EDGE('',*,*,#390,.F.);
#165=ORIENTED_EDGE('',*,*,#392,.T.);
#166=ORIENTED_EDGE('',*,*,#393,.T.);
#167=ORIENTED_EDGE('',*,*,#394,.F.);
#168=ORIENTED_EDGE('',*,*,#392,.F.);
#169=ORIENTED_EDGE('',*,*,#389,.F.);
#170=ORIENTED_EDGE('',*,*,#359,.F.);
#171=ORIENTED_EDGE('',*,*,#395,.T.);
#172=ORIENTED_EDGE('',*,*,#396,.T.);
#173=ORIENTED_EDGE('',*,*,#397,.T.);
#174=ORIENTED_EDGE('',*,*,#398,.T.);
#175=ORIENTED_EDGE('',*,*,#399,.T.);
#176=ORIENTED_EDGE('',*,*,#393,.F.);
#177=ORIENTED_EDGE('',*,*,#399,.F.);
#178=ORIENTED_EDGE('',*,*,#400,.T.);
#179=ORIENTED_EDGE('',*,*,#401,.F.);
#180=ORIENTED_EDGE('',*,*,#402,.T.);
#181=ORIENTED_EDGE('',*,*,#374,.F.);
#182=ORIENTED_EDGE('',*,*,#373,.T.);
#183=ORIENTED_EDGE('',*,*,#403,.F.);
#184=ORIENTED_EDGE('',*,*,#402,.F.);
#185=ORIENTED_EDGE('',*,*,#372,.F.);
#186=ORIENTED_EDGE('',*,*,#371,.T.);
#187=ORIENTED_EDGE('',*,*,#404,.T.);
#188=ORIENTED_EDGE('',*,*,#405,.F.);
#189=ORIENTED_EDGE('',*,*,#404,.F.);
#190=ORIENTED_EDGE('',*,*,#400,.F.);
#191=ORIENTED_EDGE('',*,*,#398,.F.);
#192=ORIENTED_EDGE('',*,*,#406,.T.);
#193=ORIENTED_EDGE('',*,*,#407,.F.);
#194=ORIENTED_EDGE('',*,*,#406,.F.);
#195=ORIENTED_EDGE('',*,*,#397,.F.);
#196=ORIENTED_EDGE('',*,*,#408,.T.);
#197=ORIENTED_EDGE('',*,*,#409,.T.);
#198=ORIENTED_EDGE('',*,*,#408,.F.);
#199=ORIENTED_EDGE('',*,*,#396,.F.);
#200=ORIENTED_EDGE('',*,*,#410,.T.);
#201=ORIENTED_EDGE('',*,*,#411,.F.);
#202=ORIENTED_EDGE('',*,*,#410,.F.);
#203=ORIENTED_EDGE('',*,*,#395,.F.);
#204=ORIENTED_EDGE('',*,*,#358,.F.);
#205=ORIENTED_EDGE('',*,*,#412,.T.);
#206=ORIENTED_EDGE('',*,*,#401,.T.);
#207=ORIENTED_EDGE('',*,*,#413,.F.);
#208=ORIENTED_EDGE('',*,*,#414,.F.);
#209=ORIENTED_EDGE('',*,*,#415,.F.);
#210=ORIENTED_EDGE('',*,*,#415,.T.);
#211=ORIENTED_EDGE('',*,*,#416,.F.);
#212=ORIENTED_EDGE('',*,*,#417,.T.);
#213=ORIENTED_EDGE('',*,*,#394,.T.);
#214=ORIENTED_EDGE('',*,*,#391,.F.);
#215=ORIENTED_EDGE('',*,*,#417,.F.);
#216=ORIENTED_EDGE('',*,*,#418,.F.);
#217=ORIENTED_EDGE('',*,*,#419,.F.);
#218=ORIENTED_EDGE('',*,*,#419,.T.);
#219=ORIENTED_EDGE('',*,*,#420,.F.);
#220=ORIENTED_EDGE('',*,*,#421,.T.);
#221=ORIENTED_EDGE('',*,*,#361,.T.);
#222=ORIENTED_EDGE('',*,*,#412,.F.);
#223=ORIENTED_EDGE('',*,*,#421,.F.);
#224=ORIENTED_EDGE('',*,*,#422,.F.);
#225=ORIENTED_EDGE('',*,*,#423,.F.);
#226=ORIENTED_EDGE('',*,*,#423,.T.);
#227=ORIENTED_EDGE('',*,*,#424,.F.);
#228=ORIENTED_EDGE('',*,*,#425,.T.);
#229=ORIENTED_EDGE('',*,*,#411,.T.);
#230=ORIENTED_EDGE('',*,*,#409,.F.);
#231=ORIENTED_EDGE('',*,*,#425,.F.);
#232=ORIENTED_EDGE('',*,*,#426,.F.);
#233=ORIENTED_EDGE('',*,*,#427,.F.);
#234=ORIENTED_EDGE('',*,*,#427,.T.);
#235=ORIENTED_EDGE('',*,*,#428,.F.);
#236=ORIENTED_EDGE('',*,*,#413,.T.);
#237=ORIENTED_EDGE('',*,*,#407,.T.);
#238=ORIENTED_EDGE('',*,*,#429,.T.);
#239=ORIENTED_EDGE('',*,*,#430,.F.);
#240=ORIENTED_EDGE('',*,*,#431,.T.);
#241=ORIENTED_EDGE('',*,*,#432,.F.);
#242=ORIENTED_EDGE('',*,*,#433,.T.);
#243=ORIENTED_EDGE('',*,*,#434,.F.);
#244=ORIENTED_EDGE('',*,*,#435,.T.);
#245=ORIENTED_EDGE('',*,*,#436,.F.);
#246=ORIENTED_EDGE('',*,*,#405,.T.);
#247=ORIENTED_EDGE('',*,*,#403,.T.);
#248=ORIENTED_EDGE('',*,*,#414,.T.);
#249=ORIENTED_EDGE('',*,*,#428,.T.);
#250=ORIENTED_EDGE('',*,*,#426,.T.);
#251=ORIENTED_EDGE('',*,*,#424,.T.);
#252=ORIENTED_EDGE('',*,*,#422,.T.);
#253=ORIENTED_EDGE('',*,*,#420,.T.);
#254=ORIENTED_EDGE('',*,*,#418,.T.);
#255=ORIENTED_EDGE('',*,*,#416,.T.);
#256=ORIENTED_EDGE('',*,*,#437,.T.);
#257=ORIENTED_EDGE('',*,*,#438,.T.);
#258=ORIENTED_EDGE('',*,*,#439,.T.);
#259=ORIENTED_EDGE('',*,*,#440,.T.);
#260=ORIENTED_EDGE('',*,*,#441,.T.);
#261=ORIENTED_EDGE('',*,*,#442,.T.);
#262=ORIENTED_EDGE('',*,*,#443,.T.);
#263=ORIENTED_EDGE('',*,*,#444,.T.);
#264=ORIENTED_EDGE('',*,*,#369,.T.);
#265=ORIENTED_EDGE('',*,*,#352,.T.);
#266=ORIENTED_EDGE('',*,*,#345,.T.);
#267=ORIENTED_EDGE('',*,*,#354,.T.);
#268=ORIENTED_EDGE('',*,*,#377,.F.);
#269=ORIENTED_EDGE('',*,*,#386,.F.);
#270=ORIENTED_EDGE('',*,*,#445,.T.);
#271=ORIENTED_EDGE('',*,*,#446,.F.);
#272=ORIENTED_EDGE('',*,*,#445,.F.);
#273=ORIENTED_EDGE('',*,*,#385,.F.);
#274=ORIENTED_EDGE('',*,*,#447,.T.);
#275=ORIENTED_EDGE('',*,*,#448,.T.);
#276=ORIENTED_EDGE('',*,*,#447,.F.);
#277=ORIENTED_EDGE('',*,*,#384,.F.);
#278=ORIENTED_EDGE('',*,*,#449,.T.);
#279=ORIENTED_EDGE('',*,*,#450,.F.);
#280=ORIENTED_EDGE('',*,*,#449,.F.);
#281=ORIENTED_EDGE('',*,*,#383,.F.);
#282=ORIENTED_EDGE('',*,*,#379,.F.);
#283=ORIENTED_EDGE('',*,*,#451,.T.);
#284=ORIENTED_EDGE('',*,*,#378,.T.);
#285=ORIENTED_EDGE('',*,*,#452,.F.);
#286=ORIENTED_EDGE('',*,*,#429,.F.);
#287=ORIENTED_EDGE('',*,*,#453,.F.);
#288=ORIENTED_EDGE('',*,*,#453,.T.);
#289=ORIENTED_EDGE('',*,*,#436,.T.);
#290=ORIENTED_EDGE('',*,*,#454,.T.);
#291=ORIENTED_EDGE('',*,*,#365,.T.);
#292=ORIENTED_EDGE('',*,*,#388,.F.);
#293=ORIENTED_EDGE('',*,*,#454,.F.);
#294=ORIENTED_EDGE('',*,*,#435,.F.);
#295=ORIENTED_EDGE('',*,*,#455,.F.);
#296=ORIENTED_EDGE('',*,*,#455,.T.);
#297=ORIENTED_EDGE('',*,*,#434,.T.);
#298=ORIENTED_EDGE('',*,*,#456,.T.);
#299=ORIENTED_EDGE('',*,*,#382,.T.);
#300=ORIENTED_EDGE('',*,*,#451,.F.);
#301=ORIENTED_EDGE('',*,*,#456,.F.);
#302=ORIENTED_EDGE('',*,*,#433,.F.);
#303=ORIENTED_EDGE('',*,*,#457,.F.);
#304=ORIENTED_EDGE('',*,*,#457,.T.);
#305=ORIENTED_EDGE('',*,*,#432,.T.);
#306=ORIENTED_EDGE('',*,*,#458,.T.);
#307=ORIENTED_EDGE('',*,*,#450,.T.);
#308=ORIENTED_EDGE('',*,*,#448,.F.);
#309=ORIENTED_EDGE('',*,*,#458,.F.);
#310=ORIENTED_EDGE('',*,*,#431,.F.);
#311=ORIENTED_EDGE('',*,*,#459,.F.);
#312=ORIENTED_EDGE('',*,*,#459,.T.);
#313=ORIENTED_EDGE('',*,*,#430,.T.);
#314=ORIENTED_EDGE('',*,*,#452,.T.);
#315=ORIENTED_EDGE('',*,*,#446,.T.);
#316=ORIENTED_EDGE('',*,*,#460,.T.);
#317=ORIENTED_EDGE('',*,*,#461,.T.);
#318=ORIENTED_EDGE('',*,*,#461,.F.);
#319=ORIENTED_EDGE('',*,*,#460,.F.);
#320=ORIENTED_EDGE('',*,*,#438,.F.);
#321=ORIENTED_EDGE('',*,*,#437,.F.);
#322=ORIENTED_EDGE('',*,*,#462,.T.);
#323=ORIENTED_EDGE('',*,*,#463,.T.);
#324=ORIENTED_EDGE('',*,*,#440,.F.);
#325=ORIENTED_EDGE('',*,*,#439,.F.);
#326=ORIENTED_EDGE('',*,*,#463,.F.);
#327=ORIENTED_EDGE('',*,*,#462,.F.);
#328=ORIENTED_EDGE('',*,*,#464,.T.);
#329=ORIENTED_EDGE('',*,*,#465,.T.);
#330=ORIENTED_EDGE('',*,*,#442,.F.);
#331=ORIENTED_EDGE('',*,*,#441,.F.);
#332=ORIENTED_EDGE('',*,*,#465,.F.);
#333=ORIENTED_EDGE('',*,*,#464,.F.);
#334=ORIENTED_EDGE('',*,*,#466,.T.);
#335=ORIENTED_EDGE('',*,*,#467,.T.);
#336=ORIENTED_EDGE('',*,*,#467,.F.);
#337=ORIENTED_EDGE('',*,*,#466,.F.);
#338=ORIENTED_EDGE('',*,*,#444,.F.);
#339=ORIENTED_EDGE('',*,*,#443,.F.);
#340=EDGE_CURVE('',#468,#469,#556,.T.);
#341=EDGE_CURVE('',#468,#470,#557,.T.);
#342=EDGE_CURVE('',#471,#470,#558,.T.);
#343=EDGE_CURVE('',#472,#471,#559,.T.);
#344=EDGE_CURVE('',#472,#473,#560,.T.);
#345=EDGE_CURVE('',#474,#473,#561,.T.);
#346=EDGE_CURVE('',#475,#474,#562,.T.);
#347=EDGE_CURVE('',#475,#469,#563,.T.);
#348=EDGE_CURVE('',#476,#477,#564,.T.);
#349=EDGE_CURVE('',#469,#476,#565,.T.);
#350=EDGE_CURVE('',#477,#475,#566,.T.);
#351=EDGE_CURVE('',#477,#478,#567,.T.);
#352=EDGE_CURVE('',#478,#474,#568,.T.);
#353=EDGE_CURVE('',#479,#480,#569,.T.);
#354=EDGE_CURVE('',#473,#479,#570,.T.);
#355=EDGE_CURVE('',#480,#472,#571,.T.);
#356=EDGE_CURVE('',#480,#481,#572,.T.);
#357=EDGE_CURVE('',#481,#471,#573,.T.);
#358=EDGE_CURVE('',#482,#483,#574,.T.);
#359=EDGE_CURVE('',#483,#484,#575,.T.);
#360=EDGE_CURVE('',#485,#484,#576,.T.);
#361=EDGE_CURVE('',#482,#485,#577,.T.);
#362=EDGE_CURVE('',#486,#487,#578,.T.);
#363=EDGE_CURVE('',#487,#488,#579,.T.);
#364=EDGE_CURVE('',#489,#488,#580,.T.);
#365=EDGE_CURVE('',#486,#489,#581,.T.);
#366=EDGE_CURVE('',#481,#490,#582,.T.);
#367=EDGE_CURVE('',#470,#490,#583,.T.);
#368=EDGE_CURVE('',#476,#491,#584,.T.);
#369=EDGE_CURVE('',#479,#478,#585,.T.);
#370=EDGE_CURVE('',#490,#491,#586,.T.);
#371=EDGE_CURVE('',#492,#493,#36,.T.);
#372=EDGE_CURVE('',#492,#493,#37,.F.);
#373=EDGE_CURVE('',#494,#495,#38,.T.);
#374=EDGE_CURVE('',#494,#495,#39,.F.);
#375=EDGE_CURVE('',#491,#468,#587,.T.);
#376=EDGE_CURVE('',#488,#496,#40,.T.);
#377=EDGE_CURVE('',#496,#497,#588,.T.);
#378=EDGE_CURVE('',#489,#497,#41,.T.);
#379=EDGE_CURVE('',#498,#499,#589,.T.);
#380=EDGE_CURVE('',#499,#500,#590,.T.);
#381=EDGE_CURVE('',#500,#501,#591,.T.);
#382=EDGE_CURVE('',#498,#501,#592,.T.);
#383=EDGE_CURVE('',#499,#502,#42,.T.);
#384=EDGE_CURVE('',#502,#503,#593,.T.);
#385=EDGE_CURVE('',#503,#504,#43,.T.);
#386=EDGE_CURVE('',#504,#496,#594,.T.);
#387=EDGE_CURVE('',#487,#500,#44,.T.);
#388=EDGE_CURVE('',#486,#501,#45,.T.);
#389=EDGE_CURVE('',#484,#505,#46,.T.);
#390=EDGE_CURVE('',#505,#506,#595,.T.);
#391=EDGE_CURVE('',#506,#485,#47,.T.);
#392=EDGE_CURVE('',#505,#507,#596,.T.);
#393=EDGE_CURVE('',#507,#508,#597,.T.);
#394=EDGE_CURVE('',#506,#508,#598,.T.);
#395=EDGE_CURVE('',#483,#509,#48,.T.);
#396=EDGE_CURVE('',#509,#510,#599,.T.);
#397=EDGE_CURVE('',#510,#511,#49,.T.);
#398=EDGE_CURVE('',#511,#512,#600,.T.);
#399=EDGE_CURVE('',#512,#507,#50,.T.);
#400=EDGE_CURVE('',#512,#513,#601,.T.);
#401=EDGE_CURVE('',#508,#513,#51,.T.);
#402=EDGE_CURVE('',#514,#514,#52,.F.);
#403=EDGE_CURVE('',#515,#515,#53,.F.);
#404=EDGE_CURVE('',#516,#516,#54,.F.);
#405=EDGE_CURVE('',#517,#517,#55,.F.);
#406=EDGE_CURVE('',#511,#518,#602,.T.);
#407=EDGE_CURVE('',#513,#518,#603,.T.);
#408=EDGE_CURVE('',#510,#519,#604,.T.);
#409=EDGE_CURVE('',#519,#518,#56,.T.);
#410=EDGE_CURVE('',#509,#520,#605,.T.);
#411=EDGE_CURVE('',#519,#520,#606,.T.);
#412=EDGE_CURVE('',#482,#520,#57,.T.);
#413=EDGE_CURVE('',#521,#513,#607,.T.);
#414=EDGE_CURVE('',#522,#521,#58,.T.);
#415=EDGE_CURVE('',#508,#522,#608,.T.);
#416=EDGE_CURVE('',#523,#522,#609,.T.);
#417=EDGE_CURVE('',#523,#506,#610,.T.);
#418=EDGE_CURVE('',#524,#523,#59,.T.);
#419=EDGE_CURVE('',#485,#524,#611,.T.);
#420=EDGE_CURVE('',#525,#524,#612,.T.);
#421=EDGE_CURVE('',#525,#482,#613,.T.);
#422=EDGE_CURVE('',#526,#525,#60,.T.);
#423=EDGE_CURVE('',#520,#526,#614,.T.);
#424=EDGE_CURVE('',#527,#526,#615,.T.);
#425=EDGE_CURVE('',#527,#519,#616,.T.);
#426=EDGE_CURVE('',#528,#527,#61,.T.);
#427=EDGE_CURVE('',#518,#528,#617,.T.);
#428=EDGE_CURVE('',#521,#528,#618,.T.);
#429=EDGE_CURVE('',#529,#530,#62,.T.);
#430=EDGE_CURVE('',#531,#530,#619,.T.);
#431=EDGE_CURVE('',#531,#532,#63,.T.);
#432=EDGE_CURVE('',#533,#532,#620,.T.);
#433=EDGE_CURVE('',#533,#534,#64,.T.);
#434=EDGE_CURVE('',#535,#534,#621,.T.);
#435=EDGE_CURVE('',#535,#536,#65,.T.);
#436=EDGE_CURVE('',#529,#536,#622,.T.);
#437=EDGE_CURVE('',#537,#538,#66,.T.);
#438=EDGE_CURVE('',#538,#537,#67,.T.);
#439=EDGE_CURVE('',#539,#540,#68,.T.);
#440=EDGE_CURVE('',#540,#539,#69,.T.);
#441=EDGE_CURVE('',#541,#542,#70,.T.);
#442=EDGE_CURVE('',#542,#541,#71,.T.);
#443=EDGE_CURVE('',#543,#544,#72,.T.);
#444=EDGE_CURVE('',#544,#543,#73,.T.);
#445=EDGE_CURVE('',#504,#545,#623,.T.);
#446=EDGE_CURVE('',#497,#545,#624,.T.);
#447=EDGE_CURVE('',#503,#546,#625,.T.);
#448=EDGE_CURVE('',#546,#545,#74,.T.);
#449=EDGE_CURVE('',#502,#547,#626,.T.);
#450=EDGE_CURVE('',#546,#547,#627,.T.);
#451=EDGE_CURVE('',#498,#547,#75,.T.);
#452=EDGE_CURVE('',#530,#497,#628,.T.);
#453=EDGE_CURVE('',#489,#529,#629,.T.);
#454=EDGE_CURVE('',#536,#486,#630,.T.);
#455=EDGE_CURVE('',#501,#535,#631,.T.);
#456=EDGE_CURVE('',#534,#498,#632,.T.);
#457=EDGE_CURVE('',#547,#533,#633,.T.);
#458=EDGE_CURVE('',#532,#546,#634,.T.);
#459=EDGE_CURVE('',#545,#531,#635,.T.);
#460=EDGE_CURVE('',#548,#549,#76,.T.);
#461=EDGE_CURVE('',#549,#548,#77,.F.);
#462=EDGE_CURVE('',#550,#551,#78,.T.);
#463=EDGE_CURVE('',#551,#550,#79,.F.);
#464=EDGE_CURVE('',#552,#553,#80,.T.);
#465=EDGE_CURVE('',#553,#552,#81,.F.);
#466=EDGE_CURVE('',#554,#555,#82,.T.);
#467=EDGE_CURVE('',#555,#554,#83,.F.);
#468=VERTEX_POINT('',#1362);
#469=VERTEX_POINT('',#1363);
#470=VERTEX_POINT('',#1365);
#471=VERTEX_POINT('',#1367);
#472=VERTEX_POINT('',#1369);
#473=VERTEX_POINT('',#1371);
#474=VERTEX_POINT('',#1373);
#475=VERTEX_POINT('',#1375);
#476=VERTEX_POINT('',#1379);
#477=VERTEX_POINT('',#1380);
#478=VERTEX_POINT('',#1385);
#479=VERTEX_POINT('',#1389);
#480=VERTEX_POINT('',#1390);
#481=VERTEX_POINT('',#1395);
#482=VERTEX_POINT('',#1399);
#483=VERTEX_POINT('',#1400);
#484=VERTEX_POINT('',#1402);
#485=VERTEX_POINT('',#1404);
#486=VERTEX_POINT('',#1408);
#487=VERTEX_POINT('',#1409);
#488=VERTEX_POINT('',#1411);
#489=VERTEX_POINT('',#1413);
#490=VERTEX_POINT('',#1417);
#491=VERTEX_POINT('',#1421);
#492=VERTEX_POINT('',#1426);
#493=VERTEX_POINT('',#1427);
#494=VERTEX_POINT('',#1430);
#495=VERTEX_POINT('',#1431);
#496=VERTEX_POINT('',#1437);
#497=VERTEX_POINT('',#1439);
#498=VERTEX_POINT('',#1443);
#499=VERTEX_POINT('',#1444);
#500=VERTEX_POINT('',#1446);
#501=VERTEX_POINT('',#1448);
#502=VERTEX_POINT('',#1452);
#503=VERTEX_POINT('',#1454);
#504=VERTEX_POINT('',#1456);
#505=VERTEX_POINT('',#1463);
#506=VERTEX_POINT('',#1465);
#507=VERTEX_POINT('',#1469);
#508=VERTEX_POINT('',#1471);
#509=VERTEX_POINT('',#1475);
#510=VERTEX_POINT('',#1477);
#511=VERTEX_POINT('',#1479);
#512=VERTEX_POINT('',#1481);
#513=VERTEX_POINT('',#1485);
#514=VERTEX_POINT('',#1489);
#515=VERTEX_POINT('',#1492);
#516=VERTEX_POINT('',#1495);
#517=VERTEX_POINT('',#1498);
#518=VERTEX_POINT('',#1501);
#519=VERTEX_POINT('',#1505);
#520=VERTEX_POINT('',#1509);
#521=VERTEX_POINT('',#1515);
#522=VERTEX_POINT('',#1517);
#523=VERTEX_POINT('',#1521);
#524=VERTEX_POINT('',#1525);
#525=VERTEX_POINT('',#1529);
#526=VERTEX_POINT('',#1533);
#527=VERTEX_POINT('',#1537);
#528=VERTEX_POINT('',#1541);
#529=VERTEX_POINT('',#1547);
#530=VERTEX_POINT('',#1548);
#531=VERTEX_POINT('',#1550);
#532=VERTEX_POINT('',#1552);
#533=VERTEX_POINT('',#1554);
#534=VERTEX_POINT('',#1556);
#535=VERTEX_POINT('',#1558);
#536=VERTEX_POINT('',#1560);
#537=VERTEX_POINT('',#1563);
#538=VERTEX_POINT('',#1564);
#539=VERTEX_POINT('',#1567);
#540=VERTEX_POINT('',#1568);
#541=VERTEX_POINT('',#1571);
#542=VERTEX_POINT('',#1572);
#543=VERTEX_POINT('',#1575);
#544=VERTEX_POINT('',#1576);
#545=VERTEX_POINT('',#1580);
#546=VERTEX_POINT('',#1584);
#547=VERTEX_POINT('',#1588);
#548=VERTEX_POINT('',#1610);
#549=VERTEX_POINT('',#1611);
#550=VERTEX_POINT('',#1616);
#551=VERTEX_POINT('',#1617);
#552=VERTEX_POINT('',#1622);
#553=VERTEX_POINT('',#1623);
#554=VERTEX_POINT('',#1628);
#555=VERTEX_POINT('',#1629);
#556=LINE('',#1361,#636);
#557=LINE('',#1364,#637);
#558=LINE('',#1366,#638);
#559=LINE('',#1368,#639);
#560=LINE('',#1370,#640);
#561=LINE('',#1372,#641);
#562=LINE('',#1374,#642);
#563=LINE('',#1376,#643);
#564=LINE('',#1378,#644);
#565=LINE('',#1381,#645);
#566=LINE('',#1382,#646);
#567=LINE('',#1384,#647);
#568=LINE('',#1386,#648);
#569=LINE('',#1388,#649);
#570=LINE('',#1391,#650);
#571=LINE('',#1392,#651);
#572=LINE('',#1394,#652);
#573=LINE('',#1396,#653);
#574=LINE('',#1398,#654);
#575=LINE('',#1401,#655);
#576=LINE('',#1403,#656);
#577=LINE('',#1405,#657);
#578=LINE('',#1407,#658);
#579=LINE('',#1410,#659);
#580=LINE('',#1412,#660);
#581=LINE('',#1414,#661);
#582=LINE('',#1416,#662);
#583=LINE('',#1418,#663);
#584=LINE('',#1420,#664);
#585=LINE('',#1422,#665);
#586=LINE('',#1423,#666);
#587=LINE('',#1433,#667);
#588=LINE('',#1438,#668);
#589=LINE('',#1442,#669);
#590=LINE('',#1445,#670);
#591=LINE('',#1447,#671);
#592=LINE('',#1449,#672);
#593=LINE('',#1453,#673);
#594=LINE('',#1457,#674);
#595=LINE('',#1464,#675);
#596=LINE('',#1468,#676);
#597=LINE('',#1470,#677);
#598=LINE('',#1472,#678);
#599=LINE('',#1476,#679);
#600=LINE('',#1480,#680);
#601=LINE('',#1484,#681);
#602=LINE('',#1500,#682);
#603=LINE('',#1502,#683);
#604=LINE('',#1504,#684);
#605=LINE('',#1508,#685);
#606=LINE('',#1510,#686);
#607=LINE('',#1514,#687);
#608=LINE('',#1518,#688);
#609=LINE('',#1520,#689);
#610=LINE('',#1522,#690);
#611=LINE('',#1526,#691);
#612=LINE('',#1528,#692);
#613=LINE('',#1530,#693);
#614=LINE('',#1534,#694);
#615=LINE('',#1536,#695);
#616=LINE('',#1538,#696);
#617=LINE('',#1542,#697);
#618=LINE('',#1544,#698);
#619=LINE('',#1549,#699);
#620=LINE('',#1553,#700);
#621=LINE('',#1557,#701);
#622=LINE('',#1561,#702);
#623=LINE('',#1579,#703);
#624=LINE('',#1581,#704);
#625=LINE('',#1583,#705);
#626=LINE('',#1587,#706);
#627=LINE('',#1589,#707);
#628=LINE('',#1593,#708);
#629=LINE('',#1594,#709);
#630=LINE('',#1596,#710);
#631=LINE('',#1598,#711);
#632=LINE('',#1600,#712);
#633=LINE('',#1602,#713);
#634=LINE('',#1604,#714);
#635=LINE('',#1606,#715);
#636=VECTOR('',#1073,1.);
#637=VECTOR('',#1074,1.);
#638=VECTOR('',#1075,1.);
#639=VECTOR('',#1076,1.);
#640=VECTOR('',#1077,1.);
#641=VECTOR('',#1078,1.);
#642=VECTOR('',#1079,1.);
#643=VECTOR('',#1080,1.);
#644=VECTOR('',#1083,1.);
#645=VECTOR('',#1084,1.);
#646=VECTOR('',#1085,1.);
#647=VECTOR('',#1088,1.);
#648=VECTOR('',#1089,1.);
#649=VECTOR('',#1092,1.);
#650=VECTOR('',#1093,1.);
#651=VECTOR('',#1094,1.);
#652=VECTOR('',#1097,1.);
#653=VECTOR('',#1098,1.);
#654=VECTOR('',#1101,1.);
#655=VECTOR('',#1102,1.);
#656=VECTOR('',#1103,1.);
#657=VECTOR('',#1104,1.);
#658=VECTOR('',#1107,1.);
#659=VECTOR('',#1108,1.);
#660=VECTOR('',#1109,1.);
#661=VECTOR('',#1110,1.);
#662=VECTOR('',#1113,1.);
#663=VECTOR('',#1114,1.);
#664=VECTOR('',#1117,1.);
#665=VECTOR('',#1118,1.);
#666=VECTOR('',#1119,1.);
#667=VECTOR('',#1130,1.);
#668=VECTOR('',#1137,1.);
#669=VECTOR('',#1142,1.);
#670=VECTOR('',#1143,1.);
#671=VECTOR('',#1144,1.);
#672=VECTOR('',#1145,1.);
#673=VECTOR('',#1150,1.);
#674=VECTOR('',#1153,1.);
#675=VECTOR('',#1164,1.);
#676=VECTOR('',#1169,1.);
#677=VECTOR('',#1170,1.);
#678=VECTOR('',#1171,1.);
#679=VECTOR('',#1176,1.);
#680=VECTOR('',#1179,1.);
#681=VECTOR('',#1184,1.);
#682=VECTOR('',#1205,1.);
#683=VECTOR('',#1206,1.);
#684=VECTOR('',#1209,1.);
#685=VECTOR('',#1214,1.);
#686=VECTOR('',#1215,1.);
#687=VECTOR('',#1222,1.);
#688=VECTOR('',#1225,1.);
#689=VECTOR('',#1228,1.);
#690=VECTOR('',#1229,1.);
#691=VECTOR('',#1234,1.);
#692=VECTOR('',#1237,1.);
#693=VECTOR('',#1238,1.);
#694=VECTOR('',#1243,1.);
#695=VECTOR('',#1246,1.);
#696=VECTOR('',#1247,1.);
#697=VECTOR('',#1252,1.);
#698=VECTOR('',#1255,1.);
#699=VECTOR('',#1260,1.);
#700=VECTOR('',#1263,1.);
#701=VECTOR('',#1266,1.);
#702=VECTOR('',#1269,1.);
#703=VECTOR('',#1288,1.);
#704=VECTOR('',#1289,1.);
#705=VECTOR('',#1292,1.);
#706=VECTOR('',#1297,1.);
#707=VECTOR('',#1298,1.);
#708=VECTOR('',#1305,1.);
#709=VECTOR('',#1306,1.);
#710=VECTOR('',#1309,1.);
#711=VECTOR('',#1312,1.);
#712=VECTOR('',#1315,1.);
#713=VECTOR('',#1318,1.);
#714=VECTOR('',#1321,1.);
#715=VECTOR('',#1324,1.);
#716=EDGE_LOOP('',(#84,#85,#86,#87,#88,#89,#90,#91));
#717=EDGE_LOOP('',(#92,#93,#94,#95));
#718=EDGE_LOOP('',(#96,#97,#98,#99));
#719=EDGE_LOOP('',(#100,#101,#102,#103));
#720=EDGE_LOOP('',(#104,#105,#106,#107));
#721=EDGE_LOOP('',(#108,#109,#110,#111));
#722=EDGE_LOOP('',(#112,#113,#114,#115));
#723=EDGE_LOOP('',(#116,#117,#118,#119));
#724=EDGE_LOOP('',(#120,#121,#122,#123,#124,#125,#126,#127));
#725=EDGE_LOOP('',(#128,#129));
#726=EDGE_LOOP('',(#130,#131));
#727=EDGE_LOOP('',(#132,#133,#134,#135));
#728=EDGE_LOOP('',(#136,#137,#138,#139));
#729=EDGE_LOOP('',(#140,#141,#142,#143));
#730=EDGE_LOOP('',(#144,#145,#146,#147));
#731=EDGE_LOOP('',(#148,#149,#150,#151,#152,#153,#154,#155));
#732=EDGE_LOOP('',(#156,#157,#158,#159));
#733=EDGE_LOOP('',(#160,#161,#162,#163));
#734=EDGE_LOOP('',(#164,#165,#166,#167));
#735=EDGE_LOOP('',(#168,#169,#170,#171,#172,#173,#174,#175));
#736=EDGE_LOOP('',(#176,#177,#178,#179));
#737=EDGE_LOOP('',(#180));
#738=EDGE_LOOP('',(#181,#182));
#739=EDGE_LOOP('',(#183));
#740=EDGE_LOOP('',(#184));
#741=EDGE_LOOP('',(#185,#186));
#742=EDGE_LOOP('',(#187));
#743=EDGE_LOOP('',(#188));
#744=EDGE_LOOP('',(#189));
#745=EDGE_LOOP('',(#190,#191,#192,#193));
#746=EDGE_LOOP('',(#194,#195,#196,#197));
#747=EDGE_LOOP('',(#198,#199,#200,#201));
#748=EDGE_LOOP('',(#202,#203,#204,#205));
#749=EDGE_LOOP('',(#206,#207,#208,#209));
#750=EDGE_LOOP('',(#210,#211,#212,#213));
#751=EDGE_LOOP('',(#214,#215,#216,#217));
#752=EDGE_LOOP('',(#218,#219,#220,#221));
#753=EDGE_LOOP('',(#222,#223,#224,#225));
#754=EDGE_LOOP('',(#226,#227,#228,#229));
#755=EDGE_LOOP('',(#230,#231,#232,#233));
#756=EDGE_LOOP('',(#234,#235,#236,#237));
#757=EDGE_LOOP('',(#238,#239,#240,#241,#242,#243,#244,#245));
#758=EDGE_LOOP('',(#246));
#759=EDGE_LOOP('',(#247));
#760=EDGE_LOOP('',(#248,#249,#250,#251,#252,#253,#254,#255));
#761=EDGE_LOOP('',(#256,#257));
#762=EDGE_LOOP('',(#258,#259));
#763=EDGE_LOOP('',(#260,#261));
#764=EDGE_LOOP('',(#262,#263));
#765=EDGE_LOOP('',(#264,#265,#266,#267));
#766=EDGE_LOOP('',(#268,#269,#270,#271));
#767=EDGE_LOOP('',(#272,#273,#274,#275));
#768=EDGE_LOOP('',(#276,#277,#278,#279));
#769=EDGE_LOOP('',(#280,#281,#282,#283));
#770=EDGE_LOOP('',(#284,#285,#286,#287));
#771=EDGE_LOOP('',(#288,#289,#290,#291));
#772=EDGE_LOOP('',(#292,#293,#294,#295));
#773=EDGE_LOOP('',(#296,#297,#298,#299));
#774=EDGE_LOOP('',(#300,#301,#302,#303));
#775=EDGE_LOOP('',(#304,#305,#306,#307));
#776=EDGE_LOOP('',(#308,#309,#310,#311));
#777=EDGE_LOOP('',(#312,#313,#314,#315));
#778=EDGE_LOOP('',(#316,#317));
#779=EDGE_LOOP('',(#318,#319));
#780=EDGE_LOOP('',(#320,#321));
#781=EDGE_LOOP('',(#322,#323));
#782=EDGE_LOOP('',(#324,#325));
#783=EDGE_LOOP('',(#326,#327));
#784=EDGE_LOOP('',(#328,#329));
#785=EDGE_LOOP('',(#330,#331));
#786=EDGE_LOOP('',(#332,#333));
#787=EDGE_LOOP('',(#334,#335));
#788=EDGE_LOOP('',(#336,#337));
#789=EDGE_LOOP('',(#338,#339));
#790=FACE_BOUND('',#716,.T.);
#791=FACE_BOUND('',#717,.T.);
#792=FACE_BOUND('',#718,.T.);
#793=FACE_BOUND('',#719,.T.);
#794=FACE_BOUND('',#720,.T.);
#795=FACE_BOUND('',#721,.T.);
#796=FACE_BOUND('',#722,.T.);
#797=FACE_BOUND('',#723,.T.);
#798=FACE_BOUND('',#724,.T.);
#799=FACE_BOUND('',#725,.T.);
#800=FACE_BOUND('',#726,.T.);
#801=FACE_BOUND('',#727,.T.);
#802=FACE_BOUND('',#728,.T.);
#803=FACE_BOUND('',#729,.T.);
#804=FACE_BOUND('',#730,.T.);
#805=FACE_BOUND('',#731,.T.);
#806=FACE_BOUND('',#732,.T.);
#807=FACE_BOUND('',#733,.T.);
#808=FACE_BOUND('',#734,.T.);
#809=FACE_BOUND('',#735,.T.);
#810=FACE_BOUND('',#736,.T.);
#811=FACE_BOUND('',#737,.T.);
#812=FACE_BOUND('',#738,.T.);
#813=FACE_BOUND('',#739,.T.);
#814=FACE_BOUND('',#740,.T.);
#815=FACE_BOUND('',#741,.T.);
#816=FACE_BOUND('',#742,.T.);
#817=FACE_BOUND('',#743,.T.);
#818=FACE_BOUND('',#744,.T.);
#819=FACE_BOUND('',#745,.T.);
#820=FACE_BOUND('',#746,.T.);
#821=FACE_BOUND('',#747,.T.);
#822=FACE_BOUND('',#748,.T.);
#823=FACE_BOUND('',#749,.T.);
#824=FACE_BOUND('',#750,.T.);
#825=FACE_BOUND('',#751,.T.);
#826=FACE_BOUND('',#752,.T.);
#827=FACE_BOUND('',#753,.T.);
#828=FACE_BOUND('',#754,.T.);
#829=FACE_BOUND('',#755,.T.);
#830=FACE_BOUND('',#756,.T.);
#831=FACE_BOUND('',#757,.T.);
#832=FACE_BOUND('',#758,.T.);
#833=FACE_BOUND('',#759,.T.);
#834=FACE_BOUND('',#760,.T.);
#835=FACE_BOUND('',#761,.T.);
#836=FACE_BOUND('',#762,.T.);
#837=FACE_BOUND('',#763,.T.);
#838=FACE_BOUND('',#764,.T.);
#839=FACE_BOUND('',#765,.T.);
#840=FACE_BOUND('',#766,.T.);
#841=FACE_BOUND('',#767,.T.);
#842=FACE_BOUND('',#768,.T.);
#843=FACE_BOUND('',#769,.T.);
#844=FACE_BOUND('',#770,.T.);
#845=FACE_BOUND('',#771,.T.);
#846=FACE_BOUND('',#772,.T.);
#847=FACE_BOUND('',#773,.T.);
#848=FACE_BOUND('',#774,.T.);
#849=FACE_BOUND('',#775,.T.);
#850=FACE_BOUND('',#776,.T.);
#851=FACE_BOUND('',#777,.T.);
#852=FACE_BOUND('',#778,.T.);
#853=FACE_BOUND('',#779,.T.);
#854=FACE_BOUND('',#780,.T.);
#855=FACE_BOUND('',#781,.T.);
#856=FACE_BOUND('',#782,.T.);
#857=FACE_BOUND('',#783,.T.);
#858=FACE_BOUND('',#784,.T.);
#859=FACE_BOUND('',#785,.T.);
#860=FACE_BOUND('',#786,.T.);
#861=FACE_BOUND('',#787,.T.);
#862=FACE_BOUND('',#788,.T.);
#863=FACE_BOUND('',#789,.T.);
#864=PLANE('',#965);
#865=PLANE('',#966);
#866=PLANE('',#967);
#867=PLANE('',#968);
#868=PLANE('',#969);
#869=PLANE('',#970);
#870=PLANE('',#971);
#871=PLANE('',#972);
#872=PLANE('',#973);
#873=PLANE('',#974);
#874=PLANE('',#979);
#875=PLANE('',#983);
#876=PLANE('',#984);
#877=PLANE('',#993);
#878=PLANE('',#994);
#879=PLANE('',#1008);
#880=PLANE('',#1011);
#881=PLANE('',#1016);
#882=PLANE('',#1019);
#883=PLANE('',#1022);
#884=PLANE('',#1025);
#885=PLANE('',#1026);
#886=PLANE('',#1039);
#887=PLANE('',#1042);
#888=PLANE('',#1046);
#889=PLANE('',#1048);
#890=PLANE('',#1050);
#891=PLANE('',#1052);
#892=PLANE('',#1053);
#893=PLANE('',#1057);
#894=PLANE('',#1061);
#895=PLANE('',#1065);
#896=ADVANCED_FACE('',(#790),#864,.T.);
#897=ADVANCED_FACE('',(#791),#865,.T.);
#898=ADVANCED_FACE('',(#792),#866,.T.);
#899=ADVANCED_FACE('',(#793),#867,.T.);
#900=ADVANCED_FACE('',(#794),#868,.T.);
#901=ADVANCED_FACE('',(#795),#869,.T.);
#902=ADVANCED_FACE('',(#796),#870,.T.);
#903=ADVANCED_FACE('',(#797),#871,.T.);
#904=ADVANCED_FACE('',(#798),#872,.T.);
#905=ADVANCED_FACE('',(#799,#800,#801),#873,.T.);
#906=ADVANCED_FACE('',(#802),#874,.T.);
#907=ADVANCED_FACE('',(#803),#22,.F.);
#908=ADVANCED_FACE('',(#804),#875,.T.);
#909=ADVANCED_FACE('',(#805),#876,.T.);
#910=ADVANCED_FACE('',(#806),#23,.F.);
#911=ADVANCED_FACE('',(#807),#24,.F.);
#912=ADVANCED_FACE('',(#808),#877,.T.);
#913=ADVANCED_FACE('',(#809),#878,.T.);
#914=ADVANCED_FACE('',(#810),#25,.F.);
#915=ADVANCED_FACE('',(#811,#812),#26,.F.);
#916=ADVANCED_FACE('',(#813,#814),#12,.F.);
#917=ADVANCED_FACE('',(#815,#816),#27,.F.);
#918=ADVANCED_FACE('',(#817,#818),#13,.F.);
#919=ADVANCED_FACE('',(#819),#879,.T.);
#920=ADVANCED_FACE('',(#820),#28,.F.);
#921=ADVANCED_FACE('',(#821),#880,.T.);
#922=ADVANCED_FACE('',(#822),#29,.F.);
#923=ADVANCED_FACE('',(#823),#14,.F.);
#924=ADVANCED_FACE('',(#824),#881,.T.);
#925=ADVANCED_FACE('',(#825),#15,.F.);
#926=ADVANCED_FACE('',(#826),#882,.T.);
#927=ADVANCED_FACE('',(#827),#16,.F.);
#928=ADVANCED_FACE('',(#828),#883,.T.);
#929=ADVANCED_FACE('',(#829),#17,.F.);
#930=ADVANCED_FACE('',(#830),#884,.T.);
#931=ADVANCED_FACE('',(#831,#832,#833,#834,#835,#836,#837,#838,#839),#885,
 .T.);
#932=ADVANCED_FACE('',(#840),#886,.T.);
#933=ADVANCED_FACE('',(#841),#30,.F.);
#934=ADVANCED_FACE('',(#842),#887,.T.);
#935=ADVANCED_FACE('',(#843),#31,.F.);
#936=ADVANCED_FACE('',(#844),#18,.F.);
#937=ADVANCED_FACE('',(#845),#888,.T.);
#938=ADVANCED_FACE('',(#846),#19,.F.);
#939=ADVANCED_FACE('',(#847),#889,.T.);
#940=ADVANCED_FACE('',(#848),#20,.F.);
#941=ADVANCED_FACE('',(#849),#890,.T.);
#942=ADVANCED_FACE('',(#850),#21,.F.);
#943=ADVANCED_FACE('',(#851),#891,.T.);
#944=ADVANCED_FACE('',(#852),#892,.T.);
#945=ADVANCED_FACE('',(#853,#854),#32,.F.);
#946=ADVANCED_FACE('',(#855),#893,.T.);
#947=ADVANCED_FACE('',(#856,#857),#33,.F.);
#948=ADVANCED_FACE('',(#858),#894,.T.);
#949=ADVANCED_FACE('',(#859,#860),#34,.F.);
#950=ADVANCED_FACE('',(#861),#895,.T.);
#951=ADVANCED_FACE('',(#862,#863),#35,.F.);
#952=CLOSED_SHELL('',(#896,#897,#898,#899,#900,#901,#902,#903,#904,#905,
#906,#907,#908,#909,#910,#911,#912,#913,#914,#915,#916,#917,#918,#919,#920,
#921,#922,#923,#924,#925,#926,#927,#928,#929,#930,#931,#932,#933,#934,#935,
#936,#937,#938,#939,#940,#941,#942,#943,#944,#945,#946,#947,#948,#949,#950,
#951));
#953=STYLED_ITEM('',(#954),#961);
#954=PRESENTATION_STYLE_ASSIGNMENT((#955));
#955=SURFACE_STYLE_USAGE(.BOTH.,#956);
#956=SURFACE_SIDE_STYLE('',(#957));
#957=SURFACE_STYLE_FILL_AREA(#958);
#958=FILL_AREA_STYLE('',(#959));
#959=FILL_AREA_STYLE_COLOUR('',#960);
#960=COLOUR_RGB('',0.329411764705883,0.619607843137255,0.968627450980392);
#961=MANIFOLD_SOLID_BREP('Face ultrasonic',#952);
#962=SHAPE_DEFINITION_REPRESENTATION(#1638,#963);
#963=SHAPE_REPRESENTATION('Face ultrasonic',(#964),#1633);
#964=AXIS2_PLACEMENT_3D('',#1359,#1069,#1070);
#965=AXIS2_PLACEMENT_3D('',#1360,#1071,#1072);
#966=AXIS2_PLACEMENT_3D('',#1377,#1081,#1082);
#967=AXIS2_PLACEMENT_3D('',#1383,#1086,#1087);
#968=AXIS2_PLACEMENT_3D('',#1387,#1090,#1091);
#969=AXIS2_PLACEMENT_3D('',#1393,#1095,#1096);
#970=AXIS2_PLACEMENT_3D('',#1397,#1099,#1100);
#971=AXIS2_PLACEMENT_3D('',#1406,#1105,#1106);
#972=AXIS2_PLACEMENT_3D('',#1415,#1111,#1112);
#973=AXIS2_PLACEMENT_3D('',#1419,#1115,#1116);
#974=AXIS2_PLACEMENT_3D('',#1424,#1120,#1121);
#975=AXIS2_PLACEMENT_3D('',#1425,#1122,#1123);
#976=AXIS2_PLACEMENT_3D('',#1428,#1124,#1125);
#977=AXIS2_PLACEMENT_3D('',#1429,#1126,#1127);
#978=AXIS2_PLACEMENT_3D('',#1432,#1128,#1129);
#979=AXIS2_PLACEMENT_3D('',#1434,#1131,#1132);
#980=AXIS2_PLACEMENT_3D('',#1435,#1133,#1134);
#981=AXIS2_PLACEMENT_3D('',#1436,#1135,#1136);
#982=AXIS2_PLACEMENT_3D('',#1440,#1138,#1139);
#983=AXIS2_PLACEMENT_3D('',#1441,#1140,#1141);
#984=AXIS2_PLACEMENT_3D('',#1450,#1146,#1147);
#985=AXIS2_PLACEMENT_3D('',#1451,#1148,#1149);
#986=AXIS2_PLACEMENT_3D('',#1455,#1151,#1152);
#987=AXIS2_PLACEMENT_3D('',#1458,#1154,#1155);
#988=AXIS2_PLACEMENT_3D('',#1459,#1156,#1157);
#989=AXIS2_PLACEMENT_3D('',#1460,#1158,#1159);
#990=AXIS2_PLACEMENT_3D('',#1461,#1160,#1161);
#991=AXIS2_PLACEMENT_3D('',#1462,#1162,#1163);
#992=AXIS2_PLACEMENT_3D('',#1466,#1165,#1166);
#993=AXIS2_PLACEMENT_3D('',#1467,#1167,#1168);
#994=AXIS2_PLACEMENT_3D('',#1473,#1172,#1173);
#995=AXIS2_PLACEMENT_3D('',#1474,#1174,#1175);
#996=AXIS2_PLACEMENT_3D('',#1478,#1177,#1178);
#997=AXIS2_PLACEMENT_3D('',#1482,#1180,#1181);
#998=AXIS2_PLACEMENT_3D('',#1483,#1182,#1183);
#999=AXIS2_PLACEMENT_3D('',#1486,#1185,#1186);
#1000=AXIS2_PLACEMENT_3D('',#1487,#1187,#1188);
#1001=AXIS2_PLACEMENT_3D('',#1488,#1189,#1190);
#1002=AXIS2_PLACEMENT_3D('',#1490,#1191,#1192);
#1003=AXIS2_PLACEMENT_3D('',#1491,#1193,#1194);
#1004=AXIS2_PLACEMENT_3D('',#1493,#1195,#1196);
#1005=AXIS2_PLACEMENT_3D('',#1494,#1197,#1198);
#1006=AXIS2_PLACEMENT_3D('',#1496,#1199,#1200);
#1007=AXIS2_PLACEMENT_3D('',#1497,#1201,#1202);
#1008=AXIS2_PLACEMENT_3D('',#1499,#1203,#1204);
#1009=AXIS2_PLACEMENT_3D('',#1503,#1207,#1208);
#1010=AXIS2_PLACEMENT_3D('',#1506,#1210,#1211);
#1011=AXIS2_PLACEMENT_3D('',#1507,#1212,#1213);
#1012=AXIS2_PLACEMENT_3D('',#1511,#1216,#1217);
#1013=AXIS2_PLACEMENT_3D('',#1512,#1218,#1219);
#1014=AXIS2_PLACEMENT_3D('',#1513,#1220,#1221);
#1015=AXIS2_PLACEMENT_3D('',#1516,#1223,#1224);
#1016=AXIS2_PLACEMENT_3D('',#1519,#1226,#1227);
#1017=AXIS2_PLACEMENT_3D('',#1523,#1230,#1231);
#1018=AXIS2_PLACEMENT_3D('',#1524,#1232,#1233);
#1019=AXIS2_PLACEMENT_3D('',#1527,#1235,#1236);
#1020=AXIS2_PLACEMENT_3D('',#1531,#1239,#1240);
#1021=AXIS2_PLACEMENT_3D('',#1532,#1241,#1242);
#1022=AXIS2_PLACEMENT_3D('',#1535,#1244,#1245);
#1023=AXIS2_PLACEMENT_3D('',#1539,#1248,#1249);
#1024=AXIS2_PLACEMENT_3D('',#1540,#1250,#1251);
#1025=AXIS2_PLACEMENT_3D('',#1543,#1253,#1254);
#1026=AXIS2_PLACEMENT_3D('',#1545,#1256,#1257);
#1027=AXIS2_PLACEMENT_3D('',#1546,#1258,#1259);
#1028=AXIS2_PLACEMENT_3D('',#1551,#1261,#1262);
#1029=AXIS2_PLACEMENT_3D('',#1555,#1264,#1265);
#1030=AXIS2_PLACEMENT_3D('',#1559,#1267,#1268);
#1031=AXIS2_PLACEMENT_3D('',#1562,#1270,#1271);
#1032=AXIS2_PLACEMENT_3D('',#1565,#1272,#1273);
#1033=AXIS2_PLACEMENT_3D('',#1566,#1274,#1275);
#1034=AXIS2_PLACEMENT_3D('',#1569,#1276,#1277);
#1035=AXIS2_PLACEMENT_3D('',#1570,#1278,#1279);
#1036=AXIS2_PLACEMENT_3D('',#1573,#1280,#1281);
#1037=AXIS2_PLACEMENT_3D('',#1574,#1282,#1283);
#1038=AXIS2_PLACEMENT_3D('',#1577,#1284,#1285);
#1039=AXIS2_PLACEMENT_3D('',#1578,#1286,#1287);
#1040=AXIS2_PLACEMENT_3D('',#1582,#1290,#1291);
#1041=AXIS2_PLACEMENT_3D('',#1585,#1293,#1294);
#1042=AXIS2_PLACEMENT_3D('',#1586,#1295,#1296);
#1043=AXIS2_PLACEMENT_3D('',#1590,#1299,#1300);
#1044=AXIS2_PLACEMENT_3D('',#1591,#1301,#1302);
#1045=AXIS2_PLACEMENT_3D('',#1592,#1303,#1304);
#1046=AXIS2_PLACEMENT_3D('',#1595,#1307,#1308);
#1047=AXIS2_PLACEMENT_3D('',#1597,#1310,#1311);
#1048=AXIS2_PLACEMENT_3D('',#1599,#1313,#1314);
#1049=AXIS2_PLACEMENT_3D('',#1601,#1316,#1317);
#1050=AXIS2_PLACEMENT_3D('',#1603,#1319,#1320);
#1051=AXIS2_PLACEMENT_3D('',#1605,#1322,#1323);
#1052=AXIS2_PLACEMENT_3D('',#1607,#1325,#1326);
#1053=AXIS2_PLACEMENT_3D('',#1608,#1327,#1328);
#1054=AXIS2_PLACEMENT_3D('',#1609,#1329,#1330);
#1055=AXIS2_PLACEMENT_3D('',#1612,#1331,#1332);
#1056=AXIS2_PLACEMENT_3D('',#1613,#1333,#1334);
#1057=AXIS2_PLACEMENT_3D('',#1614,#1335,#1336);
#1058=AXIS2_PLACEMENT_3D('',#1615,#1337,#1338);
#1059=AXIS2_PLACEMENT_3D('',#1618,#1339,#1340);
#1060=AXIS2_PLACEMENT_3D('',#1619,#1341,#1342);
#1061=AXIS2_PLACEMENT_3D('',#1620,#1343,#1344);
#1062=AXIS2_PLACEMENT_3D('',#1621,#1345,#1346);
#1063=AXIS2_PLACEMENT_3D('',#1624,#1347,#1348);
#1064=AXIS2_PLACEMENT_3D('',#1625,#1349,#1350);
#1065=AXIS2_PLACEMENT_3D('',#1626,#1351,#1352);
#1066=AXIS2_PLACEMENT_3D('',#1627,#1353,#1354);
#1067=AXIS2_PLACEMENT_3D('',#1630,#1355,#1356);
#1068=AXIS2_PLACEMENT_3D('',#1631,#1357,#1358);
#1069=DIRECTION('',(0.,0.,1.));
#1070=DIRECTION('',(1.,0.,0.));
#1071=DIRECTION('',(0.,0.,1.));
#1072=DIRECTION('',(1.,0.,0.));
#1073=DIRECTION('',(-0.707106781186548,0.707106781186547,0.));
#1074=DIRECTION('',(1.,0.,0.));
#1075=DIRECTION('',(-0.707106781186547,-0.707106781186548,0.));
#1076=DIRECTION('',(0.707106781186717,-0.707106781186378,0.));
#1077=DIRECTION('',(0.707106781186718,0.707106781186377,0.));
#1078=DIRECTION('',(1.,0.,0.));
#1079=DIRECTION('',(-0.707106781186715,0.70710678118638,0.));
#1080=DIRECTION('',(-0.707106781186715,-0.707106781186381,0.));
#1081=DIRECTION('',(-0.707106781186381,0.707106781186714,0.));
#1082=DIRECTION('',(-0.707106781186714,-0.707106781186381,0.));
#1083=DIRECTION('',(0.707106781186715,0.707106781186381,0.));
#1084=DIRECTION('',(0.,0.,-1.));
#1085=DIRECTION('',(0.,0.,1.));
#1086=DIRECTION('',(-0.70710678118638,-0.707106781186715,0.));
#1087=DIRECTION('',(-0.707106781186715,0.70710678118638,0.));
#1088=DIRECTION('',(-0.707106781186715,0.70710678118638,0.));
#1089=DIRECTION('',(0.,0.,1.));
#1090=DIRECTION('',(0.707106781186377,-0.707106781186718,0.));
#1091=DIRECTION('',(-0.707106781186718,-0.707106781186377,0.));
#1092=DIRECTION('',(-0.707106781186718,-0.707106781186377,0.));
#1093=DIRECTION('',(0.,0.,-1.));
#1094=DIRECTION('',(0.,0.,1.));
#1095=DIRECTION('',(0.707106781186378,0.707106781186717,0.));
#1096=DIRECTION('',(-0.707106781186717,0.707106781186378,0.));
#1097=DIRECTION('',(0.707106781186717,-0.707106781186378,0.));
#1098=DIRECTION('',(0.,0.,1.));
#1099=DIRECTION('',(0.,0.,-1.));
#1100=DIRECTION('',(-1.,0.,0.));
#1101=DIRECTION('',(0.,-1.,0.));
#1102=DIRECTION('',(-1.,0.,0.));
#1103=DIRECTION('',(0.,-1.,0.));
#1104=DIRECTION('',(-1.,0.,0.));
#1105=DIRECTION('',(-1.,0.,0.));
#1106=DIRECTION('',(0.,0.,1.));
#1107=DIRECTION('',(0.,-1.,0.));
#1108=DIRECTION('',(0.,0.,1.));
#1109=DIRECTION('',(0.,-1.,0.));
#1110=DIRECTION('',(0.,0.,1.));
#1111=DIRECTION('',(0.707106781186548,-0.707106781186547,0.));
#1112=DIRECTION('',(-0.707106781186547,-0.707106781186548,0.));
#1113=DIRECTION('',(-0.707106781186547,-0.707106781186548,0.));
#1114=DIRECTION('',(0.,0.,-1.));
#1115=DIRECTION('',(0.,0.,-1.));
#1116=DIRECTION('',(-1.,0.,0.));
#1117=DIRECTION('',(0.707106781186548,-0.707106781186547,0.));
#1118=DIRECTION('',(-1.,0.,0.));
#1119=DIRECTION('',(-1.,0.,0.));
#1120=DIRECTION('',(0.,-1.,0.));
#1121=DIRECTION('',(1.,0.,0.));
#1122=DIRECTION('',(0.,-1.,0.));
#1123=DIRECTION('',(1.,0.,0.));
#1124=DIRECTION('',(-2.9800865722943E-17,-1.,5.9045079691523E-18));
#1125=DIRECTION('',(1.,-2.9800865722943E-17,0.));
#1126=DIRECTION('',(0.,-1.,0.));
#1127=DIRECTION('',(1.,0.,0.));
#1128=DIRECTION('',(2.12435759400276E-16,-1.,-4.20903421388249E-17));
#1129=DIRECTION('',(1.,2.12435759400276E-16,0.));
#1130=DIRECTION('',(0.,0.,1.));
#1131=DIRECTION('',(-0.707106781186547,-0.707106781186548,0.));
#1132=DIRECTION('',(-0.707106781186548,0.707106781186547,0.));
#1133=DIRECTION('',(1.73423880171624E-17,-1.,8.75294231652691E-17));
#1134=DIRECTION('',(0.,-8.75294231652691E-17,-1.));
#1135=DIRECTION('',(-2.77555756156289E-15,-1.,-2.7755575615629E-15));
#1136=DIRECTION('',(1.,-2.77555756156289E-15,0.));
#1137=DIRECTION('',(0.,1.,0.));
#1138=DIRECTION('',(-1.99782239347713E-15,-1.,-1.99782239347713E-15));
#1139=DIRECTION('',(1.,-2.77555756156289E-15,6.93889390390723E-16));
#1140=DIRECTION('',(0.,0.,1.));
#1141=DIRECTION('',(1.,0.,0.));
#1142=DIRECTION('',(0.,-1.,0.));
#1143=DIRECTION('',(1.,0.,0.));
#1144=DIRECTION('',(0.,1.,0.));
#1145=DIRECTION('',(1.,0.,0.));
#1146=DIRECTION('',(0.,1.,0.));
#1147=DIRECTION('',(1.,0.,0.));
#1148=DIRECTION('',(-2.77555756156289E-15,1.,-2.77555756156289E-15));
#1149=DIRECTION('',(0.,-2.77555756156289E-15,-1.));
#1150=DIRECTION('',(0.,0.,1.));
#1151=DIRECTION('',(-2.77555756156289E-15,1.,2.77555756156289E-15));
#1152=DIRECTION('',(-1.,-2.7755575615629E-15,0.));
#1153=DIRECTION('',(1.,0.,0.));
#1154=DIRECTION('',(2.77555756156289E-15,1.,-2.77555756156289E-15));
#1155=DIRECTION('',(1.,-2.77555756156289E-15,0.));
#1156=DIRECTION('',(-3.90778903229359E-17,-1.,-1.97231499785223E-16));
#1157=DIRECTION('',(0.,1.97231499785223E-16,-1.));
#1158=DIRECTION('',(5.84739180661735E-16,1.,-5.84739180661735E-16));
#1159=DIRECTION('',(1.,0.,-4.16333634234432E-15));
#1160=DIRECTION('',(-2.0833872534323E-16,-1.,-1.0515142686367E-15));
#1161=DIRECTION('',(0.,1.0515142686367E-15,-1.));
#1162=DIRECTION('',(2.46885013108227E-15,-1.,-2.46885013108227E-15));
#1163=DIRECTION('',(-8.67361737988403E-16,-2.77555756156289E-15,1.));
#1164=DIRECTION('',(0.,1.,0.));
#1165=DIRECTION('',(2.00307048680152E-16,1.,-2.00307048680152E-16));
#1166=DIRECTION('',(-1.,0.,0.));
#1167=DIRECTION('',(1.,0.,0.));
#1168=DIRECTION('',(0.,0.,-1.));
#1169=DIRECTION('',(0.,0.,-1.));
#1170=DIRECTION('',(0.,1.,0.));
#1171=DIRECTION('',(0.,0.,-1.));
#1172=DIRECTION('',(0.,1.,0.));
#1173=DIRECTION('',(1.,0.,0.));
#1174=DIRECTION('',(1.21277616413525E-15,1.,1.21277616413524E-15));
#1175=DIRECTION('',(-1.21430643318377E-15,0.,1.));
#1176=DIRECTION('',(0.,0.,-1.));
#1177=DIRECTION('',(1.21277616413525E-15,1.,-1.21277616413524E-15));
#1178=DIRECTION('',(1.,0.,0.));
#1179=DIRECTION('',(-1.,0.,0.));
#1180=DIRECTION('',(-1.99782239347713E-15,1.,-1.99782239347713E-15));
#1181=DIRECTION('',(-1.04083408558608E-15,-2.77555756156289E-15,-1.));
#1182=DIRECTION('',(-4.34019838703623E-16,-1.,-2.19055796043867E-15));
#1183=DIRECTION('',(0.,2.19055796043867E-15,-1.));
#1184=DIRECTION('',(0.,1.,0.));
#1185=DIRECTION('',(1.99782239347713E-15,-1.,1.99782239347713E-15));
#1186=DIRECTION('',(-1.,-2.77555756156289E-15,0.));
#1187=DIRECTION('',(2.12435759400276E-16,-1.,-4.20903421388249E-17));
#1188=DIRECTION('',(1.,2.12435759400276E-16,0.));
#1189=DIRECTION('',(2.12435759400276E-16,-1.,-4.20903421388249E-17));
#1190=DIRECTION('',(1.,2.12435759400276E-16,0.));
#1191=DIRECTION('',(3.94068696622542E-16,1.,-2.71368923146486E-16));
#1192=DIRECTION('',(-1.,3.94068696622542E-16,0.));
#1193=DIRECTION('',(3.94068696622542E-16,1.,-2.71368923146486E-16));
#1194=DIRECTION('',(-1.,3.94068696622542E-16,0.));
#1195=DIRECTION('',(-2.9800865722943E-17,-1.,5.9045079691523E-18));
#1196=DIRECTION('',(1.,-2.9800865722943E-17,0.));
#1197=DIRECTION('',(-2.9800865722943E-17,-1.,5.9045079691523E-18));
#1198=DIRECTION('',(1.,-2.9800865722943E-17,0.));
#1199=DIRECTION('',(-4.70262656250943E-16,1.,-3.80915003506023E-16));
#1200=DIRECTION('',(-1.,-4.70262656250943E-16,0.));
#1201=DIRECTION('',(-4.70262656250943E-16,1.,-3.80915003506023E-16));
#1202=DIRECTION('',(-1.,-4.70262656250943E-16,0.));
#1203=DIRECTION('',(0.,0.,1.));
#1204=DIRECTION('',(1.,0.,0.));
#1205=DIRECTION('',(0.,1.,0.));
#1206=DIRECTION('',(1.,0.,0.));
#1207=DIRECTION('',(1.73423880171626E-17,-1.,8.75294231652698E-17));
#1208=DIRECTION('',(0.,-8.75294231652698E-17,-1.));
#1209=DIRECTION('',(0.,1.,0.));
#1210=DIRECTION('',(-3.02647347431095E-15,1.,3.02647347431095E-15));
#1211=DIRECTION('',(1.,2.77555756156289E-15,-1.38777878078144E-15));
#1212=DIRECTION('',(-1.,0.,0.));
#1213=DIRECTION('',(0.,0.,1.));
#1214=DIRECTION('',(0.,1.,0.));
#1215=DIRECTION('',(0.,0.,1.));
#1216=DIRECTION('',(1.73423880171625E-17,-1.,8.75294231652694E-17));
#1217=DIRECTION('',(0.,-8.75294231652694E-17,-1.));
#1218=DIRECTION('',(5.84739180661736E-16,1.,5.84739180661735E-16));
#1219=DIRECTION('',(5.20417042793042E-16,0.,1.));
#1220=DIRECTION('',(-4.7053545339533E-16,1.,-8.67618418749778E-17));
#1221=DIRECTION('',(-1.,-4.7053545339533E-16,0.));
#1222=DIRECTION('',(0.,-0.707106781186548,0.707106781186548));
#1223=DIRECTION('',(-6.71334786285283E-16,-1.,-6.71334786285286E-16));
#1224=DIRECTION('',(-1.,0.,-2.39272203583008E-15));
#1225=DIRECTION('',(-0.707106781186559,0.707106781186536,0.));
#1226=DIRECTION('',(0.707106781186544,0.707106781186551,0.));
#1227=DIRECTION('',(-0.707106781186551,0.707106781186544,0.));
#1228=DIRECTION('',(0.,0.,-1.));
#1229=DIRECTION('',(0.707106781186549,-0.707106781186546,0.));
#1230=DIRECTION('',(-8.67618418749782E-17,1.,4.7053545339533E-16));
#1231=DIRECTION('',(0.,-4.7053545339533E-16,1.));
#1232=DIRECTION('',(-6.71334786285285E-16,-1.,6.71334786285284E-16));
#1233=DIRECTION('',(5.9818050895752E-16,0.,1.));
#1234=DIRECTION('',(0.,0.707106781186545,0.707106781186551));
#1235=DIRECTION('',(0.,0.707106781186547,-0.707106781186548));
#1236=DIRECTION('',(1.,0.,0.));
#1237=DIRECTION('',(-1.,0.,0.));
#1238=DIRECTION('',(0.,-0.707106781186545,-0.707106781186551));
#1239=DIRECTION('',(1.23763208777329E-16,1.,3.54821686406422E-16));
#1240=DIRECTION('',(0.,-3.54821686406422E-16,1.));
#1241=DIRECTION('',(1.45638101562717E-15,-1.,1.45638101562717E-15));
#1242=DIRECTION('',(1.,2.39272203583008E-15,-1.19636101791504E-15));
#1243=DIRECTION('',(0.70710678118655,0.707106781186545,0.));
#1244=DIRECTION('',(-0.707106781186551,0.707106781186544,0.));
#1245=DIRECTION('',(-0.707106781186544,-0.707106781186551,0.));
#1246=DIRECTION('',(0.,0.,1.));
#1247=DIRECTION('',(-0.70710678118655,-0.707106781186545,0.));
#1248=DIRECTION('',(1.18273895468807E-16,1.,-4.12544029257761E-17));
#1249=DIRECTION('',(-1.,1.18273895468807E-16,0.));
#1250=DIRECTION('',(1.45638101562717E-15,-1.,-1.45638101562717E-15));
#1251=DIRECTION('',(-3.43953792650575E-15,2.39272203583009E-15,-1.));
#1252=DIRECTION('',(0.,0.707106781186548,-0.707106781186548));
#1253=DIRECTION('',(0.,0.707106781186547,0.707106781186548));
#1254=DIRECTION('',(1.,0.,0.));
#1255=DIRECTION('',(1.,0.,0.));
#1256=DIRECTION('',(0.,1.,0.));
#1257=DIRECTION('',(1.,0.,0.));
#1258=DIRECTION('',(6.71334786285285E-16,-1.,6.71334786285285E-16));
#1259=DIRECTION('',(1.,0.,-1.79454152687257E-15));
#1260=DIRECTION('',(1.,0.,0.));
#1261=DIRECTION('',(-6.71334786285285E-16,-1.,6.71334786285285E-16));
#1262=DIRECTION('',(2.09363178135133E-15,0.,1.));
#1263=DIRECTION('',(0.,0.,1.));
#1264=DIRECTION('',(-1.45638101562717E-15,-1.,-1.45638101562717E-15));
#1265=DIRECTION('',(-1.,2.39272203583008E-15,2.9909025447876E-15));
#1266=DIRECTION('',(-1.,0.,0.));
#1267=DIRECTION('',(3.5731629454853E-16,-1.,-3.5731629454853E-16));
#1268=DIRECTION('',(-4.03771843546328E-15,0.,-1.));
#1269=DIRECTION('',(0.,0.,-1.));
#1270=DIRECTION('',(1.01590383322878E-15,-1.,-2.01283155159277E-16));
#1271=DIRECTION('',(1.,1.01590383322878E-15,0.));
#1272=DIRECTION('',(0.,-1.,0.));
#1273=DIRECTION('',(1.,0.,-3.96508223080413E-15));
#1274=DIRECTION('',(0.,-1.,0.));
#1275=DIRECTION('',(0.,0.,-1.));
#1276=DIRECTION('',(0.,-1.,0.));
#1277=DIRECTION('',(1.,0.,3.85494105772622E-15));
#1278=DIRECTION('',(7.80667828230819E-17,-1.,-1.5467535258551E-17));
#1279=DIRECTION('',(1.,7.80667828230819E-17,0.));
#1280=DIRECTION('',(0.,-1.,0.));
#1281=DIRECTION('',(1.,0.,0.));
#1282=DIRECTION('',(-1.01590383322879E-15,-1.,2.0128315515927E-16));
#1283=DIRECTION('',(1.,-1.01590383322879E-15,0.));
#1284=DIRECTION('',(0.,-1.,0.));
#1285=DIRECTION('',(1.,0.,3.96508223080413E-15));
#1286=DIRECTION('',(0.,0.,-1.));
#1287=DIRECTION('',(-1.,0.,0.));
#1288=DIRECTION('',(0.,1.,0.));
#1289=DIRECTION('',(-1.,0.,0.));
#1290=DIRECTION('',(1.73423880171624E-17,-1.,8.7529423165269E-17));
#1291=DIRECTION('',(0.,-8.7529423165269E-17,-1.));
#1292=DIRECTION('',(0.,1.,0.));
#1293=DIRECTION('',(-5.84739180661735E-16,1.,5.84739180661736E-16));
#1294=DIRECTION('',(-1.,0.,2.08166817117216E-15));
#1295=DIRECTION('',(1.,0.,0.));
#1296=DIRECTION('',(0.,0.,-1.));
#1297=DIRECTION('',(0.,1.,0.));
#1298=DIRECTION('',(0.,0.,-1.));
#1299=DIRECTION('',(1.73423880171623E-17,-1.,8.75294231652685E-17));
#1300=DIRECTION('',(0.,-8.75294231652685E-17,-1.));
#1301=DIRECTION('',(-1.13711443056603E-16,1.,-1.13711443056603E-16));
#1302=DIRECTION('',(-5.20417042793039E-15,0.,-1.));
#1303=DIRECTION('',(-1.23763208777329E-16,1.,-3.54821686406422E-16));
#1304=DIRECTION('',(0.,3.54821686406422E-16,1.));
#1305=DIRECTION('',(0.,-0.707106781186545,-0.707106781186551));
#1306=DIRECTION('',(0.70710678118655,0.707106781186545,0.));
#1307=DIRECTION('',(-0.707106781186551,0.707106781186544,0.));
#1308=DIRECTION('',(-0.707106781186544,-0.707106781186551,0.));
#1309=DIRECTION('',(-0.70710678118655,-0.707106781186545,0.));
#1310=DIRECTION('',(3.1280561494798E-16,1.,-6.96137942736732E-16));
#1311=DIRECTION('',(0.,6.96137942736732E-16,1.));
#1312=DIRECTION('',(0.,0.707106781186545,-0.70710678118655));
#1313=DIRECTION('',(0.,0.707106781186548,0.707106781186547));
#1314=DIRECTION('',(1.,0.,0.));
#1315=DIRECTION('',(0.,-0.707106781186537,0.707106781186558));
#1316=DIRECTION('',(-1.01839280564075E-16,1.,1.28777913333418E-16));
#1317=DIRECTION('',(0.,-1.28777913333418E-16,1.));
#1318=DIRECTION('',(-0.707106781186559,0.707106781186536,0.));
#1319=DIRECTION('',(0.707106781186544,0.707106781186551,0.));
#1320=DIRECTION('',(-0.707106781186551,0.707106781186544,0.));
#1321=DIRECTION('',(0.707106781186549,-0.707106781186546,0.));
#1322=DIRECTION('',(2.68059844531447E-16,1.,3.46772244617999E-16));
#1323=DIRECTION('',(0.,-3.46772244617999E-16,1.));
#1324=DIRECTION('',(0.,0.707106781186545,0.707106781186551));
#1325=DIRECTION('',(0.,0.707106781186545,-0.70710678118655));
#1326=DIRECTION('',(1.,0.,0.));
#1327=DIRECTION('',(0.,1.,0.));
#1328=DIRECTION('',(1.,0.,0.));
#1329=DIRECTION('',(-7.93016446160832E-15,1.,7.93016446160832E-15));
#1330=DIRECTION('',(-1.,-7.93016446160822E-15,3.96508223080411E-15));
#1331=DIRECTION('',(1.01590383322878E-15,-1.,-2.01283155159277E-16));
#1332=DIRECTION('',(1.,1.01590383322878E-15,0.));
#1333=DIRECTION('',(1.01590383322878E-15,-1.,-2.01283155159277E-16));
#1334=DIRECTION('',(1.,1.01590383322878E-15,0.));
#1335=DIRECTION('',(0.,1.,0.));
#1336=DIRECTION('',(1.,0.,0.));
#1337=DIRECTION('',(-7.70988211545246E-15,1.,7.70988211545246E-15));
#1338=DIRECTION('',(-1.,-7.70988211545246E-15,0.));
#1339=DIRECTION('',(0.,-1.,0.));
#1340=DIRECTION('',(0.,0.,-1.));
#1341=DIRECTION('',(0.,-1.,0.));
#1342=DIRECTION('',(0.,0.,-1.));
#1343=DIRECTION('',(0.,1.,0.));
#1344=DIRECTION('',(1.,0.,0.));
#1345=DIRECTION('',(-7.70988211545246E-15,1.,7.70988211545248E-15));
#1346=DIRECTION('',(-1.,-7.70988211545246E-15,0.));
#1347=DIRECTION('',(7.80667828230819E-17,-1.,-1.5467535258551E-17));
#1348=DIRECTION('',(1.,7.80667828230819E-17,0.));
#1349=DIRECTION('',(7.80667828230819E-17,-1.,-1.5467535258551E-17));
#1350=DIRECTION('',(1.,7.80667828230819E-17,0.));
#1351=DIRECTION('',(0.,1.,0.));
#1352=DIRECTION('',(1.,0.,0.));
#1353=DIRECTION('',(-7.93016446160826E-15,1.,7.93016446160824E-15));
#1354=DIRECTION('',(-1.,-7.93016446160829E-15,-3.96508223080415E-15));
#1355=DIRECTION('',(-1.01590383322879E-15,-1.,2.0128315515927E-16));
#1356=DIRECTION('',(1.,-1.01590383322879E-15,0.));
#1357=DIRECTION('',(-1.01590383322879E-15,-1.,2.0128315515927E-16));
#1358=DIRECTION('',(1.,-1.01590383322879E-15,0.));
#1359=CARTESIAN_POINT('',(0.,0.,0.));
#1360=CARTESIAN_POINT('',(0.03732,-0.03078,0.032));
#1361=CARTESIAN_POINT('',(-0.02318,-0.04382,0.032));
#1362=CARTESIAN_POINT('',(-0.024,-0.043,0.032));
#1363=CARTESIAN_POINT('',(-0.031,-0.036,0.032));
#1364=CARTESIAN_POINT('',(0.03732,-0.043,0.032));
#1365=CARTESIAN_POINT('',(0.024,-0.043,0.032));
#1366=CARTESIAN_POINT('',(0.02318,-0.04382,0.032));
#1367=CARTESIAN_POINT('',(0.031,-0.036,0.032));
#1368=CARTESIAN_POINT('',(0.0286799999999989,-0.03368,0.032));
#1369=CARTESIAN_POINT('',(0.028999999999999,-0.034,0.032));
#1370=CARTESIAN_POINT('',(0.0347700000000015,-0.02823,0.032));
#1371=CARTESIAN_POINT('',(0.031,-0.032,0.032));
#1372=CARTESIAN_POINT('',(-0.03732,-0.032,0.032));
#1373=CARTESIAN_POINT('',(-0.031,-0.032,0.032));
#1374=CARTESIAN_POINT('',(-0.0286799999999989,-0.03432,0.032));
#1375=CARTESIAN_POINT('',(-0.028999999999999,-0.034,0.032));
#1376=CARTESIAN_POINT('',(0.00577000000001616,0.000769999999998737,0.032));
#1377=CARTESIAN_POINT('',(-0.03132,-0.03632,0.03532));
#1378=CARTESIAN_POINT('',(-0.000949999999983832,-0.00594999999999809,0.));
#1379=CARTESIAN_POINT('',(-0.031,-0.036,0.));
#1380=CARTESIAN_POINT('',(-0.028999999999999,-0.034,0.));
#1381=CARTESIAN_POINT('',(-0.031,-0.036,-0.00332));
#1382=CARTESIAN_POINT('',(-0.0289999999999991,-0.034,0.03532));
#1383=CARTESIAN_POINT('',(-0.0286799999999989,-0.03432,0.03532));
#1384=CARTESIAN_POINT('',(0.00927000000001618,-0.0722699999999971,0.));
#1385=CARTESIAN_POINT('',(-0.031,-0.032,0.));
#1386=CARTESIAN_POINT('',(-0.031,-0.032,0.03532));
#1387=CARTESIAN_POINT('',(0.03132,-0.03168,0.03532));
#1388=CARTESIAN_POINT('',(0.0280500000000015,-0.0349499999999971,0.));
#1389=CARTESIAN_POINT('',(0.031,-0.032,0.));
#1390=CARTESIAN_POINT('',(0.028999999999999,-0.034,0.));
#1391=CARTESIAN_POINT('',(0.031,-0.032,0.03532));
#1392=CARTESIAN_POINT('',(0.028999999999999,-0.034,0.03532));
#1393=CARTESIAN_POINT('',(0.0286799999999989,-0.03368,0.03532));
#1394=CARTESIAN_POINT('',(0.0382700000000015,-0.0432699999999981,0.));
#1395=CARTESIAN_POINT('',(0.031,-0.036,0.));
#1396=CARTESIAN_POINT('',(0.031,-0.036,0.03532));
#1397=CARTESIAN_POINT('',(0.00372,-0.03197,0.0264));
#1398=CARTESIAN_POINT('',(0.003,-0.03395,0.0264));
#1399=CARTESIAN_POINT('',(0.003,-0.0324,0.0264));
#1400=CARTESIAN_POINT('',(0.003,-0.0355,0.0264));
#1401=CARTESIAN_POINT('',(0.00372,-0.0355,0.0264));
#1402=CARTESIAN_POINT('',(-0.003,-0.0355,0.0264));
#1403=CARTESIAN_POINT('',(-0.003,-0.03395,0.0264));
#1404=CARTESIAN_POINT('',(-0.003,-0.0324,0.0264));
#1405=CARTESIAN_POINT('',(0.00372,-0.0324,0.0264));
#1406=CARTESIAN_POINT('',(0.0055,-0.03197,0.02268));
#1407=CARTESIAN_POINT('',(0.0055,-0.03395,0.0081));
#1408=CARTESIAN_POINT('',(0.0055,-0.0324,0.0081));
#1409=CARTESIAN_POINT('',(0.0055,-0.0355,0.0081));
#1410=CARTESIAN_POINT('',(0.0055,-0.0355,0.02268));
#1411=CARTESIAN_POINT('',(0.0055,-0.0355,0.0091));
#1412=CARTESIAN_POINT('',(0.0055,-0.03395,0.0091));
#1413=CARTESIAN_POINT('',(0.0055,-0.0324,0.0091));
#1414=CARTESIAN_POINT('',(0.0055,-0.0324,0.02268));
#1415=CARTESIAN_POINT('',(0.02318,-0.04382,0.03532));
#1416=CARTESIAN_POINT('',(0.03005,-0.03695,0.));
#1417=CARTESIAN_POINT('',(0.024,-0.043,0.));
#1418=CARTESIAN_POINT('',(0.024,-0.043,0.03532));
#1419=CARTESIAN_POINT('',(0.03732,-0.04422,0.));
#1420=CARTESIAN_POINT('',(-0.02318,-0.04382,0.));
#1421=CARTESIAN_POINT('',(-0.024,-0.043,0.));
#1422=CARTESIAN_POINT('',(-0.03732,-0.032,0.));
#1423=CARTESIAN_POINT('',(0.03732,-0.043,0.));
#1424=CARTESIAN_POINT('',(-0.02892,-0.043,-0.00332));
#1425=CARTESIAN_POINT('',(0.01325,-0.043,0.016));
#1426=CARTESIAN_POINT('',(0.0215,-0.043,0.016));
#1427=CARTESIAN_POINT('',(0.005,-0.043,0.016));
#1428=CARTESIAN_POINT('',(0.01325,-0.043,0.016));
#1429=CARTESIAN_POINT('',(-0.01325,-0.043,0.016));
#1430=CARTESIAN_POINT('',(-0.005,-0.043,0.016));
#1431=CARTESIAN_POINT('',(-0.0215,-0.043,0.016));
#1432=CARTESIAN_POINT('',(-0.01325,-0.043,0.016));
#1433=CARTESIAN_POINT('',(-0.024,-0.043,-0.00332));
#1434=CARTESIAN_POINT('',(-0.02318,-0.04382,-0.00332));
#1435=CARTESIAN_POINT('',(0.003,-0.032762,0.0091));
#1436=CARTESIAN_POINT('',(0.003,-0.0355,0.0091));
#1437=CARTESIAN_POINT('',(0.003,-0.0355,0.0116));
#1438=CARTESIAN_POINT('',(0.003,-0.03395,0.0116));
#1439=CARTESIAN_POINT('',(0.003,-0.0324,0.0116));
#1440=CARTESIAN_POINT('',(0.003,-0.0324,0.0091));
#1441=CARTESIAN_POINT('',(-0.00372,-0.03197,0.0056));
#1442=CARTESIAN_POINT('',(-0.003,-0.03395,0.0056));
#1443=CARTESIAN_POINT('',(-0.003,-0.0324,0.0056));
#1444=CARTESIAN_POINT('',(-0.003,-0.0355,0.0056));
#1445=CARTESIAN_POINT('',(-0.00372,-0.0355,0.0056));
#1446=CARTESIAN_POINT('',(0.003,-0.0355,0.0056));
#1447=CARTESIAN_POINT('',(0.003,-0.03395,0.0056));
#1448=CARTESIAN_POINT('',(0.003,-0.0324,0.0056));
#1449=CARTESIAN_POINT('',(-0.00372,-0.0324,0.0056));
#1450=CARTESIAN_POINT('',(-0.00672,-0.0355,0.02712));
#1451=CARTESIAN_POINT('',(-0.003,-0.0355,0.0081));
#1452=CARTESIAN_POINT('',(-0.0055,-0.0355,0.0081));
#1453=CARTESIAN_POINT('',(-0.0055,-0.0355,0.02712));
#1454=CARTESIAN_POINT('',(-0.0055,-0.0355,0.0091));
#1455=CARTESIAN_POINT('',(-0.003,-0.0355,0.0091));
#1456=CARTESIAN_POINT('',(-0.003,-0.0355,0.0116));
#1457=CARTESIAN_POINT('',(-0.00672,-0.0355,0.0116));
#1458=CARTESIAN_POINT('',(0.003,-0.0355,0.0081));
#1459=CARTESIAN_POINT('',(0.003,-0.032762,0.0081));
#1460=CARTESIAN_POINT('',(0.003,-0.0324,0.0081));
#1461=CARTESIAN_POINT('',(-0.003,-0.032762,0.0239));
#1462=CARTESIAN_POINT('',(-0.003,-0.0355,0.0239));
#1463=CARTESIAN_POINT('',(-0.0055,-0.0355,0.0239));
#1464=CARTESIAN_POINT('',(-0.0055,-0.03395,0.0239));
#1465=CARTESIAN_POINT('',(-0.0055,-0.0324,0.0239));
#1466=CARTESIAN_POINT('',(-0.003,-0.0324,0.0239));
#1467=CARTESIAN_POINT('',(-0.0055,-0.03197,0.02412));
#1468=CARTESIAN_POINT('',(-0.0055,-0.0355,0.02412));
#1469=CARTESIAN_POINT('',(-0.0055,-0.0355,0.0229));
#1470=CARTESIAN_POINT('',(-0.0055,-0.03395,0.0229));
#1471=CARTESIAN_POINT('',(-0.0055,-0.0324,0.0229));
#1472=CARTESIAN_POINT('',(-0.0055,-0.0324,0.02412));
#1473=CARTESIAN_POINT('',(-0.00672,-0.0355,0.02712));
#1474=CARTESIAN_POINT('',(0.003,-0.0355,0.0239));
#1475=CARTESIAN_POINT('',(0.0055,-0.0355,0.0239));
#1476=CARTESIAN_POINT('',(0.0055,-0.0355,0.02712));
#1477=CARTESIAN_POINT('',(0.0055,-0.0355,0.0229));
#1478=CARTESIAN_POINT('',(0.003,-0.0355,0.0229));
#1479=CARTESIAN_POINT('',(0.003,-0.0355,0.0204));
#1480=CARTESIAN_POINT('',(-0.00672,-0.0355,0.0204));
#1481=CARTESIAN_POINT('',(-0.003,-0.0355,0.0204));
#1482=CARTESIAN_POINT('',(-0.003,-0.0355,0.0229));
#1483=CARTESIAN_POINT('',(-0.003,-0.032762,0.0229));
#1484=CARTESIAN_POINT('',(-0.003,-0.03395,0.0204));
#1485=CARTESIAN_POINT('',(-0.003,-0.0324,0.0204));
#1486=CARTESIAN_POINT('',(-0.003,-0.0324,0.0229));
#1487=CARTESIAN_POINT('',(-0.01325,-0.033812,0.016));
#1488=CARTESIAN_POINT('',(-0.01325,-0.0324,0.016));
#1489=CARTESIAN_POINT('',(-0.0215,-0.0324,0.016));
#1490=CARTESIAN_POINT('',(-0.01325,-0.0392735714285712,0.016));
#1491=CARTESIAN_POINT('',(-0.01325,-0.032,0.016));
#1492=CARTESIAN_POINT('',(-0.0219,-0.032,0.016));
#1493=CARTESIAN_POINT('',(0.01325,-0.033812,0.016));
#1494=CARTESIAN_POINT('',(0.01325,-0.0324,0.016));
#1495=CARTESIAN_POINT('',(0.01325,-0.0324,0.00775));
#1496=CARTESIAN_POINT('',(0.01325,-0.039273571428571,0.016));
#1497=CARTESIAN_POINT('',(0.01325,-0.032,0.016));
#1498=CARTESIAN_POINT('',(0.0046,-0.032,0.016));
#1499=CARTESIAN_POINT('',(-0.00372,-0.03197,0.0204));
#1500=CARTESIAN_POINT('',(0.003,-0.03395,0.0204));
#1501=CARTESIAN_POINT('',(0.003,-0.0324,0.0204));
#1502=CARTESIAN_POINT('',(-0.00372,-0.0324,0.0204));
#1503=CARTESIAN_POINT('',(0.003,-0.032762,0.0229));
#1504=CARTESIAN_POINT('',(0.0055,-0.03395,0.0229));
#1505=CARTESIAN_POINT('',(0.0055,-0.0324,0.0229));
#1506=CARTESIAN_POINT('',(0.003,-0.0324,0.0229));
#1507=CARTESIAN_POINT('',(0.0055,-0.03197,0.02268));
#1508=CARTESIAN_POINT('',(0.0055,-0.03395,0.0239));
#1509=CARTESIAN_POINT('',(0.0055,-0.0324,0.0239));
#1510=CARTESIAN_POINT('',(0.0055,-0.0324,0.02268));
#1511=CARTESIAN_POINT('',(0.003,-0.032762,0.0239));
#1512=CARTESIAN_POINT('',(0.003,-0.0324,0.0239));
#1513=CARTESIAN_POINT('',(-0.003,-0.0344271428571427,0.0229));
#1514=CARTESIAN_POINT('',(-0.003,-0.0322,0.0202));
#1515=CARTESIAN_POINT('',(-0.003,-0.032,0.02));
#1516=CARTESIAN_POINT('',(-0.003,-0.032,0.0229));
#1517=CARTESIAN_POINT('',(-0.0059,-0.032,0.0229));
#1518=CARTESIAN_POINT('',(-0.0057,-0.0322,0.0229));
#1519=CARTESIAN_POINT('',(-0.00491573593128806,-0.0329842640687119,0.02412));
#1520=CARTESIAN_POINT('',(-0.0059,-0.032,0.03532));
#1521=CARTESIAN_POINT('',(-0.0059,-0.032,0.0239));
#1522=CARTESIAN_POINT('',(-0.0057,-0.0322,0.0239));
#1523=CARTESIAN_POINT('',(-0.003,-0.0344271428571427,0.0239));
#1524=CARTESIAN_POINT('',(-0.003,-0.032,0.0239));
#1525=CARTESIAN_POINT('',(-0.003,-0.032,0.0268));
#1526=CARTESIAN_POINT('',(-0.003,-0.0322,0.0266));
#1527=CARTESIAN_POINT('',(0.00372,-0.0329842640687119,0.0258157359312881));
#1528=CARTESIAN_POINT('',(-0.03732,-0.032,0.0268));
#1529=CARTESIAN_POINT('',(0.003,-0.032,0.0268));
#1530=CARTESIAN_POINT('',(0.003,-0.0322,0.0266));
#1531=CARTESIAN_POINT('',(0.003,-0.0344271428571427,0.0239));
#1532=CARTESIAN_POINT('',(0.003,-0.032,0.0239));
#1533=CARTESIAN_POINT('',(0.0059,-0.032,0.0239));
#1534=CARTESIAN_POINT('',(0.0057,-0.0322,0.0239));
#1535=CARTESIAN_POINT('',(0.00491573593128809,-0.0329842640687119,0.02268));
#1536=CARTESIAN_POINT('',(0.0059,-0.032,0.03532));
#1537=CARTESIAN_POINT('',(0.0059,-0.032,0.0229));
#1538=CARTESIAN_POINT('',(0.0057,-0.0322,0.0229));
#1539=CARTESIAN_POINT('',(0.003,-0.0344271428571427,0.0229));
#1540=CARTESIAN_POINT('',(0.003,-0.032,0.0229));
#1541=CARTESIAN_POINT('',(0.003,-0.032,0.02));
#1542=CARTESIAN_POINT('',(0.003,-0.0322,0.0202));
#1543=CARTESIAN_POINT('',(-0.00372,-0.0329842640687119,0.0209842640687119));
#1544=CARTESIAN_POINT('',(-0.03732,-0.032,0.02));
#1545=CARTESIAN_POINT('',(-0.03732,-0.032,0.03532));
#1546=CARTESIAN_POINT('',(0.003,-0.032,0.0091));
#1547=CARTESIAN_POINT('',(0.0059,-0.032,0.0091));
#1548=CARTESIAN_POINT('',(0.003,-0.032,0.012));
#1549=CARTESIAN_POINT('',(0.00372,-0.032,0.012));
#1550=CARTESIAN_POINT('',(-0.003,-0.032,0.012));
#1551=CARTESIAN_POINT('',(-0.003,-0.032,0.0091));
#1552=CARTESIAN_POINT('',(-0.0059,-0.032,0.0091));
#1553=CARTESIAN_POINT('',(-0.0059,-0.032,0.02412));
#1554=CARTESIAN_POINT('',(-0.0059,-0.032,0.0081));
#1555=CARTESIAN_POINT('',(-0.003,-0.032,0.0081));
#1556=CARTESIAN_POINT('',(-0.003,-0.032,0.0052));
#1557=CARTESIAN_POINT('',(-0.00372,-0.032,0.0052));
#1558=CARTESIAN_POINT('',(0.003,-0.032,0.0052));
#1559=CARTESIAN_POINT('',(0.003,-0.032,0.0081));
#1560=CARTESIAN_POINT('',(0.0059,-0.032,0.0081));
#1561=CARTESIAN_POINT('',(0.0059,-0.032,0.02268));
#1562=CARTESIAN_POINT('',(-0.0213,-0.032,0.0248));
#1563=CARTESIAN_POINT('',(-0.022175,-0.032,0.0248));
#1564=CARTESIAN_POINT('',(-0.020425,-0.032,0.0248));
#1565=CARTESIAN_POINT('',(-0.0213,-0.032,0.0248));
#1566=CARTESIAN_POINT('',(0.0213,-0.032,0.0248));
#1567=CARTESIAN_POINT('',(0.0204,-0.032,0.0248));
#1568=CARTESIAN_POINT('',(0.0222,-0.032,0.0248));
#1569=CARTESIAN_POINT('',(0.0213,-0.032,0.0248));
#1570=CARTESIAN_POINT('',(-0.0213,-0.032,0.0072));
#1571=CARTESIAN_POINT('',(-0.0222,-0.032,0.0072));
#1572=CARTESIAN_POINT('',(-0.0204,-0.032,0.0072));
#1573=CARTESIAN_POINT('',(-0.0213,-0.032,0.0072));
#1574=CARTESIAN_POINT('',(0.0213,-0.032,0.0072));
#1575=CARTESIAN_POINT('',(0.020425,-0.032,0.0072));
#1576=CARTESIAN_POINT('',(0.022175,-0.032,0.0072));
#1577=CARTESIAN_POINT('',(0.0213,-0.032,0.0072));
#1578=CARTESIAN_POINT('',(0.00372,-0.03197,0.0116));
#1579=CARTESIAN_POINT('',(-0.003,-0.03395,0.0116));
#1580=CARTESIAN_POINT('',(-0.003,-0.0324,0.0116));
#1581=CARTESIAN_POINT('',(0.00372,-0.0324,0.0116));
#1582=CARTESIAN_POINT('',(-0.003,-0.032762,0.0091));
#1583=CARTESIAN_POINT('',(-0.0055,-0.03395,0.0091));
#1584=CARTESIAN_POINT('',(-0.0055,-0.0324,0.0091));
#1585=CARTESIAN_POINT('',(-0.003,-0.0324,0.0091));
#1586=CARTESIAN_POINT('',(-0.0055,-0.03197,0.02412));
#1587=CARTESIAN_POINT('',(-0.0055,-0.03395,0.0081));
#1588=CARTESIAN_POINT('',(-0.0055,-0.0324,0.0081));
#1589=CARTESIAN_POINT('',(-0.0055,-0.0324,0.02412));
#1590=CARTESIAN_POINT('',(-0.003,-0.032762,0.0081));
#1591=CARTESIAN_POINT('',(-0.003,-0.0324,0.0081));
#1592=CARTESIAN_POINT('',(0.003,-0.0344271428571427,0.0091));
#1593=CARTESIAN_POINT('',(0.003,-0.0322,0.0118));
#1594=CARTESIAN_POINT('',(0.0057,-0.0322,0.0091));
#1595=CARTESIAN_POINT('',(0.00491573593128809,-0.0329842640687119,0.02268));
#1596=CARTESIAN_POINT('',(0.0057,-0.0322,0.0081));
#1597=CARTESIAN_POINT('',(0.003,-0.0344271428571427,0.0081));
#1598=CARTESIAN_POINT('',(0.003,-0.0322,0.0054));
#1599=CARTESIAN_POINT('',(-0.00372,-0.0329842640687119,0.00618426406871192));
#1600=CARTESIAN_POINT('',(-0.003,-0.0322,0.0054));
#1601=CARTESIAN_POINT('',(-0.003,-0.0344271428571427,0.0081));
#1602=CARTESIAN_POINT('',(-0.0057,-0.0322,0.0081));
#1603=CARTESIAN_POINT('',(-0.00491573593128806,-0.0329842640687119,0.02412));
#1604=CARTESIAN_POINT('',(-0.0057,-0.0322,0.0091));
#1605=CARTESIAN_POINT('',(-0.003,-0.0344271428571427,0.0091));
#1606=CARTESIAN_POINT('',(-0.003,-0.0322,0.0118));
#1607=CARTESIAN_POINT('',(0.00372,-0.0329842640687119,0.0110157359312881));
#1608=CARTESIAN_POINT('',(-0.00672,-0.0355,0.02712));
#1609=CARTESIAN_POINT('',(-0.0213,-0.0355,0.0248));
#1610=CARTESIAN_POINT('',(-0.022175,-0.0355,0.0248));
#1611=CARTESIAN_POINT('',(-0.020425,-0.0355,0.0248));
#1612=CARTESIAN_POINT('',(-0.0213,-0.0355,0.0248));
#1613=CARTESIAN_POINT('',(-0.0213,-0.032418,0.0248));
#1614=CARTESIAN_POINT('',(-0.00672,-0.0355,0.02712));
#1615=CARTESIAN_POINT('',(0.0213,-0.0355,0.0248));
#1616=CARTESIAN_POINT('',(0.0204,-0.0355,0.0248));
#1617=CARTESIAN_POINT('',(0.0222,-0.0355,0.0248));
#1618=CARTESIAN_POINT('',(0.0213,-0.0355,0.0248));
#1619=CARTESIAN_POINT('',(0.0213,-0.032418,0.0248));
#1620=CARTESIAN_POINT('',(-0.00672,-0.0355,0.02712));
#1621=CARTESIAN_POINT('',(-0.0213,-0.0355,0.0072));
#1622=CARTESIAN_POINT('',(-0.0222,-0.0355,0.0072));
#1623=CARTESIAN_POINT('',(-0.0204,-0.0355,0.0072));
#1624=CARTESIAN_POINT('',(-0.0213,-0.0355,0.0072));
#1625=CARTESIAN_POINT('',(-0.0213,-0.032418,0.0072));
#1626=CARTESIAN_POINT('',(-0.00672,-0.0355,0.02712));
#1627=CARTESIAN_POINT('',(0.0213,-0.0355,0.0072));
#1628=CARTESIAN_POINT('',(0.020425,-0.0355,0.0072));
#1629=CARTESIAN_POINT('',(0.022175,-0.0355,0.0072));
#1630=CARTESIAN_POINT('',(0.0213,-0.0355,0.0072));
#1631=CARTESIAN_POINT('',(0.0213,-0.032418,0.0072));
#1632=MECHANICAL_DESIGN_GEOMETRIC_PRESENTATION_REPRESENTATION('',(#953),
#1633);
#1633=(
GEOMETRIC_REPRESENTATION_CONTEXT(3)
GLOBAL_UNCERTAINTY_ASSIGNED_CONTEXT((#1634))
GLOBAL_UNIT_ASSIGNED_CONTEXT((#1637,#1636,#1635))
REPRESENTATION_CONTEXT('Face ultrasonic','TOP_LEVEL_ASSEMBLY_PART')
);
#1634=UNCERTAINTY_MEASURE_WITH_UNIT(LENGTH_MEASURE(1.E-6),#1637,
'DISTANCE_ACCURACY_VALUE','Maximum Tolerance applied to model');
#1635=(
NAMED_UNIT(*)
SI_UNIT($,.STERADIAN.)
SOLID_ANGLE_UNIT()
);
#1636=(
NAMED_UNIT(*)
PLANE_ANGLE_UNIT()
SI_UNIT($,.RADIAN.)
);
#1637=(
LENGTH_UNIT()
NAMED_UNIT(*)
SI_UNIT($,.METRE.)
);
#1638=PRODUCT_DEFINITION_SHAPE('','',#1639);
#1639=PRODUCT_DEFINITION('','',#1641,#1640);
#1640=PRODUCT_DEFINITION_CONTEXT('',#1647,'design');
#1641=PRODUCT_DEFINITION_FORMATION_WITH_SPECIFIED_SOURCE('','',#1643,
 .NOT_KNOWN.);
#1642=PRODUCT_RELATED_PRODUCT_CATEGORY('','',(#1643));
#1643=PRODUCT('Face ultrasonic','Face ultrasonic','Face ultrasonic',(#1645));
#1644=PRODUCT_CATEGORY('','');
#1645=PRODUCT_CONTEXT('',#1647,'mechanical');
#1646=APPLICATION_PROTOCOL_DEFINITION('international standard',
'ap242_managed_model_based_3d_engineering',2011,#1647);
#1647=APPLICATION_CONTEXT('managed model based 3d engineering');
ENDSEC;
END-ISO-10303-21;
