ISO-10303-21;
HEADER;
/* Generated by software containing ST-Developer
 * from STEP Tools, Inc. (www.steptools.com) 
 */
/* OPTION: using custom renumber hook */

FILE_DESCRIPTION(
/* description */ ('STEP AP242',
'CAx-IF Rec.Pracs.---Representation and Presentation of Product Manufa
cturing Information (PMI)---4.0---2014-10-13',
'CAx-IF Rec.Pracs.---3D Tessellated Geometry---0.4---2014-09-14','2;1'),

/* implementation_level */ '2;1');

FILE_NAME(
/* name */ '68e8ddc4902833c1e804992e',
/* time_stamp */ '2025-10-10T10:19:49Z',
/* author */ (''),
/* organization */ (''),
/* preprocessor_version */ 'ST-DEVELOPER v20',
/* originating_system */ 'ONSHAPE BY PTC INC, 1.204',
/* authorisation */ '  ');

FILE_SCHEMA (('AP242_MANAGED_MODEL_BASED_3D_ENGINEERING_MIM_LF { 1 0 10303 442 1 1 4 }'));
ENDSEC;

DATA;
#10=SHAPE_REPRESENTATION_RELATIONSHIP('','',#1016,#11);
#11=ADVANCED_BREP_SHAPE_REPRESENTATION('',(#1014),#1710);
#12=CYLINDRICAL_SURFACE('',#1044,0.000995);
#13=CYLINDRICAL_SURFACE('',#1047,0.00102);
#14=CYLINDRICAL_SURFACE('',#1050,0.00102);
#15=CYLINDRICAL_SURFACE('',#1053,0.000995);
#16=CYLINDRICAL_SURFACE('',#1056,0.00825);
#17=CYLINDRICAL_SURFACE('',#1057,0.00825);
#18=CYLINDRICAL_SURFACE('',#1066,0.01005);
#19=CYLINDRICAL_SURFACE('',#1069,0.01005);
#20=CYLINDRICAL_SURFACE('',#1076,0.0008);
#21=CYLINDRICAL_SURFACE('',#1077,0.0008);
#22=CYLINDRICAL_SURFACE('',#1078,0.0008);
#23=CYLINDRICAL_SURFACE('',#1079,0.0008);
#24=CYLINDRICAL_SURFACE('',#1080,0.0025);
#25=CYLINDRICAL_SURFACE('',#1084,0.0025);
#26=CYLINDRICAL_SURFACE('',#1088,0.00125);
#27=CYLINDRICAL_SURFACE('',#1091,0.00125);
#28=CYLINDRICAL_SURFACE('',#1098,0.014);
#29=CYLINDRICAL_SURFACE('',#1099,0.014);
#30=CYLINDRICAL_SURFACE('',#1107,0.0204);
#31=CYLINDRICAL_SURFACE('',#1109,0.04);
#32=CYLINDRICAL_SURFACE('',#1114,0.04);
#33=CYLINDRICAL_SURFACE('',#1119,0.04);
#34=CYLINDRICAL_SURFACE('',#1121,0.0204);
#35=CIRCLE('',#1021,0.00825);
#36=CIRCLE('',#1022,0.00825);
#37=CIRCLE('',#1023,0.0204);
#38=CIRCLE('',#1024,0.04);
#39=CIRCLE('',#1025,0.04);
#40=CIRCLE('',#1026,0.04);
#41=CIRCLE('',#1027,0.0204);
#42=CIRCLE('',#1030,0.0025);
#43=CIRCLE('',#1031,0.0025);
#44=CIRCLE('',#1032,0.00825);
#45=CIRCLE('',#1033,0.00825);
#46=CIRCLE('',#1034,0.000995);
#47=CIRCLE('',#1035,0.00102);
#48=CIRCLE('',#1036,0.00102);
#49=CIRCLE('',#1037,0.000995);
#50=CIRCLE('',#1038,0.0008);
#51=CIRCLE('',#1039,0.01005);
#52=CIRCLE('',#1040,0.0008);
#53=CIRCLE('',#1041,0.0008);
#54=CIRCLE('',#1042,0.01005);
#55=CIRCLE('',#1043,0.0008);
#56=CIRCLE('',#1045,0.000995);
#57=CIRCLE('',#1048,0.00102);
#58=CIRCLE('',#1051,0.00102);
#59=CIRCLE('',#1054,0.000995);
#60=CIRCLE('',#1067,0.01005);
#61=CIRCLE('',#1070,0.01005);
#62=CIRCLE('',#1072,0.0008);
#63=CIRCLE('',#1073,0.0008);
#64=CIRCLE('',#1074,0.0008);
#65=CIRCLE('',#1075,0.0008);
#66=CIRCLE('',#1081,0.0025);
#67=CIRCLE('',#1083,0.00125);
#68=CIRCLE('',#1085,0.0025);
#69=CIRCLE('',#1087,0.00125);
#70=CIRCLE('',#1089,0.00125);
#71=CIRCLE('',#1092,0.00125);
#72=CIRCLE('',#1108,0.0204);
#73=CIRCLE('',#1110,0.04);
#74=CIRCLE('',#1115,0.04);
#75=CIRCLE('',#1120,0.04);
#76=CIRCLE('',#1122,0.0204);
#77=ELLIPSE('',#1019,0.0197989898732233,0.014);
#78=ELLIPSE('',#1020,0.0197989898732233,0.014);
#79=ELLIPSE('',#1095,0.0197989898732233,0.014);
#80=ELLIPSE('',#1096,0.0197989898732233,0.014);
#81=ORIENTED_EDGE('',*,*,#343,.T.);
#82=ORIENTED_EDGE('',*,*,#344,.T.);
#83=ORIENTED_EDGE('',*,*,#345,.T.);
#84=ORIENTED_EDGE('',*,*,#346,.F.);
#85=ORIENTED_EDGE('',*,*,#347,.T.);
#86=ORIENTED_EDGE('',*,*,#348,.F.);
#87=ORIENTED_EDGE('',*,*,#349,.T.);
#88=ORIENTED_EDGE('',*,*,#350,.F.);
#89=ORIENTED_EDGE('',*,*,#351,.F.);
#90=ORIENTED_EDGE('',*,*,#352,.T.);
#91=ORIENTED_EDGE('',*,*,#353,.T.);
#92=ORIENTED_EDGE('',*,*,#354,.T.);
#93=ORIENTED_EDGE('',*,*,#355,.F.);
#94=ORIENTED_EDGE('',*,*,#356,.T.);
#95=ORIENTED_EDGE('',*,*,#357,.T.);
#96=ORIENTED_EDGE('',*,*,#358,.F.);
#97=ORIENTED_EDGE('',*,*,#359,.F.);
#98=ORIENTED_EDGE('',*,*,#360,.T.);
#99=ORIENTED_EDGE('',*,*,#361,.T.);
#100=ORIENTED_EDGE('',*,*,#362,.T.);
#101=ORIENTED_EDGE('',*,*,#363,.F.);
#102=ORIENTED_EDGE('',*,*,#364,.T.);
#103=ORIENTED_EDGE('',*,*,#365,.F.);
#104=ORIENTED_EDGE('',*,*,#366,.F.);
#105=ORIENTED_EDGE('',*,*,#367,.F.);
#106=ORIENTED_EDGE('',*,*,#368,.F.);
#107=ORIENTED_EDGE('',*,*,#369,.T.);
#108=ORIENTED_EDGE('',*,*,#370,.F.);
#109=ORIENTED_EDGE('',*,*,#371,.F.);
#110=ORIENTED_EDGE('',*,*,#372,.F.);
#111=ORIENTED_EDGE('',*,*,#373,.F.);
#112=ORIENTED_EDGE('',*,*,#374,.F.);
#113=ORIENTED_EDGE('',*,*,#375,.F.);
#114=ORIENTED_EDGE('',*,*,#376,.F.);
#115=ORIENTED_EDGE('',*,*,#377,.F.);
#116=ORIENTED_EDGE('',*,*,#378,.F.);
#117=ORIENTED_EDGE('',*,*,#379,.F.);
#118=ORIENTED_EDGE('',*,*,#380,.F.);
#119=ORIENTED_EDGE('',*,*,#381,.F.);
#120=ORIENTED_EDGE('',*,*,#382,.F.);
#121=ORIENTED_EDGE('',*,*,#383,.F.);
#122=ORIENTED_EDGE('',*,*,#373,.T.);
#123=ORIENTED_EDGE('',*,*,#384,.F.);
#124=ORIENTED_EDGE('',*,*,#385,.T.);
#125=ORIENTED_EDGE('',*,*,#386,.T.);
#126=ORIENTED_EDGE('',*,*,#387,.F.);
#127=ORIENTED_EDGE('',*,*,#388,.T.);
#128=ORIENTED_EDGE('',*,*,#389,.T.);
#129=ORIENTED_EDGE('',*,*,#390,.T.);
#130=ORIENTED_EDGE('',*,*,#391,.T.);
#131=ORIENTED_EDGE('',*,*,#392,.T.);
#132=ORIENTED_EDGE('',*,*,#393,.T.);
#133=ORIENTED_EDGE('',*,*,#394,.T.);
#134=ORIENTED_EDGE('',*,*,#383,.T.);
#135=ORIENTED_EDGE('',*,*,#395,.F.);
#136=ORIENTED_EDGE('',*,*,#395,.T.);
#137=ORIENTED_EDGE('',*,*,#382,.T.);
#138=ORIENTED_EDGE('',*,*,#396,.F.);
#139=ORIENTED_EDGE('',*,*,#396,.T.);
#140=ORIENTED_EDGE('',*,*,#381,.T.);
#141=ORIENTED_EDGE('',*,*,#397,.F.);
#142=ORIENTED_EDGE('',*,*,#397,.T.);
#143=ORIENTED_EDGE('',*,*,#380,.T.);
#144=ORIENTED_EDGE('',*,*,#398,.F.);
#145=ORIENTED_EDGE('',*,*,#398,.T.);
#146=ORIENTED_EDGE('',*,*,#353,.F.);
#147=ORIENTED_EDGE('',*,*,#378,.T.);
#148=ORIENTED_EDGE('',*,*,#352,.F.);
#149=ORIENTED_EDGE('',*,*,#379,.T.);
#150=ORIENTED_EDGE('',*,*,#399,.F.);
#151=ORIENTED_EDGE('',*,*,#400,.T.);
#152=ORIENTED_EDGE('',*,*,#346,.T.);
#153=ORIENTED_EDGE('',*,*,#401,.T.);
#154=ORIENTED_EDGE('',*,*,#402,.T.);
#155=ORIENTED_EDGE('',*,*,#370,.T.);
#156=ORIENTED_EDGE('',*,*,#350,.T.);
#157=ORIENTED_EDGE('',*,*,#403,.T.);
#158=ORIENTED_EDGE('',*,*,#404,.T.);
#159=ORIENTED_EDGE('',*,*,#368,.T.);
#160=ORIENTED_EDGE('',*,*,#405,.F.);
#161=ORIENTED_EDGE('',*,*,#406,.T.);
#162=ORIENTED_EDGE('',*,*,#375,.T.);
#163=ORIENTED_EDGE('',*,*,#407,.F.);
#164=ORIENTED_EDGE('',*,*,#408,.F.);
#165=ORIENTED_EDGE('',*,*,#405,.T.);
#166=ORIENTED_EDGE('',*,*,#374,.T.);
#167=ORIENTED_EDGE('',*,*,#386,.F.);
#168=ORIENTED_EDGE('',*,*,#409,.F.);
#169=ORIENTED_EDGE('',*,*,#407,.T.);
#170=ORIENTED_EDGE('',*,*,#372,.T.);
#171=ORIENTED_EDGE('',*,*,#410,.F.);
#172=ORIENTED_EDGE('',*,*,#411,.F.);
#173=ORIENTED_EDGE('',*,*,#384,.T.);
#174=ORIENTED_EDGE('',*,*,#371,.T.);
#175=ORIENTED_EDGE('',*,*,#402,.F.);
#176=ORIENTED_EDGE('',*,*,#412,.T.);
#177=ORIENTED_EDGE('',*,*,#410,.T.);
#178=ORIENTED_EDGE('',*,*,#401,.F.);
#179=ORIENTED_EDGE('',*,*,#351,.T.);
#180=ORIENTED_EDGE('',*,*,#406,.F.);
#181=ORIENTED_EDGE('',*,*,#408,.T.);
#182=ORIENTED_EDGE('',*,*,#409,.T.);
#183=ORIENTED_EDGE('',*,*,#385,.F.);
#184=ORIENTED_EDGE('',*,*,#411,.T.);
#185=ORIENTED_EDGE('',*,*,#412,.F.);
#186=ORIENTED_EDGE('',*,*,#391,.F.);
#187=ORIENTED_EDGE('',*,*,#413,.T.);
#188=ORIENTED_EDGE('',*,*,#414,.T.);
#189=ORIENTED_EDGE('',*,*,#415,.T.);
#190=ORIENTED_EDGE('',*,*,#416,.T.);
#191=ORIENTED_EDGE('',*,*,#417,.T.);
#192=ORIENTED_EDGE('',*,*,#389,.F.);
#193=ORIENTED_EDGE('',*,*,#418,.T.);
#194=ORIENTED_EDGE('',*,*,#387,.T.);
#195=ORIENTED_EDGE('',*,*,#419,.T.);
#196=ORIENTED_EDGE('',*,*,#420,.F.);
#197=ORIENTED_EDGE('',*,*,#421,.T.);
#198=ORIENTED_EDGE('',*,*,#393,.F.);
#199=ORIENTED_EDGE('',*,*,#422,.T.);
#200=ORIENTED_EDGE('',*,*,#423,.T.);
#201=ORIENTED_EDGE('',*,*,#424,.T.);
#202=ORIENTED_EDGE('',*,*,#414,.F.);
#203=ORIENTED_EDGE('',*,*,#425,.T.);
#204=ORIENTED_EDGE('',*,*,#416,.F.);
#205=ORIENTED_EDGE('',*,*,#426,.T.);
#206=ORIENTED_EDGE('',*,*,#420,.T.);
#207=ORIENTED_EDGE('',*,*,#427,.T.);
#208=ORIENTED_EDGE('',*,*,#423,.F.);
#209=ORIENTED_EDGE('',*,*,#428,.T.);
#210=ORIENTED_EDGE('',*,*,#425,.F.);
#211=ORIENTED_EDGE('',*,*,#413,.F.);
#212=ORIENTED_EDGE('',*,*,#390,.F.);
#213=ORIENTED_EDGE('',*,*,#417,.F.);
#214=ORIENTED_EDGE('',*,*,#428,.F.);
#215=ORIENTED_EDGE('',*,*,#422,.F.);
#216=ORIENTED_EDGE('',*,*,#392,.F.);
#217=ORIENTED_EDGE('',*,*,#415,.F.);
#218=ORIENTED_EDGE('',*,*,#427,.F.);
#219=ORIENTED_EDGE('',*,*,#419,.F.);
#220=ORIENTED_EDGE('',*,*,#394,.F.);
#221=ORIENTED_EDGE('',*,*,#424,.F.);
#222=ORIENTED_EDGE('',*,*,#426,.F.);
#223=ORIENTED_EDGE('',*,*,#418,.F.);
#224=ORIENTED_EDGE('',*,*,#388,.F.);
#225=ORIENTED_EDGE('',*,*,#421,.F.);
#226=ORIENTED_EDGE('',*,*,#429,.F.);
#227=ORIENTED_EDGE('',*,*,#377,.T.);
#228=ORIENTED_EDGE('',*,*,#430,.F.);
#229=ORIENTED_EDGE('',*,*,#429,.T.);
#230=ORIENTED_EDGE('',*,*,#431,.F.);
#231=ORIENTED_EDGE('',*,*,#376,.T.);
#232=ORIENTED_EDGE('',*,*,#432,.F.);
#233=ORIENTED_EDGE('',*,*,#431,.T.);
#234=ORIENTED_EDGE('',*,*,#432,.T.);
#235=ORIENTED_EDGE('',*,*,#433,.F.);
#236=ORIENTED_EDGE('',*,*,#433,.T.);
#237=ORIENTED_EDGE('',*,*,#430,.T.);
#238=ORIENTED_EDGE('',*,*,#434,.F.);
#239=ORIENTED_EDGE('',*,*,#434,.T.);
#240=ORIENTED_EDGE('',*,*,#435,.T.);
#241=ORIENTED_EDGE('',*,*,#436,.T.);
#242=ORIENTED_EDGE('',*,*,#399,.T.);
#243=ORIENTED_EDGE('',*,*,#369,.F.);
#244=ORIENTED_EDGE('',*,*,#404,.F.);
#245=ORIENTED_EDGE('',*,*,#437,.T.);
#246=ORIENTED_EDGE('',*,*,#348,.T.);
#247=ORIENTED_EDGE('',*,*,#438,.T.);
#248=ORIENTED_EDGE('',*,*,#435,.F.);
#249=ORIENTED_EDGE('',*,*,#439,.T.);
#250=ORIENTED_EDGE('',*,*,#436,.F.);
#251=ORIENTED_EDGE('',*,*,#438,.F.);
#252=ORIENTED_EDGE('',*,*,#347,.F.);
#253=ORIENTED_EDGE('',*,*,#400,.F.);
#254=ORIENTED_EDGE('',*,*,#349,.F.);
#255=ORIENTED_EDGE('',*,*,#439,.F.);
#256=ORIENTED_EDGE('',*,*,#437,.F.);
#257=ORIENTED_EDGE('',*,*,#403,.F.);
#258=ORIENTED_EDGE('',*,*,#343,.F.);
#259=ORIENTED_EDGE('',*,*,#440,.F.);
#260=ORIENTED_EDGE('',*,*,#441,.T.);
#261=ORIENTED_EDGE('',*,*,#442,.T.);
#262=ORIENTED_EDGE('',*,*,#345,.F.);
#263=ORIENTED_EDGE('',*,*,#443,.F.);
#264=ORIENTED_EDGE('',*,*,#444,.T.);
#265=ORIENTED_EDGE('',*,*,#440,.T.);
#266=ORIENTED_EDGE('',*,*,#344,.F.);
#267=ORIENTED_EDGE('',*,*,#442,.F.);
#268=ORIENTED_EDGE('',*,*,#445,.T.);
#269=ORIENTED_EDGE('',*,*,#443,.T.);
#270=ORIENTED_EDGE('',*,*,#441,.F.);
#271=ORIENTED_EDGE('',*,*,#444,.F.);
#272=ORIENTED_EDGE('',*,*,#445,.F.);
#273=ORIENTED_EDGE('',*,*,#354,.F.);
#274=ORIENTED_EDGE('',*,*,#446,.F.);
#275=ORIENTED_EDGE('',*,*,#447,.T.);
#276=ORIENTED_EDGE('',*,*,#448,.T.);
#277=ORIENTED_EDGE('',*,*,#367,.T.);
#278=ORIENTED_EDGE('',*,*,#449,.F.);
#279=ORIENTED_EDGE('',*,*,#450,.F.);
#280=ORIENTED_EDGE('',*,*,#446,.T.);
#281=ORIENTED_EDGE('',*,*,#366,.T.);
#282=ORIENTED_EDGE('',*,*,#451,.F.);
#283=ORIENTED_EDGE('',*,*,#452,.F.);
#284=ORIENTED_EDGE('',*,*,#449,.T.);
#285=ORIENTED_EDGE('',*,*,#365,.T.);
#286=ORIENTED_EDGE('',*,*,#453,.F.);
#287=ORIENTED_EDGE('',*,*,#454,.F.);
#288=ORIENTED_EDGE('',*,*,#451,.T.);
#289=ORIENTED_EDGE('',*,*,#364,.F.);
#290=ORIENTED_EDGE('',*,*,#455,.F.);
#291=ORIENTED_EDGE('',*,*,#456,.T.);
#292=ORIENTED_EDGE('',*,*,#453,.T.);
#293=ORIENTED_EDGE('',*,*,#363,.T.);
#294=ORIENTED_EDGE('',*,*,#457,.F.);
#295=ORIENTED_EDGE('',*,*,#458,.F.);
#296=ORIENTED_EDGE('',*,*,#455,.T.);
#297=ORIENTED_EDGE('',*,*,#362,.F.);
#298=ORIENTED_EDGE('',*,*,#459,.F.);
#299=ORIENTED_EDGE('',*,*,#460,.T.);
#300=ORIENTED_EDGE('',*,*,#457,.T.);
#301=ORIENTED_EDGE('',*,*,#361,.F.);
#302=ORIENTED_EDGE('',*,*,#461,.F.);
#303=ORIENTED_EDGE('',*,*,#462,.T.);
#304=ORIENTED_EDGE('',*,*,#459,.T.);
#305=ORIENTED_EDGE('',*,*,#360,.F.);
#306=ORIENTED_EDGE('',*,*,#463,.F.);
#307=ORIENTED_EDGE('',*,*,#464,.T.);
#308=ORIENTED_EDGE('',*,*,#461,.T.);
#309=ORIENTED_EDGE('',*,*,#359,.T.);
#310=ORIENTED_EDGE('',*,*,#465,.F.);
#311=ORIENTED_EDGE('',*,*,#466,.F.);
#312=ORIENTED_EDGE('',*,*,#463,.T.);
#313=ORIENTED_EDGE('',*,*,#358,.T.);
#314=ORIENTED_EDGE('',*,*,#467,.F.);
#315=ORIENTED_EDGE('',*,*,#468,.F.);
#316=ORIENTED_EDGE('',*,*,#465,.T.);
#317=ORIENTED_EDGE('',*,*,#357,.F.);
#318=ORIENTED_EDGE('',*,*,#469,.F.);
#319=ORIENTED_EDGE('',*,*,#470,.T.);
#320=ORIENTED_EDGE('',*,*,#467,.T.);
#321=ORIENTED_EDGE('',*,*,#356,.F.);
#322=ORIENTED_EDGE('',*,*,#471,.F.);
#323=ORIENTED_EDGE('',*,*,#472,.T.);
#324=ORIENTED_EDGE('',*,*,#469,.T.);
#325=ORIENTED_EDGE('',*,*,#355,.T.);
#326=ORIENTED_EDGE('',*,*,#448,.F.);
#327=ORIENTED_EDGE('',*,*,#473,.F.);
#328=ORIENTED_EDGE('',*,*,#471,.T.);
#329=ORIENTED_EDGE('',*,*,#447,.F.);
#330=ORIENTED_EDGE('',*,*,#450,.T.);
#331=ORIENTED_EDGE('',*,*,#452,.T.);
#332=ORIENTED_EDGE('',*,*,#454,.T.);
#333=ORIENTED_EDGE('',*,*,#456,.F.);
#334=ORIENTED_EDGE('',*,*,#458,.T.);
#335=ORIENTED_EDGE('',*,*,#460,.F.);
#336=ORIENTED_EDGE('',*,*,#462,.F.);
#337=ORIENTED_EDGE('',*,*,#464,.F.);
#338=ORIENTED_EDGE('',*,*,#466,.T.);
#339=ORIENTED_EDGE('',*,*,#468,.T.);
#340=ORIENTED_EDGE('',*,*,#470,.F.);
#341=ORIENTED_EDGE('',*,*,#472,.F.);
#342=ORIENTED_EDGE('',*,*,#473,.T.);
#343=EDGE_CURVE('',#474,#475,#568,.T.);
#344=EDGE_CURVE('',#475,#476,#569,.T.);
#345=EDGE_CURVE('',#476,#474,#570,.T.);
#346=EDGE_CURVE('',#477,#478,#571,.T.);
#347=EDGE_CURVE('',#477,#479,#77,.F.);
#348=EDGE_CURVE('',#480,#479,#572,.T.);
#349=EDGE_CURVE('',#480,#481,#78,.F.);
#350=EDGE_CURVE('',#482,#481,#573,.T.);
#351=EDGE_CURVE('',#478,#482,#574,.T.);
#352=EDGE_CURVE('',#483,#483,#35,.T.);
#353=EDGE_CURVE('',#484,#484,#36,.T.);
#354=EDGE_CURVE('',#485,#486,#575,.T.);
#355=EDGE_CURVE('',#487,#486,#37,.T.);
#356=EDGE_CURVE('',#487,#488,#38,.T.);
#357=EDGE_CURVE('',#488,#489,#576,.T.);
#358=EDGE_CURVE('',#490,#489,#577,.T.);
#359=EDGE_CURVE('',#491,#490,#578,.T.);
#360=EDGE_CURVE('',#491,#492,#39,.T.);
#361=EDGE_CURVE('',#492,#493,#579,.T.);
#362=EDGE_CURVE('',#493,#494,#580,.T.);
#363=EDGE_CURVE('',#495,#494,#581,.T.);
#364=EDGE_CURVE('',#495,#496,#40,.T.);
#365=EDGE_CURVE('',#497,#496,#41,.T.);
#366=EDGE_CURVE('',#498,#497,#582,.T.);
#367=EDGE_CURVE('',#485,#498,#583,.T.);
#368=EDGE_CURVE('',#499,#500,#584,.T.);
#369=EDGE_CURVE('',#499,#501,#585,.T.);
#370=EDGE_CURVE('',#502,#501,#586,.T.);
#371=EDGE_CURVE('',#503,#502,#587,.T.);
#372=EDGE_CURVE('',#504,#503,#588,.T.);
#373=EDGE_CURVE('',#505,#504,#589,.T.);
#374=EDGE_CURVE('',#506,#505,#590,.T.);
#375=EDGE_CURVE('',#500,#506,#591,.T.);
#376=EDGE_CURVE('',#507,#507,#42,.T.);
#377=EDGE_CURVE('',#508,#508,#43,.T.);
#378=EDGE_CURVE('',#509,#509,#44,.T.);
#379=EDGE_CURVE('',#510,#510,#45,.T.);
#380=EDGE_CURVE('',#511,#511,#46,.T.);
#381=EDGE_CURVE('',#512,#512,#47,.T.);
#382=EDGE_CURVE('',#513,#513,#48,.T.);
#383=EDGE_CURVE('',#514,#514,#49,.T.);
#384=EDGE_CURVE('',#515,#504,#592,.T.);
#385=EDGE_CURVE('',#515,#516,#593,.T.);
#386=EDGE_CURVE('',#516,#505,#594,.T.);
#387=EDGE_CURVE('',#517,#518,#595,.T.);
#388=EDGE_CURVE('',#517,#519,#50,.F.);
#389=EDGE_CURVE('',#519,#520,#51,.T.);
#390=EDGE_CURVE('',#520,#521,#52,.F.);
#391=EDGE_CURVE('',#521,#522,#596,.T.);
#392=EDGE_CURVE('',#522,#523,#53,.F.);
#393=EDGE_CURVE('',#523,#524,#54,.T.);
#394=EDGE_CURVE('',#524,#518,#55,.F.);
#395=EDGE_CURVE('',#525,#525,#56,.T.);
#396=EDGE_CURVE('',#526,#526,#57,.T.);
#397=EDGE_CURVE('',#527,#527,#58,.T.);
#398=EDGE_CURVE('',#528,#528,#59,.T.);
#399=EDGE_CURVE('',#529,#501,#597,.T.);
#400=EDGE_CURVE('',#529,#477,#598,.T.);
#401=EDGE_CURVE('',#478,#530,#599,.T.);
#402=EDGE_CURVE('',#530,#502,#600,.T.);
#403=EDGE_CURVE('',#481,#531,#601,.T.);
#404=EDGE_CURVE('',#531,#499,#602,.T.);
#405=EDGE_CURVE('',#532,#500,#603,.T.);
#406=EDGE_CURVE('',#532,#482,#604,.T.);
#407=EDGE_CURVE('',#533,#506,#605,.T.);
#408=EDGE_CURVE('',#532,#533,#606,.T.);
#409=EDGE_CURVE('',#533,#516,#607,.T.);
#410=EDGE_CURVE('',#534,#503,#608,.T.);
#411=EDGE_CURVE('',#515,#534,#609,.T.);
#412=EDGE_CURVE('',#530,#534,#610,.T.);
#413=EDGE_CURVE('',#521,#535,#611,.T.);
#414=EDGE_CURVE('',#535,#536,#612,.T.);
#415=EDGE_CURVE('',#536,#522,#613,.F.);
#416=EDGE_CURVE('',#537,#538,#60,.T.);
#417=EDGE_CURVE('',#538,#520,#614,.T.);
#418=EDGE_CURVE('',#519,#537,#615,.F.);
#419=EDGE_CURVE('',#518,#539,#616,.F.);
#420=EDGE_CURVE('',#540,#539,#617,.T.);
#421=EDGE_CURVE('',#540,#517,#618,.T.);
#422=EDGE_CURVE('',#523,#541,#619,.F.);
#423=EDGE_CURVE('',#541,#542,#61,.T.);
#424=EDGE_CURVE('',#542,#524,#620,.T.);
#425=EDGE_CURVE('',#535,#538,#62,.T.);
#426=EDGE_CURVE('',#537,#540,#63,.T.);
#427=EDGE_CURVE('',#539,#542,#64,.T.);
#428=EDGE_CURVE('',#541,#536,#65,.T.);
#429=EDGE_CURVE('',#543,#543,#66,.T.);
#430=EDGE_CURVE('',#544,#544,#67,.T.);
#431=EDGE_CURVE('',#545,#545,#68,.T.);
#432=EDGE_CURVE('',#546,#546,#69,.T.);
#433=EDGE_CURVE('',#547,#547,#70,.T.);
#434=EDGE_CURVE('',#548,#548,#71,.T.);
#435=EDGE_CURVE('',#549,#550,#621,.T.);
#436=EDGE_CURVE('',#550,#529,#79,.T.);
#437=EDGE_CURVE('',#531,#549,#80,.T.);
#438=EDGE_CURVE('',#479,#550,#622,.F.);
#439=EDGE_CURVE('',#549,#480,#623,.F.);
#440=EDGE_CURVE('',#551,#474,#624,.T.);
#441=EDGE_CURVE('',#551,#552,#625,.T.);
#442=EDGE_CURVE('',#552,#475,#626,.T.);
#443=EDGE_CURVE('',#553,#476,#627,.T.);
#444=EDGE_CURVE('',#553,#551,#628,.T.);
#445=EDGE_CURVE('',#552,#553,#629,.T.);
#446=EDGE_CURVE('',#554,#485,#630,.T.);
#447=EDGE_CURVE('',#554,#555,#631,.T.);
#448=EDGE_CURVE('',#555,#486,#632,.T.);
#449=EDGE_CURVE('',#556,#498,#633,.T.);
#450=EDGE_CURVE('',#554,#556,#634,.T.);
#451=EDGE_CURVE('',#557,#497,#635,.T.);
#452=EDGE_CURVE('',#556,#557,#636,.T.);
#453=EDGE_CURVE('',#558,#496,#637,.T.);
#454=EDGE_CURVE('',#557,#558,#72,.T.);
#455=EDGE_CURVE('',#559,#495,#638,.T.);
#456=EDGE_CURVE('',#559,#558,#73,.T.);
#457=EDGE_CURVE('',#560,#494,#639,.T.);
#458=EDGE_CURVE('',#559,#560,#640,.T.);
#459=EDGE_CURVE('',#561,#493,#641,.T.);
#460=EDGE_CURVE('',#561,#560,#642,.T.);
#461=EDGE_CURVE('',#562,#492,#643,.T.);
#462=EDGE_CURVE('',#562,#561,#644,.T.);
#463=EDGE_CURVE('',#563,#491,#645,.T.);
#464=EDGE_CURVE('',#563,#562,#74,.T.);
#465=EDGE_CURVE('',#564,#490,#646,.T.);
#466=EDGE_CURVE('',#563,#564,#647,.T.);
#467=EDGE_CURVE('',#565,#489,#648,.T.);
#468=EDGE_CURVE('',#564,#565,#649,.T.);
#469=EDGE_CURVE('',#566,#488,#650,.T.);
#470=EDGE_CURVE('',#566,#565,#651,.T.);
#471=EDGE_CURVE('',#567,#487,#652,.T.);
#472=EDGE_CURVE('',#567,#566,#75,.T.);
#473=EDGE_CURVE('',#567,#555,#76,.T.);
#474=VERTEX_POINT('',#1426);
#475=VERTEX_POINT('',#1427);
#476=VERTEX_POINT('',#1429);
#477=VERTEX_POINT('',#1432);
#478=VERTEX_POINT('',#1433);
#479=VERTEX_POINT('',#1435);
#480=VERTEX_POINT('',#1437);
#481=VERTEX_POINT('',#1439);
#482=VERTEX_POINT('',#1441);
#483=VERTEX_POINT('',#1444);
#484=VERTEX_POINT('',#1446);
#485=VERTEX_POINT('',#1448);
#486=VERTEX_POINT('',#1449);
#487=VERTEX_POINT('',#1451);
#488=VERTEX_POINT('',#1453);
#489=VERTEX_POINT('',#1455);
#490=VERTEX_POINT('',#1457);
#491=VERTEX_POINT('',#1459);
#492=VERTEX_POINT('',#1461);
#493=VERTEX_POINT('',#1463);
#494=VERTEX_POINT('',#1465);
#495=VERTEX_POINT('',#1467);
#496=VERTEX_POINT('',#1469);
#497=VERTEX_POINT('',#1471);
#498=VERTEX_POINT('',#1473);
#499=VERTEX_POINT('',#1477);
#500=VERTEX_POINT('',#1478);
#501=VERTEX_POINT('',#1480);
#502=VERTEX_POINT('',#1482);
#503=VERTEX_POINT('',#1484);
#504=VERTEX_POINT('',#1486);
#505=VERTEX_POINT('',#1488);
#506=VERTEX_POINT('',#1490);
#507=VERTEX_POINT('',#1494);
#508=VERTEX_POINT('',#1496);
#509=VERTEX_POINT('',#1498);
#510=VERTEX_POINT('',#1500);
#511=VERTEX_POINT('',#1502);
#512=VERTEX_POINT('',#1504);
#513=VERTEX_POINT('',#1506);
#514=VERTEX_POINT('',#1508);
#515=VERTEX_POINT('',#1510);
#516=VERTEX_POINT('',#1512);
#517=VERTEX_POINT('',#1515);
#518=VERTEX_POINT('',#1516);
#519=VERTEX_POINT('',#1518);
#520=VERTEX_POINT('',#1520);
#521=VERTEX_POINT('',#1522);
#522=VERTEX_POINT('',#1524);
#523=VERTEX_POINT('',#1526);
#524=VERTEX_POINT('',#1528);
#525=VERTEX_POINT('',#1532);
#526=VERTEX_POINT('',#1536);
#527=VERTEX_POINT('',#1540);
#528=VERTEX_POINT('',#1544);
#529=VERTEX_POINT('',#1550);
#530=VERTEX_POINT('',#1553);
#531=VERTEX_POINT('',#1557);
#532=VERTEX_POINT('',#1560);
#533=VERTEX_POINT('',#1564);
#534=VERTEX_POINT('',#1570);
#535=VERTEX_POINT('',#1577);
#536=VERTEX_POINT('',#1579);
#537=VERTEX_POINT('',#1583);
#538=VERTEX_POINT('',#1584);
#539=VERTEX_POINT('',#1589);
#540=VERTEX_POINT('',#1591);
#541=VERTEX_POINT('',#1595);
#542=VERTEX_POINT('',#1597);
#543=VERTEX_POINT('',#1610);
#544=VERTEX_POINT('',#1613);
#545=VERTEX_POINT('',#1616);
#546=VERTEX_POINT('',#1619);
#547=VERTEX_POINT('',#1622);
#548=VERTEX_POINT('',#1626);
#549=VERTEX_POINT('',#1630);
#550=VERTEX_POINT('',#1631);
#551=VERTEX_POINT('',#1641);
#552=VERTEX_POINT('',#1643);
#553=VERTEX_POINT('',#1647);
#554=VERTEX_POINT('',#1654);
#555=VERTEX_POINT('',#1656);
#556=VERTEX_POINT('',#1660);
#557=VERTEX_POINT('',#1664);
#558=VERTEX_POINT('',#1668);
#559=VERTEX_POINT('',#1672);
#560=VERTEX_POINT('',#1676);
#561=VERTEX_POINT('',#1680);
#562=VERTEX_POINT('',#1684);
#563=VERTEX_POINT('',#1688);
#564=VERTEX_POINT('',#1692);
#565=VERTEX_POINT('',#1696);
#566=VERTEX_POINT('',#1700);
#567=VERTEX_POINT('',#1704);
#568=LINE('',#1425,#653);
#569=LINE('',#1428,#654);
#570=LINE('',#1430,#655);
#571=LINE('',#1431,#656);
#572=LINE('',#1436,#657);
#573=LINE('',#1440,#658);
#574=LINE('',#1442,#659);
#575=LINE('',#1447,#660);
#576=LINE('',#1454,#661);
#577=LINE('',#1456,#662);
#578=LINE('',#1458,#663);
#579=LINE('',#1462,#664);
#580=LINE('',#1464,#665);
#581=LINE('',#1466,#666);
#582=LINE('',#1472,#667);
#583=LINE('',#1474,#668);
#584=LINE('',#1476,#669);
#585=LINE('',#1479,#670);
#586=LINE('',#1481,#671);
#587=LINE('',#1483,#672);
#588=LINE('',#1485,#673);
#589=LINE('',#1487,#674);
#590=LINE('',#1489,#675);
#591=LINE('',#1491,#676);
#592=LINE('',#1509,#677);
#593=LINE('',#1511,#678);
#594=LINE('',#1513,#679);
#595=LINE('',#1514,#680);
#596=LINE('',#1523,#681);
#597=LINE('',#1549,#682);
#598=LINE('',#1551,#683);
#599=LINE('',#1552,#684);
#600=LINE('',#1554,#685);
#601=LINE('',#1556,#686);
#602=LINE('',#1558,#687);
#603=LINE('',#1559,#688);
#604=LINE('',#1561,#689);
#605=LINE('',#1563,#690);
#606=LINE('',#1565,#691);
#607=LINE('',#1567,#692);
#608=LINE('',#1569,#693);
#609=LINE('',#1571,#694);
#610=LINE('',#1573,#695);
#611=LINE('',#1576,#696);
#612=LINE('',#1578,#697);
#613=LINE('',#1580,#698);
#614=LINE('',#1585,#699);
#615=LINE('',#1586,#700);
#616=LINE('',#1588,#701);
#617=LINE('',#1590,#702);
#618=LINE('',#1592,#703);
#619=LINE('',#1594,#704);
#620=LINE('',#1598,#705);
#621=LINE('',#1629,#706);
#622=LINE('',#1635,#707);
#623=LINE('',#1636,#708);
#624=LINE('',#1640,#709);
#625=LINE('',#1642,#710);
#626=LINE('',#1644,#711);
#627=LINE('',#1646,#712);
#628=LINE('',#1648,#713);
#629=LINE('',#1650,#714);
#630=LINE('',#1653,#715);
#631=LINE('',#1655,#716);
#632=LINE('',#1657,#717);
#633=LINE('',#1659,#718);
#634=LINE('',#1661,#719);
#635=LINE('',#1663,#720);
#636=LINE('',#1665,#721);
#637=LINE('',#1667,#722);
#638=LINE('',#1671,#723);
#639=LINE('',#1675,#724);
#640=LINE('',#1677,#725);
#641=LINE('',#1679,#726);
#642=LINE('',#1681,#727);
#643=LINE('',#1683,#728);
#644=LINE('',#1685,#729);
#645=LINE('',#1687,#730);
#646=LINE('',#1691,#731);
#647=LINE('',#1693,#732);
#648=LINE('',#1695,#733);
#649=LINE('',#1697,#734);
#650=LINE('',#1699,#735);
#651=LINE('',#1701,#736);
#652=LINE('',#1703,#737);
#653=VECTOR('',#1128,1.);
#654=VECTOR('',#1129,1.);
#655=VECTOR('',#1130,1.);
#656=VECTOR('',#1131,1.);
#657=VECTOR('',#1134,1.);
#658=VECTOR('',#1137,1.);
#659=VECTOR('',#1138,1.);
#660=VECTOR('',#1143,1.);
#661=VECTOR('',#1148,1.);
#662=VECTOR('',#1149,1.);
#663=VECTOR('',#1150,1.);
#664=VECTOR('',#1153,1.);
#665=VECTOR('',#1154,1.);
#666=VECTOR('',#1155,1.);
#667=VECTOR('',#1160,1.);
#668=VECTOR('',#1161,1.);
#669=VECTOR('',#1164,1.);
#670=VECTOR('',#1165,1.);
#671=VECTOR('',#1166,1.);
#672=VECTOR('',#1167,1.);
#673=VECTOR('',#1168,1.);
#674=VECTOR('',#1169,1.);
#675=VECTOR('',#1170,1.);
#676=VECTOR('',#1171,1.);
#677=VECTOR('',#1190,1.);
#678=VECTOR('',#1191,1.);
#679=VECTOR('',#1192,1.);
#680=VECTOR('',#1193,1.);
#681=VECTOR('',#1200,1.);
#682=VECTOR('',#1237,1.);
#683=VECTOR('',#1238,1.);
#684=VECTOR('',#1239,1.);
#685=VECTOR('',#1240,1.);
#686=VECTOR('',#1243,1.);
#687=VECTOR('',#1244,1.);
#688=VECTOR('',#1245,1.);
#689=VECTOR('',#1246,1.);
#690=VECTOR('',#1249,1.);
#691=VECTOR('',#1250,1.);
#692=VECTOR('',#1253,1.);
#693=VECTOR('',#1256,1.);
#694=VECTOR('',#1257,1.);
#695=VECTOR('',#1260,1.);
#696=VECTOR('',#1265,1.);
#697=VECTOR('',#1266,1.);
#698=VECTOR('',#1267,1.);
#699=VECTOR('',#1272,1.);
#700=VECTOR('',#1273,1.);
#701=VECTOR('',#1276,1.);
#702=VECTOR('',#1277,1.);
#703=VECTOR('',#1278,1.);
#704=VECTOR('',#1281,1.);
#705=VECTOR('',#1284,1.);
#706=VECTOR('',#1333,1.);
#707=VECTOR('',#1340,1.);
#708=VECTOR('',#1341,1.);
#709=VECTOR('',#1348,1.);
#710=VECTOR('',#1349,1.);
#711=VECTOR('',#1350,1.);
#712=VECTOR('',#1353,1.);
#713=VECTOR('',#1354,1.);
#714=VECTOR('',#1357,1.);
#715=VECTOR('',#1362,1.);
#716=VECTOR('',#1363,1.);
#717=VECTOR('',#1364,1.);
#718=VECTOR('',#1367,1.);
#719=VECTOR('',#1368,1.);
#720=VECTOR('',#1371,1.);
#721=VECTOR('',#1372,1.);
#722=VECTOR('',#1375,1.);
#723=VECTOR('',#1380,1.);
#724=VECTOR('',#1385,1.);
#725=VECTOR('',#1386,1.);
#726=VECTOR('',#1389,1.);
#727=VECTOR('',#1390,1.);
#728=VECTOR('',#1393,1.);
#729=VECTOR('',#1394,1.);
#730=VECTOR('',#1397,1.);
#731=VECTOR('',#1402,1.);
#732=VECTOR('',#1403,1.);
#733=VECTOR('',#1406,1.);
#734=VECTOR('',#1407,1.);
#735=VECTOR('',#1410,1.);
#736=VECTOR('',#1411,1.);
#737=VECTOR('',#1414,1.);
#738=EDGE_LOOP('',(#81,#82,#83));
#739=EDGE_LOOP('',(#84,#85,#86,#87,#88,#89));
#740=EDGE_LOOP('',(#90));
#741=EDGE_LOOP('',(#91));
#742=EDGE_LOOP('',(#92,#93,#94,#95,#96,#97,#98,#99,#100,#101,#102,#103,
#104,#105));
#743=EDGE_LOOP('',(#106,#107,#108,#109,#110,#111,#112,#113));
#744=EDGE_LOOP('',(#114));
#745=EDGE_LOOP('',(#115));
#746=EDGE_LOOP('',(#116));
#747=EDGE_LOOP('',(#117));
#748=EDGE_LOOP('',(#118));
#749=EDGE_LOOP('',(#119));
#750=EDGE_LOOP('',(#120));
#751=EDGE_LOOP('',(#121));
#752=EDGE_LOOP('',(#122,#123,#124,#125));
#753=EDGE_LOOP('',(#126,#127,#128,#129,#130,#131,#132,#133));
#754=EDGE_LOOP('',(#134));
#755=EDGE_LOOP('',(#135));
#756=EDGE_LOOP('',(#136));
#757=EDGE_LOOP('',(#137));
#758=EDGE_LOOP('',(#138));
#759=EDGE_LOOP('',(#139));
#760=EDGE_LOOP('',(#140));
#761=EDGE_LOOP('',(#141));
#762=EDGE_LOOP('',(#142));
#763=EDGE_LOOP('',(#143));
#764=EDGE_LOOP('',(#144));
#765=EDGE_LOOP('',(#145));
#766=EDGE_LOOP('',(#146));
#767=EDGE_LOOP('',(#147));
#768=EDGE_LOOP('',(#148));
#769=EDGE_LOOP('',(#149));
#770=EDGE_LOOP('',(#150,#151,#152,#153,#154,#155));
#771=EDGE_LOOP('',(#156,#157,#158,#159,#160,#161));
#772=EDGE_LOOP('',(#162,#163,#164,#165));
#773=EDGE_LOOP('',(#166,#167,#168,#169));
#774=EDGE_LOOP('',(#170,#171,#172,#173));
#775=EDGE_LOOP('',(#174,#175,#176,#177));
#776=EDGE_LOOP('',(#178,#179,#180,#181,#182,#183,#184,#185));
#777=EDGE_LOOP('',(#186,#187,#188,#189));
#778=EDGE_LOOP('',(#190,#191,#192,#193));
#779=EDGE_LOOP('',(#194,#195,#196,#197));
#780=EDGE_LOOP('',(#198,#199,#200,#201));
#781=EDGE_LOOP('',(#202,#203,#204,#205,#206,#207,#208,#209));
#782=EDGE_LOOP('',(#210,#211,#212,#213));
#783=EDGE_LOOP('',(#214,#215,#216,#217));
#784=EDGE_LOOP('',(#218,#219,#220,#221));
#785=EDGE_LOOP('',(#222,#223,#224,#225));
#786=EDGE_LOOP('',(#226));
#787=EDGE_LOOP('',(#227));
#788=EDGE_LOOP('',(#228));
#789=EDGE_LOOP('',(#229));
#790=EDGE_LOOP('',(#230));
#791=EDGE_LOOP('',(#231));
#792=EDGE_LOOP('',(#232));
#793=EDGE_LOOP('',(#233));
#794=EDGE_LOOP('',(#234));
#795=EDGE_LOOP('',(#235));
#796=EDGE_LOOP('',(#236));
#797=EDGE_LOOP('',(#237));
#798=EDGE_LOOP('',(#238));
#799=EDGE_LOOP('',(#239));
#800=EDGE_LOOP('',(#240,#241,#242,#243,#244,#245));
#801=EDGE_LOOP('',(#246,#247,#248,#249));
#802=EDGE_LOOP('',(#250,#251,#252,#253));
#803=EDGE_LOOP('',(#254,#255,#256,#257));
#804=EDGE_LOOP('',(#258,#259,#260,#261));
#805=EDGE_LOOP('',(#262,#263,#264,#265));
#806=EDGE_LOOP('',(#266,#267,#268,#269));
#807=EDGE_LOOP('',(#270,#271,#272));
#808=EDGE_LOOP('',(#273,#274,#275,#276));
#809=EDGE_LOOP('',(#277,#278,#279,#280));
#810=EDGE_LOOP('',(#281,#282,#283,#284));
#811=EDGE_LOOP('',(#285,#286,#287,#288));
#812=EDGE_LOOP('',(#289,#290,#291,#292));
#813=EDGE_LOOP('',(#293,#294,#295,#296));
#814=EDGE_LOOP('',(#297,#298,#299,#300));
#815=EDGE_LOOP('',(#301,#302,#303,#304));
#816=EDGE_LOOP('',(#305,#306,#307,#308));
#817=EDGE_LOOP('',(#309,#310,#311,#312));
#818=EDGE_LOOP('',(#313,#314,#315,#316));
#819=EDGE_LOOP('',(#317,#318,#319,#320));
#820=EDGE_LOOP('',(#321,#322,#323,#324));
#821=EDGE_LOOP('',(#325,#326,#327,#328));
#822=EDGE_LOOP('',(#329,#330,#331,#332,#333,#334,#335,#336,#337,#338,#339,
#340,#341,#342));
#823=FACE_BOUND('',#738,.T.);
#824=FACE_BOUND('',#739,.T.);
#825=FACE_BOUND('',#740,.T.);
#826=FACE_BOUND('',#741,.T.);
#827=FACE_BOUND('',#742,.T.);
#828=FACE_BOUND('',#743,.T.);
#829=FACE_BOUND('',#744,.T.);
#830=FACE_BOUND('',#745,.T.);
#831=FACE_BOUND('',#746,.T.);
#832=FACE_BOUND('',#747,.T.);
#833=FACE_BOUND('',#748,.T.);
#834=FACE_BOUND('',#749,.T.);
#835=FACE_BOUND('',#750,.T.);
#836=FACE_BOUND('',#751,.T.);
#837=FACE_BOUND('',#752,.T.);
#838=FACE_BOUND('',#753,.T.);
#839=FACE_BOUND('',#754,.T.);
#840=FACE_BOUND('',#755,.T.);
#841=FACE_BOUND('',#756,.T.);
#842=FACE_BOUND('',#757,.T.);
#843=FACE_BOUND('',#758,.T.);
#844=FACE_BOUND('',#759,.T.);
#845=FACE_BOUND('',#760,.T.);
#846=FACE_BOUND('',#761,.T.);
#847=FACE_BOUND('',#762,.T.);
#848=FACE_BOUND('',#763,.T.);
#849=FACE_BOUND('',#764,.T.);
#850=FACE_BOUND('',#765,.T.);
#851=FACE_BOUND('',#766,.T.);
#852=FACE_BOUND('',#767,.T.);
#853=FACE_BOUND('',#768,.T.);
#854=FACE_BOUND('',#769,.T.);
#855=FACE_BOUND('',#770,.T.);
#856=FACE_BOUND('',#771,.T.);
#857=FACE_BOUND('',#772,.T.);
#858=FACE_BOUND('',#773,.T.);
#859=FACE_BOUND('',#774,.T.);
#860=FACE_BOUND('',#775,.T.);
#861=FACE_BOUND('',#776,.T.);
#862=FACE_BOUND('',#777,.T.);
#863=FACE_BOUND('',#778,.T.);
#864=FACE_BOUND('',#779,.T.);
#865=FACE_BOUND('',#780,.T.);
#866=FACE_BOUND('',#781,.T.);
#867=FACE_BOUND('',#782,.T.);
#868=FACE_BOUND('',#783,.T.);
#869=FACE_BOUND('',#784,.T.);
#870=FACE_BOUND('',#785,.T.);
#871=FACE_BOUND('',#786,.T.);
#872=FACE_BOUND('',#787,.T.);
#873=FACE_BOUND('',#788,.T.);
#874=FACE_BOUND('',#789,.T.);
#875=FACE_BOUND('',#790,.T.);
#876=FACE_BOUND('',#791,.T.);
#877=FACE_BOUND('',#792,.T.);
#878=FACE_BOUND('',#793,.T.);
#879=FACE_BOUND('',#794,.T.);
#880=FACE_BOUND('',#795,.T.);
#881=FACE_BOUND('',#796,.T.);
#882=FACE_BOUND('',#797,.T.);
#883=FACE_BOUND('',#798,.T.);
#884=FACE_BOUND('',#799,.T.);
#885=FACE_BOUND('',#800,.T.);
#886=FACE_BOUND('',#801,.T.);
#887=FACE_BOUND('',#802,.T.);
#888=FACE_BOUND('',#803,.T.);
#889=FACE_BOUND('',#804,.T.);
#890=FACE_BOUND('',#805,.T.);
#891=FACE_BOUND('',#806,.T.);
#892=FACE_BOUND('',#807,.T.);
#893=FACE_BOUND('',#808,.T.);
#894=FACE_BOUND('',#809,.T.);
#895=FACE_BOUND('',#810,.T.);
#896=FACE_BOUND('',#811,.T.);
#897=FACE_BOUND('',#812,.T.);
#898=FACE_BOUND('',#813,.T.);
#899=FACE_BOUND('',#814,.T.);
#900=FACE_BOUND('',#815,.T.);
#901=FACE_BOUND('',#816,.T.);
#902=FACE_BOUND('',#817,.T.);
#903=FACE_BOUND('',#818,.T.);
#904=FACE_BOUND('',#819,.T.);
#905=FACE_BOUND('',#820,.T.);
#906=FACE_BOUND('',#821,.T.);
#907=FACE_BOUND('',#822,.T.);
#908=PLANE('',#1018);
#909=PLANE('',#1028);
#910=PLANE('',#1029);
#911=PLANE('',#1046);
#912=PLANE('',#1049);
#913=PLANE('',#1052);
#914=PLANE('',#1055);
#915=PLANE('',#1058);
#916=PLANE('',#1059);
#917=PLANE('',#1060);
#918=PLANE('',#1061);
#919=PLANE('',#1062);
#920=PLANE('',#1063);
#921=PLANE('',#1064);
#922=PLANE('',#1065);
#923=PLANE('',#1068);
#924=PLANE('',#1071);
#925=PLANE('',#1082);
#926=PLANE('',#1086);
#927=PLANE('',#1090);
#928=PLANE('',#1093);
#929=PLANE('',#1094);
#930=PLANE('',#1097);
#931=PLANE('',#1100);
#932=PLANE('',#1101);
#933=PLANE('',#1102);
#934=PLANE('',#1103);
#935=PLANE('',#1104);
#936=PLANE('',#1105);
#937=PLANE('',#1106);
#938=PLANE('',#1111);
#939=PLANE('',#1112);
#940=PLANE('',#1113);
#941=PLANE('',#1116);
#942=PLANE('',#1117);
#943=PLANE('',#1118);
#944=PLANE('',#1123);
#945=ADVANCED_FACE('',(#823,#824,#825,#826,#827),#908,.F.);
#946=ADVANCED_FACE('',(#828),#909,.T.);
#947=ADVANCED_FACE('',(#829,#830,#831,#832,#833,#834,#835,#836,#837,#838),
#910,.T.);
#948=ADVANCED_FACE('',(#839,#840),#12,.F.);
#949=ADVANCED_FACE('',(#841),#911,.T.);
#950=ADVANCED_FACE('',(#842,#843),#13,.F.);
#951=ADVANCED_FACE('',(#844),#912,.T.);
#952=ADVANCED_FACE('',(#845,#846),#14,.F.);
#953=ADVANCED_FACE('',(#847),#913,.T.);
#954=ADVANCED_FACE('',(#848,#849),#15,.F.);
#955=ADVANCED_FACE('',(#850),#914,.T.);
#956=ADVANCED_FACE('',(#851,#852),#16,.F.);
#957=ADVANCED_FACE('',(#853,#854),#17,.F.);
#958=ADVANCED_FACE('',(#855),#915,.T.);
#959=ADVANCED_FACE('',(#856),#916,.T.);
#960=ADVANCED_FACE('',(#857),#917,.T.);
#961=ADVANCED_FACE('',(#858),#918,.T.);
#962=ADVANCED_FACE('',(#859),#919,.T.);
#963=ADVANCED_FACE('',(#860),#920,.T.);
#964=ADVANCED_FACE('',(#861),#921,.T.);
#965=ADVANCED_FACE('',(#862),#922,.T.);
#966=ADVANCED_FACE('',(#863),#18,.T.);
#967=ADVANCED_FACE('',(#864),#923,.F.);
#968=ADVANCED_FACE('',(#865),#19,.T.);
#969=ADVANCED_FACE('',(#866),#924,.T.);
#970=ADVANCED_FACE('',(#867),#20,.F.);
#971=ADVANCED_FACE('',(#868),#21,.F.);
#972=ADVANCED_FACE('',(#869),#22,.F.);
#973=ADVANCED_FACE('',(#870),#23,.F.);
#974=ADVANCED_FACE('',(#871,#872),#24,.F.);
#975=ADVANCED_FACE('',(#873,#874),#925,.T.);
#976=ADVANCED_FACE('',(#875,#876),#25,.F.);
#977=ADVANCED_FACE('',(#877,#878),#926,.T.);
#978=ADVANCED_FACE('',(#879,#880),#26,.F.);
#979=ADVANCED_FACE('',(#881),#927,.T.);
#980=ADVANCED_FACE('',(#882,#883),#27,.F.);
#981=ADVANCED_FACE('',(#884),#928,.T.);
#982=ADVANCED_FACE('',(#885),#929,.T.);
#983=ADVANCED_FACE('',(#886),#930,.T.);
#984=ADVANCED_FACE('',(#887),#28,.T.);
#985=ADVANCED_FACE('',(#888),#29,.T.);
#986=ADVANCED_FACE('',(#889),#931,.T.);
#987=ADVANCED_FACE('',(#890),#932,.T.);
#988=ADVANCED_FACE('',(#891),#933,.T.);
#989=ADVANCED_FACE('',(#892),#934,.T.);
#990=ADVANCED_FACE('',(#893),#935,.T.);
#991=ADVANCED_FACE('',(#894),#936,.F.);
#992=ADVANCED_FACE('',(#895),#937,.F.);
#993=ADVANCED_FACE('',(#896),#30,.F.);
#994=ADVANCED_FACE('',(#897),#31,.T.);
#995=ADVANCED_FACE('',(#898),#938,.F.);
#996=ADVANCED_FACE('',(#899),#939,.T.);
#997=ADVANCED_FACE('',(#900),#940,.T.);
#998=ADVANCED_FACE('',(#901),#32,.T.);
#999=ADVANCED_FACE('',(#902),#941,.F.);
#1000=ADVANCED_FACE('',(#903),#942,.F.);
#1001=ADVANCED_FACE('',(#904),#943,.T.);
#1002=ADVANCED_FACE('',(#905),#33,.T.);
#1003=ADVANCED_FACE('',(#906),#34,.F.);
#1004=ADVANCED_FACE('',(#907),#944,.T.);
#1005=CLOSED_SHELL('',(#945,#946,#947,#948,#949,#950,#951,#952,#953,#954,
#955,#956,#957,#958,#959,#960,#961,#962,#963,#964,#965,#966,#967,#968,#969,
#970,#971,#972,#973,#974,#975,#976,#977,#978,#979,#980,#981,#982,#983,#984,
#985,#986,#987,#988,#989,#990,#991,#992,#993,#994,#995,#996,#997,#998,#999,
#1000,#1001,#1002,#1003,#1004));
#1006=STYLED_ITEM('',(#1007),#1014);
#1007=PRESENTATION_STYLE_ASSIGNMENT((#1008));
#1008=SURFACE_STYLE_USAGE(.BOTH.,#1009);
#1009=SURFACE_SIDE_STYLE('',(#1010));
#1010=SURFACE_STYLE_FILL_AREA(#1011);
#1011=FILL_AREA_STYLE('',(#1012));
#1012=FILL_AREA_STYLE_COLOUR('',#1013);
#1013=COLOUR_RGB('',0.972549019607843,0.529411764705882,0.00392156862745098);
#1014=MANIFOLD_SOLID_BREP('FaceUS',#1005);
#1015=SHAPE_DEFINITION_REPRESENTATION(#1715,#1016);
#1016=SHAPE_REPRESENTATION('FaceUS',(#1017),#1710);
#1017=AXIS2_PLACEMENT_3D('',#1423,#1124,#1125);
#1018=AXIS2_PLACEMENT_3D('',#1424,#1126,#1127);
#1019=AXIS2_PLACEMENT_3D('',#1434,#1132,#1133);
#1020=AXIS2_PLACEMENT_3D('',#1438,#1135,#1136);
#1021=AXIS2_PLACEMENT_3D('',#1443,#1139,#1140);
#1022=AXIS2_PLACEMENT_3D('',#1445,#1141,#1142);
#1023=AXIS2_PLACEMENT_3D('',#1450,#1144,#1145);
#1024=AXIS2_PLACEMENT_3D('',#1452,#1146,#1147);
#1025=AXIS2_PLACEMENT_3D('',#1460,#1151,#1152);
#1026=AXIS2_PLACEMENT_3D('',#1468,#1156,#1157);
#1027=AXIS2_PLACEMENT_3D('',#1470,#1158,#1159);
#1028=AXIS2_PLACEMENT_3D('',#1475,#1162,#1163);
#1029=AXIS2_PLACEMENT_3D('',#1492,#1172,#1173);
#1030=AXIS2_PLACEMENT_3D('',#1493,#1174,#1175);
#1031=AXIS2_PLACEMENT_3D('',#1495,#1176,#1177);
#1032=AXIS2_PLACEMENT_3D('',#1497,#1178,#1179);
#1033=AXIS2_PLACEMENT_3D('',#1499,#1180,#1181);
#1034=AXIS2_PLACEMENT_3D('',#1501,#1182,#1183);
#1035=AXIS2_PLACEMENT_3D('',#1503,#1184,#1185);
#1036=AXIS2_PLACEMENT_3D('',#1505,#1186,#1187);
#1037=AXIS2_PLACEMENT_3D('',#1507,#1188,#1189);
#1038=AXIS2_PLACEMENT_3D('',#1517,#1194,#1195);
#1039=AXIS2_PLACEMENT_3D('',#1519,#1196,#1197);
#1040=AXIS2_PLACEMENT_3D('',#1521,#1198,#1199);
#1041=AXIS2_PLACEMENT_3D('',#1525,#1201,#1202);
#1042=AXIS2_PLACEMENT_3D('',#1527,#1203,#1204);
#1043=AXIS2_PLACEMENT_3D('',#1529,#1205,#1206);
#1044=AXIS2_PLACEMENT_3D('',#1530,#1207,#1208);
#1045=AXIS2_PLACEMENT_3D('',#1531,#1209,#1210);
#1046=AXIS2_PLACEMENT_3D('',#1533,#1211,#1212);
#1047=AXIS2_PLACEMENT_3D('',#1534,#1213,#1214);
#1048=AXIS2_PLACEMENT_3D('',#1535,#1215,#1216);
#1049=AXIS2_PLACEMENT_3D('',#1537,#1217,#1218);
#1050=AXIS2_PLACEMENT_3D('',#1538,#1219,#1220);
#1051=AXIS2_PLACEMENT_3D('',#1539,#1221,#1222);
#1052=AXIS2_PLACEMENT_3D('',#1541,#1223,#1224);
#1053=AXIS2_PLACEMENT_3D('',#1542,#1225,#1226);
#1054=AXIS2_PLACEMENT_3D('',#1543,#1227,#1228);
#1055=AXIS2_PLACEMENT_3D('',#1545,#1229,#1230);
#1056=AXIS2_PLACEMENT_3D('',#1546,#1231,#1232);
#1057=AXIS2_PLACEMENT_3D('',#1547,#1233,#1234);
#1058=AXIS2_PLACEMENT_3D('',#1548,#1235,#1236);
#1059=AXIS2_PLACEMENT_3D('',#1555,#1241,#1242);
#1060=AXIS2_PLACEMENT_3D('',#1562,#1247,#1248);
#1061=AXIS2_PLACEMENT_3D('',#1566,#1251,#1252);
#1062=AXIS2_PLACEMENT_3D('',#1568,#1254,#1255);
#1063=AXIS2_PLACEMENT_3D('',#1572,#1258,#1259);
#1064=AXIS2_PLACEMENT_3D('',#1574,#1261,#1262);
#1065=AXIS2_PLACEMENT_3D('',#1575,#1263,#1264);
#1066=AXIS2_PLACEMENT_3D('',#1581,#1268,#1269);
#1067=AXIS2_PLACEMENT_3D('',#1582,#1270,#1271);
#1068=AXIS2_PLACEMENT_3D('',#1587,#1274,#1275);
#1069=AXIS2_PLACEMENT_3D('',#1593,#1279,#1280);
#1070=AXIS2_PLACEMENT_3D('',#1596,#1282,#1283);
#1071=AXIS2_PLACEMENT_3D('',#1599,#1285,#1286);
#1072=AXIS2_PLACEMENT_3D('',#1600,#1287,#1288);
#1073=AXIS2_PLACEMENT_3D('',#1601,#1289,#1290);
#1074=AXIS2_PLACEMENT_3D('',#1602,#1291,#1292);
#1075=AXIS2_PLACEMENT_3D('',#1603,#1293,#1294);
#1076=AXIS2_PLACEMENT_3D('',#1604,#1295,#1296);
#1077=AXIS2_PLACEMENT_3D('',#1605,#1297,#1298);
#1078=AXIS2_PLACEMENT_3D('',#1606,#1299,#1300);
#1079=AXIS2_PLACEMENT_3D('',#1607,#1301,#1302);
#1080=AXIS2_PLACEMENT_3D('',#1608,#1303,#1304);
#1081=AXIS2_PLACEMENT_3D('',#1609,#1305,#1306);
#1082=AXIS2_PLACEMENT_3D('',#1611,#1307,#1308);
#1083=AXIS2_PLACEMENT_3D('',#1612,#1309,#1310);
#1084=AXIS2_PLACEMENT_3D('',#1614,#1311,#1312);
#1085=AXIS2_PLACEMENT_3D('',#1615,#1313,#1314);
#1086=AXIS2_PLACEMENT_3D('',#1617,#1315,#1316);
#1087=AXIS2_PLACEMENT_3D('',#1618,#1317,#1318);
#1088=AXIS2_PLACEMENT_3D('',#1620,#1319,#1320);
#1089=AXIS2_PLACEMENT_3D('',#1621,#1321,#1322);
#1090=AXIS2_PLACEMENT_3D('',#1623,#1323,#1324);
#1091=AXIS2_PLACEMENT_3D('',#1624,#1325,#1326);
#1092=AXIS2_PLACEMENT_3D('',#1625,#1327,#1328);
#1093=AXIS2_PLACEMENT_3D('',#1627,#1329,#1330);
#1094=AXIS2_PLACEMENT_3D('',#1628,#1331,#1332);
#1095=AXIS2_PLACEMENT_3D('',#1632,#1334,#1335);
#1096=AXIS2_PLACEMENT_3D('',#1633,#1336,#1337);
#1097=AXIS2_PLACEMENT_3D('',#1634,#1338,#1339);
#1098=AXIS2_PLACEMENT_3D('',#1637,#1342,#1343);
#1099=AXIS2_PLACEMENT_3D('',#1638,#1344,#1345);
#1100=AXIS2_PLACEMENT_3D('',#1639,#1346,#1347);
#1101=AXIS2_PLACEMENT_3D('',#1645,#1351,#1352);
#1102=AXIS2_PLACEMENT_3D('',#1649,#1355,#1356);
#1103=AXIS2_PLACEMENT_3D('',#1651,#1358,#1359);
#1104=AXIS2_PLACEMENT_3D('',#1652,#1360,#1361);
#1105=AXIS2_PLACEMENT_3D('',#1658,#1365,#1366);
#1106=AXIS2_PLACEMENT_3D('',#1662,#1369,#1370);
#1107=AXIS2_PLACEMENT_3D('',#1666,#1373,#1374);
#1108=AXIS2_PLACEMENT_3D('',#1669,#1376,#1377);
#1109=AXIS2_PLACEMENT_3D('',#1670,#1378,#1379);
#1110=AXIS2_PLACEMENT_3D('',#1673,#1381,#1382);
#1111=AXIS2_PLACEMENT_3D('',#1674,#1383,#1384);
#1112=AXIS2_PLACEMENT_3D('',#1678,#1387,#1388);
#1113=AXIS2_PLACEMENT_3D('',#1682,#1391,#1392);
#1114=AXIS2_PLACEMENT_3D('',#1686,#1395,#1396);
#1115=AXIS2_PLACEMENT_3D('',#1689,#1398,#1399);
#1116=AXIS2_PLACEMENT_3D('',#1690,#1400,#1401);
#1117=AXIS2_PLACEMENT_3D('',#1694,#1404,#1405);
#1118=AXIS2_PLACEMENT_3D('',#1698,#1408,#1409);
#1119=AXIS2_PLACEMENT_3D('',#1702,#1412,#1413);
#1120=AXIS2_PLACEMENT_3D('',#1705,#1415,#1416);
#1121=AXIS2_PLACEMENT_3D('',#1706,#1417,#1418);
#1122=AXIS2_PLACEMENT_3D('',#1707,#1419,#1420);
#1123=AXIS2_PLACEMENT_3D('',#1708,#1421,#1422);
#1124=DIRECTION('',(0.,0.,1.));
#1125=DIRECTION('',(1.,0.,0.));
#1126=DIRECTION('',(2.86509167645202E-16,1.,0.));
#1127=DIRECTION('',(0.,0.,1.));
#1128=DIRECTION('',(0.5,-1.43254583822601E-16,0.866025403784439));
#1129=DIRECTION('',(0.5,-1.43254583822601E-16,-0.866025403784439));
#1130=DIRECTION('',(-1.,2.86509167645202E-16,-1.30104260698261E-16));
#1131=DIRECTION('',(0.,0.,1.));
#1132=DIRECTION('',(2.86509167645202E-16,1.,0.));
#1133=DIRECTION('',(1.,-2.86509167645202E-16,0.));
#1134=DIRECTION('',(-1.,2.86509167645202E-16,0.));
#1135=DIRECTION('',(2.86509167645202E-16,1.,0.));
#1136=DIRECTION('',(1.,-2.86509167645202E-16,0.));
#1137=DIRECTION('',(0.,0.,-1.));
#1138=DIRECTION('',(1.,-2.86509167645202E-16,0.));
#1139=DIRECTION('',(2.86509167645202E-16,1.,0.));
#1140=DIRECTION('',(-1.,2.86509167645202E-16,0.));
#1141=DIRECTION('',(2.86509167645202E-16,1.,0.));
#1142=DIRECTION('',(-1.,2.86509167645202E-16,0.));
#1143=DIRECTION('',(0.,0.,-1.));
#1144=DIRECTION('',(-2.86509167645202E-16,-1.,0.));
#1145=DIRECTION('',(1.,-2.86509167645202E-16,0.));
#1146=DIRECTION('',(-2.86509167645202E-16,-1.,0.));
#1147=DIRECTION('',(1.,-2.86509167645202E-16,0.));
#1148=DIRECTION('',(0.,0.,-1.));
#1149=DIRECTION('',(-1.,2.86509167645202E-16,3.71726459137887E-16));
#1150=DIRECTION('',(-2.90207237212938E-16,8.31470339784926E-32,-1.));
#1151=DIRECTION('',(-2.86509167645202E-16,-1.,0.));
#1152=DIRECTION('',(1.,-2.86509167645202E-16,0.));
#1153=DIRECTION('',(2.90207237212938E-16,-8.31470339784924E-32,-1.));
#1154=DIRECTION('',(1.,-2.86509167645202E-16,3.71726459137887E-16));
#1155=DIRECTION('',(0.,0.,-1.));
#1156=DIRECTION('',(-2.86509167645202E-16,-1.,0.));
#1157=DIRECTION('',(1.,-2.86509167645202E-16,0.));
#1158=DIRECTION('',(-2.86509167645202E-16,-1.,0.));
#1159=DIRECTION('',(1.,-2.86509167645202E-16,0.));
#1160=DIRECTION('',(2.34579812425224E-16,-6.72092668043186E-32,-1.));
#1161=DIRECTION('',(1.,-2.86509167645202E-16,0.));
#1162=DIRECTION('',(0.,0.,-1.));
#1163=DIRECTION('',(-1.,0.,0.));
#1164=DIRECTION('',(0.707106781186547,0.707106781186548,0.));
#1165=DIRECTION('',(-1.,2.26761238689778E-16,0.));
#1166=DIRECTION('',(0.707106781186548,-0.707106781186547,0.));
#1167=DIRECTION('',(-0.707106781186716,-0.70710678118638,0.));
#1168=DIRECTION('',(0.707106781186716,-0.70710678118638,0.));
#1169=DIRECTION('',(-1.,2.86509167645202E-16,0.));
#1170=DIRECTION('',(0.707106781186717,0.707106781186378,0.));
#1171=DIRECTION('',(-0.707106781186717,0.707106781186378,0.));
#1172=DIRECTION('',(2.86509167645202E-16,1.,0.));
#1173=DIRECTION('',(1.,-2.86509167645202E-16,0.));
#1174=DIRECTION('',(2.86509167645202E-16,1.,0.));
#1175=DIRECTION('',(-1.,2.86509167645202E-16,0.));
#1176=DIRECTION('',(2.86509167645202E-16,1.,0.));
#1177=DIRECTION('',(-1.,2.86509167645202E-16,0.));
#1178=DIRECTION('',(2.86509167645202E-16,1.,0.));
#1179=DIRECTION('',(-1.,2.86509167645202E-16,0.));
#1180=DIRECTION('',(2.86509167645202E-16,1.,0.));
#1181=DIRECTION('',(-1.,2.86509167645202E-16,0.));
#1182=DIRECTION('',(2.86509167645202E-16,1.,0.));
#1183=DIRECTION('',(-1.,2.86509167645202E-16,0.));
#1184=DIRECTION('',(2.86509167645202E-16,1.,0.));
#1185=DIRECTION('',(-1.,2.86509167645202E-16,0.));
#1186=DIRECTION('',(2.86509167645202E-16,1.,0.));
#1187=DIRECTION('',(-1.,2.86509167645202E-16,0.));
#1188=DIRECTION('',(2.86509167645202E-16,1.,0.));
#1189=DIRECTION('',(-1.,2.86509167645202E-16,0.));
#1190=DIRECTION('',(0.,0.,-1.));
#1191=DIRECTION('',(1.,-2.86509167645202E-16,0.));
#1192=DIRECTION('',(0.,0.,-1.));
#1193=DIRECTION('',(-1.,2.86509167645202E-16,0.));
#1194=DIRECTION('',(2.86509167645202E-16,1.,0.));
#1195=DIRECTION('',(-1.,2.86509167645202E-16,0.));
#1196=DIRECTION('',(2.86509167645202E-16,1.,0.));
#1197=DIRECTION('',(-1.,2.86509167645202E-16,0.));
#1198=DIRECTION('',(2.86509167645202E-16,1.,0.));
#1199=DIRECTION('',(-1.,2.86509167645202E-16,0.));
#1200=DIRECTION('',(-1.,2.86509167645202E-16,0.));
#1201=DIRECTION('',(2.86509167645202E-16,1.,0.));
#1202=DIRECTION('',(-1.,2.86509167645202E-16,0.));
#1203=DIRECTION('',(2.86509167645202E-16,1.,0.));
#1204=DIRECTION('',(-1.,2.86509167645202E-16,0.));
#1205=DIRECTION('',(2.86509167645202E-16,1.,0.));
#1206=DIRECTION('',(-1.,2.86509167645202E-16,0.));
#1207=DIRECTION('',(0.,-1.,0.));
#1208=DIRECTION('',(-1.,0.,0.));
#1209=DIRECTION('',(2.86509167645202E-16,1.,0.));
#1210=DIRECTION('',(-1.,2.86509167645202E-16,0.));
#1211=DIRECTION('',(2.86509167645202E-16,1.,0.));
#1212=DIRECTION('',(0.,0.,1.));
#1213=DIRECTION('',(0.,-1.,0.));
#1214=DIRECTION('',(-1.,0.,0.));
#1215=DIRECTION('',(2.86509167645202E-16,1.,0.));
#1216=DIRECTION('',(-1.,2.86509167645202E-16,0.));
#1217=DIRECTION('',(2.86509167645202E-16,1.,0.));
#1218=DIRECTION('',(0.,0.,1.));
#1219=DIRECTION('',(0.,-1.,0.));
#1220=DIRECTION('',(-1.,0.,0.));
#1221=DIRECTION('',(2.86509167645202E-16,1.,0.));
#1222=DIRECTION('',(-1.,2.86509167645202E-16,0.));
#1223=DIRECTION('',(2.86509167645202E-16,1.,0.));
#1224=DIRECTION('',(0.,0.,1.));
#1225=DIRECTION('',(0.,-1.,0.));
#1226=DIRECTION('',(-1.,0.,0.));
#1227=DIRECTION('',(2.86509167645202E-16,1.,0.));
#1228=DIRECTION('',(-1.,2.86509167645202E-16,0.));
#1229=DIRECTION('',(2.86509167645202E-16,1.,0.));
#1230=DIRECTION('',(0.,0.,1.));
#1231=DIRECTION('',(0.,-1.,0.));
#1232=DIRECTION('',(1.,0.,0.));
#1233=DIRECTION('',(0.,-1.,0.));
#1234=DIRECTION('',(1.,0.,0.));
#1235=DIRECTION('',(-0.707106781186547,-0.707106781186548,0.));
#1236=DIRECTION('',(0.,0.,1.));
#1237=DIRECTION('',(0.,0.,1.));
#1238=DIRECTION('',(0.707106781186548,-0.707106781186547,0.));
#1239=DIRECTION('',(-0.707106781186548,0.707106781186547,0.));
#1240=DIRECTION('',(0.,0.,-1.));
#1241=DIRECTION('',(0.707106781186548,-0.707106781186547,0.));
#1242=DIRECTION('',(0.,0.,-1.));
#1243=DIRECTION('',(0.707106781186547,0.707106781186548,0.));
#1244=DIRECTION('',(0.,0.,1.));
#1245=DIRECTION('',(0.,0.,-1.));
#1246=DIRECTION('',(-0.707106781186547,-0.707106781186548,0.));
#1247=DIRECTION('',(0.707106781186378,0.707106781186717,0.));
#1248=DIRECTION('',(0.707106781186717,-0.707106781186378,0.));
#1249=DIRECTION('',(0.,0.,-1.));
#1250=DIRECTION('',(-0.707106781186717,0.707106781186378,0.));
#1251=DIRECTION('',(0.707106781186378,-0.707106781186717,0.));
#1252=DIRECTION('',(-0.707106781186717,-0.707106781186378,0.));
#1253=DIRECTION('',(0.707106781186717,0.707106781186378,0.));
#1254=DIRECTION('',(-0.70710678118638,-0.707106781186716,0.));
#1255=DIRECTION('',(-0.707106781186716,0.70710678118638,0.));
#1256=DIRECTION('',(0.,0.,-1.));
#1257=DIRECTION('',(0.707106781186716,-0.70710678118638,0.));
#1258=DIRECTION('',(-0.70710678118638,0.707106781186716,0.));
#1259=DIRECTION('',(0.707106781186716,0.70710678118638,0.));
#1260=DIRECTION('',(0.707106781186716,0.70710678118638,0.));
#1261=DIRECTION('',(0.,0.,1.));
#1262=DIRECTION('',(-1.,0.,0.));
#1263=DIRECTION('',(0.,0.,-1.));
#1264=DIRECTION('',(-1.,0.,0.));
#1265=DIRECTION('',(-2.86509167645202E-16,-1.,0.));
#1266=DIRECTION('',(-1.,2.86509167645202E-16,0.));
#1267=DIRECTION('',(-2.86509167645202E-16,-1.,0.));
#1268=DIRECTION('',(2.86509167645202E-16,1.,0.));
#1269=DIRECTION('',(-1.,2.86509167645202E-16,0.));
#1270=DIRECTION('',(2.86509167645202E-16,1.,0.));
#1271=DIRECTION('',(-1.,2.86509167645202E-16,0.));
#1272=DIRECTION('',(2.86509167645202E-16,1.,0.));
#1273=DIRECTION('',(2.86509167645202E-16,1.,0.));
#1274=DIRECTION('',(0.,0.,-1.));
#1275=DIRECTION('',(-1.,0.,0.));
#1276=DIRECTION('',(2.86509167645202E-16,1.,0.));
#1277=DIRECTION('',(-1.,2.86509167645202E-16,0.));
#1278=DIRECTION('',(2.86509167645202E-16,1.,0.));
#1279=DIRECTION('',(2.86509167645202E-16,1.,0.));
#1280=DIRECTION('',(-1.,2.86509167645202E-16,0.));
#1281=DIRECTION('',(2.86509167645202E-16,1.,0.));
#1282=DIRECTION('',(2.86509167645202E-16,1.,0.));
#1283=DIRECTION('',(-1.,2.86509167645202E-16,0.));
#1284=DIRECTION('',(2.86509167645202E-16,1.,0.));
#1285=DIRECTION('',(2.86509167645202E-16,1.,0.));
#1286=DIRECTION('',(-1.,2.86509167645202E-16,0.));
#1287=DIRECTION('',(2.86509167645202E-16,1.,0.));
#1288=DIRECTION('',(-1.,2.86509167645202E-16,0.));
#1289=DIRECTION('',(2.86509167645202E-16,1.,0.));
#1290=DIRECTION('',(-1.,2.86509167645202E-16,0.));
#1291=DIRECTION('',(2.86509167645202E-16,1.,0.));
#1292=DIRECTION('',(-1.,2.86509167645202E-16,0.));
#1293=DIRECTION('',(2.86509167645202E-16,1.,0.));
#1294=DIRECTION('',(-1.,2.86509167645202E-16,0.));
#1295=DIRECTION('',(2.86509167645202E-16,1.,0.));
#1296=DIRECTION('',(-1.,2.86509167645202E-16,0.));
#1297=DIRECTION('',(2.86509167645202E-16,1.,0.));
#1298=DIRECTION('',(-1.,2.86509167645202E-16,0.));
#1299=DIRECTION('',(2.86509167645202E-16,1.,0.));
#1300=DIRECTION('',(-1.,2.86509167645202E-16,0.));
#1301=DIRECTION('',(2.86509167645202E-16,1.,0.));
#1302=DIRECTION('',(-1.,2.86509167645202E-16,0.));
#1303=DIRECTION('',(2.86509167645202E-16,1.,0.));
#1304=DIRECTION('',(-1.,2.86509167645202E-16,0.));
#1305=DIRECTION('',(2.86509167645202E-16,1.,0.));
#1306=DIRECTION('',(-1.,2.86509167645202E-16,0.));
#1307=DIRECTION('',(2.86509167645202E-16,1.,0.));
#1308=DIRECTION('',(-1.,2.86509167645202E-16,0.));
#1309=DIRECTION('',(2.86509167645202E-16,1.,0.));
#1310=DIRECTION('',(-1.,2.86509167645202E-16,0.));
#1311=DIRECTION('',(2.86509167645202E-16,1.,0.));
#1312=DIRECTION('',(-1.,2.86509167645202E-16,0.));
#1313=DIRECTION('',(2.86509167645202E-16,1.,0.));
#1314=DIRECTION('',(-1.,2.86509167645202E-16,0.));
#1315=DIRECTION('',(2.86509167645202E-16,1.,0.));
#1316=DIRECTION('',(-1.,2.86509167645202E-16,0.));
#1317=DIRECTION('',(2.86509167645202E-16,1.,0.));
#1318=DIRECTION('',(-1.,2.86509167645202E-16,0.));
#1319=DIRECTION('',(2.86509167645202E-16,1.,0.));
#1320=DIRECTION('',(-1.,2.86509167645202E-16,0.));
#1321=DIRECTION('',(2.86509167645202E-16,1.,0.));
#1322=DIRECTION('',(-1.,2.86509167645202E-16,0.));
#1323=DIRECTION('',(2.86509167645202E-16,1.,0.));
#1324=DIRECTION('',(1.,-2.86509167645202E-16,0.));
#1325=DIRECTION('',(2.86509167645202E-16,1.,0.));
#1326=DIRECTION('',(-1.,2.86509167645202E-16,0.));
#1327=DIRECTION('',(2.86509167645202E-16,1.,0.));
#1328=DIRECTION('',(-1.,2.86509167645202E-16,0.));
#1329=DIRECTION('',(2.86509167645202E-16,1.,0.));
#1330=DIRECTION('',(1.,-2.86509167645202E-16,0.));
#1331=DIRECTION('',(2.26761238689778E-16,1.,0.));
#1332=DIRECTION('',(-1.,2.26761238689778E-16,0.));
#1333=DIRECTION('',(-1.,2.26761238689778E-16,0.));
#1334=DIRECTION('',(2.26761238689778E-16,1.,0.));
#1335=DIRECTION('',(1.,-2.26761238689778E-16,0.));
#1336=DIRECTION('',(2.26761238689778E-16,1.,0.));
#1337=DIRECTION('',(1.,-2.26761238689778E-16,0.));
#1338=DIRECTION('',(0.,0.,-1.));
#1339=DIRECTION('',(1.,0.,0.));
#1340=DIRECTION('',(0.707106781186548,-0.707106781186547,0.));
#1341=DIRECTION('',(0.707106781186547,0.707106781186548,0.));
#1342=DIRECTION('',(0.707106781186548,-0.707106781186547,0.));
#1343=DIRECTION('',(0.707106781186547,0.707106781186548,0.));
#1344=DIRECTION('',(0.707106781186547,0.707106781186548,0.));
#1345=DIRECTION('',(-0.707106781186548,0.707106781186547,0.));
#1346=DIRECTION('',(0.866025403784439,-2.4812421759788E-16,-0.5));
#1347=DIRECTION('',(-0.5,0.,-0.866025403784439));
#1348=DIRECTION('',(-2.86509167645202E-16,-1.,0.));
#1349=DIRECTION('',(0.5,-1.43254583822601E-16,0.866025403784439));
#1350=DIRECTION('',(-2.86509167645202E-16,-1.,0.));
#1351=DIRECTION('',(-1.30104260698261E-16,3.7276063439753E-32,1.));
#1352=DIRECTION('',(1.,0.,1.30104260698261E-16));
#1353=DIRECTION('',(-2.86509167645202E-16,-1.,0.));
#1354=DIRECTION('',(-1.,2.86509167645202E-16,-1.30104260698261E-16));
#1355=DIRECTION('',(-0.866025403784439,2.4812421759788E-16,-0.5));
#1356=DIRECTION('',(-0.5,0.,0.866025403784439));
#1357=DIRECTION('',(0.5,-1.43254583822601E-16,-0.866025403784439));
#1358=DIRECTION('',(-2.86509167645202E-16,-1.,0.));
#1359=DIRECTION('',(1.,-2.86509167645202E-16,0.));
#1360=DIRECTION('',(-1.,2.86509167645202E-16,0.));
#1361=DIRECTION('',(-2.86509167645202E-16,-1.,0.));
#1362=DIRECTION('',(-2.86509167645202E-16,-1.,0.));
#1363=DIRECTION('',(0.,0.,-1.));
#1364=DIRECTION('',(-2.86509167645202E-16,-1.,0.));
#1365=DIRECTION('',(0.,0.,-1.));
#1366=DIRECTION('',(-1.,0.,0.));
#1367=DIRECTION('',(-2.86509167645202E-16,-1.,0.));
#1368=DIRECTION('',(1.,-2.86509167645202E-16,0.));
#1369=DIRECTION('',(-1.,2.86509167645202E-16,-2.34579812425224E-16));
#1370=DIRECTION('',(-2.86509167645202E-16,-1.,0.));
#1371=DIRECTION('',(-2.86509167645202E-16,-1.,0.));
#1372=DIRECTION('',(2.34579812425224E-16,-6.72092668043186E-32,-1.));
#1373=DIRECTION('',(-2.86509167645202E-16,-1.,0.));
#1374=DIRECTION('',(1.,-2.86509167645202E-16,0.));
#1375=DIRECTION('',(-2.86509167645202E-16,-1.,0.));
#1376=DIRECTION('',(-2.86509167645202E-16,-1.,0.));
#1377=DIRECTION('',(1.,-2.86509167645202E-16,0.));
#1378=DIRECTION('',(-2.86509167645202E-16,-1.,0.));
#1379=DIRECTION('',(1.,-2.86509167645202E-16,0.));
#1380=DIRECTION('',(-2.86509167645202E-16,-1.,0.));
#1381=DIRECTION('',(-2.86509167645202E-16,-1.,0.));
#1382=DIRECTION('',(1.,-2.86509167645202E-16,0.));
#1383=DIRECTION('',(-1.,2.86509167645202E-16,0.));
#1384=DIRECTION('',(-2.86509167645202E-16,-1.,0.));
#1385=DIRECTION('',(-2.86509167645202E-16,-1.,0.));
#1386=DIRECTION('',(0.,0.,-1.));
#1387=DIRECTION('',(3.71726459137887E-16,-1.06503038399294E-31,-1.));
#1388=DIRECTION('',(-1.,0.,-3.71726459137887E-16));
#1389=DIRECTION('',(-2.86509167645202E-16,-1.,0.));
#1390=DIRECTION('',(1.,-2.86509167645202E-16,3.71726459137887E-16));
#1391=DIRECTION('',(-1.,2.86509167645202E-16,-2.90207237212938E-16));
#1392=DIRECTION('',(-2.90207237212938E-16,0.,1.));
#1393=DIRECTION('',(-2.86509167645202E-16,-1.,0.));
#1394=DIRECTION('',(2.90207237212938E-16,-8.31470339784924E-32,-1.));
#1395=DIRECTION('',(-2.86509167645202E-16,-1.,0.));
#1396=DIRECTION('',(1.,-2.86509167645202E-16,0.));
#1397=DIRECTION('',(-2.86509167645202E-16,-1.,0.));
#1398=DIRECTION('',(-2.86509167645202E-16,-1.,0.));
#1399=DIRECTION('',(1.,-2.86509167645202E-16,0.));
#1400=DIRECTION('',(-1.,2.86509167645202E-16,2.90207237212938E-16));
#1401=DIRECTION('',(2.90207237212938E-16,0.,1.));
#1402=DIRECTION('',(-2.86509167645202E-16,-1.,0.));
#1403=DIRECTION('',(-2.90207237212938E-16,8.31470339784926E-32,-1.));
#1404=DIRECTION('',(3.71726459137887E-16,-1.06503038399294E-31,1.));
#1405=DIRECTION('',(1.,0.,-3.71726459137887E-16));
#1406=DIRECTION('',(-2.86509167645202E-16,-1.,0.));
#1407=DIRECTION('',(-1.,2.86509167645202E-16,3.71726459137887E-16));
#1408=DIRECTION('',(-1.,2.86509167645202E-16,0.));
#1409=DIRECTION('',(-2.86509167645202E-16,-1.,0.));
#1410=DIRECTION('',(-2.86509167645202E-16,-1.,0.));
#1411=DIRECTION('',(0.,0.,-1.));
#1412=DIRECTION('',(-2.86509167645202E-16,-1.,0.));
#1413=DIRECTION('',(1.,-2.86509167645202E-16,0.));
#1414=DIRECTION('',(-2.86509167645202E-16,-1.,0.));
#1415=DIRECTION('',(-2.86509167645202E-16,-1.,0.));
#1416=DIRECTION('',(1.,-2.86509167645202E-16,0.));
#1417=DIRECTION('',(-2.86509167645202E-16,-1.,0.));
#1418=DIRECTION('',(1.,-2.86509167645202E-16,0.));
#1419=DIRECTION('',(-2.86509167645202E-16,-1.,0.));
#1420=DIRECTION('',(1.,-2.86509167645202E-16,0.));
#1421=DIRECTION('',(-2.86509167645202E-16,-1.,0.));
#1422=DIRECTION('',(1.,-2.86509167645202E-16,0.));
#1423=CARTESIAN_POINT('',(0.,0.,0.));
#1424=CARTESIAN_POINT('',(7.81634189915115E-18,-0.0424,0.016));
#1425=CARTESIAN_POINT('',(-0.0025,-0.0424,0.00633012701892219));
#1426=CARTESIAN_POINT('',(-0.005,-0.0424,0.002));
#1427=CARTESIAN_POINT('',(-9.97465998686664E-18,-0.0424,0.0106602540378444));
#1428=CARTESIAN_POINT('',(0.0025,-0.0424,0.00633012701892219));
#1429=CARTESIAN_POINT('',(0.005,-0.0424,0.002));
#1430=CARTESIAN_POINT('',(-6.93889390390723E-18,-0.0424,0.002));
#1431=CARTESIAN_POINT('',(-0.0246,-0.0424,0.016));
#1432=CARTESIAN_POINT('',(-0.0246,-0.0424,-0.006));
#1433=CARTESIAN_POINT('',(-0.0246,-0.0424,0.032));
#1434=CARTESIAN_POINT('',(-0.00480101012677666,-0.0424,-0.006));
#1435=CARTESIAN_POINT('',(-0.00480101012677666,-0.0424,-0.02));
#1436=CARTESIAN_POINT('',(7.81634189915115E-18,-0.0424,-0.02));
#1437=CARTESIAN_POINT('',(0.0048010101267767,-0.0424,-0.02));
#1438=CARTESIAN_POINT('',(0.00480101012677669,-0.0424,-0.006));
#1439=CARTESIAN_POINT('',(0.0246,-0.0424,-0.006));
#1440=CARTESIAN_POINT('',(0.0246,-0.0424,0.016));
#1441=CARTESIAN_POINT('',(0.0246,-0.0424,0.032));
#1442=CARTESIAN_POINT('',(7.81634189915115E-18,-0.0424,0.032));
#1443=CARTESIAN_POINT('',(-0.01325,-0.0424,0.016));
#1444=CARTESIAN_POINT('',(-0.0215,-0.0424,0.016));
#1445=CARTESIAN_POINT('',(0.01325,-0.0424,0.016));
#1446=CARTESIAN_POINT('',(0.005,-0.0424,0.016));
#1447=CARTESIAN_POINT('',(-0.0035,-0.0424,-0.0142288058934828));
#1448=CARTESIAN_POINT('',(-0.0035,-0.0424,-0.0123800497515516));
#1449=CARTESIAN_POINT('',(-0.0035,-0.0424,-0.0160775620354141));
#1450=CARTESIAN_POINT('',(-1.58293517182883E-17,-0.0424,0.00401995024844834));
#1451=CARTESIAN_POINT('',(-0.02,-0.0424,-1.30104260698261E-17));
#1452=CARTESIAN_POINT('',(-2.42861286636753E-17,-0.0424,0.0346410161513775));
#1453=CARTESIAN_POINT('',(-0.0145,-0.0424,-0.00263833470133983));
#1454=CARTESIAN_POINT('',(-0.0145,-0.0424,-0.00513833470133983));
#1455=CARTESIAN_POINT('',(-0.0145,-0.0424,-0.00763833470133984));
#1456=CARTESIAN_POINT('',(-0.011,-0.0424,-0.00763833470133984));
#1457=CARTESIAN_POINT('',(-0.0075,-0.0424,-0.00763833470133984));
#1458=CARTESIAN_POINT('',(-0.0075,-0.0424,-0.00614395133185829));
#1459=CARTESIAN_POINT('',(-0.0075,-0.0424,-0.00464956796237674));
#1460=CARTESIAN_POINT('',(-1.04083408558609E-17,-0.0424,0.0346410161513775));
#1461=CARTESIAN_POINT('',(0.0075,-0.0424,-0.00464956796237673));
#1462=CARTESIAN_POINT('',(0.0075,-0.0424,-0.00614395133185829));
#1463=CARTESIAN_POINT('',(0.0075,-0.0424,-0.00763833470133984));
#1464=CARTESIAN_POINT('',(0.011,-0.0424,-0.00763833470133984));
#1465=CARTESIAN_POINT('',(0.0145,-0.0424,-0.00763833470133984));
#1466=CARTESIAN_POINT('',(0.0145,-0.0424,-0.00513833470133983));
#1467=CARTESIAN_POINT('',(0.0145,-0.0424,-0.00263833470133984));
#1468=CARTESIAN_POINT('',(-4.9439619065339E-17,-0.0424,0.0346410161513776));
#1469=CARTESIAN_POINT('',(0.02,-0.0424,-4.33680868994202E-18));
#1470=CARTESIAN_POINT('',(-7.80625564189564E-18,-0.0424,0.00401995024844834));
#1471=CARTESIAN_POINT('',(0.0035,-0.0424,-0.0160775620354141));
#1472=CARTESIAN_POINT('',(0.0035,-0.0424,-0.0142288058934828));
#1473=CARTESIAN_POINT('',(0.0035,-0.0424,-0.0123800497515516));
#1474=CARTESIAN_POINT('',(-4.27601586125099E-49,-0.0424,-0.0123800497515516));
#1475=CARTESIAN_POINT('',(0.,-0.034,0.));
#1476=CARTESIAN_POINT('',(0.022,-0.045,0.));
#1477=CARTESIAN_POINT('',(0.0306,-0.0364,0.));
#1478=CARTESIAN_POINT('',(0.031,-0.036,0.));
#1479=CARTESIAN_POINT('',(-2.08166817117217E-17,-0.0364,0.));
#1480=CARTESIAN_POINT('',(-0.0306,-0.0364,0.));
#1481=CARTESIAN_POINT('',(-0.022,-0.045,0.));
#1482=CARTESIAN_POINT('',(-0.031,-0.036,0.));
#1483=CARTESIAN_POINT('',(-0.0227499999999963,-0.02775,0.));
#1484=CARTESIAN_POINT('',(-0.028999999999999,-0.034,0.));
#1485=CARTESIAN_POINT('',(-0.0217499999999958,-0.04125,0.));
#1486=CARTESIAN_POINT('',(-0.031,-0.032,0.));
#1487=CARTESIAN_POINT('',(-0.0155,-0.032,0.));
#1488=CARTESIAN_POINT('',(0.031,-0.032,0.));
#1489=CARTESIAN_POINT('',(0.0227499999999963,-0.04025,0.));
#1490=CARTESIAN_POINT('',(0.028999999999999,-0.034,0.));
#1491=CARTESIAN_POINT('',(0.0217499999999958,-0.02675,0.));
#1492=CARTESIAN_POINT('',(-0.031,-0.032,0.032));
#1493=CARTESIAN_POINT('',(-0.01325,-0.032,0.0285));
#1494=CARTESIAN_POINT('',(-0.01575,-0.032,0.0285));
#1495=CARTESIAN_POINT('',(0.01325,-0.032,0.0285));
#1496=CARTESIAN_POINT('',(0.01075,-0.032,0.0285));
#1497=CARTESIAN_POINT('',(0.01325,-0.032,0.016));
#1498=CARTESIAN_POINT('',(0.005,-0.032,0.016));
#1499=CARTESIAN_POINT('',(-0.01325,-0.032,0.016));
#1500=CARTESIAN_POINT('',(-0.0215,-0.032,0.016));
#1501=CARTESIAN_POINT('',(-0.0213,-0.032,0.0248));
#1502=CARTESIAN_POINT('',(-0.022295,-0.032,0.0248));
#1503=CARTESIAN_POINT('',(0.0213,-0.032,0.0248));
#1504=CARTESIAN_POINT('',(0.02028,-0.032,0.0248));
#1505=CARTESIAN_POINT('',(-0.0213,-0.032,0.0072));
#1506=CARTESIAN_POINT('',(-0.02232,-0.032,0.0072));
#1507=CARTESIAN_POINT('',(0.0213,-0.032,0.0072));
#1508=CARTESIAN_POINT('',(0.020305,-0.032,0.0072));
#1509=CARTESIAN_POINT('',(-0.031,-0.032,0.032));
#1510=CARTESIAN_POINT('',(-0.031,-0.032,0.032));
#1511=CARTESIAN_POINT('',(-2.55524994698006E-18,-0.032,0.032));
#1512=CARTESIAN_POINT('',(0.031,-0.032,0.032));
#1513=CARTESIAN_POINT('',(0.031,-0.032,0.032));
#1514=CARTESIAN_POINT('',(-9.54097911787244E-18,-0.032,0.00775));
#1515=CARTESIAN_POINT('',(0.00536203448283398,-0.032,0.00775));
#1516=CARTESIAN_POINT('',(-0.005362034482834,-0.032,0.00775));
#1517=CARTESIAN_POINT('',(0.00536203448283398,-0.032,0.00855));
#1518=CARTESIAN_POINT('',(0.00594363562695682,-0.032,0.00909930875576037));
#1519=CARTESIAN_POINT('',(0.01325,-0.032,0.016));
#1520=CARTESIAN_POINT('',(0.00594363562695682,-0.032,0.0229006912442397));
#1521=CARTESIAN_POINT('',(0.00536203448283399,-0.032,0.02345));
#1522=CARTESIAN_POINT('',(0.00536203448283399,-0.032,0.02425));
#1523=CARTESIAN_POINT('',(-9.54097911787244E-18,-0.032,0.02425));
#1524=CARTESIAN_POINT('',(-0.005362034482834,-0.032,0.02425));
#1525=CARTESIAN_POINT('',(-0.005362034482834,-0.032,0.02345));
#1526=CARTESIAN_POINT('',(-0.00594363562695684,-0.032,0.0229006912442397));
#1527=CARTESIAN_POINT('',(-0.01325,-0.032,0.016));
#1528=CARTESIAN_POINT('',(-0.00594363562695684,-0.032,0.00909930875576037));
#1529=CARTESIAN_POINT('',(-0.005362034482834,-0.032,0.00855));
#1530=CARTESIAN_POINT('',(0.0213,-0.032,0.0072));
#1531=CARTESIAN_POINT('',(0.0213,-0.0355,0.0072));
#1532=CARTESIAN_POINT('',(0.020305,-0.0355,0.0072));
#1533=CARTESIAN_POINT('',(9.86488244781435E-18,-0.0355,0.016));
#1534=CARTESIAN_POINT('',(-0.0213,-0.032,0.0072));
#1535=CARTESIAN_POINT('',(-0.0213,-0.0355,0.0072));
#1536=CARTESIAN_POINT('',(-0.02232,-0.0355,0.0072));
#1537=CARTESIAN_POINT('',(9.86488244781435E-18,-0.0355,0.016));
#1538=CARTESIAN_POINT('',(0.0213,-0.032,0.0248));
#1539=CARTESIAN_POINT('',(0.0213,-0.0355,0.0248));
#1540=CARTESIAN_POINT('',(0.02028,-0.0355,0.0248));
#1541=CARTESIAN_POINT('',(9.86488244781435E-18,-0.0355,0.016));
#1542=CARTESIAN_POINT('',(-0.0213,-0.032,0.0248));
#1543=CARTESIAN_POINT('',(-0.0213,-0.0355,0.0248));
#1544=CARTESIAN_POINT('',(-0.022295,-0.0355,0.0248));
#1545=CARTESIAN_POINT('',(9.86488244781435E-18,-0.0355,0.016));
#1546=CARTESIAN_POINT('',(0.01325,0.,0.016));
#1547=CARTESIAN_POINT('',(-0.01325,0.,0.016));
#1548=CARTESIAN_POINT('',(-0.0275,-0.0395,0.024));
#1549=CARTESIAN_POINT('',(-0.0306,-0.0364,-0.02));
#1550=CARTESIAN_POINT('',(-0.0306,-0.0364,-0.006));
#1551=CARTESIAN_POINT('',(-0.0275,-0.0395,-0.006));
#1552=CARTESIAN_POINT('',(-0.022,-0.045,0.032));
#1553=CARTESIAN_POINT('',(-0.031,-0.036,0.032));
#1554=CARTESIAN_POINT('',(-0.031,-0.036,0.032));
#1555=CARTESIAN_POINT('',(0.0275,-0.0395,0.008));
#1556=CARTESIAN_POINT('',(0.0275,-0.0395,-0.006));
#1557=CARTESIAN_POINT('',(0.0306,-0.0364,-0.006));
#1558=CARTESIAN_POINT('',(0.0306,-0.0364,-0.02));
#1559=CARTESIAN_POINT('',(0.031,-0.036,0.032));
#1560=CARTESIAN_POINT('',(0.031,-0.036,0.032));
#1561=CARTESIAN_POINT('',(0.022,-0.045,0.032));
#1562=CARTESIAN_POINT('',(0.028999999999999,-0.034,0.032));
#1563=CARTESIAN_POINT('',(0.028999999999999,-0.034,0.032));
#1564=CARTESIAN_POINT('',(0.028999999999999,-0.034,0.032));
#1565=CARTESIAN_POINT('',(0.031,-0.036,0.032));
#1566=CARTESIAN_POINT('',(0.031,-0.032,0.032));
#1567=CARTESIAN_POINT('',(0.028999999999999,-0.034,0.032));
#1568=CARTESIAN_POINT('',(-0.028999999999999,-0.034,0.032));
#1569=CARTESIAN_POINT('',(-0.028999999999999,-0.034,0.032));
#1570=CARTESIAN_POINT('',(-0.028999999999999,-0.034,0.032));
#1571=CARTESIAN_POINT('',(-0.031,-0.032,0.032));
#1572=CARTESIAN_POINT('',(-0.031,-0.036,0.032));
#1573=CARTESIAN_POINT('',(-0.031,-0.036,0.032));
#1574=CARTESIAN_POINT('',(0.,-0.034,0.032));
#1575=CARTESIAN_POINT('',(-1.02286011202209E-17,-0.0344,0.02425));
#1576=CARTESIAN_POINT('',(0.00536203448283398,-0.0344,0.02425));
#1577=CARTESIAN_POINT('',(0.00536203448283398,-0.0344,0.02425));
#1578=CARTESIAN_POINT('',(-1.02286011202209E-17,-0.0344,0.02425));
#1579=CARTESIAN_POINT('',(-0.005362034482834,-0.0344,0.02425));
#1580=CARTESIAN_POINT('',(-0.005362034482834,-0.032,0.02425));
#1581=CARTESIAN_POINT('',(0.01325,-0.0344,0.016));
#1582=CARTESIAN_POINT('',(0.01325,-0.0344,0.016));
#1583=CARTESIAN_POINT('',(0.00594363562695682,-0.0344,0.00909930875576037));
#1584=CARTESIAN_POINT('',(0.00594363562695682,-0.0344,0.0229006912442397));
#1585=CARTESIAN_POINT('',(0.00594363562695682,-0.0344,0.0229006912442397));
#1586=CARTESIAN_POINT('',(0.00594363562695682,-0.0344,0.00909930875576037));
#1587=CARTESIAN_POINT('',(-1.02286011202209E-17,-0.0344,0.00775));
#1588=CARTESIAN_POINT('',(-0.005362034482834,-0.0344,0.00775));
#1589=CARTESIAN_POINT('',(-0.005362034482834,-0.0344,0.00775));
#1590=CARTESIAN_POINT('',(-1.02286011202209E-17,-0.0344,0.00775));
#1591=CARTESIAN_POINT('',(0.00536203448283398,-0.0344,0.00775));
#1592=CARTESIAN_POINT('',(0.00536203448283398,-0.0344,0.00775));
#1593=CARTESIAN_POINT('',(-0.01325,-0.0344,0.016));
#1594=CARTESIAN_POINT('',(-0.00594363562695684,-0.0344,0.0229006912442397));
#1595=CARTESIAN_POINT('',(-0.00594363562695684,-0.0344,0.0229006912442397));
#1596=CARTESIAN_POINT('',(-0.01325,-0.0344,0.016));
#1597=CARTESIAN_POINT('',(-0.00594363562695684,-0.0344,0.00909930875576037));
#1598=CARTESIAN_POINT('',(-0.00594363562695684,-0.0344,0.00909930875576037));
#1599=CARTESIAN_POINT('',(4.0218724408195E-18,-0.0344,0.016));
#1600=CARTESIAN_POINT('',(0.00536203448283398,-0.0344,0.02345));
#1601=CARTESIAN_POINT('',(0.00536203448283398,-0.0344,0.00855));
#1602=CARTESIAN_POINT('',(-0.005362034482834,-0.0344,0.00855));
#1603=CARTESIAN_POINT('',(-0.005362034482834,-0.0344,0.02345));
#1604=CARTESIAN_POINT('',(0.00536203448283398,-0.0344,0.02345));
#1605=CARTESIAN_POINT('',(-0.005362034482834,-0.0344,0.02345));
#1606=CARTESIAN_POINT('',(-0.005362034482834,-0.0344,0.00855));
#1607=CARTESIAN_POINT('',(0.00536203448283398,-0.0344,0.00855));
#1608=CARTESIAN_POINT('',(0.01325,-0.0404,0.0285));
#1609=CARTESIAN_POINT('',(0.01325,-0.0404,0.0285));
#1610=CARTESIAN_POINT('',(0.01075,-0.0404,0.0285));
#1611=CARTESIAN_POINT('',(2.30281743494829E-18,-0.0404,0.016));
#1612=CARTESIAN_POINT('',(0.01325,-0.0404,0.0285));
#1613=CARTESIAN_POINT('',(0.012,-0.0404,0.0285));
#1614=CARTESIAN_POINT('',(-0.01325,-0.0404,0.0285));
#1615=CARTESIAN_POINT('',(-0.01325,-0.0404,0.0285));
#1616=CARTESIAN_POINT('',(-0.01575,-0.0404,0.0285));
#1617=CARTESIAN_POINT('',(2.30281743494829E-18,-0.0404,0.016));
#1618=CARTESIAN_POINT('',(-0.01325,-0.0404,0.0285));
#1619=CARTESIAN_POINT('',(-0.0145,-0.0404,0.0285));
#1620=CARTESIAN_POINT('',(-0.01325,-0.0418,0.0285));
#1621=CARTESIAN_POINT('',(-0.01325,-0.0418,0.0285));
#1622=CARTESIAN_POINT('',(-0.0145,-0.0418,0.0285));
#1623=CARTESIAN_POINT('',(-0.031,-0.0418,0.032));
#1624=CARTESIAN_POINT('',(0.01325,-0.0418,0.0285));
#1625=CARTESIAN_POINT('',(0.01325,-0.0418,0.0285));
#1626=CARTESIAN_POINT('',(0.012,-0.0418,0.0285));
#1627=CARTESIAN_POINT('',(-0.031,-0.0418,0.032));
#1628=CARTESIAN_POINT('',(-2.08166817117217E-17,-0.0364,-0.02));
#1629=CARTESIAN_POINT('',(-2.08166817117217E-17,-0.0364,-0.02));
#1630=CARTESIAN_POINT('',(0.0108010101267767,-0.0364,-0.02));
#1631=CARTESIAN_POINT('',(-0.0108010101267767,-0.0364,-0.02));
#1632=CARTESIAN_POINT('',(-0.0108010101267767,-0.0364,-0.006));
#1633=CARTESIAN_POINT('',(0.0108010101267767,-0.0364,-0.006));
#1634=CARTESIAN_POINT('',(0.,-0.0371987625,-0.02));
#1635=CARTESIAN_POINT('',(-0.00500112381338832,-0.0421998863133884,-0.02));
#1636=CARTESIAN_POINT('',(0.00500112381338835,-0.0421998863133884,-0.02));
#1637=CARTESIAN_POINT('',(-0.0176005050633883,-0.0296005050633883,-0.006));
#1638=CARTESIAN_POINT('',(0.0176005050633883,-0.0296005050633883,-0.006));
#1639=CARTESIAN_POINT('',(-0.0025,-0.0374,0.00633012701892219));
#1640=CARTESIAN_POINT('',(-0.005,-0.0374,0.002));
#1641=CARTESIAN_POINT('',(-0.005,-0.0374,0.002));
#1642=CARTESIAN_POINT('',(-0.0025,-0.0374,0.00633012701892219));
#1643=CARTESIAN_POINT('',(-8.54211414864063E-18,-0.0374,0.0106602540378444));
#1644=CARTESIAN_POINT('',(-8.54211414864063E-18,-0.0374,0.0106602540378444));
#1645=CARTESIAN_POINT('',(-5.50634806568122E-18,-0.0374,0.002));
#1646=CARTESIAN_POINT('',(0.005,-0.0374,0.002));
#1647=CARTESIAN_POINT('',(0.005,-0.0374,0.002));
#1648=CARTESIAN_POINT('',(-5.50634806568122E-18,-0.0374,0.002));
#1649=CARTESIAN_POINT('',(0.0025,-0.0374,0.00633012701892219));
#1650=CARTESIAN_POINT('',(0.0025,-0.0374,0.00633012701892219));
#1651=CARTESIAN_POINT('',(-3.77654896602332E-18,-0.0374,0.006));
#1652=CARTESIAN_POINT('',(-0.0035,-0.0374,-0.0142288058934828));
#1653=CARTESIAN_POINT('',(-0.0035,-0.0374,-0.0123800497515516));
#1654=CARTESIAN_POINT('',(-0.0035,-0.0374,-0.0123800497515516));
#1655=CARTESIAN_POINT('',(-0.0035,-0.0374,-0.0142288058934828));
#1656=CARTESIAN_POINT('',(-0.0035,-0.0374,-0.0160775620354141));
#1657=CARTESIAN_POINT('',(-0.0035,-0.0374,-0.0160775620354141));
#1658=CARTESIAN_POINT('',(1.43254583822601E-18,-0.0374,-0.0123800497515516));
#1659=CARTESIAN_POINT('',(0.0035,-0.0374,-0.0123800497515516));
#1660=CARTESIAN_POINT('',(0.0035,-0.0374,-0.0123800497515516));
#1661=CARTESIAN_POINT('',(1.43254583822601E-18,-0.0374,-0.0123800497515516));
#1662=CARTESIAN_POINT('',(0.0035,-0.0374,-0.0142288058934828));
#1663=CARTESIAN_POINT('',(0.0035,-0.0374,-0.0160775620354141));
#1664=CARTESIAN_POINT('',(0.0035,-0.0374,-0.0160775620354141));
#1665=CARTESIAN_POINT('',(0.0035,-0.0374,-0.0142288058934828));
#1666=CARTESIAN_POINT('',(-6.37370980366963E-18,-0.0374,0.00401995024844834));
#1667=CARTESIAN_POINT('',(0.02,-0.0374,-4.33680868994202E-18));
#1668=CARTESIAN_POINT('',(0.02,-0.0374,-4.33680868994202E-18));
#1669=CARTESIAN_POINT('',(-6.37370980366963E-18,-0.0374,0.00401995024844834));
#1670=CARTESIAN_POINT('',(-4.8007073227113E-17,-0.0374,0.0346410161513776));
#1671=CARTESIAN_POINT('',(0.0145,-0.0374,-0.00263833470133984));
#1672=CARTESIAN_POINT('',(0.0145,-0.0374,-0.00263833470133984));
#1673=CARTESIAN_POINT('',(-4.8007073227113E-17,-0.0374,0.0346410161513776));
#1674=CARTESIAN_POINT('',(0.0145,-0.0374,-0.00513833470133983));
#1675=CARTESIAN_POINT('',(0.0145,-0.0374,-0.00763833470133984));
#1676=CARTESIAN_POINT('',(0.0145,-0.0374,-0.00763833470133984));
#1677=CARTESIAN_POINT('',(0.0145,-0.0374,-0.00513833470133983));
#1678=CARTESIAN_POINT('',(0.011,-0.0374,-0.00763833470133984));
#1679=CARTESIAN_POINT('',(0.0075,-0.0374,-0.00763833470133984));
#1680=CARTESIAN_POINT('',(0.0075,-0.0374,-0.00763833470133984));
#1681=CARTESIAN_POINT('',(0.011,-0.0374,-0.00763833470133984));
#1682=CARTESIAN_POINT('',(0.0075,-0.0374,-0.00614395133185829));
#1683=CARTESIAN_POINT('',(0.0075,-0.0374,-0.00464956796237673));
#1684=CARTESIAN_POINT('',(0.0075,-0.0374,-0.00464956796237673));
#1685=CARTESIAN_POINT('',(0.0075,-0.0374,-0.00614395133185829));
#1686=CARTESIAN_POINT('',(-8.97579501763491E-18,-0.0374,0.0346410161513775));
#1687=CARTESIAN_POINT('',(-0.0075,-0.0374,-0.00464956796237674));
#1688=CARTESIAN_POINT('',(-0.0075,-0.0374,-0.00464956796237674));
#1689=CARTESIAN_POINT('',(-8.97579501763491E-18,-0.0374,0.0346410161513775));
#1690=CARTESIAN_POINT('',(-0.0075,-0.0374,-0.00614395133185829));
#1691=CARTESIAN_POINT('',(-0.0075,-0.0374,-0.00763833470133984));
#1692=CARTESIAN_POINT('',(-0.0075,-0.0374,-0.00763833470133984));
#1693=CARTESIAN_POINT('',(-0.0075,-0.0374,-0.00614395133185829));
#1694=CARTESIAN_POINT('',(-0.011,-0.0374,-0.00763833470133984));
#1695=CARTESIAN_POINT('',(-0.0145,-0.0374,-0.00763833470133984));
#1696=CARTESIAN_POINT('',(-0.0145,-0.0374,-0.00763833470133984));
#1697=CARTESIAN_POINT('',(-0.011,-0.0374,-0.00763833470133984));
#1698=CARTESIAN_POINT('',(-0.0145,-0.0374,-0.00513833470133983));
#1699=CARTESIAN_POINT('',(-0.0145,-0.0374,-0.00263833470133983));
#1700=CARTESIAN_POINT('',(-0.0145,-0.0374,-0.00263833470133983));
#1701=CARTESIAN_POINT('',(-0.0145,-0.0374,-0.00513833470133983));
#1702=CARTESIAN_POINT('',(-2.28535828254493E-17,-0.0374,0.0346410161513775));
#1703=CARTESIAN_POINT('',(-0.02,-0.0374,-1.38777878078145E-17));
#1704=CARTESIAN_POINT('',(-0.02,-0.0374,-1.38777878078145E-17));
#1705=CARTESIAN_POINT('',(-2.28535828254493E-17,-0.0374,0.0346410161513775));
#1706=CARTESIAN_POINT('',(-1.43968058800624E-17,-0.0374,0.00401995024844834));
#1707=CARTESIAN_POINT('',(-1.43968058800624E-17,-0.0374,0.00401995024844834));
#1708=CARTESIAN_POINT('',(-3.77654896602332E-18,-0.0374,0.006));
#1709=MECHANICAL_DESIGN_GEOMETRIC_PRESENTATION_REPRESENTATION('',(#1006),
#1710);
#1710=(
GEOMETRIC_REPRESENTATION_CONTEXT(3)
GLOBAL_UNCERTAINTY_ASSIGNED_CONTEXT((#1711))
GLOBAL_UNIT_ASSIGNED_CONTEXT((#1714,#1713,#1712))
REPRESENTATION_CONTEXT('FaceUS','TOP_LEVEL_ASSEMBLY_PART')
);
#1711=UNCERTAINTY_MEASURE_WITH_UNIT(LENGTH_MEASURE(1.E-6),#1714,
'DISTANCE_ACCURACY_VALUE','Maximum Tolerance applied to model');
#1712=(
NAMED_UNIT(*)
SI_UNIT($,.STERADIAN.)
SOLID_ANGLE_UNIT()
);
#1713=(
NAMED_UNIT(*)
PLANE_ANGLE_UNIT()
SI_UNIT($,.RADIAN.)
);
#1714=(
LENGTH_UNIT()
NAMED_UNIT(*)
SI_UNIT($,.METRE.)
);
#1715=PRODUCT_DEFINITION_SHAPE('','',#1716);
#1716=PRODUCT_DEFINITION('','',#1718,#1717);
#1717=PRODUCT_DEFINITION_CONTEXT('',#1724,'design');
#1718=PRODUCT_DEFINITION_FORMATION_WITH_SPECIFIED_SOURCE('','',#1720,
 .NOT_KNOWN.);
#1719=PRODUCT_RELATED_PRODUCT_CATEGORY('','',(#1720));
#1720=PRODUCT('FaceUS','FaceUS','FaceUS',(#1722));
#1721=PRODUCT_CATEGORY('','');
#1722=PRODUCT_CONTEXT('',#1724,'mechanical');
#1723=APPLICATION_PROTOCOL_DEFINITION('international standard',
'ap242_managed_model_based_3d_engineering',2011,#1724);
#1724=APPLICATION_CONTEXT('managed model based 3d engineering');
ENDSEC;
END-ISO-10303-21;
