ISO-10303-21;
HEADER;
/* Generated by software containing ST-Developer
 * from STEP Tools, Inc. (www.steptools.com) 
 */
/* OPTION: using custom renumber hook */

FILE_DESCRIPTION(
/* description */ ('STEP AP242 Edition 2',
'CAx-IF Rec.Pracs.---Representation and Presentation of Product Manufa
cturing Information (PMI)---4.0---2014-10-13',
'CAx-IF Rec.Pracs.---3D Tessellated Geometry---0.4---2014-09-14','2;1',
'CAx-IF Rec.Pracs.---User Defined Attributes---1.5---2016-08-15'),
/* implementation_level */ '2;1');

FILE_NAME(
/* name */ 'Part Studio 1 - pika',
/* time_stamp */ '2026-08-17T07:06:27Z',
/* author */ (''),
/* organization */ (''),
/* preprocessor_version */ 'ST-DEVELOPER v20',
/* originating_system */ 'ONSHAPE BY PTC INC, 1.219',
/* authorisation */ '  ');

FILE_SCHEMA (('AP242_MANAGED_MODEL_BASED_3D_ENGINEERING_MIM_LF { 1 0 10303 442 3 1 4 }'));
ENDSEC;

DATA;
#10=SHAPE_REPRESENTATION_RELATIONSHIP('','',#884,#11);
#11=ADVANCED_BREP_SHAPE_REPRESENTATION('',(#882),#1560);
#12=CONICAL_SURFACE('',#989,0.00325,0.785398163397446);
#13=CONICAL_SURFACE('',#990,0.00175,0.785398163397446);
#14=CONICAL_SURFACE('',#991,0.00325,0.785398163397448);
#15=CONICAL_SURFACE('',#992,0.00175,0.785398163397446);
#16=CONICAL_SURFACE('',#993,0.00325,0.78539816339745);
#17=CONICAL_SURFACE('',#994,0.00325,0.78539816339745);
#18=CONICAL_SURFACE('',#995,0.00175,0.78539816339745);
#19=CONICAL_SURFACE('',#996,0.00325,0.78539816339745);
#20=CONICAL_SURFACE('',#997,0.00175,0.78539816339745);
#21=CONICAL_SURFACE('',#998,0.00325,0.785398163397454);
#22=CONICAL_SURFACE('',#999,0.003,0.785398163397449);
#23=CONICAL_SURFACE('',#1000,0.003,0.785398163397449);
#24=CONICAL_SURFACE('',#1001,0.00325,0.785398163397448);
#25=CONICAL_SURFACE('',#1002,0.00325,0.785398163397448);
#26=CONICAL_SURFACE('',#1003,0.00325,0.785398163397448);
#27=CONICAL_SURFACE('',#1004,0.0084,0.785398163397448);
#28=CONICAL_SURFACE('',#1005,0.0084,0.785398163397448);
#29=CYLINDRICAL_SURFACE('',#913,0.00815);
#30=CYLINDRICAL_SURFACE('',#915,0.00815);
#31=CYLINDRICAL_SURFACE('',#917,0.001);
#32=CYLINDRICAL_SURFACE('',#920,0.003);
#33=CYLINDRICAL_SURFACE('',#925,0.001);
#34=CYLINDRICAL_SURFACE('',#928,0.003);
#35=CYLINDRICAL_SURFACE('',#934,0.001);
#36=CYLINDRICAL_SURFACE('',#937,0.003);
#37=CYLINDRICAL_SURFACE('',#942,0.001);
#38=CYLINDRICAL_SURFACE('',#945,0.003);
#39=CYLINDRICAL_SURFACE('',#951,0.003);
#40=CYLINDRICAL_SURFACE('',#954,0.003);
#41=CYLINDRICAL_SURFACE('',#960,0.003);
#42=CYLINDRICAL_SURFACE('',#963,0.003);
#43=CYLINDRICAL_SURFACE('',#969,0.003);
#44=CYLINDRICAL_SURFACE('',#973,0.003);
#45=CYLINDRICAL_SURFACE('',#977,0.003);
#46=CYLINDRICAL_SURFACE('',#981,0.002);
#47=CYLINDRICAL_SURFACE('',#983,0.002);
#48=CYLINDRICAL_SURFACE('',#985,0.002);
#49=CYLINDRICAL_SURFACE('',#987,0.002);
#50=B_SPLINE_CURVE_WITH_KNOTS('',3,(#1374,#1375,#1376,#1377),
 .UNSPECIFIED.,.F.,.F.,(4,4),(0.,0.000410561521102978),.UNSPECIFIED.);
#51=B_SPLINE_CURVE_WITH_KNOTS('',3,(#1385,#1386,#1387,#1388),
 .UNSPECIFIED.,.F.,.F.,(4,4),(0.,0.000410561521102985),.UNSPECIFIED.);
#52=B_SPLINE_CURVE_WITH_KNOTS('',3,(#1389,#1390,#1391,#1392),
 .UNSPECIFIED.,.F.,.F.,(4,4),(0.,0.0012747548783982),.UNSPECIFIED.);
#53=B_SPLINE_CURVE_WITH_KNOTS('',3,(#1394,#1395,#1396,#1397),
 .UNSPECIFIED.,.F.,.F.,(4,4),(0.,0.00127503348926652),.UNSPECIFIED.);
#54=B_SPLINE_CURVE_WITH_KNOTS('',3,(#1398,#1399,#1400,#1401),
 .UNSPECIFIED.,.F.,.F.,(4,4),(0.,0.000410561521102984),.UNSPECIFIED.);
#55=B_SPLINE_CURVE_WITH_KNOTS('',3,(#1409,#1410,#1411,#1412),
 .UNSPECIFIED.,.F.,.F.,(4,4),(0.,0.00041056152110298),.UNSPECIFIED.);
#56=LINE('',#1297,#99);
#57=LINE('',#1300,#100);
#58=LINE('',#1302,#101);
#59=LINE('',#1304,#102);
#60=LINE('',#1306,#103);
#61=LINE('',#1308,#104);
#62=LINE('',#1310,#105);
#63=LINE('',#1312,#106);
#64=LINE('',#1314,#107);
#65=LINE('',#1316,#108);
#66=LINE('',#1335,#109);
#67=LINE('',#1337,#110);
#68=LINE('',#1339,#111);
#69=LINE('',#1340,#112);
#70=LINE('',#1352,#113);
#71=LINE('',#1356,#114);
#72=LINE('',#1364,#115);
#73=LINE('',#1366,#116);
#74=LINE('',#1368,#117);
#75=LINE('',#1370,#118);
#76=LINE('',#1371,#119);
#77=LINE('',#1379,#120);
#78=LINE('',#1381,#121);
#79=LINE('',#1383,#122);
#80=LINE('',#1403,#123);
#81=LINE('',#1405,#124);
#82=LINE('',#1407,#125);
#83=LINE('',#1437,#126);
#84=LINE('',#1442,#127);
#85=LINE('',#1467,#128);
#86=LINE('',#1472,#129);
#87=LINE('',#1480,#130);
#88=LINE('',#1488,#131);
#89=LINE('',#1495,#132);
#90=LINE('',#1503,#133);
#91=LINE('',#1535,#134);
#92=LINE('',#1537,#135);
#93=LINE('',#1539,#136);
#94=LINE('',#1541,#137);
#95=LINE('',#1544,#138);
#96=LINE('',#1546,#139);
#97=LINE('',#1548,#140);
#98=LINE('',#1550,#141);
#99=VECTOR('',#1014,1.);
#100=VECTOR('',#1015,1.);
#101=VECTOR('',#1016,1.);
#102=VECTOR('',#1017,1.);
#103=VECTOR('',#1020,1.);
#104=VECTOR('',#1021,1.);
#105=VECTOR('',#1022,1.);
#106=VECTOR('',#1025,1.);
#107=VECTOR('',#1026,1.);
#108=VECTOR('',#1027,1.);
#109=VECTOR('',#1046,1.);
#110=VECTOR('',#1047,1.);
#111=VECTOR('',#1048,1.);
#112=VECTOR('',#1049,1.);
#113=VECTOR('',#1060,1.);
#114=VECTOR('',#1063,1.);
#115=VECTOR('',#1072,1.);
#116=VECTOR('',#1073,1.);
#117=VECTOR('',#1074,1.);
#118=VECTOR('',#1077,1.);
#119=VECTOR('',#1078,1.);
#120=VECTOR('',#1083,1.);
#121=VECTOR('',#1084,1.);
#122=VECTOR('',#1085,1.);
#123=VECTOR('',#1086,1.);
#124=VECTOR('',#1087,1.);
#125=VECTOR('',#1088,1.);
#126=VECTOR('',#1121,1.);
#127=VECTOR('',#1124,1.);
#128=VECTOR('',#1157,1.);
#129=VECTOR('',#1160,1.);
#130=VECTOR('',#1171,1.);
#131=VECTOR('',#1180,1.);
#132=VECTOR('',#1191,1.);
#133=VECTOR('',#1200,1.);
#134=VECTOR('',#1251,1.);
#135=VECTOR('',#1254,1.);
#136=VECTOR('',#1257,1.);
#137=VECTOR('',#1260,1.);
#138=VECTOR('',#1265,1.);
#139=VECTOR('',#1268,1.);
#140=VECTOR('',#1271,1.);
#141=VECTOR('',#1274,1.);
#142=ORIENTED_EDGE('',*,*,#362,.F.);
#143=ORIENTED_EDGE('',*,*,#363,.F.);
#144=ORIENTED_EDGE('',*,*,#364,.T.);
#145=ORIENTED_EDGE('',*,*,#365,.F.);
#146=ORIENTED_EDGE('',*,*,#366,.F.);
#147=ORIENTED_EDGE('',*,*,#367,.T.);
#148=ORIENTED_EDGE('',*,*,#368,.T.);
#149=ORIENTED_EDGE('',*,*,#369,.F.);
#150=ORIENTED_EDGE('',*,*,#370,.F.);
#151=ORIENTED_EDGE('',*,*,#365,.T.);
#152=ORIENTED_EDGE('',*,*,#371,.T.);
#153=ORIENTED_EDGE('',*,*,#372,.F.);
#154=ORIENTED_EDGE('',*,*,#373,.F.);
#155=ORIENTED_EDGE('',*,*,#369,.T.);
#156=ORIENTED_EDGE('',*,*,#374,.T.);
#157=ORIENTED_EDGE('',*,*,#375,.T.);
#158=ORIENTED_EDGE('',*,*,#376,.T.);
#159=ORIENTED_EDGE('',*,*,#377,.T.);
#160=ORIENTED_EDGE('',*,*,#378,.T.);
#161=ORIENTED_EDGE('',*,*,#379,.T.);
#162=ORIENTED_EDGE('',*,*,#380,.T.);
#163=ORIENTED_EDGE('',*,*,#381,.T.);
#164=ORIENTED_EDGE('',*,*,#382,.F.);
#165=ORIENTED_EDGE('',*,*,#383,.F.);
#166=ORIENTED_EDGE('',*,*,#384,.T.);
#167=ORIENTED_EDGE('',*,*,#372,.T.);
#168=ORIENTED_EDGE('',*,*,#385,.F.);
#169=ORIENTED_EDGE('',*,*,#386,.T.);
#170=ORIENTED_EDGE('',*,*,#387,.T.);
#171=ORIENTED_EDGE('',*,*,#388,.T.);
#172=ORIENTED_EDGE('',*,*,#389,.T.);
#173=ORIENTED_EDGE('',*,*,#390,.T.);
#174=ORIENTED_EDGE('',*,*,#391,.F.);
#175=ORIENTED_EDGE('',*,*,#392,.T.);
#176=ORIENTED_EDGE('',*,*,#393,.F.);
#177=ORIENTED_EDGE('',*,*,#394,.T.);
#178=ORIENTED_EDGE('',*,*,#395,.T.);
#179=ORIENTED_EDGE('',*,*,#396,.T.);
#180=ORIENTED_EDGE('',*,*,#397,.F.);
#181=ORIENTED_EDGE('',*,*,#398,.F.);
#182=ORIENTED_EDGE('',*,*,#399,.T.);
#183=ORIENTED_EDGE('',*,*,#383,.T.);
#184=ORIENTED_EDGE('',*,*,#400,.F.);
#185=ORIENTED_EDGE('',*,*,#367,.F.);
#186=ORIENTED_EDGE('',*,*,#401,.T.);
#187=ORIENTED_EDGE('',*,*,#398,.T.);
#188=ORIENTED_EDGE('',*,*,#366,.T.);
#189=ORIENTED_EDGE('',*,*,#370,.T.);
#190=ORIENTED_EDGE('',*,*,#373,.T.);
#191=ORIENTED_EDGE('',*,*,#384,.F.);
#192=ORIENTED_EDGE('',*,*,#399,.F.);
#193=ORIENTED_EDGE('',*,*,#401,.F.);
#194=ORIENTED_EDGE('',*,*,#364,.F.);
#195=ORIENTED_EDGE('',*,*,#400,.T.);
#196=ORIENTED_EDGE('',*,*,#397,.T.);
#197=ORIENTED_EDGE('',*,*,#382,.T.);
#198=ORIENTED_EDGE('',*,*,#402,.T.);
#199=ORIENTED_EDGE('',*,*,#403,.F.);
#200=ORIENTED_EDGE('',*,*,#404,.T.);
#201=ORIENTED_EDGE('',*,*,#405,.T.);
#202=ORIENTED_EDGE('',*,*,#406,.T.);
#203=ORIENTED_EDGE('',*,*,#393,.T.);
#204=ORIENTED_EDGE('',*,*,#407,.T.);
#205=ORIENTED_EDGE('',*,*,#408,.T.);
#206=ORIENTED_EDGE('',*,*,#391,.T.);
#207=ORIENTED_EDGE('',*,*,#409,.T.);
#208=ORIENTED_EDGE('',*,*,#410,.F.);
#209=ORIENTED_EDGE('',*,*,#411,.T.);
#210=ORIENTED_EDGE('',*,*,#412,.T.);
#211=ORIENTED_EDGE('',*,*,#413,.T.);
#212=ORIENTED_EDGE('',*,*,#385,.T.);
#213=ORIENTED_EDGE('',*,*,#371,.F.);
#214=ORIENTED_EDGE('',*,*,#368,.F.);
#215=ORIENTED_EDGE('',*,*,#414,.T.);
#216=ORIENTED_EDGE('',*,*,#363,.T.);
#217=ORIENTED_EDGE('',*,*,#415,.T.);
#218=ORIENTED_EDGE('',*,*,#362,.T.);
#219=ORIENTED_EDGE('',*,*,#416,.F.);
#220=ORIENTED_EDGE('',*,*,#417,.T.);
#221=ORIENTED_EDGE('',*,*,#418,.T.);
#222=ORIENTED_EDGE('',*,*,#419,.T.);
#223=ORIENTED_EDGE('',*,*,#416,.T.);
#224=ORIENTED_EDGE('',*,*,#419,.F.);
#225=ORIENTED_EDGE('',*,*,#417,.F.);
#226=ORIENTED_EDGE('',*,*,#420,.F.);
#227=ORIENTED_EDGE('',*,*,#421,.T.);
#228=ORIENTED_EDGE('',*,*,#422,.T.);
#229=ORIENTED_EDGE('',*,*,#423,.T.);
#230=ORIENTED_EDGE('',*,*,#424,.T.);
#231=ORIENTED_EDGE('',*,*,#425,.T.);
#232=ORIENTED_EDGE('',*,*,#426,.T.);
#233=ORIENTED_EDGE('',*,*,#420,.T.);
#234=ORIENTED_EDGE('',*,*,#426,.F.);
#235=ORIENTED_EDGE('',*,*,#421,.F.);
#236=ORIENTED_EDGE('',*,*,#427,.F.);
#237=ORIENTED_EDGE('',*,*,#428,.T.);
#238=ORIENTED_EDGE('',*,*,#429,.T.);
#239=ORIENTED_EDGE('',*,*,#430,.T.);
#240=ORIENTED_EDGE('',*,*,#427,.T.);
#241=ORIENTED_EDGE('',*,*,#430,.F.);
#242=ORIENTED_EDGE('',*,*,#428,.F.);
#243=ORIENTED_EDGE('',*,*,#431,.F.);
#244=ORIENTED_EDGE('',*,*,#432,.T.);
#245=ORIENTED_EDGE('',*,*,#433,.T.);
#246=ORIENTED_EDGE('',*,*,#434,.T.);
#247=ORIENTED_EDGE('',*,*,#435,.T.);
#248=ORIENTED_EDGE('',*,*,#436,.T.);
#249=ORIENTED_EDGE('',*,*,#437,.T.);
#250=ORIENTED_EDGE('',*,*,#431,.T.);
#251=ORIENTED_EDGE('',*,*,#437,.F.);
#252=ORIENTED_EDGE('',*,*,#432,.F.);
#253=ORIENTED_EDGE('',*,*,#438,.T.);
#254=ORIENTED_EDGE('',*,*,#439,.T.);
#255=ORIENTED_EDGE('',*,*,#412,.F.);
#256=ORIENTED_EDGE('',*,*,#440,.T.);
#257=ORIENTED_EDGE('',*,*,#410,.T.);
#258=ORIENTED_EDGE('',*,*,#441,.T.);
#259=ORIENTED_EDGE('',*,*,#442,.T.);
#260=ORIENTED_EDGE('',*,*,#443,.T.);
#261=ORIENTED_EDGE('',*,*,#436,.F.);
#262=ORIENTED_EDGE('',*,*,#444,.T.);
#263=ORIENTED_EDGE('',*,*,#440,.F.);
#264=ORIENTED_EDGE('',*,*,#411,.F.);
#265=ORIENTED_EDGE('',*,*,#443,.F.);
#266=ORIENTED_EDGE('',*,*,#445,.T.);
#267=ORIENTED_EDGE('',*,*,#446,.T.);
#268=ORIENTED_EDGE('',*,*,#447,.T.);
#269=ORIENTED_EDGE('',*,*,#405,.F.);
#270=ORIENTED_EDGE('',*,*,#448,.T.);
#271=ORIENTED_EDGE('',*,*,#403,.T.);
#272=ORIENTED_EDGE('',*,*,#449,.T.);
#273=ORIENTED_EDGE('',*,*,#450,.T.);
#274=ORIENTED_EDGE('',*,*,#451,.T.);
#275=ORIENTED_EDGE('',*,*,#425,.F.);
#276=ORIENTED_EDGE('',*,*,#452,.T.);
#277=ORIENTED_EDGE('',*,*,#448,.F.);
#278=ORIENTED_EDGE('',*,*,#404,.F.);
#279=ORIENTED_EDGE('',*,*,#451,.F.);
#280=ORIENTED_EDGE('',*,*,#453,.T.);
#281=ORIENTED_EDGE('',*,*,#454,.T.);
#282=ORIENTED_EDGE('',*,*,#455,.T.);
#283=ORIENTED_EDGE('',*,*,#455,.F.);
#284=ORIENTED_EDGE('',*,*,#456,.T.);
#285=ORIENTED_EDGE('',*,*,#457,.T.);
#286=ORIENTED_EDGE('',*,*,#457,.F.);
#287=ORIENTED_EDGE('',*,*,#458,.T.);
#288=ORIENTED_EDGE('',*,*,#459,.T.);
#289=ORIENTED_EDGE('',*,*,#459,.F.);
#290=ORIENTED_EDGE('',*,*,#450,.F.);
#291=ORIENTED_EDGE('',*,*,#460,.T.);
#292=ORIENTED_EDGE('',*,*,#422,.F.);
#293=ORIENTED_EDGE('',*,*,#453,.F.);
#294=ORIENTED_EDGE('',*,*,#424,.F.);
#295=ORIENTED_EDGE('',*,*,#461,.T.);
#296=ORIENTED_EDGE('',*,*,#446,.F.);
#297=ORIENTED_EDGE('',*,*,#452,.F.);
#298=ORIENTED_EDGE('',*,*,#442,.F.);
#299=ORIENTED_EDGE('',*,*,#462,.T.);
#300=ORIENTED_EDGE('',*,*,#433,.F.);
#301=ORIENTED_EDGE('',*,*,#445,.F.);
#302=ORIENTED_EDGE('',*,*,#435,.F.);
#303=ORIENTED_EDGE('',*,*,#463,.T.);
#304=ORIENTED_EDGE('',*,*,#438,.F.);
#305=ORIENTED_EDGE('',*,*,#444,.F.);
#306=ORIENTED_EDGE('',*,*,#406,.F.);
#307=ORIENTED_EDGE('',*,*,#447,.F.);
#308=ORIENTED_EDGE('',*,*,#464,.F.);
#309=ORIENTED_EDGE('',*,*,#394,.F.);
#310=ORIENTED_EDGE('',*,*,#464,.T.);
#311=ORIENTED_EDGE('',*,*,#461,.F.);
#312=ORIENTED_EDGE('',*,*,#465,.F.);
#313=ORIENTED_EDGE('',*,*,#395,.F.);
#314=ORIENTED_EDGE('',*,*,#465,.T.);
#315=ORIENTED_EDGE('',*,*,#423,.F.);
#316=ORIENTED_EDGE('',*,*,#466,.F.);
#317=ORIENTED_EDGE('',*,*,#396,.F.);
#318=ORIENTED_EDGE('',*,*,#466,.T.);
#319=ORIENTED_EDGE('',*,*,#460,.F.);
#320=ORIENTED_EDGE('',*,*,#467,.F.);
#321=ORIENTED_EDGE('',*,*,#380,.F.);
#322=ORIENTED_EDGE('',*,*,#467,.T.);
#323=ORIENTED_EDGE('',*,*,#449,.F.);
#324=ORIENTED_EDGE('',*,*,#402,.F.);
#325=ORIENTED_EDGE('',*,*,#381,.F.);
#326=ORIENTED_EDGE('',*,*,#413,.F.);
#327=ORIENTED_EDGE('',*,*,#439,.F.);
#328=ORIENTED_EDGE('',*,*,#468,.F.);
#329=ORIENTED_EDGE('',*,*,#386,.F.);
#330=ORIENTED_EDGE('',*,*,#468,.T.);
#331=ORIENTED_EDGE('',*,*,#463,.F.);
#332=ORIENTED_EDGE('',*,*,#469,.F.);
#333=ORIENTED_EDGE('',*,*,#387,.F.);
#334=ORIENTED_EDGE('',*,*,#469,.T.);
#335=ORIENTED_EDGE('',*,*,#434,.F.);
#336=ORIENTED_EDGE('',*,*,#470,.F.);
#337=ORIENTED_EDGE('',*,*,#388,.F.);
#338=ORIENTED_EDGE('',*,*,#470,.T.);
#339=ORIENTED_EDGE('',*,*,#462,.F.);
#340=ORIENTED_EDGE('',*,*,#471,.F.);
#341=ORIENTED_EDGE('',*,*,#389,.F.);
#342=ORIENTED_EDGE('',*,*,#471,.T.);
#343=ORIENTED_EDGE('',*,*,#441,.F.);
#344=ORIENTED_EDGE('',*,*,#409,.F.);
#345=ORIENTED_EDGE('',*,*,#390,.F.);
#346=ORIENTED_EDGE('',*,*,#374,.F.);
#347=ORIENTED_EDGE('',*,*,#454,.F.);
#348=ORIENTED_EDGE('',*,*,#375,.F.);
#349=ORIENTED_EDGE('',*,*,#456,.F.);
#350=ORIENTED_EDGE('',*,*,#408,.F.);
#351=ORIENTED_EDGE('',*,*,#458,.F.);
#352=ORIENTED_EDGE('',*,*,#407,.F.);
#353=ORIENTED_EDGE('',*,*,#392,.F.);
#354=ORIENTED_EDGE('',*,*,#429,.F.);
#355=ORIENTED_EDGE('',*,*,#376,.F.);
#356=ORIENTED_EDGE('',*,*,#418,.F.);
#357=ORIENTED_EDGE('',*,*,#377,.F.);
#358=ORIENTED_EDGE('',*,*,#414,.F.);
#359=ORIENTED_EDGE('',*,*,#378,.F.);
#360=ORIENTED_EDGE('',*,*,#415,.F.);
#361=ORIENTED_EDGE('',*,*,#379,.F.);
#362=EDGE_CURVE('',#472,#472,#552,.F.);
#363=EDGE_CURVE('',#473,#473,#553,.F.);
#364=EDGE_CURVE('',#474,#475,#56,.T.);
#365=EDGE_CURVE('',#476,#475,#57,.T.);
#366=EDGE_CURVE('',#477,#476,#58,.T.);
#367=EDGE_CURVE('',#477,#474,#59,.T.);
#368=EDGE_CURVE('',#475,#478,#60,.T.);
#369=EDGE_CURVE('',#479,#478,#61,.T.);
#370=EDGE_CURVE('',#476,#479,#62,.T.);
#371=EDGE_CURVE('',#478,#480,#63,.T.);
#372=EDGE_CURVE('',#481,#480,#64,.T.);
#373=EDGE_CURVE('',#479,#481,#65,.T.);
#374=EDGE_CURVE('',#482,#482,#554,.F.);
#375=EDGE_CURVE('',#483,#483,#555,.F.);
#376=EDGE_CURVE('',#484,#484,#556,.F.);
#377=EDGE_CURVE('',#485,#485,#557,.F.);
#378=EDGE_CURVE('',#486,#486,#558,.F.);
#379=EDGE_CURVE('',#487,#487,#559,.F.);
#380=EDGE_CURVE('',#488,#489,#560,.T.);
#381=EDGE_CURVE('',#489,#490,#561,.F.);
#382=EDGE_CURVE('',#491,#490,#66,.T.);
#383=EDGE_CURVE('',#492,#491,#67,.T.);
#384=EDGE_CURVE('',#492,#481,#68,.T.);
#385=EDGE_CURVE('',#493,#480,#69,.T.);
#386=EDGE_CURVE('',#493,#494,#562,.F.);
#387=EDGE_CURVE('',#494,#495,#563,.T.);
#388=EDGE_CURVE('',#495,#496,#564,.F.);
#389=EDGE_CURVE('',#496,#497,#565,.T.);
#390=EDGE_CURVE('',#497,#498,#566,.F.);
#391=EDGE_CURVE('',#499,#498,#70,.T.);
#392=EDGE_CURVE('',#499,#500,#567,.F.);
#393=EDGE_CURVE('',#501,#500,#71,.T.);
#394=EDGE_CURVE('',#501,#502,#568,.F.);
#395=EDGE_CURVE('',#502,#503,#569,.T.);
#396=EDGE_CURVE('',#503,#488,#570,.F.);
#397=EDGE_CURVE('',#504,#491,#72,.T.);
#398=EDGE_CURVE('',#505,#504,#73,.T.);
#399=EDGE_CURVE('',#505,#492,#74,.T.);
#400=EDGE_CURVE('',#474,#504,#75,.T.);
#401=EDGE_CURVE('',#477,#505,#76,.T.);
#402=EDGE_CURVE('',#490,#506,#50,.T.);
#403=EDGE_CURVE('',#507,#506,#77,.T.);
#404=EDGE_CURVE('',#507,#508,#78,.T.);
#405=EDGE_CURVE('',#508,#509,#79,.T.);
#406=EDGE_CURVE('',#509,#501,#51,.T.);
#407=EDGE_CURVE('',#500,#510,#52,.T.);
#408=EDGE_CURVE('',#510,#499,#53,.T.);
#409=EDGE_CURVE('',#498,#511,#54,.T.);
#410=EDGE_CURVE('',#512,#511,#80,.T.);
#411=EDGE_CURVE('',#512,#513,#81,.T.);
#412=EDGE_CURVE('',#513,#514,#82,.T.);
#413=EDGE_CURVE('',#514,#493,#55,.T.);
#414=EDGE_CURVE('',#515,#515,#571,.T.);
#415=EDGE_CURVE('',#516,#516,#572,.T.);
#416=EDGE_CURVE('',#517,#517,#573,.T.);
#417=EDGE_CURVE('',#518,#518,#574,.T.);
#418=EDGE_CURVE('',#519,#519,#575,.T.);
#419=EDGE_CURVE('',#520,#520,#576,.T.);
#420=EDGE_CURVE('',#521,#521,#577,.T.);
#421=EDGE_CURVE('',#522,#522,#578,.T.);
#422=EDGE_CURVE('',#523,#524,#83,.T.);
#423=EDGE_CURVE('',#524,#525,#579,.T.);
#424=EDGE_CURVE('',#525,#526,#84,.F.);
#425=EDGE_CURVE('',#526,#523,#580,.F.);
#426=EDGE_CURVE('',#527,#527,#581,.T.);
#427=EDGE_CURVE('',#528,#528,#582,.T.);
#428=EDGE_CURVE('',#529,#529,#583,.T.);
#429=EDGE_CURVE('',#530,#530,#584,.T.);
#430=EDGE_CURVE('',#531,#531,#585,.T.);
#431=EDGE_CURVE('',#532,#532,#586,.T.);
#432=EDGE_CURVE('',#533,#533,#587,.T.);
#433=EDGE_CURVE('',#534,#535,#85,.T.);
#434=EDGE_CURVE('',#535,#536,#588,.T.);
#435=EDGE_CURVE('',#536,#537,#86,.F.);
#436=EDGE_CURVE('',#537,#534,#589,.F.);
#437=EDGE_CURVE('',#538,#538,#590,.T.);
#438=EDGE_CURVE('',#539,#540,#87,.T.);
#439=EDGE_CURVE('',#540,#514,#591,.T.);
#440=EDGE_CURVE('',#513,#539,#592,.T.);
#441=EDGE_CURVE('',#511,#541,#593,.T.);
#442=EDGE_CURVE('',#541,#542,#88,.F.);
#443=EDGE_CURVE('',#542,#512,#594,.T.);
#444=EDGE_CURVE('',#537,#539,#595,.T.);
#445=EDGE_CURVE('',#542,#534,#596,.T.);
#446=EDGE_CURVE('',#543,#544,#89,.T.);
#447=EDGE_CURVE('',#544,#509,#597,.T.);
#448=EDGE_CURVE('',#508,#543,#598,.T.);
#449=EDGE_CURVE('',#506,#545,#599,.T.);
#450=EDGE_CURVE('',#545,#546,#90,.F.);
#451=EDGE_CURVE('',#546,#507,#600,.T.);
#452=EDGE_CURVE('',#526,#543,#601,.T.);
#453=EDGE_CURVE('',#546,#523,#602,.T.);
#454=EDGE_CURVE('',#547,#547,#603,.T.);
#455=EDGE_CURVE('',#548,#548,#604,.T.);
#456=EDGE_CURVE('',#549,#549,#605,.T.);
#457=EDGE_CURVE('',#550,#550,#606,.T.);
#458=EDGE_CURVE('',#510,#510,#607,.T.);
#459=EDGE_CURVE('',#551,#551,#608,.T.);
#460=EDGE_CURVE('',#545,#524,#609,.F.);
#461=EDGE_CURVE('',#525,#544,#610,.F.);
#462=EDGE_CURVE('',#541,#535,#611,.F.);
#463=EDGE_CURVE('',#536,#540,#612,.F.);
#464=EDGE_CURVE('',#502,#544,#91,.T.);
#465=EDGE_CURVE('',#503,#525,#92,.T.);
#466=EDGE_CURVE('',#488,#524,#93,.T.);
#467=EDGE_CURVE('',#489,#545,#94,.T.);
#468=EDGE_CURVE('',#494,#540,#95,.T.);
#469=EDGE_CURVE('',#495,#536,#96,.T.);
#470=EDGE_CURVE('',#496,#535,#97,.T.);
#471=EDGE_CURVE('',#497,#541,#98,.T.);
#472=VERTEX_POINT('',#1294);
#473=VERTEX_POINT('',#1296);
#474=VERTEX_POINT('',#1298);
#475=VERTEX_POINT('',#1299);
#476=VERTEX_POINT('',#1301);
#477=VERTEX_POINT('',#1303);
#478=VERTEX_POINT('',#1307);
#479=VERTEX_POINT('',#1309);
#480=VERTEX_POINT('',#1313);
#481=VERTEX_POINT('',#1315);
#482=VERTEX_POINT('',#1319);
#483=VERTEX_POINT('',#1321);
#484=VERTEX_POINT('',#1323);
#485=VERTEX_POINT('',#1325);
#486=VERTEX_POINT('',#1327);
#487=VERTEX_POINT('',#1329);
#488=VERTEX_POINT('',#1331);
#489=VERTEX_POINT('',#1332);
#490=VERTEX_POINT('',#1334);
#491=VERTEX_POINT('',#1336);
#492=VERTEX_POINT('',#1338);
#493=VERTEX_POINT('',#1341);
#494=VERTEX_POINT('',#1343);
#495=VERTEX_POINT('',#1345);
#496=VERTEX_POINT('',#1347);
#497=VERTEX_POINT('',#1349);
#498=VERTEX_POINT('',#1351);
#499=VERTEX_POINT('',#1353);
#500=VERTEX_POINT('',#1355);
#501=VERTEX_POINT('',#1357);
#502=VERTEX_POINT('',#1359);
#503=VERTEX_POINT('',#1361);
#504=VERTEX_POINT('',#1365);
#505=VERTEX_POINT('',#1367);
#506=VERTEX_POINT('',#1378);
#507=VERTEX_POINT('',#1380);
#508=VERTEX_POINT('',#1382);
#509=VERTEX_POINT('',#1384);
#510=VERTEX_POINT('',#1393);
#511=VERTEX_POINT('',#1402);
#512=VERTEX_POINT('',#1404);
#513=VERTEX_POINT('',#1406);
#514=VERTEX_POINT('',#1408);
#515=VERTEX_POINT('',#1415);
#516=VERTEX_POINT('',#1418);
#517=VERTEX_POINT('',#1421);
#518=VERTEX_POINT('',#1423);
#519=VERTEX_POINT('',#1426);
#520=VERTEX_POINT('',#1428);
#521=VERTEX_POINT('',#1433);
#522=VERTEX_POINT('',#1435);
#523=VERTEX_POINT('',#1438);
#524=VERTEX_POINT('',#1439);
#525=VERTEX_POINT('',#1441);
#526=VERTEX_POINT('',#1443);
#527=VERTEX_POINT('',#1446);
#528=VERTEX_POINT('',#1451);
#529=VERTEX_POINT('',#1453);
#530=VERTEX_POINT('',#1456);
#531=VERTEX_POINT('',#1458);
#532=VERTEX_POINT('',#1463);
#533=VERTEX_POINT('',#1465);
#534=VERTEX_POINT('',#1468);
#535=VERTEX_POINT('',#1469);
#536=VERTEX_POINT('',#1471);
#537=VERTEX_POINT('',#1473);
#538=VERTEX_POINT('',#1476);
#539=VERTEX_POINT('',#1481);
#540=VERTEX_POINT('',#1482);
#541=VERTEX_POINT('',#1487);
#542=VERTEX_POINT('',#1489);
#543=VERTEX_POINT('',#1496);
#544=VERTEX_POINT('',#1497);
#545=VERTEX_POINT('',#1502);
#546=VERTEX_POINT('',#1504);
#547=VERTEX_POINT('',#1511);
#548=VERTEX_POINT('',#1513);
#549=VERTEX_POINT('',#1517);
#550=VERTEX_POINT('',#1519);
#551=VERTEX_POINT('',#1524);
#552=CIRCLE('',#887,0.00815);
#553=CIRCLE('',#888,0.00815);
#554=CIRCLE('',#892,0.00325);
#555=CIRCLE('',#893,0.00325);
#556=CIRCLE('',#894,0.00325);
#557=CIRCLE('',#895,0.00325);
#558=CIRCLE('',#896,0.0084);
#559=CIRCLE('',#897,0.0084);
#560=CIRCLE('',#898,0.00175);
#561=CIRCLE('',#899,0.00325);
#562=CIRCLE('',#900,0.00325);
#563=CIRCLE('',#901,0.00175);
#564=CIRCLE('',#902,0.00325);
#565=CIRCLE('',#903,0.00175);
#566=CIRCLE('',#904,0.00325);
#567=CIRCLE('',#905,0.00325);
#568=CIRCLE('',#906,0.00325);
#569=CIRCLE('',#907,0.00175);
#570=CIRCLE('',#908,0.00325);
#571=CIRCLE('',#914,0.00815);
#572=CIRCLE('',#916,0.00815);
#573=CIRCLE('',#918,0.001);
#574=CIRCLE('',#919,0.001);
#575=CIRCLE('',#921,0.003);
#576=CIRCLE('',#922,0.003);
#577=CIRCLE('',#926,0.001);
#578=CIRCLE('',#927,0.001);
#579=CIRCLE('',#929,0.003);
#580=CIRCLE('',#930,0.003);
#581=CIRCLE('',#931,0.003);
#582=CIRCLE('',#935,0.001);
#583=CIRCLE('',#936,0.001);
#584=CIRCLE('',#938,0.003);
#585=CIRCLE('',#939,0.003);
#586=CIRCLE('',#943,0.001);
#587=CIRCLE('',#944,0.001);
#588=CIRCLE('',#946,0.003);
#589=CIRCLE('',#947,0.003);
#590=CIRCLE('',#948,0.003);
#591=CIRCLE('',#952,0.003);
#592=CIRCLE('',#953,0.003);
#593=CIRCLE('',#955,0.003);
#594=CIRCLE('',#956,0.003);
#595=CIRCLE('',#958,0.002);
#596=CIRCLE('',#959,0.002);
#597=CIRCLE('',#961,0.003);
#598=CIRCLE('',#962,0.003);
#599=CIRCLE('',#964,0.003);
#600=CIRCLE('',#965,0.003);
#601=CIRCLE('',#967,0.002);
#602=CIRCLE('',#968,0.002);
#603=CIRCLE('',#970,0.003);
#604=CIRCLE('',#971,0.003);
#605=CIRCLE('',#974,0.003);
#606=CIRCLE('',#975,0.003);
#607=CIRCLE('',#978,0.003);
#608=CIRCLE('',#979,0.003);
#609=CIRCLE('',#982,0.002);
#610=CIRCLE('',#984,0.002);
#611=CIRCLE('',#986,0.002);
#612=CIRCLE('',#988,0.002);
#613=EDGE_LOOP('',(#142));
#614=EDGE_LOOP('',(#143));
#615=EDGE_LOOP('',(#144,#145,#146,#147));
#616=EDGE_LOOP('',(#148,#149,#150,#151));
#617=EDGE_LOOP('',(#152,#153,#154,#155));
#618=EDGE_LOOP('',(#156));
#619=EDGE_LOOP('',(#157));
#620=EDGE_LOOP('',(#158));
#621=EDGE_LOOP('',(#159));
#622=EDGE_LOOP('',(#160));
#623=EDGE_LOOP('',(#161));
#624=EDGE_LOOP('',(#162,#163,#164,#165,#166,#167,#168,#169,#170,#171,#172,
#173,#174,#175,#176,#177,#178,#179));
#625=EDGE_LOOP('',(#180,#181,#182,#183));
#626=EDGE_LOOP('',(#184,#185,#186,#187));
#627=EDGE_LOOP('',(#188,#189,#190,#191,#192,#193));
#628=EDGE_LOOP('',(#194,#195,#196,#197,#198,#199,#200,#201,#202,#203,#204,
#205,#206,#207,#208,#209,#210,#211,#212,#213,#214));
#629=EDGE_LOOP('',(#215));
#630=EDGE_LOOP('',(#216));
#631=EDGE_LOOP('',(#217));
#632=EDGE_LOOP('',(#218));
#633=EDGE_LOOP('',(#219));
#634=EDGE_LOOP('',(#220));
#635=EDGE_LOOP('',(#221));
#636=EDGE_LOOP('',(#222));
#637=EDGE_LOOP('',(#223));
#638=EDGE_LOOP('',(#224));
#639=EDGE_LOOP('',(#225));
#640=EDGE_LOOP('',(#226));
#641=EDGE_LOOP('',(#227));
#642=EDGE_LOOP('',(#228,#229,#230,#231));
#643=EDGE_LOOP('',(#232));
#644=EDGE_LOOP('',(#233));
#645=EDGE_LOOP('',(#234));
#646=EDGE_LOOP('',(#235));
#647=EDGE_LOOP('',(#236));
#648=EDGE_LOOP('',(#237));
#649=EDGE_LOOP('',(#238));
#650=EDGE_LOOP('',(#239));
#651=EDGE_LOOP('',(#240));
#652=EDGE_LOOP('',(#241));
#653=EDGE_LOOP('',(#242));
#654=EDGE_LOOP('',(#243));
#655=EDGE_LOOP('',(#244));
#656=EDGE_LOOP('',(#245,#246,#247,#248));
#657=EDGE_LOOP('',(#249));
#658=EDGE_LOOP('',(#250));
#659=EDGE_LOOP('',(#251));
#660=EDGE_LOOP('',(#252));
#661=EDGE_LOOP('',(#253,#254,#255,#256));
#662=EDGE_LOOP('',(#257,#258,#259,#260));
#663=EDGE_LOOP('',(#261,#262,#263,#264,#265,#266));
#664=EDGE_LOOP('',(#267,#268,#269,#270));
#665=EDGE_LOOP('',(#271,#272,#273,#274));
#666=EDGE_LOOP('',(#275,#276,#277,#278,#279,#280));
#667=EDGE_LOOP('',(#281));
#668=EDGE_LOOP('',(#282));
#669=EDGE_LOOP('',(#283));
#670=EDGE_LOOP('',(#284));
#671=EDGE_LOOP('',(#285));
#672=EDGE_LOOP('',(#286));
#673=EDGE_LOOP('',(#287));
#674=EDGE_LOOP('',(#288));
#675=EDGE_LOOP('',(#289));
#676=EDGE_LOOP('',(#290,#291,#292,#293));
#677=EDGE_LOOP('',(#294,#295,#296,#297));
#678=EDGE_LOOP('',(#298,#299,#300,#301));
#679=EDGE_LOOP('',(#302,#303,#304,#305));
#680=EDGE_LOOP('',(#306,#307,#308,#309));
#681=EDGE_LOOP('',(#310,#311,#312,#313));
#682=EDGE_LOOP('',(#314,#315,#316,#317));
#683=EDGE_LOOP('',(#318,#319,#320,#321));
#684=EDGE_LOOP('',(#322,#323,#324,#325));
#685=EDGE_LOOP('',(#326,#327,#328,#329));
#686=EDGE_LOOP('',(#330,#331,#332,#333));
#687=EDGE_LOOP('',(#334,#335,#336,#337));
#688=EDGE_LOOP('',(#338,#339,#340,#341));
#689=EDGE_LOOP('',(#342,#343,#344,#345));
#690=EDGE_LOOP('',(#346));
#691=EDGE_LOOP('',(#347));
#692=EDGE_LOOP('',(#348));
#693=EDGE_LOOP('',(#349));
#694=EDGE_LOOP('',(#350,#351,#352,#353));
#695=EDGE_LOOP('',(#354));
#696=EDGE_LOOP('',(#355));
#697=EDGE_LOOP('',(#356));
#698=EDGE_LOOP('',(#357));
#699=EDGE_LOOP('',(#358));
#700=EDGE_LOOP('',(#359));
#701=EDGE_LOOP('',(#360));
#702=EDGE_LOOP('',(#361));
#703=FACE_BOUND('',#613,.T.);
#704=FACE_BOUND('',#614,.T.);
#705=FACE_BOUND('',#615,.T.);
#706=FACE_BOUND('',#616,.T.);
#707=FACE_BOUND('',#617,.T.);
#708=FACE_BOUND('',#618,.T.);
#709=FACE_BOUND('',#619,.T.);
#710=FACE_BOUND('',#620,.T.);
#711=FACE_BOUND('',#621,.T.);
#712=FACE_BOUND('',#622,.T.);
#713=FACE_BOUND('',#623,.T.);
#714=FACE_BOUND('',#624,.T.);
#715=FACE_BOUND('',#625,.T.);
#716=FACE_BOUND('',#626,.T.);
#717=FACE_BOUND('',#627,.T.);
#718=FACE_BOUND('',#628,.T.);
#719=FACE_BOUND('',#629,.T.);
#720=FACE_BOUND('',#630,.T.);
#721=FACE_BOUND('',#631,.T.);
#722=FACE_BOUND('',#632,.T.);
#723=FACE_BOUND('',#633,.T.);
#724=FACE_BOUND('',#634,.T.);
#725=FACE_BOUND('',#635,.T.);
#726=FACE_BOUND('',#636,.T.);
#727=FACE_BOUND('',#637,.T.);
#728=FACE_BOUND('',#638,.T.);
#729=FACE_BOUND('',#639,.T.);
#730=FACE_BOUND('',#640,.T.);
#731=FACE_BOUND('',#641,.T.);
#732=FACE_BOUND('',#642,.T.);
#733=FACE_BOUND('',#643,.T.);
#734=FACE_BOUND('',#644,.T.);
#735=FACE_BOUND('',#645,.T.);
#736=FACE_BOUND('',#646,.T.);
#737=FACE_BOUND('',#647,.T.);
#738=FACE_BOUND('',#648,.T.);
#739=FACE_BOUND('',#649,.T.);
#740=FACE_BOUND('',#650,.T.);
#741=FACE_BOUND('',#651,.T.);
#742=FACE_BOUND('',#652,.T.);
#743=FACE_BOUND('',#653,.T.);
#744=FACE_BOUND('',#654,.T.);
#745=FACE_BOUND('',#655,.T.);
#746=FACE_BOUND('',#656,.T.);
#747=FACE_BOUND('',#657,.T.);
#748=FACE_BOUND('',#658,.T.);
#749=FACE_BOUND('',#659,.T.);
#750=FACE_BOUND('',#660,.T.);
#751=FACE_BOUND('',#661,.T.);
#752=FACE_BOUND('',#662,.T.);
#753=FACE_BOUND('',#663,.T.);
#754=FACE_BOUND('',#664,.T.);
#755=FACE_BOUND('',#665,.T.);
#756=FACE_BOUND('',#666,.T.);
#757=FACE_BOUND('',#667,.T.);
#758=FACE_BOUND('',#668,.T.);
#759=FACE_BOUND('',#669,.T.);
#760=FACE_BOUND('',#670,.T.);
#761=FACE_BOUND('',#671,.T.);
#762=FACE_BOUND('',#672,.T.);
#763=FACE_BOUND('',#673,.T.);
#764=FACE_BOUND('',#674,.T.);
#765=FACE_BOUND('',#675,.T.);
#766=FACE_BOUND('',#676,.T.);
#767=FACE_BOUND('',#677,.T.);
#768=FACE_BOUND('',#678,.T.);
#769=FACE_BOUND('',#679,.T.);
#770=FACE_BOUND('',#680,.T.);
#771=FACE_BOUND('',#681,.T.);
#772=FACE_BOUND('',#682,.T.);
#773=FACE_BOUND('',#683,.T.);
#774=FACE_BOUND('',#684,.T.);
#775=FACE_BOUND('',#685,.T.);
#776=FACE_BOUND('',#686,.T.);
#777=FACE_BOUND('',#687,.T.);
#778=FACE_BOUND('',#688,.T.);
#779=FACE_BOUND('',#689,.T.);
#780=FACE_BOUND('',#690,.T.);
#781=FACE_BOUND('',#691,.T.);
#782=FACE_BOUND('',#692,.T.);
#783=FACE_BOUND('',#693,.T.);
#784=FACE_BOUND('',#694,.T.);
#785=FACE_BOUND('',#695,.T.);
#786=FACE_BOUND('',#696,.T.);
#787=FACE_BOUND('',#697,.T.);
#788=FACE_BOUND('',#698,.T.);
#789=FACE_BOUND('',#699,.T.);
#790=FACE_BOUND('',#700,.T.);
#791=FACE_BOUND('',#701,.T.);
#792=FACE_BOUND('',#702,.T.);
#793=PLANE('',#886);
#794=PLANE('',#889);
#795=PLANE('',#890);
#796=PLANE('',#891);
#797=PLANE('',#909);
#798=PLANE('',#910);
#799=PLANE('',#911);
#800=PLANE('',#912);
#801=PLANE('',#923);
#802=PLANE('',#924);
#803=PLANE('',#932);
#804=PLANE('',#933);
#805=PLANE('',#940);
#806=PLANE('',#941);
#807=PLANE('',#949);
#808=PLANE('',#950);
#809=PLANE('',#957);
#810=PLANE('',#966);
#811=PLANE('',#972);
#812=PLANE('',#976);
#813=PLANE('',#980);
#814=ADVANCED_FACE('',(#703,#704,#705),#793,.F.);
#815=ADVANCED_FACE('',(#706),#794,.F.);
#816=ADVANCED_FACE('',(#707),#795,.F.);
#817=ADVANCED_FACE('',(#708,#709,#710,#711,#712,#713,#714),#796,.T.);
#818=ADVANCED_FACE('',(#715),#797,.T.);
#819=ADVANCED_FACE('',(#716),#798,.T.);
#820=ADVANCED_FACE('',(#717),#799,.T.);
#821=ADVANCED_FACE('',(#718),#800,.F.);
#822=ADVANCED_FACE('',(#719,#720),#29,.F.);
#823=ADVANCED_FACE('',(#721,#722),#30,.F.);
#824=ADVANCED_FACE('',(#723,#724),#31,.F.);
#825=ADVANCED_FACE('',(#725,#726),#32,.T.);
#826=ADVANCED_FACE('',(#727,#728),#801,.F.);
#827=ADVANCED_FACE('',(#729),#802,.T.);
#828=ADVANCED_FACE('',(#730,#731),#33,.F.);
#829=ADVANCED_FACE('',(#732,#733),#34,.T.);
#830=ADVANCED_FACE('',(#734,#735),#803,.F.);
#831=ADVANCED_FACE('',(#736),#804,.T.);
#832=ADVANCED_FACE('',(#737,#738),#35,.F.);
#833=ADVANCED_FACE('',(#739,#740),#36,.T.);
#834=ADVANCED_FACE('',(#741,#742),#805,.F.);
#835=ADVANCED_FACE('',(#743),#806,.T.);
#836=ADVANCED_FACE('',(#744,#745),#37,.F.);
#837=ADVANCED_FACE('',(#746,#747),#38,.T.);
#838=ADVANCED_FACE('',(#748,#749),#807,.F.);
#839=ADVANCED_FACE('',(#750),#808,.T.);
#840=ADVANCED_FACE('',(#751),#39,.T.);
#841=ADVANCED_FACE('',(#752),#40,.T.);
#842=ADVANCED_FACE('',(#753),#809,.F.);
#843=ADVANCED_FACE('',(#754),#41,.T.);
#844=ADVANCED_FACE('',(#755),#42,.T.);
#845=ADVANCED_FACE('',(#756),#810,.F.);
#846=ADVANCED_FACE('',(#757,#758),#43,.T.);
#847=ADVANCED_FACE('',(#759),#811,.F.);
#848=ADVANCED_FACE('',(#760,#761),#44,.T.);
#849=ADVANCED_FACE('',(#762),#812,.F.);
#850=ADVANCED_FACE('',(#763,#764),#45,.T.);
#851=ADVANCED_FACE('',(#765),#813,.F.);
#852=ADVANCED_FACE('',(#766),#46,.F.);
#853=ADVANCED_FACE('',(#767),#47,.F.);
#854=ADVANCED_FACE('',(#768),#48,.F.);
#855=ADVANCED_FACE('',(#769),#49,.F.);
#856=ADVANCED_FACE('',(#770),#12,.T.);
#857=ADVANCED_FACE('',(#771),#13,.F.);
#858=ADVANCED_FACE('',(#772),#14,.T.);
#859=ADVANCED_FACE('',(#773),#15,.F.);
#860=ADVANCED_FACE('',(#774),#16,.T.);
#861=ADVANCED_FACE('',(#775),#17,.T.);
#862=ADVANCED_FACE('',(#776),#18,.F.);
#863=ADVANCED_FACE('',(#777),#19,.T.);
#864=ADVANCED_FACE('',(#778),#20,.F.);
#865=ADVANCED_FACE('',(#779),#21,.T.);
#866=ADVANCED_FACE('',(#780,#781),#22,.T.);
#867=ADVANCED_FACE('',(#782,#783),#23,.T.);
#868=ADVANCED_FACE('',(#784),#24,.T.);
#869=ADVANCED_FACE('',(#785,#786),#25,.T.);
#870=ADVANCED_FACE('',(#787,#788),#26,.T.);
#871=ADVANCED_FACE('',(#789,#790),#27,.F.);
#872=ADVANCED_FACE('',(#791,#792),#28,.F.);
#873=CLOSED_SHELL('',(#814,#815,#816,#817,#818,#819,#820,#821,#822,#823,
#824,#825,#826,#827,#828,#829,#830,#831,#832,#833,#834,#835,#836,#837,#838,
#839,#840,#841,#842,#843,#844,#845,#846,#847,#848,#849,#850,#851,#852,#853,
#854,#855,#856,#857,#858,#859,#860,#861,#862,#863,#864,#865,#866,#867,#868,
#869,#870,#871,#872));
#874=STYLED_ITEM('',(#875),#882);
#875=PRESENTATION_STYLE_ASSIGNMENT((#876));
#876=SURFACE_STYLE_USAGE(.BOTH.,#877);
#877=SURFACE_SIDE_STYLE('',(#878));
#878=SURFACE_STYLE_FILL_AREA(#879);
#879=FILL_AREA_STYLE('',(#880));
#880=FILL_AREA_STYLE_COLOUR('',#881);
#881=DRAUGHTING_PRE_DEFINED_COLOUR('white');
#882=MANIFOLD_SOLID_BREP('pika',#873);
#883=SHAPE_DEFINITION_REPRESENTATION(#1565,#884);
#884=SHAPE_REPRESENTATION('pika',(#885),#1560);
#885=AXIS2_PLACEMENT_3D('',#1291,#1006,#1007);
#886=AXIS2_PLACEMENT_3D('',#1292,#1008,#1009);
#887=AXIS2_PLACEMENT_3D('',#1293,#1010,#1011);
#888=AXIS2_PLACEMENT_3D('',#1295,#1012,#1013);
#889=AXIS2_PLACEMENT_3D('',#1305,#1018,#1019);
#890=AXIS2_PLACEMENT_3D('',#1311,#1023,#1024);
#891=AXIS2_PLACEMENT_3D('',#1317,#1028,#1029);
#892=AXIS2_PLACEMENT_3D('',#1318,#1030,#1031);
#893=AXIS2_PLACEMENT_3D('',#1320,#1032,#1033);
#894=AXIS2_PLACEMENT_3D('',#1322,#1034,#1035);
#895=AXIS2_PLACEMENT_3D('',#1324,#1036,#1037);
#896=AXIS2_PLACEMENT_3D('',#1326,#1038,#1039);
#897=AXIS2_PLACEMENT_3D('',#1328,#1040,#1041);
#898=AXIS2_PLACEMENT_3D('',#1330,#1042,#1043);
#899=AXIS2_PLACEMENT_3D('',#1333,#1044,#1045);
#900=AXIS2_PLACEMENT_3D('',#1342,#1050,#1051);
#901=AXIS2_PLACEMENT_3D('',#1344,#1052,#1053);
#902=AXIS2_PLACEMENT_3D('',#1346,#1054,#1055);
#903=AXIS2_PLACEMENT_3D('',#1348,#1056,#1057);
#904=AXIS2_PLACEMENT_3D('',#1350,#1058,#1059);
#905=AXIS2_PLACEMENT_3D('',#1354,#1061,#1062);
#906=AXIS2_PLACEMENT_3D('',#1358,#1064,#1065);
#907=AXIS2_PLACEMENT_3D('',#1360,#1066,#1067);
#908=AXIS2_PLACEMENT_3D('',#1362,#1068,#1069);
#909=AXIS2_PLACEMENT_3D('',#1363,#1070,#1071);
#910=AXIS2_PLACEMENT_3D('',#1369,#1075,#1076);
#911=AXIS2_PLACEMENT_3D('',#1372,#1079,#1080);
#912=AXIS2_PLACEMENT_3D('',#1373,#1081,#1082);
#913=AXIS2_PLACEMENT_3D('',#1413,#1089,#1090);
#914=AXIS2_PLACEMENT_3D('',#1414,#1091,#1092);
#915=AXIS2_PLACEMENT_3D('',#1416,#1093,#1094);
#916=AXIS2_PLACEMENT_3D('',#1417,#1095,#1096);
#917=AXIS2_PLACEMENT_3D('',#1419,#1097,#1098);
#918=AXIS2_PLACEMENT_3D('',#1420,#1099,#1100);
#919=AXIS2_PLACEMENT_3D('',#1422,#1101,#1102);
#920=AXIS2_PLACEMENT_3D('',#1424,#1103,#1104);
#921=AXIS2_PLACEMENT_3D('',#1425,#1105,#1106);
#922=AXIS2_PLACEMENT_3D('',#1427,#1107,#1108);
#923=AXIS2_PLACEMENT_3D('',#1429,#1109,#1110);
#924=AXIS2_PLACEMENT_3D('',#1430,#1111,#1112);
#925=AXIS2_PLACEMENT_3D('',#1431,#1113,#1114);
#926=AXIS2_PLACEMENT_3D('',#1432,#1115,#1116);
#927=AXIS2_PLACEMENT_3D('',#1434,#1117,#1118);
#928=AXIS2_PLACEMENT_3D('',#1436,#1119,#1120);
#929=AXIS2_PLACEMENT_3D('',#1440,#1122,#1123);
#930=AXIS2_PLACEMENT_3D('',#1444,#1125,#1126);
#931=AXIS2_PLACEMENT_3D('',#1445,#1127,#1128);
#932=AXIS2_PLACEMENT_3D('',#1447,#1129,#1130);
#933=AXIS2_PLACEMENT_3D('',#1448,#1131,#1132);
#934=AXIS2_PLACEMENT_3D('',#1449,#1133,#1134);
#935=AXIS2_PLACEMENT_3D('',#1450,#1135,#1136);
#936=AXIS2_PLACEMENT_3D('',#1452,#1137,#1138);
#937=AXIS2_PLACEMENT_3D('',#1454,#1139,#1140);
#938=AXIS2_PLACEMENT_3D('',#1455,#1141,#1142);
#939=AXIS2_PLACEMENT_3D('',#1457,#1143,#1144);
#940=AXIS2_PLACEMENT_3D('',#1459,#1145,#1146);
#941=AXIS2_PLACEMENT_3D('',#1460,#1147,#1148);
#942=AXIS2_PLACEMENT_3D('',#1461,#1149,#1150);
#943=AXIS2_PLACEMENT_3D('',#1462,#1151,#1152);
#944=AXIS2_PLACEMENT_3D('',#1464,#1153,#1154);
#945=AXIS2_PLACEMENT_3D('',#1466,#1155,#1156);
#946=AXIS2_PLACEMENT_3D('',#1470,#1158,#1159);
#947=AXIS2_PLACEMENT_3D('',#1474,#1161,#1162);
#948=AXIS2_PLACEMENT_3D('',#1475,#1163,#1164);
#949=AXIS2_PLACEMENT_3D('',#1477,#1165,#1166);
#950=AXIS2_PLACEMENT_3D('',#1478,#1167,#1168);
#951=AXIS2_PLACEMENT_3D('',#1479,#1169,#1170);
#952=AXIS2_PLACEMENT_3D('',#1483,#1172,#1173);
#953=AXIS2_PLACEMENT_3D('',#1484,#1174,#1175);
#954=AXIS2_PLACEMENT_3D('',#1485,#1176,#1177);
#955=AXIS2_PLACEMENT_3D('',#1486,#1178,#1179);
#956=AXIS2_PLACEMENT_3D('',#1490,#1181,#1182);
#957=AXIS2_PLACEMENT_3D('',#1491,#1183,#1184);
#958=AXIS2_PLACEMENT_3D('',#1492,#1185,#1186);
#959=AXIS2_PLACEMENT_3D('',#1493,#1187,#1188);
#960=AXIS2_PLACEMENT_3D('',#1494,#1189,#1190);
#961=AXIS2_PLACEMENT_3D('',#1498,#1192,#1193);
#962=AXIS2_PLACEMENT_3D('',#1499,#1194,#1195);
#963=AXIS2_PLACEMENT_3D('',#1500,#1196,#1197);
#964=AXIS2_PLACEMENT_3D('',#1501,#1198,#1199);
#965=AXIS2_PLACEMENT_3D('',#1505,#1201,#1202);
#966=AXIS2_PLACEMENT_3D('',#1506,#1203,#1204);
#967=AXIS2_PLACEMENT_3D('',#1507,#1205,#1206);
#968=AXIS2_PLACEMENT_3D('',#1508,#1207,#1208);
#969=AXIS2_PLACEMENT_3D('',#1509,#1209,#1210);
#970=AXIS2_PLACEMENT_3D('',#1510,#1211,#1212);
#971=AXIS2_PLACEMENT_3D('',#1512,#1213,#1214);
#972=AXIS2_PLACEMENT_3D('',#1514,#1215,#1216);
#973=AXIS2_PLACEMENT_3D('',#1515,#1217,#1218);
#974=AXIS2_PLACEMENT_3D('',#1516,#1219,#1220);
#975=AXIS2_PLACEMENT_3D('',#1518,#1221,#1222);
#976=AXIS2_PLACEMENT_3D('',#1520,#1223,#1224);
#977=AXIS2_PLACEMENT_3D('',#1521,#1225,#1226);
#978=AXIS2_PLACEMENT_3D('',#1522,#1227,#1228);
#979=AXIS2_PLACEMENT_3D('',#1523,#1229,#1230);
#980=AXIS2_PLACEMENT_3D('',#1525,#1231,#1232);
#981=AXIS2_PLACEMENT_3D('',#1526,#1233,#1234);
#982=AXIS2_PLACEMENT_3D('',#1527,#1235,#1236);
#983=AXIS2_PLACEMENT_3D('',#1528,#1237,#1238);
#984=AXIS2_PLACEMENT_3D('',#1529,#1239,#1240);
#985=AXIS2_PLACEMENT_3D('',#1530,#1241,#1242);
#986=AXIS2_PLACEMENT_3D('',#1531,#1243,#1244);
#987=AXIS2_PLACEMENT_3D('',#1532,#1245,#1246);
#988=AXIS2_PLACEMENT_3D('',#1533,#1247,#1248);
#989=AXIS2_PLACEMENT_3D('',#1534,#1249,#1250);
#990=AXIS2_PLACEMENT_3D('',#1536,#1252,#1253);
#991=AXIS2_PLACEMENT_3D('',#1538,#1255,#1256);
#992=AXIS2_PLACEMENT_3D('',#1540,#1258,#1259);
#993=AXIS2_PLACEMENT_3D('',#1542,#1261,#1262);
#994=AXIS2_PLACEMENT_3D('',#1543,#1263,#1264);
#995=AXIS2_PLACEMENT_3D('',#1545,#1266,#1267);
#996=AXIS2_PLACEMENT_3D('',#1547,#1269,#1270);
#997=AXIS2_PLACEMENT_3D('',#1549,#1272,#1273);
#998=AXIS2_PLACEMENT_3D('',#1551,#1275,#1276);
#999=AXIS2_PLACEMENT_3D('',#1552,#1277,#1278);
#1000=AXIS2_PLACEMENT_3D('',#1553,#1279,#1280);
#1001=AXIS2_PLACEMENT_3D('',#1554,#1281,#1282);
#1002=AXIS2_PLACEMENT_3D('',#1555,#1283,#1284);
#1003=AXIS2_PLACEMENT_3D('',#1556,#1285,#1286);
#1004=AXIS2_PLACEMENT_3D('',#1557,#1287,#1288);
#1005=AXIS2_PLACEMENT_3D('',#1558,#1289,#1290);
#1006=DIRECTION('',(0.,0.,1.));
#1007=DIRECTION('',(1.,0.,0.));
#1008=DIRECTION('',(-1.81866170868536E-16,1.,0.));
#1009=DIRECTION('',(-1.,-1.81866170868536E-16,0.));
#1010=DIRECTION('',(-1.81866170868536E-16,1.,0.));
#1011=DIRECTION('',(-1.,-1.81866170868536E-16,0.));
#1012=DIRECTION('',(-1.81866170868536E-16,1.,0.));
#1013=DIRECTION('',(-1.,-1.81866170868536E-16,0.));
#1014=DIRECTION('',(1.,1.81866170868536E-16,0.));
#1015=DIRECTION('',(0.,0.,-1.));
#1016=DIRECTION('',(1.,1.81866170868536E-16,0.));
#1017=DIRECTION('',(0.,0.,-1.));
#1018=DIRECTION('',(-0.707106781186548,-0.707106781186547,0.));
#1019=DIRECTION('',(0.707106781186547,-0.707106781186548,0.));
#1020=DIRECTION('',(-0.707106781186548,0.707106781186548,0.));
#1021=DIRECTION('',(0.,0.,-1.));
#1022=DIRECTION('',(-0.707106781186548,0.707106781186548,0.));
#1023=DIRECTION('',(-0.707106781186548,0.707106781186547,0.));
#1024=DIRECTION('',(-0.707106781186547,-0.707106781186548,0.));
#1025=DIRECTION('',(0.707106781186547,0.707106781186548,0.));
#1026=DIRECTION('',(0.,0.,-1.));
#1027=DIRECTION('',(0.707106781186547,0.707106781186548,0.));
#1028=DIRECTION('',(0.,1.,0.));
#1029=DIRECTION('',(0.,0.,1.));
#1030=DIRECTION('',(0.,1.,0.));
#1031=DIRECTION('',(0.,0.,1.));
#1032=DIRECTION('',(0.,1.,0.));
#1033=DIRECTION('',(0.,0.,1.));
#1034=DIRECTION('',(0.,1.,0.));
#1035=DIRECTION('',(0.,0.,1.));
#1036=DIRECTION('',(0.,1.,0.));
#1037=DIRECTION('',(0.,0.,1.));
#1038=DIRECTION('',(0.,1.,0.));
#1039=DIRECTION('',(0.,0.,1.));
#1040=DIRECTION('',(0.,1.,0.));
#1041=DIRECTION('',(0.,0.,1.));
#1042=DIRECTION('',(0.,1.,0.));
#1043=DIRECTION('',(0.,0.,1.));
#1044=DIRECTION('',(0.,1.,0.));
#1045=DIRECTION('',(0.,0.,1.));
#1046=DIRECTION('',(1.,0.,0.));
#1047=DIRECTION('',(0.,0.,-1.));
#1048=DIRECTION('',(1.,0.,0.));
#1049=DIRECTION('',(1.,0.,0.));
#1050=DIRECTION('',(0.,1.,0.));
#1051=DIRECTION('',(0.,0.,1.));
#1052=DIRECTION('',(0.,1.,0.));
#1053=DIRECTION('',(0.,0.,1.));
#1054=DIRECTION('',(0.,1.,0.));
#1055=DIRECTION('',(0.,0.,1.));
#1056=DIRECTION('',(0.,1.,0.));
#1057=DIRECTION('',(0.,0.,1.));
#1058=DIRECTION('',(0.,1.,0.));
#1059=DIRECTION('',(0.,0.,1.));
#1060=DIRECTION('',(1.,0.,0.));
#1061=DIRECTION('',(0.,1.,0.));
#1062=DIRECTION('',(0.,0.,1.));
#1063=DIRECTION('',(1.,0.,0.));
#1064=DIRECTION('',(0.,1.,0.));
#1065=DIRECTION('',(0.,0.,1.));
#1066=DIRECTION('',(0.,1.,0.));
#1067=DIRECTION('',(0.,0.,1.));
#1068=DIRECTION('',(0.,1.,0.));
#1069=DIRECTION('',(0.,0.,1.));
#1070=DIRECTION('',(-0.707106781186548,-0.707106781186547,0.));
#1071=DIRECTION('',(0.707106781186547,-0.707106781186548,0.));
#1072=DIRECTION('',(-0.707106781186547,0.707106781186548,0.));
#1073=DIRECTION('',(0.,0.,-1.));
#1074=DIRECTION('',(-0.707106781186547,0.707106781186548,0.));
#1075=DIRECTION('',(-0.707106781186548,0.707106781186548,0.));
#1076=DIRECTION('',(-0.707106781186548,-0.707106781186548,0.));
#1077=DIRECTION('',(0.707106781186548,0.707106781186548,0.));
#1078=DIRECTION('',(0.707106781186548,0.707106781186548,0.));
#1079=DIRECTION('',(0.,0.,1.));
#1080=DIRECTION('',(1.,0.,0.));
#1081=DIRECTION('',(0.,0.,1.));
#1082=DIRECTION('',(1.,0.,0.));
#1083=DIRECTION('',(0.,-1.,0.));
#1084=DIRECTION('',(1.,0.,0.));
#1085=DIRECTION('',(0.,-1.,0.));
#1086=DIRECTION('',(0.,-1.,0.));
#1087=DIRECTION('',(1.,0.,0.));
#1088=DIRECTION('',(0.,-1.,0.));
#1089=DIRECTION('',(0.,1.,0.));
#1090=DIRECTION('',(0.,0.,1.));
#1091=DIRECTION('',(0.,1.,0.));
#1092=DIRECTION('',(0.,0.,1.));
#1093=DIRECTION('',(0.,1.,0.));
#1094=DIRECTION('',(0.,0.,1.));
#1095=DIRECTION('',(0.,1.,0.));
#1096=DIRECTION('',(0.,0.,1.));
#1097=DIRECTION('',(0.,-1.,0.));
#1098=DIRECTION('',(0.,0.,-1.));
#1099=DIRECTION('',(0.,-1.,0.));
#1100=DIRECTION('',(0.,0.,-1.));
#1101=DIRECTION('',(0.,-1.,0.));
#1102=DIRECTION('',(0.,0.,-1.));
#1103=DIRECTION('',(0.,-1.,0.));
#1104=DIRECTION('',(0.,0.,-1.));
#1105=DIRECTION('',(0.,1.,0.));
#1106=DIRECTION('',(0.,0.,1.));
#1107=DIRECTION('',(0.,-1.,0.));
#1108=DIRECTION('',(0.,0.,-1.));
#1109=DIRECTION('',(0.,-1.,0.));
#1110=DIRECTION('',(1.,0.,0.));
#1111=DIRECTION('',(0.,1.,0.));
#1112=DIRECTION('',(0.,0.,1.));
#1113=DIRECTION('',(0.,-1.,0.));
#1114=DIRECTION('',(0.,0.,-1.));
#1115=DIRECTION('',(0.,-1.,0.));
#1116=DIRECTION('',(0.,0.,-1.));
#1117=DIRECTION('',(0.,-1.,0.));
#1118=DIRECTION('',(0.,0.,-1.));
#1119=DIRECTION('',(0.,-1.,0.));
#1120=DIRECTION('',(0.,0.,-1.));
#1121=DIRECTION('',(0.,-1.,0.));
#1122=DIRECTION('',(0.,1.,0.));
#1123=DIRECTION('',(0.,0.,1.));
#1124=DIRECTION('',(0.,-1.,0.));
#1125=DIRECTION('',(0.,-1.,0.));
#1126=DIRECTION('',(0.,0.,-1.));
#1127=DIRECTION('',(0.,-1.,0.));
#1128=DIRECTION('',(0.,0.,-1.));
#1129=DIRECTION('',(0.,-1.,0.));
#1130=DIRECTION('',(1.,0.,0.));
#1131=DIRECTION('',(0.,1.,0.));
#1132=DIRECTION('',(0.,0.,1.));
#1133=DIRECTION('',(0.,-1.,0.));
#1134=DIRECTION('',(0.,0.,-1.));
#1135=DIRECTION('',(0.,-1.,0.));
#1136=DIRECTION('',(0.,0.,-1.));
#1137=DIRECTION('',(0.,-1.,0.));
#1138=DIRECTION('',(0.,0.,-1.));
#1139=DIRECTION('',(0.,-1.,0.));
#1140=DIRECTION('',(0.,0.,-1.));
#1141=DIRECTION('',(0.,1.,0.));
#1142=DIRECTION('',(0.,0.,1.));
#1143=DIRECTION('',(0.,-1.,0.));
#1144=DIRECTION('',(0.,0.,-1.));
#1145=DIRECTION('',(0.,-1.,0.));
#1146=DIRECTION('',(1.,0.,0.));
#1147=DIRECTION('',(0.,1.,0.));
#1148=DIRECTION('',(0.,0.,1.));
#1149=DIRECTION('',(0.,-1.,0.));
#1150=DIRECTION('',(0.,0.,-1.));
#1151=DIRECTION('',(0.,-1.,0.));
#1152=DIRECTION('',(0.,0.,-1.));
#1153=DIRECTION('',(0.,-1.,0.));
#1154=DIRECTION('',(0.,0.,-1.));
#1155=DIRECTION('',(0.,-1.,0.));
#1156=DIRECTION('',(0.,0.,-1.));
#1157=DIRECTION('',(0.,-1.,0.));
#1158=DIRECTION('',(0.,1.,0.));
#1159=DIRECTION('',(0.,0.,1.));
#1160=DIRECTION('',(0.,-1.,0.));
#1161=DIRECTION('',(0.,-1.,0.));
#1162=DIRECTION('',(0.,0.,-1.));
#1163=DIRECTION('',(0.,-1.,0.));
#1164=DIRECTION('',(0.,0.,-1.));
#1165=DIRECTION('',(0.,-1.,0.));
#1166=DIRECTION('',(1.,0.,0.));
#1167=DIRECTION('',(0.,1.,0.));
#1168=DIRECTION('',(0.,0.,1.));
#1169=DIRECTION('',(0.,-1.,0.));
#1170=DIRECTION('',(0.,0.,-1.));
#1171=DIRECTION('',(0.,-1.,0.));
#1172=DIRECTION('',(0.,1.,0.));
#1173=DIRECTION('',(0.,0.,1.));
#1174=DIRECTION('',(0.,-1.,0.));
#1175=DIRECTION('',(0.,0.,-1.));
#1176=DIRECTION('',(0.,-1.,0.));
#1177=DIRECTION('',(0.,0.,-1.));
#1178=DIRECTION('',(0.,1.,0.));
#1179=DIRECTION('',(0.,0.,1.));
#1180=DIRECTION('',(0.,-1.,0.));
#1181=DIRECTION('',(0.,-1.,0.));
#1182=DIRECTION('',(0.,0.,-1.));
#1183=DIRECTION('',(0.,-1.,0.));
#1184=DIRECTION('',(1.,0.,0.));
#1185=DIRECTION('',(0.,-1.,0.));
#1186=DIRECTION('',(0.,0.,-1.));
#1187=DIRECTION('',(0.,-1.,0.));
#1188=DIRECTION('',(0.,0.,-1.));
#1189=DIRECTION('',(0.,-1.,0.));
#1190=DIRECTION('',(0.,0.,-1.));
#1191=DIRECTION('',(0.,-1.,0.));
#1192=DIRECTION('',(0.,1.,0.));
#1193=DIRECTION('',(0.,0.,1.));
#1194=DIRECTION('',(0.,-1.,0.));
#1195=DIRECTION('',(0.,0.,-1.));
#1196=DIRECTION('',(0.,-1.,0.));
#1197=DIRECTION('',(0.,0.,-1.));
#1198=DIRECTION('',(0.,1.,0.));
#1199=DIRECTION('',(0.,0.,1.));
#1200=DIRECTION('',(0.,-1.,0.));
#1201=DIRECTION('',(0.,-1.,0.));
#1202=DIRECTION('',(0.,0.,-1.));
#1203=DIRECTION('',(0.,-1.,0.));
#1204=DIRECTION('',(1.,0.,0.));
#1205=DIRECTION('',(0.,-1.,0.));
#1206=DIRECTION('',(0.,0.,-1.));
#1207=DIRECTION('',(0.,-1.,0.));
#1208=DIRECTION('',(0.,0.,-1.));
#1209=DIRECTION('',(0.,-1.,0.));
#1210=DIRECTION('',(0.,0.,-1.));
#1211=DIRECTION('',(0.,1.,0.));
#1212=DIRECTION('',(0.,0.,1.));
#1213=DIRECTION('',(0.,-1.,0.));
#1214=DIRECTION('',(0.,0.,-1.));
#1215=DIRECTION('',(0.,-1.,0.));
#1216=DIRECTION('',(1.,0.,0.));
#1217=DIRECTION('',(0.,-1.,0.));
#1218=DIRECTION('',(0.,0.,-1.));
#1219=DIRECTION('',(0.,1.,0.));
#1220=DIRECTION('',(0.,0.,1.));
#1221=DIRECTION('',(0.,-1.,0.));
#1222=DIRECTION('',(0.,0.,-1.));
#1223=DIRECTION('',(0.,-1.,0.));
#1224=DIRECTION('',(1.,0.,0.));
#1225=DIRECTION('',(0.,-1.,0.));
#1226=DIRECTION('',(0.,0.,-1.));
#1227=DIRECTION('',(0.,1.,0.));
#1228=DIRECTION('',(0.,0.,1.));
#1229=DIRECTION('',(0.,-1.,0.));
#1230=DIRECTION('',(0.,0.,-1.));
#1231=DIRECTION('',(0.,-1.,0.));
#1232=DIRECTION('',(1.,0.,0.));
#1233=DIRECTION('',(0.,-1.,0.));
#1234=DIRECTION('',(0.,0.,-1.));
#1235=DIRECTION('',(0.,1.,0.));
#1236=DIRECTION('',(0.,0.,1.));
#1237=DIRECTION('',(0.,1.,0.));
#1238=DIRECTION('',(0.,0.,1.));
#1239=DIRECTION('',(0.,1.,0.));
#1240=DIRECTION('',(0.,0.,1.));
#1241=DIRECTION('',(0.,-1.,0.));
#1242=DIRECTION('',(0.,0.,-1.));
#1243=DIRECTION('',(0.,1.,0.));
#1244=DIRECTION('',(0.,0.,1.));
#1245=DIRECTION('',(0.,1.,0.));
#1246=DIRECTION('',(0.,0.,1.));
#1247=DIRECTION('',(0.,1.,0.));
#1248=DIRECTION('',(0.,0.,1.));
#1249=DIRECTION('',(0.,-1.,0.));
#1250=DIRECTION('',(0.,0.,-1.));
#1251=DIRECTION('',(-0.69207854603164,0.707106781186551,-0.145007882967533));
#1252=DIRECTION('',(0.,1.,0.));
#1253=DIRECTION('',(0.,0.,1.));
#1254=DIRECTION('',(-0.366809426685833,0.707106781186549,0.604525305090208));
#1255=DIRECTION('',(0.,-1.,0.));
#1256=DIRECTION('',(0.,0.,-1.));
#1257=DIRECTION('',(0.692078546031645,0.707106781186547,0.145007882967532));
#1258=DIRECTION('',(0.,1.,0.));
#1259=DIRECTION('',(0.,0.,1.));
#1260=DIRECTION('',(0.366809426685832,0.707106781186547,-0.604525305090211));
#1261=DIRECTION('',(0.,-1.,0.));
#1262=DIRECTION('',(0.,0.,-1.));
#1263=DIRECTION('',(0.,-1.,0.));
#1264=DIRECTION('',(0.,0.,-1.));
#1265=DIRECTION('',(-0.366809426685832,0.707106781186546,-0.604525305090211));
#1266=DIRECTION('',(0.,1.,0.));
#1267=DIRECTION('',(0.,0.,1.));
#1268=DIRECTION('',(-0.69207854603165,0.707106781186542,0.145007882967531));
#1269=DIRECTION('',(0.,-1.,0.));
#1270=DIRECTION('',(0.,0.,-1.));
#1271=DIRECTION('',(0.366809426685832,0.707106781186547,0.604525305090211));
#1272=DIRECTION('',(0.,1.,0.));
#1273=DIRECTION('',(0.,0.,1.));
#1274=DIRECTION('',(0.692078546031645,0.707106781186547,-0.145007882967532));
#1275=DIRECTION('',(0.,-1.,0.));
#1276=DIRECTION('',(0.,0.,-1.));
#1277=DIRECTION('',(0.,-1.,0.));
#1278=DIRECTION('',(0.,0.,-1.));
#1279=DIRECTION('',(0.,-1.,0.));
#1280=DIRECTION('',(0.,0.,-1.));
#1281=DIRECTION('',(0.,-1.,0.));
#1282=DIRECTION('',(0.,0.,-1.));
#1283=DIRECTION('',(0.,-1.,0.));
#1284=DIRECTION('',(0.,0.,-1.));
#1285=DIRECTION('',(0.,-1.,0.));
#1286=DIRECTION('',(0.,0.,-1.));
#1287=DIRECTION('',(0.,1.,0.));
#1288=DIRECTION('',(0.,0.,1.));
#1289=DIRECTION('',(0.,1.,0.));
#1290=DIRECTION('',(0.,0.,1.));
#1291=CARTESIAN_POINT('',(0.,0.,0.));
#1292=CARTESIAN_POINT('',(0.,-0.004,0.016));
#1293=CARTESIAN_POINT('',(-0.01335,-0.004,4.99043570652547E-19));
#1294=CARTESIAN_POINT('',(-0.0215,-0.004,4.99043570652547E-19));
#1295=CARTESIAN_POINT('',(0.01335,-0.004,4.99043570652547E-19));
#1296=CARTESIAN_POINT('',(0.0052,-0.004,4.99043570652547E-19));
#1297=CARTESIAN_POINT('',(0.,-0.004,-0.016));
#1298=CARTESIAN_POINT('',(-0.031,-0.004,-0.016));
#1299=CARTESIAN_POINT('',(0.031,-0.004,-0.016));
#1300=CARTESIAN_POINT('',(0.031,-0.004,0.016));
#1301=CARTESIAN_POINT('',(0.031,-0.004,0.016));
#1302=CARTESIAN_POINT('',(0.,-0.004,0.016));
#1303=CARTESIAN_POINT('',(-0.031,-0.004,0.016));
#1304=CARTESIAN_POINT('',(-0.031,-0.004,0.016));
#1305=CARTESIAN_POINT('',(0.03,-0.003,0.016));
#1306=CARTESIAN_POINT('',(0.03,-0.003,-0.016));
#1307=CARTESIAN_POINT('',(0.029,-0.002,-0.016));
#1308=CARTESIAN_POINT('',(0.029,-0.002,0.016));
#1309=CARTESIAN_POINT('',(0.029,-0.002,0.016));
#1310=CARTESIAN_POINT('',(0.03,-0.003,0.016));
#1311=CARTESIAN_POINT('',(0.03,-0.001,0.016));
#1312=CARTESIAN_POINT('',(0.03,-0.001,-0.016));
#1313=CARTESIAN_POINT('',(0.031,0.,-0.016));
#1314=CARTESIAN_POINT('',(0.031,0.,0.016));
#1315=CARTESIAN_POINT('',(0.031,0.,0.016));
#1316=CARTESIAN_POINT('',(0.03,-0.001,0.016));
#1317=CARTESIAN_POINT('',(0.,0.,0.016));
#1318=CARTESIAN_POINT('',(-0.01325,0.,0.0125));
#1319=CARTESIAN_POINT('',(-0.01325,0.,0.01575));
#1320=CARTESIAN_POINT('',(0.01325,0.,0.0125));
#1321=CARTESIAN_POINT('',(0.01325,0.,0.01575));
#1322=CARTESIAN_POINT('',(-0.0212,0.,0.0087));
#1323=CARTESIAN_POINT('',(-0.0212,0.,0.01195));
#1324=CARTESIAN_POINT('',(0.0212,0.,0.0087));
#1325=CARTESIAN_POINT('',(0.0212,0.,0.01195));
#1326=CARTESIAN_POINT('',(0.01335,0.,4.99043570652547E-19));
#1327=CARTESIAN_POINT('',(0.01335,0.,0.0084));
#1328=CARTESIAN_POINT('',(-0.01335,0.,4.99043570652547E-19));
#1329=CARTESIAN_POINT('',(-0.01335,0.,0.0084));
#1330=CARTESIAN_POINT('',(-0.026093734330127,0.,-0.00972536057371846));
#1331=CARTESIAN_POINT('',(-0.0243809273145826,0.,-0.009366484372917));
#1332=CARTESIAN_POINT('',(-0.0251859273145826,0.,-0.011221484372917));
#1333=CARTESIAN_POINT('',(-0.0235,0.,-0.014));
#1334=CARTESIAN_POINT('',(-0.0260617376914899,0.,-0.016));
#1335=CARTESIAN_POINT('',(0.,0.,-0.016));
#1336=CARTESIAN_POINT('',(-0.031,-3.46944695195361E-18,-0.016));
#1337=CARTESIAN_POINT('',(-0.031,-3.46944695195361E-18,0.016));
#1338=CARTESIAN_POINT('',(-0.031,-3.46944695195361E-18,0.016));
#1339=CARTESIAN_POINT('',(0.,0.,0.016));
#1340=CARTESIAN_POINT('',(0.,0.,-0.016));
#1341=CARTESIAN_POINT('',(0.0260617376914899,0.,-0.016));
#1342=CARTESIAN_POINT('',(0.0235,0.,-0.014));
#1343=CARTESIAN_POINT('',(0.0251859273145826,0.,-0.011221484372917));
#1344=CARTESIAN_POINT('',(0.026093734330127,0.,-0.00972536057371846));
#1345=CARTESIAN_POINT('',(0.0243809273145826,0.,-0.009366484372917));
#1346=CARTESIAN_POINT('',(0.0212,0.,-0.0087));
#1347=CARTESIAN_POINT('',(0.0195140726854175,0.,-0.011478515627083));
#1348=CARTESIAN_POINT('',(0.018606265669873,0.,-0.0129746394262815));
#1349=CARTESIAN_POINT('',(0.0203190726854175,0.,-0.013333515627083));
#1350=CARTESIAN_POINT('',(0.0235,0.,-0.014));
#1351=CARTESIAN_POINT('',(0.0209382623085101,0.,-0.016));
#1352=CARTESIAN_POINT('',(0.,0.,-0.016));
#1353=CARTESIAN_POINT('',(0.00125,0.,-0.016));
#1354=CARTESIAN_POINT('',(-3.06161699786838E-19,0.,-0.013));
#1355=CARTESIAN_POINT('',(-0.00125,0.,-0.016));
#1356=CARTESIAN_POINT('',(0.,0.,-0.016));
#1357=CARTESIAN_POINT('',(-0.0209382623085101,0.,-0.016));
#1358=CARTESIAN_POINT('',(-0.0235,0.,-0.014));
#1359=CARTESIAN_POINT('',(-0.0203190726854175,0.,-0.013333515627083));
#1360=CARTESIAN_POINT('',(-0.018606265669873,0.,-0.0129746394262815));
#1361=CARTESIAN_POINT('',(-0.0195140726854175,0.,-0.011478515627083));
#1362=CARTESIAN_POINT('',(-0.0212,0.,-0.0087));
#1363=CARTESIAN_POINT('',(-0.03,-0.001,0.016));
#1364=CARTESIAN_POINT('',(-0.03,-0.001,-0.016));
#1365=CARTESIAN_POINT('',(-0.029,-0.002,-0.016));
#1366=CARTESIAN_POINT('',(-0.029,-0.002,0.016));
#1367=CARTESIAN_POINT('',(-0.029,-0.002,0.016));
#1368=CARTESIAN_POINT('',(-0.03,-0.001,0.016));
#1369=CARTESIAN_POINT('',(-0.03,-0.003,0.016));
#1370=CARTESIAN_POINT('',(-0.03,-0.003,-0.016));
#1371=CARTESIAN_POINT('',(-0.03,-0.003,0.016));
#1372=CARTESIAN_POINT('',(0.,-0.002,0.016));
#1373=CARTESIAN_POINT('',(0.,-0.002,-0.016));
#1374=CARTESIAN_POINT('',(-0.0260617376914899,0.,-0.016));
#1375=CARTESIAN_POINT('',(-0.02595424950173,8.47250914147879E-5,-0.016));
#1376=CARTESIAN_POINT('',(-0.0258458061900353,0.000168205965680415,-0.016));
#1377=CARTESIAN_POINT('',(-0.0257360679774998,0.000250000000000007,-0.016));
#1378=CARTESIAN_POINT('',(-0.0257360679774998,0.00025,-0.016));
#1379=CARTESIAN_POINT('',(-0.0257360679774998,0.0015,-0.016));
#1380=CARTESIAN_POINT('',(-0.0257360679774998,0.0015,-0.016));
#1381=CARTESIAN_POINT('',(-0.0235,0.0015,-0.016));
#1382=CARTESIAN_POINT('',(-0.0212639320225002,0.0015,-0.016));
#1383=CARTESIAN_POINT('',(-0.0212639320225002,0.0015,-0.016));
#1384=CARTESIAN_POINT('',(-0.0212639320225002,0.00025,-0.016));
#1385=CARTESIAN_POINT('',(-0.0212639320225002,0.00025,-0.016));
#1386=CARTESIAN_POINT('',(-0.0211541938099647,0.000168205965680406,-0.016));
#1387=CARTESIAN_POINT('',(-0.02104575049827,8.47250914147943E-5,-0.016));
#1388=CARTESIAN_POINT('',(-0.0209382623085101,4.62610006483505E-18,-0.016));
#1389=CARTESIAN_POINT('',(-0.00125,0.,-0.016));
#1390=CARTESIAN_POINT('',(-0.000847619047619047,0.000154761904761905,-0.016));
#1391=CARTESIAN_POINT('',(-0.000433333333333333,0.00025,-0.016));
#1392=CARTESIAN_POINT('',(2.86510487377681E-19,0.00025,-0.016));
#1393=CARTESIAN_POINT('',(3.25260651745652E-19,0.00025,-0.016));
#1394=CARTESIAN_POINT('',(3.25260651745652E-19,0.00025,-0.016));
#1395=CARTESIAN_POINT('',(0.000431377498170284,0.00025,-0.016));
#1396=CARTESIAN_POINT('',(0.000848617364171178,0.000154377936857239,-0.016));
#1397=CARTESIAN_POINT('',(0.00125,-1.8160409136599E-19,-0.016));
#1398=CARTESIAN_POINT('',(0.0209382623085101,0.,-0.016));
#1399=CARTESIAN_POINT('',(0.02104575049827,8.47250914147886E-5,-0.016));
#1400=CARTESIAN_POINT('',(0.0211541938099647,0.000168205965680413,-0.016));
#1401=CARTESIAN_POINT('',(0.0212639320225002,0.000250000000000006,-0.016));
#1402=CARTESIAN_POINT('',(0.0212639320225002,0.00025,-0.016));
#1403=CARTESIAN_POINT('',(0.0212639320225002,0.0015,-0.016));
#1404=CARTESIAN_POINT('',(0.0212639320225002,0.0015,-0.016));
#1405=CARTESIAN_POINT('',(0.0235,0.0015,-0.016));
#1406=CARTESIAN_POINT('',(0.0257360679774998,0.0015,-0.016));
#1407=CARTESIAN_POINT('',(0.0257360679774998,0.0015,-0.016));
#1408=CARTESIAN_POINT('',(0.0257360679774998,0.00025,-0.016));
#1409=CARTESIAN_POINT('',(0.0257360679774998,0.00025,-0.016));
#1410=CARTESIAN_POINT('',(0.0258458061900353,0.000168205965680407,-0.016));
#1411=CARTESIAN_POINT('',(0.02595424950173,8.47250914147923E-5,-0.016));
#1412=CARTESIAN_POINT('',(0.0260617376914899,4.20965857038464E-18,-0.016));
#1413=CARTESIAN_POINT('',(0.01335,-0.0698956208386246,4.99043570652547E-19));
#1414=CARTESIAN_POINT('',(0.01335,-0.00025,4.99043570652547E-19));
#1415=CARTESIAN_POINT('',(0.01335,-0.00025,0.00815));
#1416=CARTESIAN_POINT('',(-0.01335,-0.0698956208386246,4.99043570652547E-19));
#1417=CARTESIAN_POINT('',(-0.01335,-0.00025,4.99043570652547E-19));
#1418=CARTESIAN_POINT('',(-0.01335,-0.00025,0.00815));
#1419=CARTESIAN_POINT('',(0.0212,0.003,0.0087));
#1420=CARTESIAN_POINT('',(0.0212,0.003,0.0087));
#1421=CARTESIAN_POINT('',(0.0212,0.003,0.0077));
#1422=CARTESIAN_POINT('',(0.0212,0.,0.0087));
#1423=CARTESIAN_POINT('',(0.0212,0.,0.0077));
#1424=CARTESIAN_POINT('',(0.0212,0.003,0.0087));
#1425=CARTESIAN_POINT('',(0.0212,0.00025,0.0087));
#1426=CARTESIAN_POINT('',(0.0212,0.00025,0.0117));
#1427=CARTESIAN_POINT('',(0.0212,0.003,0.0087));
#1428=CARTESIAN_POINT('',(0.0212,0.003,0.0057));
#1429=CARTESIAN_POINT('',(0.,0.003,0.));
#1430=CARTESIAN_POINT('',(0.,0.,0.016));
#1431=CARTESIAN_POINT('',(-0.0212,0.003,-0.0087));
#1432=CARTESIAN_POINT('',(-0.0212,0.003,-0.0087));
#1433=CARTESIAN_POINT('',(-0.0212,0.003,-0.0097));
#1434=CARTESIAN_POINT('',(-0.0212,0.,-0.0087));
#1435=CARTESIAN_POINT('',(-0.0212,0.,-0.0097));
#1436=CARTESIAN_POINT('',(-0.0212,0.003,-0.0087));
#1437=CARTESIAN_POINT('',(-0.0241362405980762,0.003,-0.00931521634423108));
#1438=CARTESIAN_POINT('',(-0.0241362405980762,0.0015,-0.00931521634423108));
#1439=CARTESIAN_POINT('',(-0.0241362405980762,0.00025,-0.00931521634423108));
#1440=CARTESIAN_POINT('',(-0.0212,0.00025,-0.0087));
#1441=CARTESIAN_POINT('',(-0.0196437594019238,0.00025,-0.0112647836557689));
#1442=CARTESIAN_POINT('',(-0.0196437594019238,0.003,-0.0112647836557689));
#1443=CARTESIAN_POINT('',(-0.0196437594019238,0.0015,-0.0112647836557689));
#1444=CARTESIAN_POINT('',(-0.0212,0.0015,-0.0087));
#1445=CARTESIAN_POINT('',(-0.0212,0.003,-0.0087));
#1446=CARTESIAN_POINT('',(-0.0212,0.003,-0.0117));
#1447=CARTESIAN_POINT('',(0.,0.003,0.));
#1448=CARTESIAN_POINT('',(0.,0.,0.016));
#1449=CARTESIAN_POINT('',(-0.0212,0.003,0.0087));
#1450=CARTESIAN_POINT('',(-0.0212,0.003,0.0087));
#1451=CARTESIAN_POINT('',(-0.0212,0.003,0.0077));
#1452=CARTESIAN_POINT('',(-0.0212,0.,0.0087));
#1453=CARTESIAN_POINT('',(-0.0212,0.,0.0077));
#1454=CARTESIAN_POINT('',(-0.0212,0.003,0.0087));
#1455=CARTESIAN_POINT('',(-0.0212,0.00025,0.0087));
#1456=CARTESIAN_POINT('',(-0.0212,0.00025,0.0117));
#1457=CARTESIAN_POINT('',(-0.0212,0.003,0.0087));
#1458=CARTESIAN_POINT('',(-0.0212,0.003,0.0057));
#1459=CARTESIAN_POINT('',(0.,0.003,0.));
#1460=CARTESIAN_POINT('',(0.,0.,0.016));
#1461=CARTESIAN_POINT('',(0.0212,0.003,-0.0087));
#1462=CARTESIAN_POINT('',(0.0212,0.003,-0.0087));
#1463=CARTESIAN_POINT('',(0.0212,0.003,-0.0097));
#1464=CARTESIAN_POINT('',(0.0212,0.,-0.0087));
#1465=CARTESIAN_POINT('',(0.0212,0.,-0.0097));
#1466=CARTESIAN_POINT('',(0.0212,0.003,-0.0087));
#1467=CARTESIAN_POINT('',(0.0196437594019238,0.003,-0.0112647836557689));
#1468=CARTESIAN_POINT('',(0.0196437594019238,0.0015,-0.0112647836557689));
#1469=CARTESIAN_POINT('',(0.0196437594019238,0.00025,-0.0112647836557689));
#1470=CARTESIAN_POINT('',(0.0212,0.00025,-0.0087));
#1471=CARTESIAN_POINT('',(0.0241362405980762,0.00025,-0.00931521634423108));
#1472=CARTESIAN_POINT('',(0.0241362405980762,0.003,-0.00931521634423108));
#1473=CARTESIAN_POINT('',(0.0241362405980762,0.0015,-0.00931521634423108));
#1474=CARTESIAN_POINT('',(0.0212,0.0015,-0.0087));
#1475=CARTESIAN_POINT('',(0.0212,0.003,-0.0087));
#1476=CARTESIAN_POINT('',(0.0212,0.003,-0.0117));
#1477=CARTESIAN_POINT('',(0.,0.003,0.));
#1478=CARTESIAN_POINT('',(0.,0.,0.016));
#1479=CARTESIAN_POINT('',(0.0235,0.0015,-0.014));
#1480=CARTESIAN_POINT('',(0.0250562405980762,0.0015,-0.0114352163442311));
#1481=CARTESIAN_POINT('',(0.0250562405980762,0.0015,-0.0114352163442311));
#1482=CARTESIAN_POINT('',(0.0250562405980762,0.00025,-0.0114352163442311));
#1483=CARTESIAN_POINT('',(0.0235,0.00025,-0.014));
#1484=CARTESIAN_POINT('',(0.0235,0.0015,-0.014));
#1485=CARTESIAN_POINT('',(0.0235,0.0015,-0.014));
#1486=CARTESIAN_POINT('',(0.0235,0.00025,-0.014));
#1487=CARTESIAN_POINT('',(0.0205637594019238,0.00025,-0.0133847836557689));
#1488=CARTESIAN_POINT('',(0.0205637594019238,0.0015,-0.0133847836557689));
#1489=CARTESIAN_POINT('',(0.0205637594019238,0.0015,-0.0133847836557689));
#1490=CARTESIAN_POINT('',(0.0235,0.0015,-0.014));
#1491=CARTESIAN_POINT('',(-6.93889390390723E-18,0.0015,-0.003));
#1492=CARTESIAN_POINT('',(0.026093734330127,0.0015,-0.00972536057371846));
#1493=CARTESIAN_POINT('',(0.018606265669873,0.0015,-0.0129746394262815));
#1494=CARTESIAN_POINT('',(-0.0235,0.0015,-0.014));
#1495=CARTESIAN_POINT('',(-0.0205637594019238,0.0015,-0.0133847836557689));
#1496=CARTESIAN_POINT('',(-0.0205637594019238,0.0015,-0.0133847836557689));
#1497=CARTESIAN_POINT('',(-0.0205637594019238,0.00025,-0.0133847836557689));
#1498=CARTESIAN_POINT('',(-0.0235,0.00025,-0.014));
#1499=CARTESIAN_POINT('',(-0.0235,0.0015,-0.014));
#1500=CARTESIAN_POINT('',(-0.0235,0.0015,-0.014));
#1501=CARTESIAN_POINT('',(-0.0235,0.00025,-0.014));
#1502=CARTESIAN_POINT('',(-0.0250562405980762,0.00025,-0.0114352163442311));
#1503=CARTESIAN_POINT('',(-0.0250562405980762,0.0015,-0.0114352163442311));
#1504=CARTESIAN_POINT('',(-0.0250562405980762,0.0015,-0.0114352163442311));
#1505=CARTESIAN_POINT('',(-0.0235,0.0015,-0.014));
#1506=CARTESIAN_POINT('',(-6.93889390390723E-18,0.0015,-0.003));
#1507=CARTESIAN_POINT('',(-0.018606265669873,0.0015,-0.0129746394262815));
#1508=CARTESIAN_POINT('',(-0.026093734330127,0.0015,-0.00972536057371846));
#1509=CARTESIAN_POINT('',(-0.01325,0.0015,0.0125));
#1510=CARTESIAN_POINT('',(-0.01325,0.00025,0.0125));
#1511=CARTESIAN_POINT('',(-0.01325,0.00025,0.0155));
#1512=CARTESIAN_POINT('',(-0.01325,0.0015,0.0125));
#1513=CARTESIAN_POINT('',(-0.01325,0.0015,0.0095));
#1514=CARTESIAN_POINT('',(-6.93889390390723E-18,0.0015,-0.003));
#1515=CARTESIAN_POINT('',(0.01325,0.0015,0.0125));
#1516=CARTESIAN_POINT('',(0.01325,0.00025,0.0125));
#1517=CARTESIAN_POINT('',(0.01325,0.00025,0.0155));
#1518=CARTESIAN_POINT('',(0.01325,0.0015,0.0125));
#1519=CARTESIAN_POINT('',(0.01325,0.0015,0.0095));
#1520=CARTESIAN_POINT('',(-6.93889390390723E-18,0.0015,-0.003));
#1521=CARTESIAN_POINT('',(-3.06161699786838E-19,0.0015,-0.013));
#1522=CARTESIAN_POINT('',(-3.06161699786838E-19,0.00025,-0.013));
#1523=CARTESIAN_POINT('',(-3.06161699786838E-19,0.0015,-0.013));
#1524=CARTESIAN_POINT('',(-3.06161699786838E-19,0.0015,-0.016));
#1525=CARTESIAN_POINT('',(-6.93889390390723E-18,0.0015,-0.003));
#1526=CARTESIAN_POINT('',(-0.026093734330127,0.003,-0.00972536057371846));
#1527=CARTESIAN_POINT('',(-0.026093734330127,0.00025,-0.00972536057371846));
#1528=CARTESIAN_POINT('',(-0.018606265669873,0.003,-0.0129746394262815));
#1529=CARTESIAN_POINT('',(-0.018606265669873,0.00025,-0.0129746394262815));
#1530=CARTESIAN_POINT('',(0.018606265669873,0.003,-0.0129746394262815));
#1531=CARTESIAN_POINT('',(0.018606265669873,0.00025,-0.0129746394262815));
#1532=CARTESIAN_POINT('',(0.026093734330127,0.003,-0.00972536057371846));
#1533=CARTESIAN_POINT('',(0.026093734330127,0.00025,-0.00972536057371846));
#1534=CARTESIAN_POINT('',(-0.0235,0.,-0.014));
#1535=CARTESIAN_POINT('',(-0.0203190726854175,0.,-0.013333515627083));
#1536=CARTESIAN_POINT('',(-0.018606265669873,0.,-0.0129746394262815));
#1537=CARTESIAN_POINT('',(-0.0195140726854175,0.,-0.011478515627083));
#1538=CARTESIAN_POINT('',(-0.0212,0.,-0.0087));
#1539=CARTESIAN_POINT('',(-0.0243809273145826,0.,-0.009366484372917));
#1540=CARTESIAN_POINT('',(-0.026093734330127,0.,-0.00972536057371846));
#1541=CARTESIAN_POINT('',(-0.0251859273145826,0.,-0.011221484372917));
#1542=CARTESIAN_POINT('',(-0.0235,0.,-0.014));
#1543=CARTESIAN_POINT('',(0.0235,0.,-0.014));
#1544=CARTESIAN_POINT('',(0.0251859273145826,0.,-0.011221484372917));
#1545=CARTESIAN_POINT('',(0.026093734330127,0.,-0.00972536057371846));
#1546=CARTESIAN_POINT('',(0.0243809273145826,0.,-0.009366484372917));
#1547=CARTESIAN_POINT('',(0.0212,0.,-0.0087));
#1548=CARTESIAN_POINT('',(0.0195140726854175,0.,-0.011478515627083));
#1549=CARTESIAN_POINT('',(0.018606265669873,0.,-0.0129746394262815));
#1550=CARTESIAN_POINT('',(0.0203190726854175,0.,-0.013333515627083));
#1551=CARTESIAN_POINT('',(0.0235,0.,-0.014));
#1552=CARTESIAN_POINT('',(-0.01325,0.00025,0.0125));
#1553=CARTESIAN_POINT('',(0.01325,0.00025,0.0125));
#1554=CARTESIAN_POINT('',(-3.06161699786838E-19,0.,-0.013));
#1555=CARTESIAN_POINT('',(-0.0212,0.,0.0087));
#1556=CARTESIAN_POINT('',(0.0212,0.,0.0087));
#1557=CARTESIAN_POINT('',(0.01335,0.,4.99043570652547E-19));
#1558=CARTESIAN_POINT('',(-0.01335,0.,4.99043570652547E-19));
#1559=MECHANICAL_DESIGN_GEOMETRIC_PRESENTATION_REPRESENTATION('',(#874),
#1560);
#1560=(
GEOMETRIC_REPRESENTATION_CONTEXT(3)
GLOBAL_UNCERTAINTY_ASSIGNED_CONTEXT((#1561))
GLOBAL_UNIT_ASSIGNED_CONTEXT((#1564,#1563,#1562))
REPRESENTATION_CONTEXT('pika','TOP_LEVEL_ASSEMBLY_PART')
);
#1561=UNCERTAINTY_MEASURE_WITH_UNIT(LENGTH_MEASURE(2.E-5),#1564,
'DISTANCE_ACCURACY_VALUE','Maximum Tolerance applied to model');
#1562=(
NAMED_UNIT(*)
SI_UNIT($,.STERADIAN.)
SOLID_ANGLE_UNIT()
);
#1563=(
NAMED_UNIT(*)
PLANE_ANGLE_UNIT()
SI_UNIT($,.RADIAN.)
);
#1564=(
LENGTH_UNIT()
NAMED_UNIT(*)
SI_UNIT($,.METRE.)
);
#1565=PRODUCT_DEFINITION_SHAPE('','',#1566);
#1566=PRODUCT_DEFINITION('','',#1568,#1567);
#1567=PRODUCT_DEFINITION_CONTEXT('',#1574,'design');
#1568=PRODUCT_DEFINITION_FORMATION_WITH_SPECIFIED_SOURCE('','',#1570,
 .NOT_KNOWN.);
#1569=PRODUCT_RELATED_PRODUCT_CATEGORY('','',(#1570));
#1570=PRODUCT('pika','pika','pika',(#1572));
#1571=PRODUCT_CATEGORY('','');
#1572=PRODUCT_CONTEXT('',#1574,'mechanical');
#1573=APPLICATION_PROTOCOL_DEFINITION('international standard',
'ap242_managed_model_based_3d_engineering',2020,#1574);
#1574=APPLICATION_CONTEXT('managed model based 3d engineering');
ENDSEC;
END-ISO-10303-21;
